/* XPM */
static char *xpm_[] = {
/* columns rows colors chars-per-pixel */
"40 40 65 1 ",
"  c #FE0F01",
". c #FF1301",
"X c #FF1B01",
"o c #FF2401",
"O c #FF2C01",
"+ c #FF3401",
"@ c #FF3B01",
"# c #FF4301",
"$ c #FF4B01",
"% c #FF5301",
"& c #FF5901",
"* c #FF5803",
"= c #FE5E01",
"- c #FF5E01",
"; c #FE5C03",
": c #FF590A",
"> c #FE6001",
", c #FE6401",
"< c #FE6501",
"1 c #FF6402",
"2 c #FF6304",
"3 c #FE6901",
"4 c #FE6B01",
"5 c #FF6B01",
"6 c #FE6C01",
"7 c #FF6E01",
"8 c #FF670A",
"9 c #FF6B08",
"0 c #FF7001",
"q c #FF7201",
"w c #FE7501",
"e c #FE7701",
"r c #FF7701",
"t c #FF7702",
"y c #FF7901",
"u c #FE7A01",
"i c #FE7B01",
"p c #FF7E01",
"a c #FF7C03",
"s c #FF7F02",
"d c #FF8001",
"f c #FE8101",
"g c #FE8201",
"h c #FE8601",
"j c #FF8601",
"k c #FE8701",
"l c #FE8901",
"z c #FE8B01",
"x c #FF8B01",
"c c #FF8F01",
"v c #FF9301",
"b c #FF9601",
"n c #FF9901",
"m c #FE9A01",
"M c #FF9C01",
"N c #FF9D02",
"B c #FFA001",
"V c #FFA301",
"C c #FFA701",
"Z c #FFA901",
"A c #FFAB01",
"S c #FFB101",
"D c #FFB302",
"F c #FFB801",
"G c #FFBA01",
/* pixels */
"Vj5&@@$;ix751,&%0bMcxp7&@+$;ix055,%%7bZS",
"Cx7&@O#;pd1&%%%;xmZMMj7&@+#;id1&%&%,jCFG",
"Cd1$+O+%11%$$&;0xMCmbp7&@++$71%$%&,7xVZS",
"r&#+o@#%&##&1517rjxcx5&#+@#%&##;55,77icb",
"oX..+;ir;@#rx0%$$1pji$OO+%77&@#px0$@+@%r",
"XX .@rxi&@#pj1+OO$dM8+X.@rxp&+#pj7@X.o@$",
"+@@@;xj1@Xo%,$oXO$5p9&@+;vc7#oO$;$Oo+@$$",
"+&110jr$O.X@@+oO#%;121;;7ci&OX.+@+O@#%%#",
"$5ii0r1$+OO+OOO#%111&5riii;#+OO++O+@$&$#",
"57ii1;;;171;$++@$1705rii1;%%;17;$#+@#%%;",
",71;%%5dbMvp1#++#;pd051,&$;rxmbp1$@+$1db",
",$$$%1jMZZVj7&@O+;pd;$##$;pbCZCj0;@O@;id",
"$$;;10jbMMmp5;#+O$71#@@$;7dvmmmi1%+++$;&",
"@7p0577rjxd1$$##@$;#@#%;;5rpjxp;$@+#$$$+",
"&jv0$##%7p;@oo@%;1;++1p7%$%;id&+XX+;pi;#",
";cbr#+O#50@o..@7di1+@7j1@OO#5r@X..@rd7#+",
"@%,%#@@$;;@+O+%dx,@oO&,%+o+#;;@+++&pd;O ",
"oO@##@$&%#@%;;7dr$o.X+@@++#$%#@$&,7jp%O.",
"@+@@@#$&%##1rerr5$+OoO+++@$&%##,riri7&#@",
"c,$@@@$%%%;7ip1,55,,,&$@@@$%%&;7ip,1,57x",
"xi,%@@$;0d7751;&7cMZmp,%@@$;7d7771;&0xbv",
"mj7&@O@;pp1%%&%1jCGGZc7&@O@;pd1%%%%;jVZm",
"mp7&@++%7,&$%&10xVZZCp,$+O+%11&$$&;0xmVm",
"x5&#+@#$&##;75177icvp&#+O@#%&##;7117rjcx",
"i$OO+%77;@#ic0$@+@%1+X..O;pr;@#ij0%#$1rx",
":+.X@rcp;+#ij5@X.o@#o...@ixp&+#ij7+OO%dC",
"8%@+&xc7#oo%;$Oo+@$$+@@@;xj1@oo&1$oXO#5j",
"22;,icr&+.XO@+O+#&%#@&110j0$O.X+@+oO#%,1",
";7riii;#+OO++++@$%$##5iir01$+OO++OO#&;11",
"57ii,;%&&,5;$@+@$%&;57ii1;;1117;#++@$,7r",
"7511%$;ixmbp1$@+#1pc7,1;%%5dbmvp1#+O#;ip",
";##$$&rvCCVc0;@O@&ip7$$$%1jmZZVj0&#O+;ix",
"@@@$;7pbmmMp,&+++$;&$$;;10jbVMmp5;#++$75",
"+#%;;7rpjxd;#@+#$$$+@7p0177ipxp1$$##@$&#",
"+1i5$$$;rd;OXX+;pi;#%jvr$@#%7d&@oo@%11;@",
"@rd5@+O$50@o..@rj7#@&vb7#@O#50#o..@7dp;@",
"O&1&OO+#;&@+++&dd;OX+%;%#@@$;&++++%pd2@X",
"X+@@++#$%#@%;17jp%o.XO@##@$%&#@%&&3jr%o.",
"OO+++@%&$##1riri7%#@#+@@##%&$##1riir5$+o",
"&$#@+@$$$$;7dd71,,5xv1#@+@$$$$;7pd522,;;"
};
