/* XPM */
static char *xpm_[] = {
/* columns rows colors chars-per-pixel */
"40 40 47 1 ",
"  c #B55945",
". c #B65B46",
"X c #B75C46",
"o c #B95D47",
"O c #BB6048",
"+ c #BC6149",
"@ c #BE6349",
"# c #C1664B",
"$ c #C1674B",
"% c #C2684C",
"& c #C56B4D",
"* c #C86E4E",
"= c #C86F4F",
"- c #C9704F",
"; c #CB7250",
": c #CC7250",
"> c #CC7351",
", c #CD7451",
"< c #D07753",
"1 c #D17853",
"2 c #D17953",
"3 c #D27954",
"4 c #D37B54",
"5 c #D47B55",
"6 c #D67E56",
"7 c #D77F56",
"8 c #D77F57",
"9 c #AAAA4F",
"0 c #C58852",
"q c #D78057",
"w c #D98157",
"e c #D98158",
"r c #DB8458",
"t c #DC8459",
"y c #DC8559",
"u c #D98B59",
"i c #DF885B",
"p c #E08A5B",
"a c #E18B5C",
"s c #E38C5D",
"d c #E58F5E",
"f c #E5905E",
"g c #E7915F",
"h c #E8925F",
"j c #E8935F",
"k c #E89360",
"l c #EB9661",
/* pixels */
"orllllllllllllllllllj&%wjllllg6<&Xo:+XX ",
"-plllllllllllllllllll4qgjlllllssy6;,-=% ",
"1slllllllllllllllllljqillllllllllgy1ey6&",
"1slllllllllllllllllllrillllllllllljygldw",
",pllllllllllllllllllgjjllllllllllllhjljh",
"Orllllllllllllllllljwsllllllllllllllllll",
"X,pllllllllllllllllg6gllllllllllllllysll",
"%%qlllllllllllllllgw&illlllllllllllhw1qy",
"6&<djllllllllllllgr&O6gllllllllllljr4--q",
"ke36ggllllllljjlls,@X&illllllllllls&,ijj",
"lhy:&sjjjjjllswhllgr@-rlllllllllllg1ijll",
"llgpq-&&-qqglgghllllr14ijllllllllljgjlll",
"lllls+@%-yihlllllllljsqqjllllllllgigllll",
"lllls&-6ylllllllllllllirsllllllllsqgllll",
"llllg13illllllllllllllls4sjlllllgi1gllll",
"llllg6phlllllllllllllllr@1sjjjlji;O,sghl",
"lllgrsgllllllllllllllllrXO%&;qeq-OXO%,ew",
"r6,11glllllllllllllllllrXX@;4rrr61<<1qyr",
"q;$@,glllllllllllllllls4@%4illllllllllll",
"lgi-%slllllllllllllllg3@6gjlllllllllllll",
"llgi1gjlllllllllllllge1qklllllllllllllll",
"lllgsrgllllllllllllje&,gllllllllllllllll",
"lllljigllllllllllsrr3,illlllllllllllllll",
"lllllhghlllllhalliq<qgllllllllllllllllll",
"llllljwrhllllaqglji6gkllllllllllllllllll",
"llllllq3wglllgglljgqglllllllllllllllllll",
"lllllgw&&wwe6ylllljgjlllllllllllllllllll",
"lllllle%o$%-1wlllgilllllllllllllllllllll",
"llllls1&&&&1qririq<jllllllllllllllllllll",
"llllg3&3jgjljg1$*$&jllllllllllllllllllll",
"llllg6ygllllllg<@X&jllllllllllllllllllll",
"llllggjlllllllji1$&jllllllllllllllllllll",
"lllgpkllllllllllp1-rllllllllllllllllllll",
"lllgyhllllllllllls66glllllllllllllllllll",
"lljgkllllllllllllla6dlllllllllllllllllll",
"ljirklllllllllllllhd6pglllllllllllllllll",
"jr56lllllllllllllllh1=wlllllllllllllllll",
"r,1plllllllllllllllly$%5ylljlllllllllljy",
"=$6lllllllllllllllllh& o;eiglllllllllju0",
"X&ylllllllllllllllllh&   o-illllllllli09"
};
