/* XPM */
static char *xpm_[] = {
/* columns rows colors chars-per-pixel */
"40 40 101 2 ",
"   c #776B3C",
".  c #776F3C",
"X  c #786F3D",
"o  c #7D6F3E",
"O  c #74723B",
"+  c #71753B",
"@  c #76753B",
"#  c #75773B",
"$  c #71763C",
"%  c #75743C",
"&  c #78733B",
"*  c #78753B",
"=  c #78703C",
"-  c #7F703F",
";  c #7E723E",
":  c #79753D",
">  c #75783B",
",  c #73783D",
"<  c #737A3C",
"1  c #747B3C",
"2  c #777D3C",
"3  c #747E3D",
"4  c #767E3D",
"5  c #7C783C",
"6  c #797D3C",
"7  c #7A7D3D",
"8  c #82713F",
"9  c #82733E",
"0  c #81743E",
"q  c #867141",
"w  c #867440",
"e  c #8B7343",
"r  c #8E7242",
"t  c #8B7441",
"y  c #8C7542",
"u  c #8C7443",
"i  c #907243",
"p  c #917643",
"a  c #917244",
"s  c #937244",
"d  c #977445",
"f  c #977644",
"g  c #977446",
"h  c #9A7246",
"j  c #9A7746",
"k  c #9B7648",
"l  c #9E7748",
"z  c #9E7848",
"x  c #A27549",
"c  c #A07649",
"v  c #A3774A",
"b  c #A4774B",
"n  c #A8774B",
"m  c #A17848",
"M  c #A47949",
"N  c #A8784B",
"B  c #AB794B",
"V  c #A8794C",
"C  c #AA7A4C",
"Z  c #AF7B4E",
"A  c #B07B4E",
"S  c #B47B4F",
"D  c #B57C4F",
"F  c #B57D4F",
"G  c #B57D50",
"H  c #B67C50",
"J  c #B77D51",
"K  c #B87D51",
"L  c #BB7F52",
"P  c #77813B",
"I  c #77813D",
"U  c #75813E",
"Y  c #78813C",
"T  c #79813D",
"R  c #79863F",
"E  c #7A863E",
"W  c #7D8A3F",
"Q  c #7D8B3F",
"!  c #778240",
"~  c #778440",
"^  c #798541",
"/  c #7C8741",
"(  c #7E8A41",
")  c #7C8B43",
"_  c #7F8E43",
"`  c #7E8E44",
"'  c #7F8E44",
"]  c #818F41",
"[  c #808F43",
"{  c #BB8052",
"}  c #BC8052",
"|  c #BF8153",
" . c #C08053",
".. c #C38354",
"X. c #C38355",
"o. c #C48355",
"O. c #C48455",
"+. c #C58556",
"@. c #C68456",
"#. c #C78556",
"$. c #C78656",
/* pixels */
"' ' ' ' ' ' ' ' ' ' ' ' ' ' ' ' ' ' ' ' ' ' ' ' ' ' ' ' ' ' ' ' ' ' ' ' ' ' ' ' ",
"' ' ' ' ' ' ' ' ' ' ' ' ' ' ' ' ' ' ' ' ' ' ' ' ' ' ' ' ' ' ' ' ' ' ' ' ' ' ' ' ",
"' ' ' ' ' ' ' ' ' ' ' _ ' ' ' ' ' ' ' ' ' ' ' ' ' ' ' ' ' ' ' ' ' ' ' [ ' ' ' ' ",
"' ' ' ' ' ' ' ' ' ' ) ) ' ' ' ' ) ' ( ' ' ' ( [ ' ( ' ' ' ) ) ' ' ' ' ` ' ' ' ' ",
"' ' ' ' ' ' _ _ W ) I ^ ) ( ) ( ^ ^ ( R ( ( ( ^ ^ ~ ( ( ! ! ( ( _ _ _ ` ' ' ' ' ",
"' ' ' ' ' [ _ Y > @   @ # # , 2 . # @ ; ; : : & . % % @ %   % 1 P ( _ _ ' ' ' ' ",
"' ' _ _ [ [ 2 9 d b n b l k j z b b b b B M M M V l m m b M l d 9 2 _ _ ' ' ' ' ",
"' ' _ _ _ W & s H L X. .L L } } X.L L +. . . .+.X.L L X.L X.L H d @ W ' ' ' ' ' ",
"' ' ' ' ) 2 ; b +.@.@.@.#.#.#.+.#.#.+.+.+.+.+.#.+.@.#.+.#.+.#.+.b o P ) ' ' ' ' ",
"' ' ' ' ' 3 q C +.+.#.@.+.#.+.#.+.+.#.#.#.#.#.+.@.@.#.#.#.#.@.#.Z q 2 ' ' ' ' ' ",
"' ' ' ' ) 1 r G #.#.+.#.@.@.+.+.+.#.+.#.+.#.#.+.@.+.#.+.#.+.#.#.A s 1 ) ' ' ' ' ",
"' ' ' ' ( 1 r G #.+.#.#.@.@.@.+.#.+.#.+.+.#.@.@.@.+.#.#.#.#.+.#.Z r 1 ) ' ' ' ' ",
"' ' ' ' ( 2 t Z #.#.+.#.#.+.+.+.+.+.@.@.+.#.+.+.X.+.+.+.+.+.#.#.F e 2 ( ' ' ' ' ",
"' ' ' ' ( I t Z +.#.#.+.#.+.+.+.+.+.#.@.#.#.#.+. .} X.+.+.#.+.#.Z y I ' ' ' ' ' ",
"' ' ' ' ' I w C #.+.#.+.+.+.+.+.+.+.+.+.+.#.@.@.@.L +.+.#.+.#.#.C y R _ ' ' ' ' ",
"' ' ' ' ' 2 p G #.#.#.#.#.#.+.+.+.#.+.#.#.@.@.@.@.+.+.+.#.#.+.#.Z t 2 ) ' ' ' ' ",
"' ' ' ' _ $ a A #.+.+.#.#.#.#.+.+.+.+.#.@.#.@.@.#.+.#.#.+.+.#.#.S a $ ( ' ' ' ' ",
"' ' ' ' W % a F #.#.+.#.+.#.+.#.@.#.#.+.@.@...+.+.#.+.#.+.#.#.#.S a , ( ' ' ' ' ",
"' ' ' ' ) 2 p S #.#.#.+.#.+.@.@.#.+.#.+.#.@.O. .+.@.@.+.#.+.+.#.F p 2 ( ' ' ' ' ",
"' ' ' _ ( 1 j L $.#.+.+.#.#.@.+.@.+.#.+.+...} } +.#.#.+.#.#.+.$.L j , ( ' ' ' ' ",
"' ' ' ' ( 2 f S $.+.#.+.#.+.@.} @. .+.+.#.+.O.O.+.#.#.#.+.+.#.#.L d 2 _ ' ' ' ' ",
"' ' ' ' _ P p F $.+.#.#.#... .L } +.#.#.#.+.+.#.+.+.+.+.+.#.$.$.A p Y ( ' ' ' ' ",
"' ' ' ' ( < p F $.#.+.+.#.+.O.}  .+.#.#.+.+.+.#.#.#.+.#.#.+.+.$.A p 1 ) ' ' ' ' ",
"' ' ' ' _ $ f K $.#.+.#.+.#.+.#.+.#.#.+.#.#.#.+.+.+.+.+.#.#.+.$.L s $ ) ' ' ' ' ",
"' ' ' ' ) 1 u G #.$.+.+.#.#.+.+.+.+.+.#.+.#.#.#.+.O.+.#.+.+.@.#.G p 1 ) ' ' ' ' ",
"' ' ' ' ( 2 e G #.#.+.#.+.+.#.#.#.#.#.+.#.+.+.+.+. .+.+.#.#.#.#.Z e 3 ) ' ' ' ' ",
"' ' ' ' ' U e Z #.#.#.#.#.#.+.+.+.#.#.+.#.+.+.#.+.+.+.#.#.+.+.#.Z e I ( ' ' ' ' ",
"' ' ' ' ) % e G #.+.#.+.+.#.+.#.+.#.#.+.#.+.+.#.+.+.#.+.#.#.+.$.G t % ( ' ' ' ' ",
"' ' ' ' ) + r G +.+.#.#.+.#.#.+.+.#.#.+.#.+.+.#.+.#.@.@.+.+.#.#.L s % W ' ' ' ' ",
"' ' ' ' ) $ s H +.@.#.@.#.+.+.#.#.+.#.+.+.+.#.+.@.@.@.#.+.#.$.$.G s $ ) ' ' ' ' ",
"' ' ' ' [ Y 9 Z @.@.+.+.#.+.+.+.#.+.+.#.@.#.@.#.#.+.+.+.#.+.+.+.Z 9 P _ ' ' ' ' ",
"' ' _ _ ( R 9 h L } ..+...+. ...@...+.#.@...@.+.+.+...+.+.+.} } h ; R _ ' ' ' ' ",
"' ' ' ' _ ( 7 9 r d b l b l l l b b b b B b b V M l b l l b d r 9 7 ( _ ' ' ' ' ",
"' ' ' ' ' [ W P % % = ; ; ; : : 8 % ; q 9 9 = w 9 ; ; ; ; = % % I W _ _ ' ' ' ' ",
"' ' ' ' ' ' [ [ _ R R ~ R ) ( ( I ~ ) ~ W ( ^ 2 I ! Y ^ R ! R ' _ _ _ ' ' ' ' ' ",
"' ' ' ' ' ' _ _ _ _ _ ( ) _ _ ' ( ) _ ) [ [ [ ( ' ) ' [ _ _ _ ' _ ' ' ' ' ' ' ' ",
"' ' ' ' ' ' ' ' ' ' ' ' _ ' ' ' ' ' ' ' ' ' ' ' ' ' ' ' ' ' ' ' _ ' ' ' ' ' ' ' ",
"' ' ' ' ' ' ' ' ' ' ' ' _ ' ' ' ' ' ' ' ' ' ' ' ' ' ' ' ' ' ' ' ' ' ' ' ' ' ' ' ",
"' ' ' ' ' ' ' ' ' ' ' ' ' ' ' ' ' ' ' ' ' ' ' ' ' ' ' ' ' ' ' ' ' ' ' ' ' ' ' ' ",
"' ' ' ' ' ' ' ' ' ' ' ' ' ' ' ' ' ' ' ' ' ' ' ' ' ' ' ' ' ' ' ' ' ' ' ' ' ' ' ' "
};
