/* XPM */
static char *xpm_[] = {
/* columns rows colors chars-per-pixel */
"40 40 117 2 ",
"   c #4C542F",
".  c #565331",
"X  c #5E5534",
"o  c #535B32",
"O  c #5C5A35",
"+  c #704F37",
"@  c #645A36",
"#  c #6B5C38",
"$  c #735C37",
"%  c #775439",
"&  c #7E573A",
"*  c #755D3B",
"=  c #7C5A3B",
"-  c #566134",
";  c #5A6435",
":  c #5E6936",
">  c #616835",
",  c #656739",
"<  c #6A6739",
"1  c #646A38",
"2  c #6E693B",
"3  c #74623A",
"4  c #766C3C",
"5  c #7B6F3E",
"6  c #65723A",
"7  c #6B773C",
"8  c #6E7A3D",
"9  c #73743B",
"0  c #7C733D",
"q  c #757C3C",
"w  c #7A7C3C",
"e  c #7D6D40",
"r  c #845C3D",
"t  c #8A5D3F",
"y  c #81623C",
"u  c #82743E",
"i  c #836A40",
"p  c #8E6E43",
"a  c #867241",
"s  c #8C7442",
"d  c #837F41",
"f  c #8C7D44",
"g  c #937445",
"h  c #9A7546",
"j  c #927D46",
"k  c #9D7748",
"l  c #977A48",
"z  c #9F7A49",
"x  c #A2764A",
"c  c #A8774B",
"v  c #A4794A",
"b  c #AB7A4D",
"n  c #B27C4E",
"m  c #B57D50",
"M  c #BA7E52",
"N  c #76823E",
"B  c #79833E",
"V  c #7D8B3F",
"C  c #768340",
"Z  c #798641",
"A  c #7F8E44",
"S  c #8B8E3C",
"D  c #86923F",
"F  c #8E923B",
"G  c #8B993F",
"H  c #9C9C36",
"J  c #91943A",
"K  c #939E3C",
"L  c #9BA537",
"P  c #9FA936",
"I  c #95A13C",
"U  c #99A539",
"Y  c #9DA939",
"T  c #A1AC36",
"R  c #A6B236",
"E  c #AAB534",
"W  c #ADB834",
"Q  c #B3BD31",
"!  c #BBC429",
"~  c #BEC728",
"^  c #B9C32C",
"/  c #D1D81F",
"(  c #D4DB1D",
")  c #D5DC1D",
"_  c #C4CC26",
"`  c #C1CA28",
"'  c #C9D121",
"]  c #868041",
"[  c #858541",
"{  c #8F8241",
"}  c #8F8541",
"|  c #818F41",
" . c #808F43",
".. c #918642",
"X. c #928344",
"o. c #948244",
"O. c #829141",
"+. c #889640",
"@. c #AB8549",
"#. c #B1814F",
"$. c #B58151",
"%. c #B68151",
"&. c #BB8152",
"*. c #B98252",
"=. c #BA8252",
"-. c #BF8153",
";. c #BC8253",
":. c #BE8353",
">. c #C18254",
",. c #C28354",
"<. c #C58455",
"1. c #C58555",
"2. c #C68456",
"3. c #C68556",
"4. c #C78556",
"5. c #C68656",
"6. c #C78656",
/* pixels */
"A A A  .A  .A A A A A A A A A A A A A  .A A A A A  .A A A A A  .A A A A A A A A ",
" .A A A A A A A A A A  .A  . .A  .A A A A A  .A A A A A  .A A A A A A O.A A  .A ",
"A  .A  .A A  .A A A  .O.A A A A A A A  .A A  . .A A A A A A A  .A A A A A A A A ",
"A A A A A  .A A A A  .Z A A  .A A A A A A A A  .A A A A A A A A A O.A A A A  .A ",
"A A O.A  .A A A V V w Z Z Z Z Z Z Z A Z A A Z Z Z Z Z Z Z C Z A V A A A A A A A ",
"A A A A A  .A Z q 9 4 9 w w q w e e e e 0 q 9 e 9 0 q 9 e e 9 8 N A A A  .A  .A ",
"A A A A A  .e e h x c x k k z k z z v b b v v v c x k x x v k h a N  .A A A A A ",
"A A A A A V w j M M ,.;.&.M &.;.&.b v v v x b ,.,.M ,.M ,.,.;.m g e A A  .A A A ",
"A A A A A N 0 v 5.5.5.5.5.5.&.v g S J H H J S j b ;.5.5.5.5.5.<.x u w A A A A A ",
"O.A A A A N a b 5.5.5.,.&.v } F H E ` ' ' Q R I S X.b ;.5.5.5.<.b u q A A A A O.",
"A A A A Z e s m 5.5.,.$.{ F P E W _ ( ) ) ) ~ W E L S X.$.<.<.5.n g 9 A A A A A ",
"A  .A A Z q s n 5.,.$.} I R W W W ! ' / / ' ^ W W W T K o.$.5.4.n s q A A A A A ",
" .A A A A N s n 5.&.X.U E W W W W W Q ! ^ Q W W W W W E K l ;.4.m s N Z A A A A ",
"A A A  .A C s n 5.z J E W W W W W W W W W W W W W W W W E F b 5.b s N A A A A A ",
" .A  .A A Z ] b $...T W W W W W W W W W W W W W W W W W W L o.&.b a Z A A O.A A ",
"A A A A A e s v f K E W W W W W W W W W W W W W W W W W W E F o.b s C A A A A A ",
"A A A A Z 9 s z A Y W W E R R ^ W W W W W W W W W W W W W W I d v g 9 V A A A A ",
"A  .A  .A 9 g z  .Y W R W ^ R R W W W W W W W W W W W W W W Y ] v g 9 A A A A A ",
" .A  .A A q g x [ Y R ^ W W ^ R W W W W W W W W W W W W W E I d c g B Z A A A A ",
"A A  . .Z q l n f  .I R W W E R W W W W W W W W W W W W R I A l n k q A A A A A ",
" .A  .A Z w l n l C +.I R E ^ ^ W W W W W W W W W W E E I D 8 g n h w Z A A A A ",
"A A A A  .B g n v e Z  .I Y T R W W W W W W W W E E U G A N < b b j B A A A A A ",
"A A  .A Z w g m m e 1 C A A I Y T E E E W W E R Y K A A q , p ;.m g e A  .A A A ",
"A  .A A Z 7 h M 5.n e ; 6 C A A G I K I I +.I +.A A q 6 ; i M 5.m j 8 A A A A A ",
"A  .A A A C f m 4.5.x @ o ; 1 e B N A Z C Z B C 7 6 ; o # c <.5.$.s q A A A A A ",
"A A  .A A e s b 4.5.,.n e   o o : ; ; > ; : ; : -     e m 5.5.<.n s q A A A A A ",
"A A A A A C s b 5.<.5.m e o     . . . X . . . .     o e M <.5.4.b s e A A A A A ",
" .A  .A A e s m <.5.,.z o - - O r % + r y & = r O - - 1 v 5.5.4.n s 8 A A A A A ",
"A A A A Z 7 g m 4.4.5.v 1 ; O = y y $ 3 4 * = t 3 ; ; 2 m 5.5.5.m g 9 A A  .A  .",
"A  .A  .A 7 g m 4.4.5.>.v 5 < y 3 , > > : ; O 3 a e a c ;.4.5.5.m g 9 Z A A A A ",
"A  . .A Z w a b 4.4.5.5.>.n v l g g g g g g g j @.&.;.2.4.<.5.5.b s Z A A  .A A ",
"A A  . . .V 5 h n ;.5.>.>.>.;.>.;.<.;.;.,.:.;.,.5.,.,.2.,.<.,.m l e A A A A  .A ",
"A A A  .A A e e f l x x x x k k x x x b b x v b c x x x x x h s u w A A A A A A ",
" .A A A A  .A Z 8 e 0 0 0 0 0 w e e e d a i u e 0 0 0 0 0 e 9 9 N V A A  .A  .A ",
"A  .A  .A  . . .A Z C C B V Z A C C C A Z A C N N B Z Z N C A A O.A A A A A A  .",
"A A A A A A  .A A A A A A A A A A  . .A A A A A A A A A A A A A A A A A  .A A A ",
"A  .A A A  .A A A A A A A A A A A  .A  .A A A A A A A A A A A A A A A A A A A A ",
"A A  .A A A  .A  .A A A A A A A A A A A  .A  .A A A A A A A A A A A A A A A A A ",
"A A A A A A A A A A  .A A A A A A  .A A A A A  .A A A A A A A A A A A O.A A A A ",
" .A  .A  .A  .A  .A  . .A A A A A A  .A  .A A A A A A A O.A A A A A A A A O.A A "
};
