/* XPM */
static char *xpm_[] = {
/* columns rows colors chars-per-pixel */
"40 40 117 2 ",
"   c #2F1F24",
".  c #301F24",
"X  c #2F2024",
"o  c #322125",
"O  c #3B2523",
"+  c #4D2C1F",
"@  c #532E1E",
"#  c #56301D",
"$  c #5C331D",
"%  c #62361D",
"&  c #64381F",
"*  c #412721",
"=  c #442922",
"-  c #492B21",
";  c #442C28",
":  c #4B3129",
">  c #523122",
",  c #5D3926",
"<  c #55382C",
"1  c #5F3D2B",
"2  c #603721",
"3  c #653A22",
"4  c #693E24",
"5  c #6B4026",
"6  c #64422F",
"7  c #6E4429",
"8  c #704327",
"9  c #70462B",
"0  c #73492E",
"q  c #7B502F",
"w  c #624130",
"e  c #694632",
"r  c #6E4932",
"t  c #754C31",
"y  c #784E32",
"u  c #7D5235",
"i  c #7B5439",
"p  c #815536",
"a  c #825639",
"s  c #84593B",
"d  c #8A5D3C",
"f  c #8B623D",
"g  c #90653F",
"h  c #8E6141",
"j  c #936543",
"k  c #986744",
"l  c #966A44",
"z  c #9A6B46",
"x  c #9C6D49",
"c  c #947743",
"v  c #9D7346",
"b  c #907C44",
"n  c #9C7C46",
"m  c #9D7349",
"M  c #987D48",
"N  c #A16E47",
"B  c #A16E49",
"V  c #A27549",
"C  c #A9764A",
"Z  c #A37B4A",
"A  c #AB7C4B",
"S  c #B07F4D",
"D  c #7F8E44",
"F  c #828D44",
"G  c #858D45",
"H  c #868C45",
"J  c #888D43",
"K  c #888F43",
"L  c #8C8A47",
"P  c #8B8C45",
"I  c #898C46",
"U  c #8A8C46",
"Y  c #8A8F46",
"T  c #8E8C47",
"R  c #8E8F47",
"E  c #948247",
"W  c #908A47",
"Q  c #968A46",
"!  c #978649",
"~  c #9A8049",
"^  c #9C834A",
"/  c #9A864A",
"(  c #968B49",
")  c #908C48",
"_  c #928C48",
"`  c #948C48",
"'  c #948C49",
"]  c #968F49",
"[  c #9C894A",
"{  c #998D49",
"}  c #9B8C4A",
"|  c #879046",
" . c #A2824A",
".. c #A7834B",
"X. c #AC824B",
"o. c #AB804C",
"O. c #AE814C",
"+. c #AC854D",
"@. c #A08848",
"#. c #A18C4B",
"$. c #A28C4B",
"%. c #A3894C",
"&. c #A6884C",
"*. c #A38C4C",
"=. c #AC8B4D",
"-. c #AF8B4E",
";. c #AA8D4D",
":. c #B2834E",
">. c #B0854E",
",. c #B5854F",
"<. c #B28B4F",
"1. c #B08C4E",
"2. c #B88B4F",
"3. c #B88D4F",
"4. c #A0904B",
"5. c #B58C50",
"6. c #BA8C50",
/* pixels */
"D D D D D D D D D D D D D D D D D D D D F F D D D D D D D D D D D D D D D D D D ",
"D D D D D D D D D D D D D D D D D D D K ` ` ] Y F D D F D D D D D D D D D D D D ",
"D D D D D D D D D D F ` L | F D D D ` 5.:.A A ..%.{ 4.{ } R H F D D D D D D D D ",
"D D D D D D D D D ` %.l Z o. ./ [ ;.6.A l B B x V C V A :.+.-.] F D D D D D D D ",
"D D D D D D D D K 5.A u z N z v x C C k u s j j h x k x h B A A / H F D D D D D ",
"D D D D D F F b Z ,.z y s s i u j x z i t 0 y u a j a d i j z z m Q F D D D D D ",
"D D D D D K n d h d i t t 0 0 t s j h t 0 0 4 t r y 4 0 0 a s s A  .G D D D D D ",
"D D D D | Q A u u 0 0 5 7 4 9 7 t 0 t 7 7 3 3 7 3 4 4 3 4 0 a u C 6.1.` D D D D ",
"D D D D K 5.x a t 7 5 3 5 & 5 & 9 3 7 3 , 3 % 3 > 3 2 $ 4 4 8 s N V A %.F D D D ",
"D D D D %.O.d u 0 4 & 3 $ # # $ 4 % & $ O $ $ $ - @ - $ & 2 0 j m h B C Y D D D ",
"D D D D %.m k y 4 4 % @ $ + + # % @ $ @ O + + $ * @ * + @ 3 0 p a u k N  .F D D ",
"D D F { A j d y 2 3 $ + # + . @ + + @ +   . * @ . = . O @ 2 2 4 7 0 a k :.} D D ",
"D K =.v z u 7 7 > - @ O @ *   - O o + + . o O * O * . . = # + & 3 7 s j x &.F D ",
"D } 3.k u 4 2 $ - O * o * O   o o   O O . . . o . . . . O O . + $ 9 9 s x Z I D ",
"D ` >.B s 4 % + o o o o . X o o . o   . . o o o . o O . . . . . , 4 7 j V ! F D ",
"D F [ V k q $ + o o o o   o o o o o o o o o o o o o . . . .   + % 3 u Z T D D D ",
"D D ` l d u 2 O o o o o o o o o o o o o o o o o o o o o o o o > # 5 l ` | D D D ",
"D H 1.A a 0 3 = o o o o o o o o o o o o o o o o o o o o o o o : - t Z ` D D D D ",
"D H %.C j 4 2 O o o o o o o o o o o o o o o o o o o o o . O o o , y V 2.{ F D D ",
"D F L V k 0 @ + o o o o o o o o o o o o o o o o o o o o o o . ; 4 7 k A +.Y D D ",
"D D F ~ j i > O o o o o o o o o o o o o o o o o o o o o . o o @ & u z g A $.D D ",
"D D D F c y , o o o o o o o o o o o o o o o o o o o o o o o O @ 4 7 s s V =.) | ",
"D D D F &.z 0 ; o o o o o o o o o o o o o o o o o o o o o . + # 3 & 7 p j z [ F ",
"D D | %.V x y > o o o o o o o o o o o o o o o o o o o o o o * + # 3 4 7 u z Z H ",
"D D F %.f s 0 # o   o o o o o o o o o o o o o o o o o o o o O O * % % 4 y N V ! ",
"D D F ` j t 7 & ;   o o o o o o o o o o o o o o o o o o o o o o + % % 4 a l m T ",
"D I } 5.v 9 3 @ +   o o o o o o o o o o o o o o o o o o o . o o @ @ 2 0 a d M H ",
"D ] 6.A f 5 & * O o o o o o o o o o o o o o o o o o o o o o o o O - 7 t u z ) F ",
"F } O.l u 5 % @ o o o o o o o o o o o o o o o o o o o o o o o . O $ 4 s j Z T D ",
"F K =.k u 8 % $ O o o o o o o o o o o o o o o o o o o o o o o o - 3 4 a h n F D ",
"D D Y ~ v 9 & % : o o o o o o o o o o o o o o o o o o o o . . O 2 0 s d m Y D D ",
"D D D H T f & $ ; o o o o o o o o o o o o o o o o o o o o o . O # 0 V ~ I D D D ",
"D D D D D E f 0 ; . o o o o o o o o o o o o o o o o o o o X o - $ u =.J D D D D ",
"D D D D D | Y @.i o o o o o o o o X o o o X X X o o o o o X o - 4 d <.} F D D D ",
"D D D D D D F ;.n = o o o o       X o o o O O O X X X o O   . : u j A ) D D D D ",
"D D D D D D F %.C i : o o ; 1 6 ; O O ; t h l i < < ; o o ; w a O.&.Y F D D D D ",
"D D D D D D D H !  .g e e s v v i e r d >.5.=. .m l h t r t h V 1.W D D D D D D ",
"D D D D D D D D D H / v n } ] ~ o.+.o.;.%.K F F { 3.=.~ ~ m A 5.` F D D D D D D ",
"D D D D D D D D D D F H H | D F Y T R Y F D D D Y Y Y F F _ } R H D D D D D D D ",
"D D D D D D D D D D D D D D D D D D D D D D D D D D D D | D F D D D D D D D D D "
};
