/* XPM */
static char *xpm_[] = {
/* columns rows colors chars-per-pixel */
"40 40 125 2 ",
"   c #66452F",
".  c #744B2F",
"X  c #784F2F",
"o  c #6A4732",
"O  c #6E4B34",
"+  c #734C31",
"@  c #784E33",
"#  c #7C5234",
"$  c #7B5B35",
"%  c #74533B",
"&  c #7D583C",
"*  c #574F4A",
"=  c #57524E",
"-  c #555455",
";  c #5C5654",
":  c #5A5959",
">  c #6B5545",
",  c #6A5A4F",
"<  c #745742",
"1  c #735944",
"2  c #605650",
"3  c #625953",
"4  c #695B52",
"5  c #75604F",
"6  c #756252",
"7  c #815634",
"8  c #845A37",
"9  c #885C37",
"0  c #815639",
"q  c #845B3A",
"w  c #8A5E3A",
"e  c #87623A",
"r  c #8D613D",
"t  c #93653D",
"y  c #96683E",
"u  c #9B6B3E",
"i  c #83793F",
"p  c #A0703F",
"a  c #816147",
"s  c #8C6343",
"d  c #83644A",
"f  c #936642",
"g  c #966A42",
"h  c #9C6C44",
"j  c #916A49",
"k  c #9C6D49",
"l  c #877740",
"z  c #897640",
"x  c #8C7C43",
"c  c #937343",
"v  c #9E7146",
"b  c #937C45",
"n  c #9A7A46",
"m  c #9F724A",
"M  c #9D7F49",
"N  c #A06F46",
"B  c #A26F4A",
"V  c #A37345",
"C  c #A87744",
"Z  c #AB7A44",
"A  c #A47449",
"S  c #A8774B",
"D  c #A57C4A",
"F  c #AB7A4A",
"G  c #B17F47",
"H  c #B07D48",
"J  c #B07F4D",
"K  c #7F8E43",
"L  c #7F8D44",
"P  c #7F8E44",
"I  c #8D8145",
"U  c #848A41",
"Y  c #808D43",
"T  c #808F43",
"R  c #818E45",
"E  c #828E45",
"W  c #858D45",
"Q  c #868C45",
"!  c #8B8C45",
"~  c #898D46",
"^  c #8A8F46",
"/  c #8E8C47",
"(  c #8E8F47",
")  c #8B8E48",
"_  c #8D8D48",
"`  c #968247",
"'  c #988046",
"]  c #918A47",
"[  c #948A46",
"{  c #968649",
"}  c #988048",
"|  c #9A8049",
" . c #9F814A",
".. c #9A8649",
"X. c #9A864A",
"o. c #9E854A",
"O. c #918948",
"+. c #938A48",
"@. c #938B48",
"#. c #95894A",
"$. c #948C49",
"%. c #968F49",
"&. c #98884A",
"*. c #9A8B4B",
"=. c #9C894A",
"-. c #9C8B4A",
";. c #879046",
":. c #A2824A",
">. c #A6804B",
",. c #A7834B",
"<. c #A5834C",
"1. c #AB834B",
"2. c #AC824B",
"3. c #AC854D",
"4. c #A6884C",
"5. c #A08D4C",
"6. c #AF8B4E",
"7. c #AA8D4D",
"8. c #B48147",
"9. c #B2834E",
"0. c #B5854F",
"q. c #B38B4F",
"w. c #B38C4F",
"e. c #A0904B",
"r. c #B78E50",
/* pixels */
"P P P P P P P P P P P P P P P P P P P P P P P P P P P P P P P P P P P P P P P P ",
"P P P P P P P P P P P P P P P P P P P ~ +.{ %.) E P E E P P P P P P P P P P P P ",
"P P P P P P P P K P E $._ W ;.P P E +.r.9.J J 4.*.-.-.e.e._ W P P P P P P P P P ",
"P P P P P P P P E $.4.g m 3.o...=.7.r.F f B B h S S A S 1.3.6.%.E P P P P P P P ",
"P P P K P P K T ! w.Z # k N k h h S A f 7 q f f r k j k f N S F } ~ E P P P P P ",
"P P P K P T U b D 0.h + q 0 0 7 f k h # . . @ # 0 f 0 q # f k k v ] ;.K P P P P ",
"P ) +.&...o.D A S A N h h h h h A S A y f f y t f f g h h N N N F >. .:.o.M } P ",
"P +.h V A A A V V Z Z C C C Z Z Z Z Z Z C C N V N B N h h k h h v V V h h h c P ",
"P ~ h F S S S S F 8.F S A A A A A A A h t u V N y y u u V p p p u t t u t t e P ",
"P &.k s : k S F G 8.8.Z G G G F S S S h h h h V C N V V C Z Z Z Z C C g 3 s n P ",
"P b w % : q t u u v t u h h h h h h h h h h h N N V V C S A F C A V h s : a c E ",
"P { r q 0 w w t h C A C Z C V k V A A A A V N A N V u V V C Z G Z F S h s h g E ",
"P +.r t u t u h h V A S h k h h h f h h h h f h g h h h h N A C Z V h g f h c P ",
"E *.q q 8 8 8 q 8 q w g v V A V g h h h h N V V A V V A C S F S C S S A A g l P ",
"P A A v V A V V A A V v A V h u B C C C Z G Z Z Z C C C Z Z Z Z A A S S A h ~ E ",
"P g g h u h p p u u V V h h u f h h t t h V V V A V A A V G H F S S S S S h W P ",
"T r t y y h p v V p C V u V p C C V u u S S S S C Z G G G G H F F A A k h f &.E ",
"K n A 5 = h N v A F A S S V N h h h h h h h N V N v h h t u V h t t w ; > w b P ",
"P g h 1 4 C Z Z G Z Z Z C V V A V A A A k V A V V N C Z C A V h t t 9 ; < t { P ",
"P c h g h A F 8.8.Z V h h u h h h h h h h h h h h h h A S A V h u t t u t w _ P ",
"P c h A v A S S F C S A V V h h h f f r r r 8 8 r r s w 7 + + . @ # 8 7 q e ! E ",
"P n A A A V V V A C C A A C Z F F Z Z Z Z A v h g k g h g j f h h h C V A F ..P ",
"P } A S S S S F 8.8.Z V V V V A A C V p u h p V h v v h h v h h v V h v h h b E ",
"P <.k j d S S S F 8.Z F F F C S S S C h t V V V u u u u C p u u u u y 1 q r g W ",
"P h r , - h v A C C V V C C Z S A A V k h h h h h V V C Z Z Z S C A V ; 6 A A +.",
"K k r # % w 9 t t h u p p V h h V N h h h V V C h V V A S F Z A V V V < s k v _ ",
"K M q r t y u A F F F S V V h k h h N N N N N h V V p N V C G G Z F V g g h c P ",
"P n w r r 9 9 w w r t N V h h h f h h f g g h g h f h g h N C S A V h g g h b P ",
"K ' k g 9 7 7 @ O + % & q q e 8 q r t t t g h Z V C A S S F F S S S S S A A M P ",
"K b v V V V V N h V v v v v h u h N C C Z Z Z V Z G p C p G Z Z A S C S A V b P ",
"P z t g f u u u p u u V h h t t h u y r f V V A A V A A A F 8.G F S S S A k ..P ",
"P z t h u C p C Z p Z Z V A V C C V v h V S S S S H H G G G 8.Z F S S C k g S P ",
"P I V 5 ; h N h A S S S S V h k h h h h g k h V k h h V t t c u t t w ; > w h P ",
"P x h > 2 V Z Z H Z Z Z C C V C A S S V A V A A v N C C C F Z N h t w = 1 w M K ",
"P x h h h h Z F 8.F V h h h h h h h h h h g h h h k h N A A A V u t t t u w b P ",
"P l w w r r r w t r r w q w 8 q q 0 8 q 0 8 0 7 q r r r q @ @ # 8 e e $ $ # i P ",
"P P P P P L K Y ` D f o   8 c N # o + q 9.q.7.:.v g r o O + s V q.] P P P P P P ",
"P P P P L L L L K W { v n 5.[ =.1.3.1.1.-.W E E -.r.6.' o.m F q.&.T P P P P P P ",
"P P P P L L L L K P E W ~ E T W ~ ( ~ ~ E E P P ;.^ ^ ;.W ] -.~ T K P P P P P P ",
"P P P P L L L L P P P K E K T T K E E P P K P P K K K P ;.K ;.K T T P P P P P P "
};
