/* XPM */
static char *xpm_[] = {
/* columns rows colors chars-per-pixel */
"40 40 177 2 ",
"   c #020202",
".  c #0D0A07",
"X  c #0D0C0C",
"o  c #130E0A",
"O  c #16120D",
"+  c #1B130D",
"@  c #141313",
"#  c #191512",
"$  c #1C1C1C",
"%  c #21170D",
"&  c #231B14",
"*  c #291C13",
"=  c #211D18",
"-  c #2D2115",
";  c #332416",
":  c #33271C",
">  c #3C2C1D",
",  c #251922",
"<  c #242424",
"1  c #2C2620",
"2  c #2B2B2B",
"3  c #352828",
"4  c #332D29",
"5  c #36312C",
"6  c #342932",
"7  c #343434",
"8  c #3B3734",
"9  c #3D3935",
"0  c #3C3C3C",
"q  c #46301C",
"w  c #453021",
"e  c #4C3523",
"r  c #403328",
"t  c #483728",
"y  c #463A2D",
"u  c #543B23",
"i  c #5D3E28",
"p  c #412C3C",
"a  c #463B31",
"s  c #5A4126",
"d  c #564533",
"f  c #64462D",
"g  c #6A4C2B",
"h  c #6A482D",
"j  c #754D2E",
"k  c #784F2F",
"l  c #79562E",
"z  c #6A4732",
"x  c #6D4C34",
"c  c #704C32",
"v  c #784E33",
"b  c #6E5030",
"n  c #755334",
"m  c #7B5434",
"M  c #7C5B35",
"N  c #74533A",
"B  c #7A5539",
"V  c #7E593B",
"C  c #7F673A",
"Z  c #7F703D",
"A  c #4B3245",
"S  c #433D42",
"D  c #444444",
"F  c #4B4B4B",
"G  c #534D4A",
"H  c #57524E",
"J  c #5C534D",
"K  c #545454",
"L  c #5C5654",
"P  c #5B5B5B",
"I  c #6B5545",
"U  c #6A5A4F",
"Y  c #745742",
"T  c #735944",
"R  c #605650",
"E  c #625A54",
"W  c #695B52",
"Q  c #75604F",
"!  c #756252",
"~  c #675F65",
"^  c #72526A",
"/  c #775D71",
"(  c #646464",
")  c #6B6B6B",
"_  c #706B67",
"`  c #716F6D",
"'  c #737373",
"]  c #7C7977",
"[  c #7D7D7D",
"{  c #815634",
"}  c #845A37",
"|  c #885C37",
" . c #845C3A",
".. c #8A5D3A",
"X. c #8A6337",
"o. c #87623B",
"O. c #8D613C",
"+. c #93653D",
"@. c #96693D",
"#. c #9B6B3D",
"$. c #83793F",
"%. c #9D703E",
"&. c #816147",
"*. c #8C6343",
"=. c #83644A",
"-. c #936642",
";. c #956B42",
":. c #9B6C44",
">. c #916A49",
",. c #9B6E49",
"<. c #897640",
"1. c #8C7C43",
"2. c #947343",
"3. c #9D7246",
"4. c #937C45",
"5. c #9A7A46",
"6. c #9D7F49",
"7. c #A06E46",
"8. c #A26F4A",
"9. c #A37345",
"0. c #A87745",
"q. c #AB7A45",
"w. c #A47449",
"e. c #A8774B",
"r. c #A57C4A",
"t. c #AB7A4A",
"y. c #B17F46",
"u. c #B07E4A",
"i. c #86657D",
"p. c #817F7D",
"a. c #7F8E44",
"s. c #828D44",
"d. c #8B8D46",
"f. c #8C8E48",
"g. c #968247",
"h. c #988046",
"j. c #938A47",
"k. c #968649",
"l. c #9B8349",
"z. c #948B48",
"x. c #9B8B4A",
"c. c #879046",
"v. c #A5824B",
"b. c #AB834B",
"n. c #A18D4B",
"m. c #AD8B4E",
"M. c #B38147",
"N. c #B2834E",
"B. c #B28B4F",
"V. c #A0904B",
"C. c #B78E50",
"Z. c #81807F",
"A. c #817F80",
"S. c #838383",
"D. c #8B8B8B",
"F. c #939393",
"G. c #9D9D9D",
"H. c #AD85A3",
"J. c #A399A1",
"K. c #B391AB",
"L. c #A3A3A3",
"P. c #ABABAB",
"I. c #B4B4B4",
"U. c #BCBCBC",
"Y. c #D198C2",
"T. c #EAA9D9",
"R. c #C3C3C3",
"E. c #C5C5C5",
"W. c #CACACA",
"Q. c #D3D3D3",
"!. c #DADADA",
"~. c #E5DEE3",
"^. c #E3E3E3",
"/. c #EAEAEA",
"(. c #F7ECF4",
"). c #F8F2F6",
"_. c #FCFCFC",
/* pixels */
"a.a.a.a.a.a.a.a.a.a.a.a.a.a.a.a.a.a.a.a.s.a.a.c.a.a.a.a.a.a.a.a.a.a.a.a.a.a.a.a.",
"a.a.a.a.a.a.a.a.a.a.a.a.a.a.a.a.a.a.a.d.z.k.z.f.a.a.a.a.a.a.a.a.a.a.a.a.a.a.a.a.",
"a.a.a.a.a.a.a.a.a.a.s.z.f.c.s.a.a.a.z.C.N.u.u.v.x.x.n.n.V.f.s.c.a.a.a.a.a.a.a.a.",
"a.a.a.a.a.a.a.a.a.z.v.;.r.2.C Z k.m.C.t.>.8.,.-.o.o.,.r.b.b.m.z.s.a.a.a.a.a.a.a.",
"a.a.a.a.a.a.a.a.d.C.e.m *.t o , O.,.:. .c m -.i o = x -.-.8.e.u.5.d.a.a.a.a.a.a.",
"a.a.a.s.a.c.s.1.r.N.:.h ; G S , N w & + + + u q $ E 3 u B -.,.-.w.j.s.a.a.a.a.a.",
"a.f.k.k.x.l.r.9.e.w.8...% / A.K t 4 G ' ( 9 3 y ~ H.6 e -.7.8.8.t.b.h.v.l.6.4.s.",
"a.j.;.9.0.0.w.w.9.y.q.-.% ^ K.F.F ) L.W.R.D.K ~ J.H.6 u 7.7.:.:.%.9.9.,.,.,.2.a.",
"a.c.,.e.w.e.e.e.u.y.0.} @ A A.L.P.U.W.W.W.E.I.P.F.) $ w O.%.%.#.+.+.#.+.+.+.o.a.",
"a.x.;.*.E ,.e.e.t.y.o.* @ ' F.' P.I.E.W.E.U.I.F.' J.7 O e 3.q.q.0.0.0.:.E *.5.a.",
"a.5...Y P  .;.@.:.g a S.D.a.S.G.Q.I.P.U.I.P.W.E.F.[ S.D._ e :.w.0.9.7.*.P &.2.a.",
"a.k... .} .. .+.:.m d ` D.D.L.Q.U.U.I.L.P.U.I.R.E.D.F.S.E s %.M.t.q.w.:.*.:.;.s.",
"a.z...+.@.+.@.:.9.-.b 0 P L.E.P.P G.U.P.P.U.' ' E.U.Z.F a V 3.q.0.9.;.:.:.;.<.a.",
"s.x.} } | | | | } u 9 F.G.Q.L.$ X < S.!.E.K $ X D Q.I.G.] > +.e.e.e.e.w.w.;.2.a.",
"a.w.w.9.9.9.9.9.9.-.x 4 < P.G.  X F.a.S D P.F   2 Q.P 2 y X.0.0.9.0.e.w.w.:.f.a.",
"a.;.;.,.:.:.3.%.:.#.O.s . 0 D   X F S.F.D.' 2   @ K $ - n q.M.t.e.e.e.e.e.,.d.a.",
"c.O.@.@.+.%.#.:.9.9.@.g 1 7 7   X S P._./.' <   X 0 2 5 ..q.M.q.t.w.w.,.;.-.x.a.",
"s.3.8.! H ,.9.w.9.3.N 5 P G.S.$ X F.~.(.(.Q.F X D P.p.D 5 } :.:.+.+...L I ..4.a.",
"a.2.;.T W w.q.q.q.g 9 L.P.U.U.F.$ $ i.T.Y.S @ D P.U.I.P.p.: O.#.+.+...R T O.z.a.",
"a.;.:.:.;.0.t.y.M.s 7 P.P 0 ' P.D @ , A p X < ( F.F 0 D.D.& o.3.#.+.+.@.@...z.s.",
"a.2.3.3.w.w.w.e.t.s < ] 0 X F U.F.) ) [ ' ( [ G.D.$ $ P ( + i j v { | { } o.d.a.",
"a.5.w.w.9.w.9.9.9.s @ F D 8 ) U.U.W.^._._.!.W.E.P.D 0 F 0 # m :.:.:.9.9.e.t.k.a.",
"c.l.w.e.e.e.r.q.M.g $ 0 @ ( L.G.L.U.^.).).Q.U.I.I.G.2 2 7 -  .:.9.9.:.3.,.:.5.a.",
"a.b.;.>.=.e.e.e.q.0.b #   $ P U.R.W.Q.Q.Q.W.W.E.P.7 X . : { #.#.@.@.@.Y  .O.;.s.",
"a.,...U K ;.9.q.0.0.+.s o D ) K P P.P.S.D.U.Z.K P ) < ; l 0.q.0.9.q.:.K ! 7.w.k.",
"a.,...B Y ....O.+.:.@.O.% G P 2 F ) P 7 0 ' P 0 7 ) $ s e.t.t.w.9.9.9.&.*.;.3.f.",
"a.5. .X.+.+.:.9.e.t.t.@.; . $ K D.2       . ( [ 7 X o f 0.0.M.q.q.t.9.;.:.:.,.s.",
"a.5. .+.O.........+.+.,.+.> . @ $ .         O # X o h O.:.3.e.q.e.9.-.:.;.:.1.c.",
"s.h.7.-.O.{ { k x c n V  .c z u .             - n l :.e.w.q.t.e.t.e.t.e.e.w.1.a.",
"a.4.9.8.7.7.9.7.7.9.9.,.3.:.,...u u u u u u u l q.0.0.0.0.0.q.0.q.w.e.w.9.9.4.a.",
"a.$.-.-.#.#.#.%.#.#.%.%.:.:.@.+.:.:.@...;.7.9.w.w.9.w.w.9.t.M.M.e.e.e.e.e.,.l.d.",
"s.$.+.#.:.%.9.0.0.0.q.0.9.0.%.0.0.9.3.#.3.e.t.e.t.q.y.M.y.M.M.q.t.e.e.9.,.;.r.a.",
"s.1.9.Q H :.7.,.7.e.e.e.9.9.7.:.:.:.:.:.:.:.:.9.:.:.:.:.@.@.#.:.+.+. .L I ..,.a.",
"s.1.,.I R 8.q.q.y.y.q.q.0.0.9.0.t.w.w.w.8.8.w.8.w.w.0.q.0.w.0.9.:.+...G T ..l.s.",
"s.1.:.:.:.7.0.y.y.y.9.,.:.;.:.:.:.:.;.;.:.:.:.;.;.;.,.8.w.w.9.,.:.+.+.#.#...1.a.",
"a.$.....O.O.....+.O.........{ |  . . .| } } { { ..+..... .m v m  .X. .M M m $.a.",
"a.a.a.a.a.a.a.s.g.r.+.z z } 2.,.m z x ..b.B.m.v.9.;.O.x x v *.w.B.j.a.a.a.a.a.a.",
"a.a.a.a.a.a.a.a.a.s.k.3.5.n.j.n.b.b.b.b.n.f.a.s.x.C.m.g.l.3.t.C.j.d.a.a.a.a.a.a.",
"a.a.a.a.a.a.a.a.a.a.s.s.d.s.a.s.d.d.f.d.s.a.a.a.s.f.f.c.s.z.x.d.s.a.a.a.a.a.a.a.",
"a.a.a.a.a.a.a.a.a.a.a.a.a.a.a.s.a.a.a.a.a.a.a.a.a.a.a.a.s.s.s.s.s.a.a.a.a.a.a.a."
};
