/* XPM */
static char *xpm_[] = {
/* columns rows colors chars-per-pixel */
"40 40 174 2 ",
"   c #020101",
".  c #0A0704",
"X  c #0D0906",
"o  c #0B0B0B",
"O  c #140E08",
"+  c #10100F",
"@  c #1C140D",
"#  c #151415",
"$  c #1D1814",
"%  c #1C1C1C",
"&  c #20170D",
"*  c #241B13",
"=  c #2A1D12",
"-  c #2F2014",
";  c #33261A",
":  c #372719",
">  c #3C2C1C",
",  c #232323",
"<  c #2C2B2C",
"1  c #352C20",
"2  c #382834",
"3  c #3F2B3A",
"4  c #343333",
"5  c #383530",
"6  c #3B3B3B",
"7  c #402C1B",
"8  c #45301D",
"9  c #473523",
"0  c #493321",
"q  c #4E3A24",
"w  c #44372B",
"e  c #543A23",
"r  c #593F26",
"t  c #5D3E28",
"y  c #433A33",
"u  c #5F4426",
"i  c #5D432B",
"p  c #4B433C",
"a  c #5B4633",
"s  c #66462E",
"d  c #66492C",
"f  c #734C2F",
"g  c #784F2F",
"h  c #6F512F",
"j  c #74522F",
"k  c #6A4732",
"l  c #6E4C34",
"z  c #744C31",
"x  c #784E33",
"c  c #7B5334",
"v  c #7C5A34",
"b  c #74533B",
"n  c #7A5639",
"m  c #7F5838",
"M  c #7E6037",
"N  c #433D42",
"B  c #434343",
"V  c #494447",
"C  c #4C4C4C",
"Z  c #54514F",
"A  c #5B524C",
"S  c #555454",
"D  c #5C5654",
"F  c #5B5957",
"G  c #5B5B5B",
"H  c #6B5545",
"J  c #6A5A4F",
"K  c #745742",
"L  c #735944",
"P  c #605650",
"I  c #625953",
"U  c #7E6046",
"Y  c #75604F",
"T  c #756252",
"R  c #704C66",
"E  c #6A5B66",
"W  c #626262",
"Q  c #6A6168",
"!  c #6B6B6B",
"~  c #716A6B",
"^  c #737373",
"/  c #7A7673",
"(  c #7D7D7D",
")  c #815634",
"_  c #835A36",
"`  c #885C37",
"'  c #845B3A",
"]  c #8A5D3A",
"[  c #87613B",
"{  c #8D613C",
"}  c #93653D",
"|  c #96693D",
" . c #9B6C3D",
".. c #83793F",
"X. c #9E703F",
"o. c #A0723F",
"O. c #816147",
"+. c #8C6343",
"@. c #83644A",
"#. c #936542",
"$. c #966A42",
"%. c #9B6C44",
"&. c #916A49",
"*. c #9B6D49",
"=. c #877740",
"-. c #897640",
";. c #8C7C43",
":. c #937343",
">. c #9D7246",
",. c #937C45",
"<. c #9A7A46",
"1. c #9F724A",
"2. c #9D7F49",
"3. c #A06E46",
"4. c #A26F4A",
"5. c #A37345",
"6. c #A87746",
"7. c #AB7A45",
"8. c #A47449",
"9. c #A8774B",
"0. c #A57C4A",
"q. c #AB7A4A",
"w. c #B17F46",
"e. c #B07E4A",
"r. c #805B76",
"t. c #82727E",
"y. c #7F8E44",
"u. c #828D44",
"i. c #8B8D46",
"p. c #8C8E48",
"a. c #968247",
"s. c #988046",
"d. c #938A47",
"f. c #968649",
"g. c #9B8349",
"h. c #948B48",
"j. c #9B8B4A",
"k. c #879046",
"l. c #A4824B",
"z. c #AB834B",
"x. c #A18D4B",
"c. c #AD8B4E",
"v. c #B48147",
"b. c #B2834E",
"n. c #B28B4F",
"m. c #A0904B",
"M. c #B78E50",
"N. c #877F85",
"B. c #848484",
"V. c #888786",
"C. c #8D8D8D",
"Z. c #949393",
"A. c #9D929A",
"S. c #9C9C9C",
"D. c #A2879B",
"F. c #BF8CB2",
"G. c #BE96B3",
"H. c #A3A3A3",
"J. c #ABABAB",
"K. c gray70",
"L. c #BABABA",
"P. c #BBBBBB",
"I. c #E2B3D5",
"U. c #C2C2C2",
"Y. c #C3C3C3",
"T. c #CACACA",
"R. c #CDCDCD",
"E. c #D2D2D2",
"W. c #DCDCDC",
"Q. c #F8C2E9",
"!. c #E6E5E6",
"~. c #EAEAEA",
"^. c gray97",
"/. c #FCFBFC",
/* pixels */
"y.y.y.y.y.y.y.y.y.y.y.y.y.y.y.y.y.y.y.y.y.y.y.u.u.y.y.y.y.y.y.y.y.y.y.y.y.y.y.y.",
"y.y.y.y.y.y.y.y.y.y.y.y.y.y.y.y.y.y.y.p.f.f.h.u.k.y.y.y.y.y.y.y.y.y.y.y.y.y.y.y.",
"y.y.y.y.y.y.y.y.u.y.u.h.i.k.u.y.y.y.h.M.b.e.b.q.m.m.m.m.x.p.k.y.y.y.y.y.y.y.y.y.",
"y.y.y.y.y.y.y.y.u.h.x.$.8.z.l.f.j.c.M.q.$.8.*.*.1.9.1.9.b.l.M.h.u.y.y.y.y.y.y.y.",
"y.y.y.y.y.y.y.y.i.n.6.c *.$.+.} %.q.9.#.c ' +.+.' +.#.*.+.8.9.q.g.u.y.y.y.y.y.y.",
"y.y.y.u.y.k.u.;.l.b.%.x ' 0 @ - ' *.$.c z z x e @ = k ' n #.*.*.8.d.u.y.y.y.y.y.",
"y.p.f.f.j.g.0.5.9.8.>.#.e p 4 @ ' d 9 > 7 7 z r O N w l %.3.4.*.7.0.l.g.g.0.<.y.",
"u.p.$.5.6.6.8.8.5.7.7.| & E t.y d 1 4 N N , q r C N.< e %.%.%.%.5.8.>.>.%.%.:.y.",
"y.i.%.9.9.9.9.9.e.w.w.#.@ r.G.t.4 C Z.Y.L.^ 6 C D.F.2 q >.o.X.X. .| | } } } [ y.",
"y.j.%.@.I *.9.q.e.w.w.| @ N B.H.S.J.U.T.T.L.H.S.H.~ % e 5.7.7.6.6.6.5.%.I +.<.y.",
"u.,.] b F K }  .%.5.c - . W Z.B.J.L.Y.T.T.L.K.S.N.C.< @ t 5.q.6.8.5.5.+.G O.:.y.",
"y.f.] ] ' ] ] } %._ a I G ( C.C.T.K.K.Y.L.J.Y.K.N.C.! G A s o.w.7.q.8.%.+.%.$.y.",
"y.h.] }  .}  .%.%.d y Z.J.V.C.Y.T.L.J.J.J.J.T.R.L.t.S.H./ > } q.6.5.%.%.%.#.:.y.",
"u.j._ _ ` _ _ _ _ c i 5 G Z.Y.Y.^ L.L.H.J.R.C.C.E.L.y.V w ] 8.8.q.8.8.8.8.%.-.y.",
"y.8.8.8.5.5.8.5.5.d y Z.H.R.J.4 # < C.~.E.S % % G E.K.S./ > | 6.8.9.8.8.*.%.i.y.",
"y.$.$.%.%.%.>.o.%.) a Z C L.H.  o Q N.! ! C.6 o < E.( Z A h 6.q.9.q.9.9.9.5.k.y.",
"u.{ | | | 3. .>.o.5.{ > X W !   o ^ B.G Q Z.N   % B.< $ u 7.v.7.q.9.8.*.#.%.j.y.",
"y.<.3.T Z %.5.5.8.q.>.v * % #     , Z.^.W.S #   o , # 9 _ | >.| | } ] D H ] ,.y.",
"y.$.%.L J 6.7.7.v.7.v ; V V.^ o + C.!.^.^.E.C   , Z.Q 4 9 $.5.%.} { ] A L { f.y.",
"y.:.%.$.%.8.q.q.w.j p V.H.L.K.( # 6 D.Q.I.Q % 6 S.Y.K.Z.~ 0 } %.| | }  .} ] h.u.",
"y.:.%.8.8.8.8.q.q.s < L.T.Z.B.Z.6 o 3 R R % % G H.( K.R.C.$ i f x c _ ) _ [ i.y.",
"y.<.8.8.8.5.5.5.5.e 4 K.S.6 6 Z.^ C N B B B W ( ^ % ! K.C.* n  .%.%.6.5.q.q.f.u.",
"u.g.8.8.q.9.9.q.z.u < H.6 o C Y.Y.W.~.~.~.!.E.K.y.% # ! B.* _ %.5.5.>.%.*.%.,.u.",
"y.z.%.&.@.8.9.q.q.u % F C % C Y.R.E.~./.^.W.R.Y.A., 4 S C @ _  . .}  .L ' { $.u.",
"y.%.] J S %.3.6.6.u # C < S V.J.J.Y.!./.^.E.Y.P.K.t.6 6 6 $ { 8.6.6.%.S T 3.8.f.",
"y.%.] b K ] ] { } f : < o C C.J.J.Y.W.~.~.E.Y.P.K.( , % 4 9  .8.5.5.o.U +.%.*.i.",
"y.g.] } } }  .5.q.9.' *   # S H.J.L.Y.L.L.Y.K.H.C.4 o o 8  .v.v.q.q.5.%.%.%.:.k.",
"y.,.' } { ] ] ] ] } { n @ W ^ , < Z.Z.I ! J.W , 4 B.< 2 } >.q.5.q.%.%.%.%.$.,.y.",
"u.g.3.#.] ) ) g z l b z @ , 6 C B.S < # % 4 ^ ^ 6 4 o u q.8.q.9.9.q.8.8.8.8.g.y.",
"u.,.5.5.3.5.5.3.5.3.>.$.i @ O 4 S %         6 C , X > v 6.7.7.6.9.8.9.6.8.8.,.y.",
"y...} #.%.*. . .o.X.o.5.%.r = @               + - : ' 8.8.6.v.v.q.9.9.9.8.*.g.u.",
"u...}  . .o.o.5.o.o.6.7.o. .| _ * O O O O O O 8 >.8.7.v.w.v.v.7.q.q.9.8.%.#.0.y.",
"u.;.>.J D 3.3.%.3.9.9.9.5.5.3.$._ m m m m m _ } %.*.%.%. .} %. .} } ] D H ` %.y.",
"u.;.*.K D 5.6.7.w.w.w.7.6.5.o.5.8.q.8.8.8.8.8.5.3.8.6.6.5.7.7.5.%.{ ] Z L ] 2.y.",
"y.;.%. .#.5.q.q.w.7.5.%.%.%.3.%.%.%.%.%.%.$.*.*.%.%.%.8.8.8.1.8. .| | |  .] ,.y.",
"y.;.] ] { { ] ] } } ] ] ` ] _ ] ] _ _ _ _ _ c ) ' { { ] ' x z c ] [ M v v c ..y.",
"y.y.y.y.y.y.y.u.a.9.#.k s ' :.5.c k z ' b.n.j.l.1.$.{ k l z +.8.n.d.y.y.y.y.y.y.",
"y.y.y.y.y.y.y.y.y.u.f.>.5.j.h.j.z.z.l.c.j.i.k.k.x.M.c.a.g.>.q.n.h.u.y.y.y.y.y.y.",
"y.y.y.y.y.y.y.y.y.y.u.u.i.u.u.u.i.i.i.i.u.u.y.y.u.i.i.k.k.h.j.i.u.y.y.y.y.y.y.y.",
"y.y.y.y.y.y.y.y.y.y.y.y.y.y.y.y.y.y.y.y.y.y.y.y.y.y.y.y.u.u.k.y.y.y.y.y.y.y.y.y."
};
