/* XPM */
static char *xpm_[] = {
/* columns rows colors chars-per-pixel */
"40 40 166 2 ",
"   c #020101",
".  c #0D0A07",
"X  c #0B0B0B",
"o  c #120D07",
"O  c #130E09",
"+  c #1C140D",
"@  c #151515",
"#  c #1C1C1C",
"$  c #21160E",
"%  c #22180E",
"&  c #241A11",
"*  c #291D13",
"=  c #20161E",
"-  c #2E2014",
";  c #22201F",
":  c #3B2C1D",
">  c #242323",
",  c #2D2620",
"<  c #2D2C2C",
"1  c #332C26",
"2  c #312C2D",
"3  c #37322E",
"4  c #333333",
"5  c #3A3633",
"6  c #3B3B3B",
"7  c #412D1C",
"8  c #45301D",
"9  c #493321",
"0  c #4A3B2A",
"q  c #553C24",
"w  c #593E25",
"e  c #423C37",
"r  c #5F4425",
"t  c #5B432B",
"y  c #4F4133",
"u  c #584534",
"i  c #644529",
"p  c #68492D",
"a  c #724D2E",
"s  c #784F2F",
"d  c #73512D",
"f  c #6A4732",
"g  c #6D4C34",
"h  c #744C31",
"j  c #784E33",
"k  c #745234",
"l  c #7C5335",
"z  c #7C5A33",
"x  c #74533B",
"c  c #7A5639",
"v  c #7F5838",
"b  c #5A3D52",
"n  c #424242",
"m  c #4C4C4C",
"M  c #51424D",
"N  c #574F4A",
"B  c #57524E",
"V  c #5A534D",
"C  c #545354",
"Z  c #5C5654",
"A  c #5F575B",
"S  c #5B5B5B",
"D  c #6B5545",
"F  c #745742",
"G  c #735944",
"H  c #605650",
"J  c #625953",
"K  c #695B52",
"L  c #66605A",
"P  c #756252",
"I  c #636262",
"U  c #6C6666",
"Y  c #6D6C6C",
"T  c #73716F",
"R  c #747474",
"E  c #7C7977",
"W  c #7C7C7C",
"Q  c #815634",
"!  c #835A36",
"~  c #885C37",
"^  c #815639",
"/  c #845C3A",
"(  c #8A5D3A",
")  c #896236",
"_  c #87623A",
"`  c #8D613C",
"'  c #93653D",
"]  c #96683D",
"[  c #9B6C3D",
"{  c #83793F",
"}  c #9E703F",
"|  c #A3743F",
" . c #816147",
".. c #8C6343",
"X. c #83644A",
"o. c #926542",
"O. c #956A42",
"+. c #9B6C44",
"@. c #916A49",
"#. c #9C6D49",
"$. c #877740",
"%. c #8C7C43",
"&. c #937343",
"*. c #9D7245",
"=. c #937C45",
"-. c #9A7A46",
";. c #9F724A",
":. c #9D7F49",
">. c #A06E46",
",. c #A26F4A",
"<. c #A37344",
"1. c #A87745",
"2. c #AB7A45",
"3. c #A47449",
"4. c #A8774B",
"5. c #A57C4A",
"6. c #AB7A4A",
"7. c #B17F46",
"8. c #826D7D",
"9. c #80767D",
"0. c #7F8E44",
"q. c #828D44",
"w. c #8B8D46",
"e. c #8C8E48",
"r. c #968247",
"t. c #938A47",
"y. c #968649",
"u. c #9B8349",
"i. c #948B48",
"p. c #9B8B4A",
"a. c #879046",
"s. c #A4824B",
"d. c #AB834B",
"f. c #A18D4B",
"g. c #AD8B4E",
"h. c #B48147",
"j. c #B2834E",
"k. c #B28B4F",
"l. c #A0904B",
"z. c #B78E50",
"x. c #9F6C91",
"c. c #B67CA6",
"v. c #838383",
"b. c #8F838C",
"n. c #8C8C8C",
"m. c #958490",
"M. c #959595",
"N. c #989196",
"B. c #9C9C9C",
"V. c #A19DA0",
"C. c #BB93B0",
"Z. c #A3A3A3",
"A. c #ABABAB",
"S. c #BFADBA",
"D. c #B4B4B4",
"F. c #BABABA",
"G. c #C290B5",
"H. c #C3C3C3",
"J. c #CBCBCB",
"K. c #D3D3D3",
"L. c #DBDBDB",
"P. c #EBCBE2",
"I. c #FAD5F0",
"U. c #E6E6E6",
"Y. c gray96",
"T. c #FDFDFD",
/* pixels */
"0.0.0.0.0.0.0.0.0.0.0.0.0.0.0.0.0.0.0.0.q.q.0.a.0.0.0.0.0.0.0.0.0.0.0.0.0.0.0.0.",
"0.0.0.0.0.0.0.0.0.0.0.0.0.0.0.0.0.0.0.e.i.i.i.a.0.0.0.0.0.0.0.0.0.0.0.0.0.0.0.0.",
"0.0.0.0.0.0.0.0.0.0.q.i.e.a.q.0.0.0.i.z.j.6.d.d.f.p.l.l.f.e.a.0.0.0.0.0.0.0.0.0.",
"0.0.0.0.0.0.0.0.q.i.f.O.3.d.s.y.p.g.z.6.o.,.,.#.3.4.3.4.d.g.g.i.q.0.0.0.0.0.0.0.",
"0.0.0.0.0.0.0.0.w.k.1.l o.,.#.#.#.1.4.O.l / ..o.o.#.o.#.o.#.4.6.:.q.0.0.0.0.0.0.",
"0.0.0.q.0.a.q.%.s.j.+.j ( ^ l v ..#.O.l h h j l ^ o./ / v o.+.#.3.t.0.0.0.0.0.0.",
"0.e.y.y.p.u.5.<.1.3.>.+.#.f 8 q +.4.3.[ O.] ] h 7 9 ^ O.O.>.,.,.6.5.s.u.:.:.:.0.",
"q.e.O.<.1.1.3.3.3.2.2.| z 0 = $ ' ! d d a a ' i X 2 t / >.+.+.+.<.<.*.*.+.+.&.0.",
"0.w.+.4.4.4.4.4.6.h.6.O.% J U , k 1 # > > @ u e 2 8.1 q <.| [ [ ] ] ] ' ] ' _ 0.",
"0.p.+.X.J #.4.6.6.h.h.} $ 8.C.Y 1 e W A.V.S 2 6 b.G.2 q 1.1.2.2.1.1.1.+.J ..-.0.",
"q.=.( x A / ' O.+.*.] ~ + M m.Z.9.B.F.J.J.A.n.n.V.x.# y 6.1.6.1.<.<.<...S  .&.0.",
"0.y.( ( ^ ( ( ' [ <.' q . C n.n.A.F.H.J.H.H.D.V.n.W # - a <.2.7.6.6.1.+...O.+.0.",
"0.i.( ' [ ' ] +.<.o.g 3 4 W M.W F.D.D.H.H.D.F.V.W V.m 4 e l <.1.6.<.+.O.+.O.O.0.",
"0.f.! ! ~ ~ ! ! ! q 5 M.A.v.v.F.L.D.A.D.A.Z.J.K.Z.R B.A.E : ' 6.6.3.3.3.>.+.%.0.",
"0.;.3.3.<.<.<.<.*.o.g 5 I n.F.K.n.H.H.M.Z.L.V.A.L.Z.9.m 0 ) 1.1.4.3.1.3.3.+.e.0.",
"0.O.O.+.+.+.*.| +.d y T v.F.D.I 4 S B.K.H.W n n v.J.Z.0.L r *.6.4.4.4.4.4.+.q.0.",
"0.` ' [ ] +.[ <.*.d y E R H.Z.. . n W Z.V.I >   < L.M.W U t } 2.6.4.4.#.+.O.p.0.",
"0.-.<.P B +.<.<.3.3./ * X v.v.  X M.v.4 n A.C   > A.6 O 8 ` *.] ' ' ~ Z D ( =.0.",
"0.O.+.G K 3.1.1.2.7.<.z + # #     > v.L.H.C @   X > X 9 ' 3.3.[ ] ` ( V D ` y.0.",
"0.&.+.O.+.3.7.6.h.2._ : 5 Y C   X W L.T.Y.F.n   # R C 2 q +.<.*.[ ' ' [ ' ` i.0.",
"0.&.#.3.3.<.3.4.6.v u L v.D.Z.C @ I S.I.P.N.4 > R F.B.R B 9 p h s Q ! Q ! ! w.0.",
"0.-.3.3.3.3.<.3.<.t 4 D.B.M.A.A.<   b c.x.= X S D.B.M.D.n.& c O.+.+.3.3.6.6.y.0.",
"0.u.3.1.6.4.4.6.d.r 4 M.6 @ C D.I < ; 2 < # n R v.> @ Y v.& ! +.<.<.+.+.*.+.=.0.",
"0.d.+.@.X.4.4.1.1.r # I m # m H.F.A.F.J.J.A.A.F.B.# 4 S m + ! [ [ ] O.G / ` O.w.",
"0.#.( K C +.<.3.6.w @ m < C n.A.A.H.U.T.Y.K.H.F.A.W 6 6 6 + ` 1.1.3.+.C P <.3.y.",
"0.O.( c F ( ( ` ] p : 2 X m n.Z.A.H.L.U.U.K.H.F.A.W ; # 3 0 [ 1.<.<.<. ...O.#.e.",
"0.:.( ` ' ' +.1.6.6._ &   # C Z.Z.H.H.F.F.J.D.Z.M.4 X . 8 } h.2.6.6.3.+.+.+.&.a.",
"0.-.! ' ` ~ ~ ( ( ` ` c + S R > < M.n.I I A.I > 6 v.< 7 ` <.3.6.1.<.o.+.+.+.%.q.",
"q.-.+.O.~ Q Q s g g x h + > 6 m v.C < @ # 4 T Y 6 4 X w 4.6.6.6.6.4.4.4.3.3.=.0.",
"0.=.3.>.3.>.<.>.<.+.>.] t + X 5 C #         6 C > . 7 z 1.| 2.1.1.3.3.1.3.<.=.0.",
"0.{ o.O.] +.[ } | [ [ 1.+.w * %               O - : _ 3.3.6.h.h.6.4.4.4.4.;.u.a.",
"q.{ ' [ +.| | <.1.| 1.1.| [ ] ~ % O o o O O O 9 +.<.2.h.2.h.h.2.6.4.3.3.+.O.5.0.",
"q.%.<.P V +.>.>.<.1.1.4.4.3.>.] / ^ v ^ v v ! ' +.+.+.+.] ' +.[ ' ' ( Z D ( +.0.",
"q.%.O.D H >.1.6.6.7.2.2.1.<.<.1.3.3.3.3.3.3.3.3.>.3.1.2.1.3.1.<.+.' / N D ( u.q.",
"0.%.+.+.+.>.1.7.7.6.3.+.+.O.O.+.+.+.+.+.O.O.+.+.+.O.+.>.4.4.3.<.+.' ' ] [ ( %.0.",
"0.$.` ( ` ` ( ( ' ' ( ( ( ( ! ( ~ ! / / ! / ^ Q ( ..` ` ! k j l ! ) _ z z v $.0.",
"0.0.0.0.0.0.0.q.y.:.` f f ! +.*.l f h ! d.k.g.s.*.O.` f f l ..<.k.i.0.0.0.0.0.0.",
"0.0.0.0.0.0.0.0.0.a.y.*.-.f.t.p.d.d.s.g.f.w.q.q.p.z.g.r.u.*.6.k.i.q.0.0.0.0.0.0.",
"0.0.0.0.0.0.0.0.0.0.q.w.q.0.0.q.w.e.e.w.q.0.0.0.a.e.e.a.w.t.p.e.q.0.0.0.0.0.0.q.",
"0.0.0.0.0.0.0.0.0.0.0.0.q.0.a.0.0.0.0.0.0.0.0.0.0.0.0.0.0.0.a.0.0.0.0.0.0.0.0.0."
};
