/* XPM */
static char *idle_down51736610286[] = {
/* columns rows colors chars-per-pixel */
"40 40 177 2 ",
"   c #39375F",
".  c #333C63",
"X  c #443B55",
"o  c #4E3D5E",
"O  c #413660",
"+  c #463768",
"@  c #503F62",
"#  c #453B72",
"$  c #533D7B",
"%  c #3B4365",
"&  c #35466F",
"*  c #39486E",
"=  c #384C76",
"-  c #3B5079",
";  c #5A414F",
":  c #42495E",
">  c #514458",
",  c #5A4759",
"<  c #54485D",
"1  c #7A4E4C",
"2  c #7A5C4A",
"3  c #694A52",
"4  c #634C58",
"5  c #62545A",
"6  c #735255",
"7  c #4D4964",
"8  c #4C4F6B",
"9  c #5E5C70",
"0  c #6D4C61",
"q  c #7D7466",
"w  c #87564D",
"e  c #945649",
"r  c #9F5C4A",
"t  c #885D54",
"y  c #B55A45",
"u  c #B95E47",
"i  c #926A4D",
"p  c #8F6153",
"a  c #806D5B",
"s  c #926353",
"d  c #9D6752",
"f  c #9A6854",
"g  c #97685B",
"h  c #9E6A59",
"j  c #9D775B",
"k  c #BD6349",
"l  c #B8684D",
"z  c #A66B54",
"x  c #AB6B54",
"c  c #B36E52",
"v  c #AA7255",
"b  c #AF735A",
"n  c #A87958",
"m  c #B07456",
"M  c #B37A55",
"N  c #B97856",
"B  c #BC7C5B",
"V  c #875A6A",
"C  c #8A7D6E",
"Z  c #947963",
"A  c #867F76",
"S  c #9E7B74",
"D  c #A27469",
"F  c #C1664B",
"G  c #C46A4D",
"H  c #C86F4F",
"J  c #C9704F",
"K  c #CB7251",
"L  c #C67A54",
"P  c #D07753",
"I  c #D47C55",
"U  c #BA815B",
"Y  c #AAAA4F",
"T  c #8D8577",
"R  c #968370",
"E  c #C58852",
"W  c #C5805A",
"Q  c #CC845C",
"!  c #D78057",
"~  c #D88057",
"^  c #D58259",
"/  c #DC8559",
"(  c #D5895D",
")  c #DD8B5C",
"_  c #E38D5D",
"`  c #E6915F",
"'  c #E8935F",
"]  c #C58465",
"[  c #D68C63",
"{  c #DF9062",
"}  c #E59260",
"|  c #EB9661",
" . c #3E5A85",
".. c #4E4B8A",
"X. c #5E4285",
"o. c #485689",
"O. c #425B8C",
"+. c #5B4B93",
"@. c #485B91",
"#. c #575196",
"$. c #53569A",
"%. c #674C99",
"&. c #446492",
"*. c #496795",
"=. c #4D6E9D",
"-. c #4A719C",
";. c #51769C",
":. c #6F7992",
">. c #5E56A2",
",. c #7A4FA3",
"<. c #765CB3",
"1. c #7A5DB7",
"2. c #4D6FA0",
"3. c #5367A2",
"4. c #4F79A4",
"5. c #557AAE",
"6. c #577BB0",
"7. c #6864B3",
"8. c #7D66B3",
"9. c #7969B4",
"0. c #7873BC",
"q. c #93378D",
"w. c #8B3E94",
"e. c #A23386",
"r. c #B03E93",
"t. c #964297",
"y. c #A34A8E",
"u. c #BD408C",
"i. c #AA568F",
"p. c #BB548A",
"a. c #807481",
"s. c #8C4EA0",
"d. c #8E71B8",
"f. c #9079BE",
"g. c #CA4E90",
"h. c #DD6793",
"j. c #E36699",
"k. c #F0789B",
"l. c #5484AD",
"z. c #5B87B6",
"x. c #6597BA",
"c. c #7595B0",
"v. c #658DC6",
"b. c #668FC8",
"n. c #7584C8",
"m. c #639CC2",
"M. c #6994CD",
"N. c #748ED0",
"B. c #6C98D1",
"V. c #709DD0",
"C. c #729FDC",
"Z. c #72A0D9",
"A. c #7DA3E2",
"S. c #78AEE5",
"D. c #7EB7ED",
"F. c #7BC3E7",
"G. c #998F80",
"H. c #AB9C8A",
"J. c #AFA696",
"K. c #B9AE9E",
"L. c #BAB4A6",
"P. c #C4C0B3",
"I. c #8B87CE",
"U. c #8896D9",
"Y. c #94B5DE",
"T. c #86A2E3",
"R. c #92B4E1",
"E. c #87B8F3",
"W. c #88BAF6",
"Q. c #80C2E4",
"!. c #88C3FC",
"~. c #8DD7F2",
"^. c #93DAFD",
"/. c #95E1FC",
"(. c #9BE9FF",
"). c #B0EDF8",
"_. c #DCD9CB",
/* pixels */
"u / | | | | | | | | | | | | | | | | | | ' H G ~ ' | | | | ' I I F y u J u u y y ",
"H ) | | | | | | | | | | | | | | | | | | ' I I _ | | | | | | _ _ _ I J P K H F y ",
"P _ | | | | | | | | | | | | | | | | | | ' ~ _ | | | | | | | | | | ` _ I I _ I H ",
"P _ | | | | | | | | | | | | | | | | | | ' / _ | | | | | | ] } | | | _ ~ ' | _ I ",
"K _ | | | | | | | | | | | | | | | | | | ' | ' | | | | | ] :.S { | | | | | | | ' ",
"k / ' | | | | | | | | | | | | | | | | ' ~ ` | | | | | | D c.a.[ | | | | ' ' | | ",
"y K _ | | | | | | | | | | | | | | | | ' I _ ' | | | | | | D [ | | | | | _ _ | | ",
"G G / | | | | | | | | | | | | | | | | _ H ) | | | | | | | | | | | | | ' I P I _ ",
"I G P ` ' | | | | | | | ' | | | ' ` / H k I ' ' | | | | | | | | | | ' / P H J I ",
"' ~ I I _ ' | | | | | | ' ' ' ' ' _ J F y J _ ' | | | | | | | | | | _ H J _ ' | ",
"| ' / K H _ ' ' ' ' | | ' ` / ' | ' ' / k J / ' | | | | | | | | | | ` I _ ' | | ",
"| | ` _ I H G G P I / _ n W _ ' | | ' ' / P I x , z } | | | | | | | ' _ ` ' | | ",
"| | | | _ F F F J / ) n K.R Q ' | } } { { ^ z 8 *.8 z | | | | | | ` _ ' | | | | ",
"| | | | _ G H P _ ' M H._.T U } ` Q , > > : X * &.* h | | | | | | _ I ` | | | | ",
"| | | | ' I I _ ' | ` n a J.C B 5 < l.l.l.-.*.*. .6 W } | | | | ' / P _ | | | | ",
"| | | ' ` I _ ` ' | | ` ) j H.9 ;.x.F.F.m.m.z.-.&.% X g ) | | | _ J F K _ | | | ",
"| | | _ ~ _ | | | | | | | } 4 =.m.).).(././.Q.l.-.- & 7 d I L I K k y k l K I ~ ",
"/ I P P I | | | | | | | | Q , l.~.(.(.(.(.^.!.Z.4.O.% 1 x N j M I P P P P ~ ) / ",
"~ K F F K _ | | | | | | | 3 =.D.R.Y.^./.^.!.U.T.B. .% 5 q A L.Z ) | | | | | | | ",
"| ' / K G _ | | | | | | | 3 M.U.y.e.I.!.W.f.e.t.n.l.7 A L.P.G.U | | | | | | | | ",
"| | | _ P _ | | | | | | B < V.w.h.j.q.E.T.e.k.g.,.6.= X 2 i H.j | | | | | | | | ",
"| | | _ _ / _ | | | | | 6 & B.d.r.p.d.W.U.s.u.i.0.6.$.# v ' M ) | | | | | | | | ",
"| | | | | / | | | | | | 6 & 2.M.9.8.A.S.C.N.<.0.v.3.<.$ b | | | | | | | | | | | ",
"| | | | | | } | | | | | B < = =.B.C.C.C.C.C.Z.b.&.$.%.V ( | | | | | | | | | | | ",
"| | | | | | ~ / ` | | | Q ; ..O.v.5.v.o.@.M.6.z.o.1.X.t { | | | | | | | | | | | ",
"| | | | | | I I / ' | ' B s @ #.*. .&.= - @.@.7.1.,.0 f ( | | | | | | | | | | | ",
"| | | | | | ~ H G I ! ~ c d s >   +.>.>.>.>.>.%.+ 0 f z ( | | | | | | | | | | | ",
"| | | | | | I F u F G K K x z s t o O O O O . , p f v Q } | | | | | | | | | | | ",
"| | | | | _ P G G G G I ! ^ x z d w w s s s s f v v Q | | | | | | | | | | | | | ",
"| | | | ' I F I ' ' ' | ' ` K k r e e x m b M b L ` } | | | | | | | | | | | | | ",
"| | | | | I _ _ | | | | | ' _ P l y G ` } } } } } | | | | | | | | | | | | | | | ",
"| | | | | _ ' | | | | | | | | _ K k G } | | | | | | | | | | | | | | | | | | | | ",
"| | | ` _ | | | | | | | | | | | _ P J _ ' | | | | | | | | | | | | | | | | | | | ",
"| | | ` I ' | | | | | | | | | | | _ I I _ | | | | | | | | | | | | | | | | | | | ",
"| | | ` | | | | | | | | | | | | | | _ I _ | | | | | | | | | | | | | | | | | | | ",
"| | _ I | | | | | | | | | | | | | | | _ I _ | | | | | | | | | | | | | | | | | | ",
"' _ I I | | | | | | | | | | | | | | | ' I H I | | | | | | | | | | | | | | | | | ",
"_ H I _ | | | | | | | | | | | | | | | ' _ F H I _ | | | | | | | | | | | | | _ _ ",
"F F I | | | | | | | | | | | | | | | | | ` G y u H I _ _ | | | | | | | | | | _ E ",
"y H I | | | | | | | | | | | | | | | | | ' G u u y u H _ | | | | | | | | | _ E Y "
};
