/* XPM */
static char *idle_down21736610285[] = {
/* columns rows colors chars-per-pixel */
"40 40 177 2 ",
"   c #352E4E",
".  c #373151",
"X  c #323B63",
"o  c #443E5B",
"O  c #523F5F",
"+  c #413B62",
"@  c #45386A",
"#  c #453B72",
"$  c #573E7D",
"%  c #35456E",
"&  c #3A4F78",
"*  c #3F5276",
"=  c #47435F",
"-  c #654A56",
";  c #6B4952",
":  c #69525B",
">  c #755153",
",  c #7B5757",
"<  c #7F6752",
"1  c #444264",
"2  c #564765",
"3  c #534B62",
"4  c #585065",
"5  c #4C5476",
"6  c #42577E",
"7  c #4C5579",
"8  c #6C4B60",
"9  c #6F6F6E",
"0  c #87574D",
"q  c #945649",
"w  c #9F5C4A",
"e  c #8A5F52",
"r  c #905F50",
"t  c #B55A45",
"y  c #B95E47",
"u  c #86614D",
"i  c #8A6155",
"p  c #926353",
"a  c #9C6755",
"s  c #9C6954",
"d  c #9F7253",
"f  c #B7634B",
"g  c #BD6349",
"h  c #A76951",
"j  c #B36E52",
"k  c #A57656",
"l  c #AB7256",
"z  c #AF735A",
"x  c #AB7B5C",
"c  c #B07456",
"v  c #BA7C58",
"b  c #986F6A",
"n  c #836F7C",
"m  c #8A787C",
"M  c #907479",
"N  c #A77965",
"B  c #B57C64",
"V  c #A47B71",
"C  c #C1664B",
"Z  c #C46A4D",
"A  c #C86F4F",
"S  c #C9704F",
"D  c #C67655",
"F  c #CB7251",
"G  c #D07753",
"H  c #D47C55",
"J  c #BA815A",
"K  c #AAAA4F",
"L  c #8F8475",
"P  c #948574",
"I  c #A08E7A",
"U  c #C58852",
"Y  c #C4815C",
"T  c #CB835C",
"R  c #CE885A",
"E  c #D78057",
"W  c #D88057",
"Q  c #D2855C",
"!  c #DC8559",
"~  c #D68A5E",
"^  c #DD8A5C",
"/  c #DF905E",
"(  c #E38D5D",
")  c #E6915F",
"_  c #E8935F",
"`  c #C38365",
"'  c #CC8764",
"]  c #D28A63",
"[  c #DB8E62",
"{  c #E59360",
"}  c #EB9661",
"|  c #3E5E8A",
" . c #495582",
".. c #405A82",
"X. c #564F94",
"o. c #774D9F",
"O. c #41638E",
"+. c #496894",
"@. c #486F9B",
"#. c #546D9A",
"$. c #49719D",
"%. c #7D7584",
"&. c #6358A8",
"*. c #5068A0",
"=. c #4F7AA2",
"-. c #547DAD",
";. c #5A7CAF",
":. c #6C67B8",
">. c #6F76BB",
",. c #7975BD",
"<. c #777BC2",
"1. c #9F2D81",
"2. c #93388C",
"3. c #8B3E94",
"4. c #B03586",
"5. c #AA3C90",
"6. c #9F5291",
"7. c #B34886",
"8. c #AF538E",
"9. c #817885",
"0. c #8759A8",
"q. c #936CB1",
"w. c #CA538D",
"e. c #DC6195",
"r. c #E46B97",
"t. c #F0749C",
"y. c #865EC1",
"u. c #8A7BC5",
"i. c #7C8193",
"p. c #5384AE",
"a. c #5A8AB6",
"s. c #5D92B9",
"d. c #6B99BD",
"f. c #739DB5",
"g. c #6A8BC9",
"h. c #6A94C4",
"j. c #6795CA",
"k. c #719FC5",
"l. c #708CD1",
"z. c #6B99D0",
"x. c #7294D4",
"c. c #729FDC",
"v. c #69A3C7",
"b. c #78A4DB",
"n. c #7EBAD8",
"m. c #77A8E1",
"M. c #78ADE6",
"N. c #7CB4EB",
"B. c #7BC7EB",
"V. c #9B9287",
"C. c #A69C8C",
"Z. c #AFA798",
"A. c #B3AD9F",
"S. c #BFB7A8",
"D. c #8B82C8",
"F. c #929CCE",
"G. c #8492D7",
"H. c #909ED2",
"J. c #83B4C9",
"K. c #87A0E2",
"L. c #82BEE7",
"P. c #88B6F2",
"I. c #87BAF5",
"U. c #83C1D9",
"Y. c #86C9E5",
"T. c #86C7ED",
"R. c #8CD1E9",
"E. c #88C6FF",
"W. c #90DBF5",
"Q. c #92D4FC",
"!. c #92DAFF",
"~. c #99E6FF",
"^. c #9BE9FF",
"/. c #AAEDFB",
"(. c #A9F0FF",
"). c #B8F6FF",
"_. c #D5D2C3",
/* pixels */
"y ! } } } } } } } } } } } } } } } } } } _ Z Z W } } } } } _ H G C y y A g t t t ",
"A ^ } } } } } } } } } } } } } } } } } } _ H H ) _ } } } } } ( ( ( H F G A A C t ",
"G ( } } } } } } } } } } } } } } } } } } _ W ( } } } } } } } } } } ) H G H ( H A ",
"G ( } } } } } } } } } } } } } } } } } } _ ! ( } } } } } } } } } } } } ( _ } ( H ",
"S ( } } } } } } } } } } } } } } } } } } _ } _ } } } } } } } } } } } } } _ } } _ ",
"g ! } } } } } } } } } } } } } } } } } _ W ( } } } } } } } } } } } } } } } } } } ",
"t F ( } } } } } } } } } } } } } } } } _ H ( } } } ` b b ] } } } } } } _ ( ( _ } ",
"Z Z ! } } } } } } } } } } } } } } } } ( S ^ } } ` i.d.d.9.[ } } } } } } H F H ( ",
"H Z G ) _ } } } } } } } } } } } } ( ( Z y H _ ` i.Y.(.(.n.%.] } } } _ ! H A F H ",
"_ W H H ( _ } } } } } } } _ _ _ } ( F y t A ( N ;.k.J.f.U.#.` } } } ( Z S ( _ _ ",
"} _ ! F A ( _ _ _ } } } _ ) Q ) } _ ) ( C A ! N ;.L.R.U.T.+.` } } } ) H ( _ } } ",
"} } ) ( W A Z Z S H ! ( _ _ ) _ } } } } H H H T M h.h.b.;.I [ } } } _ ( ) } } } ",
"} } } } ( C C C F ! ^ ) ) _ } } } } } } } ( H E [ M 7 g.#.B , ` _ _ ( _ } } } } ",
"} } } } ( Z A G ( _ } ) k Y } } } [ ^ _ } } ( ! ( [ ' n V 0 7 : ~ ( H ) } } } } ",
"} } } } _ H H ( _ } ( x S.P R } ' - - D Q Q ] D D ( ) [ ) ] : v ) ^ G ( } } } } ",
"} } } _ ( H ( _ } } v C._.L J [ - +.| 1 = = = o - Z ( } ) } [ { ! F g G ( _ } _ ",
"} } _ ) ! ) _ } } } ) J < Z.P J 3 O.a.a.p.p.@.@.* ; f Z S H W W F g t g Z F W W ",
"! H G G H _ } } } } } _ ) d V.7 =.v.R.B.v.j.s.@.$.* ; j H ! ! ( E G F G G E ! ^ ",
"E S Z g S ) } } } } } } _ T 3 $.v./.).^.~.~.T.-.$.O.X a } _ R ) } } } } } } } } ",
"_ _ ! S Z ( } } } } _ _ _ ; | j.W.^.^.^.~.!.E.N.-.| % i J v P v { } } } } } } } ",
"} } } ( H ) _ _ } } } } v 4 ;.I.H.F.Q.!.Q.P.D.G.z.O.* 9 P V.A.d / } } } } } } } ",
"} } _ ) ^ ! ) _ } } } } > ..M.D.8.7.u.I.P.q.7.5.<.;.5 m C.A.V.J } } } } } } } } ",
"} } } } _ / ) } } } } } > & m.3.e.r.2.P.K.1.t.w.o.;.X.5 u d V.J } } } } } } } } ",
"} } } } } } ) _ } } } } > % z.,.5.6.u.I.c.0.4.6.<.>.&.# x } J ] } } } } } } } } ",
"} } } } } } W ! } } } } >  .*.j.,.,.m.M.c.x.,.<.l.:.y.$ z } } } } } } } } } } } ",
"} } } } } } W G W _ } _ l O X.:.x.c.c.x.c.c.c.l.<.o.# 8 T } } } } } } } } } } } ",
"} } } } } _ W A Z H W W j r O # g.>.g.6  .l.>.;.@ 8 e a [ } } } } } } } } } } } ",
"} } } } } _ W Z y C Z F A h r e 2 X +   . + o 4 r r z H { } } } } } } } } } } } ",
"} } } } } ( G Z Z Z Z G W E c h r 0 0 r p p p s l l T } } } } } } } } } } } } } ",
"} } } } _ H Z H _ { } } } ( F f w q q l z x c z D { { } } } } } } } } } } } } } ",
"} } } } _ H ! _ } } } } } } ( G f t g ( { { { { { } } } } } } } } } } } } } } } ",
"} } } } } ( _ } } } } } } } _ ( G g Z { } } } } } } } } } } } } } } } } } } } } ",
"} } } _ ( ) } } } } } } } } } } ( G A ( ) } } } } } } } } } } } } } } } } } } } ",
"} } } ( ! ) } } } } } } } } } } } ( H H ) } } } } } } } } } } } } } } } } } } } ",
"} } } _ } } } } } } } } } } } } } } ) H ( } } } } } } } } } } } } } } } } } } } ",
"} ) ( ! } } } } } } } } } } } } } } } ( H ( _ } } } } } } } } } } } } } } } } } ",
"_ ( H H } } } } } } } } } } } } } } } ) H F H } } } } } } } } } } } } } } } _ _ ",
"! Z F ( } } } } } } } } } } } } } } } } ( C Z H ( } } } } } } } } } } } } } ) ( ",
"Z C H } } } } } } } } } } } } } } } } } ( C t y A H ( ( } } } } } } } } } } ( U ",
"y Z ( } } } } } } } } } } } } } } } } } } Z y y t y A ( } } } } } } } } } ( U K "
};
