/* XPM */
static char *idle_down61736610287[] = {
/* columns rows colors chars-per-pixel */
"40 40 165 2 ",
"   c #363456",
".  c #363B66",
"X  c #49374C",
"o  c #493E5C",
"O  c #423661",
"+  c #493E78",
"@  c #384167",
"#  c #3A4C74",
"$  c #44475D",
"%  c #554355",
"&  c #594A5C",
"*  c #654D4B",
"=  c #644A54",
"-  c #694B52",
";  c #734E53",
":  c #695159",
">  c #705050",
",  c #4C4D69",
"<  c #504065",
"1  c #524666",
"2  c #54566F",
"3  c #6A4A63",
"4  c #656B6F",
"5  c #776F63",
"6  c #87564D",
"7  c #945649",
"8  c #9F5C4A",
"9  c #8A5E54",
"0  c #855D59",
"q  c #945D53",
"w  c #B55A45",
"e  c #B95E47",
"r  c #88654B",
"t  c #8D6054",
"y  c #926353",
"u  c #9B6753",
"i  c #9A775C",
"p  c #BD6349",
"a  c #BB664C",
"s  c #A36751",
"d  c #A66E54",
"f  c #AC6C53",
"g  c #A36D5A",
"h  c #B36E52",
"j  c #A77055",
"k  c #AA7254",
"l  c #AA775C",
"z  c #B27556",
"x  c #B2755B",
"c  c #BF7D5A",
"v  c #916C6A",
"b  c #937560",
"n  c #907E6A",
"m  c #C1664B",
"M  c #C46A4D",
"N  c #C86F4F",
"B  c #C9704F",
"V  c #CB7251",
"C  c #C37E56",
"Z  c #CB7954",
"A  c #D07753",
"S  c #D47C55",
"D  c #BC815C",
"F  c #AAAA4F",
"G  c #96826F",
"H  c #8B8479",
"J  c #958B7C",
"K  c #C58852",
"L  c #C3815A",
"P  c #CB835B",
"I  c #D78057",
"U  c #D88057",
"Y  c #D3855C",
"T  c #DC8559",
"R  c #D68B5D",
"E  c #DD8A5B",
"W  c #DF905E",
"Q  c #E38C5D",
"!  c #E6915F",
"~  c #E8935F",
"^  c #C88665",
"/  c #D48B63",
"(  c #E59260",
")  c #EB9661",
"_  c #3A5581",
"`  c #3E5983",
"'  c #3F5E8A",
"]  c #4F4989",
"[  c #514F8F",
"{  c #445C84",
"}  c #415D8B",
"|  c #4C5E8D",
" . c #485B91",
".. c #595198",
"X. c #66468E",
"o. c #7D4D9F",
"O. c #48678C",
"+. c #466A93",
"@. c #476E9A",
"#. c #4C6B9B",
"$. c #516798",
"%. c #4C739B",
"&. c #52789F",
"*. c #5E56A2",
"=. c #7858AA",
"-. c #765CB4",
";. c #5A67A7",
":. c #4F7AA3",
">. c #537CAC",
",. c #577BB0",
"<. c #7A61AE",
"1. c #6372AF",
"2. c #796DB7",
"3. c #617BBA",
"4. c #7F69C4",
"5. c #99358C",
"6. c #8B3E94",
"7. c #A03180",
"8. c #9E468E",
"9. c #914298",
"0. c #AF598D",
"q. c #B64194",
"w. c #8161AF",
"e. c #8F69B2",
"r. c #C4468F",
"t. c #C15A8C",
"y. c #C94B90",
"u. c #DD6992",
"i. c #F07A9B",
"p. c #5782B0",
"a. c #568BB5",
"s. c #658DC6",
"d. c #688BC9",
"f. c #748ECC",
"g. c #7E8FCE",
"h. c #629BC2",
"j. c #6A92CA",
"k. c #709BCF",
"l. c #6B96D1",
"z. c #7196D7",
"x. c #729FDC",
"c. c #66A4CA",
"v. c #72A0DD",
"b. c #6BB2DB",
"n. c #7CA8E3",
"m. c #7BB0EB",
"M. c #78C4EA",
"N. c #A69B8C",
"B. c #AEA18F",
"V. c #AFA797",
"C. c #B5A999",
"Z. c #BEB9AB",
"A. c #8E80C4",
"S. c #8A8FD4",
"D. c #869BDE",
"F. c #88ABD4",
"G. c #87A0E2",
"H. c #95BBE2",
"J. c #87B8F3",
"K. c #88BDF7",
"L. c #88C1FB",
"P. c #8FD8F8",
"I. c #94DBFD",
"U. c #96E3FC",
"Y. c #DFDCCF",
/* pixels */
"e T ) ) ) ) ) ) ) ) ) ) ) ) ) ) ) ) ) ) ~ M M T ~ ) ) ) ) ~ S A M w e N m w w w ",
"N E ) ) ) ) ) ) ) ) ) ) ) ) ) ) ) ) ) ) ) S S Q ) ) ) ) ) ) Q Q Q S N A V M m e ",
"A Q ) ) ) ) ) ) ) ) ) ) ) ) ) ) ) ) ) ) ~ S Q ) ) ) ) ) ) ) ) ) ) ! T A S Q S M ",
"A Q ) ) ) ) ) ) ) ) ) ) ) ) ) ) ) ) ) ) ~ T Q ) ) ) ) ) ) ) ^ ( ) ) ~ T ~ ) Q S ",
"B Q ) ) ) ) ) ) ) ) ) ) ) ) ) ) ) ) ) ) ~ ) ) ) ) ) ) ) ) ) v / ) ) ) ) ) ) ) ~ ",
"p T ) ) ) ) ) ) ) ) ) ) ) ) ) ) ) ) ) ~ U Q ) ) ) ) ) ) ) ) ) ) ) ) ) ) ~ ~ ) ) ",
"w V Q ) ) ) ) ) ) ) ) ) ) ) ) ) ) ) ) ~ S Q ~ ) ) ) ) ) ) ) ) ) ) ) ) ) Q Q ~ ) ",
"M M T ) ) ) ) ) ) ) ) ) ) ) ) ) ) ) ) Q B Q ) ) ) ) ) ) ) ) ) ) ) ) ) ~ S A S Q ",
"S M A ! ~ ) ) ) ) ) ) ) ~ ~ ) ) ) ! T M e S ! ) ) ) ) ) ) ) ) ) ) ) ~ T S B V S ",
"~ U S S Q ~ ) ) ) ) ) ) ~ ! ~ ~ ) Q V m e B T ) ) ) ) ) ) ) ) ) ) ) Q M B Q ~ ) ",
") ~ T V N Q ~ ~ ~ ~ ) ) k K U ! ) ) Q T m N T ) x = x ) ) ) ) ) ) ) Q S Q ~ ) ) ",
") ) ! Q U N M M B U U k C.G P ~ ) ) ( ( U Z S h 2 +., x ) ) ) ) ) ) ) Q ! ~ ) ) ",
") ) ) ) Q m m m V T k B.Y.H D ! Q Y : % o X ; q # +.. g ) ) ) ) ) ~ Q ) ) ) ) ) ",
") ) ) ) Q M N A E ~ W l 5 V.n c : 1 %.p.:.:.{ , { @ 0 W ) ) ) ) ) Q S Q ) ) ) ) ",
") ) ) ) ~ S S Q ~ ) ) ! E i N.4 &.a.b.b.a.a.>.+.{   9 Y ( ) ) ) ~ T A Q ) ) ) ) ",
") ) ) ~ Q S Q ~ ) ) ) ) ~ ! = %.a.M.M.c.h.h.a.@.@.#   o i ! R ) Q V p A Q ~ ) ~ ",
") ) ) Q U Q ) ) ) ) ) ) ) / & %.h.P.U.U.I.P.m.:.@.} ' O.$ u b c B e w p M V U U ",
"T S S A S ! ) ) ) ) ) ) ) > { p.F.L.U.U.I.K.D.f.%.# ` 4 5 5 Z.i Z S A A A I T E ",
"S V m m V Q ) ) ) ) ) ) ) = #.g.8.7.S.L.K.A.7.6.1.' , H C.Y.J D ) ) ) ) ~ ) ) ) ",
") ~ T V M Q ) ) ) ) ) ) ) - k.6.u.u.5.H.G.7.i.y.o.,.. * 5 r B.i ~ ) ) ) ) ) ) ) ",
") ) ) Q S Q ) ) ) ) ) ) ) - j.w.q.t.e.J.n.9.r.0.2.,.. g ~ ~ k W ) ) ) ) ) ) ) ) ",
") ) ) ! Q U Q ) ) ) ) ) ) - 3.x.<.=.n.m.v.f.=.2.x.3.. g ~ ~ ~ ~ ) ) ) ) ) ) ) ) ",
") ) ) ) ) Q ! ) ) ) ) ) ) - ;.z.n.x.x.x.x.x.x.x.d.;.+ g ) ) ~ ) ) ) ) ) ) ) ) ) ",
") ) ) ) ) ) Q ) ) ) ) ) ) u < $.l.x.l.| $.x.x.d.;.] : L ) ) ) ) ) ) ) ) ) ) ) ) ",
") ) ) ) ) ) S Q ) ) ) ) P f X [ d.,.s.# { d.,.d.-.X.> x E ) ) ) ) ) ) ) ) ) ) ) ",
") ) ) ) ) ) S A U ) ) ( C d t < *.'  ._ `  . .4.=.3 u j R ) ) ) ) ) ) ) ) ) ) ) ",
") ) ) ) ) ) S N M S U S h u d 9 < ..*.*.*.*.-.=.3 u j j R ) ) ) ) ) ) ) ) ) ) ) ",
") ) ) ) ) ) S M e m M V V f d d y O O O o . O 3 u d j P ( ) ) ) ) ) ) ) ) ) ) ) ",
") ) ) ) ) Q A M M M M S I S h s s 9 6 9 y y y u k l P ) ) ) ) ) ) ) ) ) ) ) ) ) ",
") ) ) ) ! S M S ( ) ) ) ( Q Z a 8 7 7 k k z x z L ( ( ) ) ) ) ) ) ) ) ) ) ) ) ) ",
") ) ) ) ! S Q Q ) ) ) ) ) ) Q A a w M Q ( ( ( ( ( ) ) ) ) ) ) ) ) ) ) ) ) ) ) ) ",
") ) ) ) ) Q ~ ) ) ) ) ) ) ) ) Q V p M ) ) ) ) ) ) ) ) ) ) ) ) ) ) ) ) ) ) ) ) ) ",
") ) ) ~ Q ! ! ) ) ) ) ) ) ) ) ) Q A B Q ! ) ) ) ) ) ) ) ) ) ) ) ) ) ) ) ) ) ) ) ",
") ) ) ! Q ! ) ) ) ) ) ) ) ) ) ) ) Q S S ! ) ) ) ) ) ) ) ) ) ) ) ) ) ) ) ) ) ) ) ",
") ) ) ! ~ ) ) ) ) ) ) ) ) ) ) ) ) ) Q S Q ) ) ) ) ) ) ) ) ) ) ) ) ) ) ) ) ) ) ) ",
") ~ Q S ) ) ) ) ) ) ) ) ) ) ) ) ) ) ) ! S Q ) ) ) ) ) ) ) ) ) ) ) ) ) ) ) ) ) ) ",
") Q S S ) ) ) ) ) ) ) ) ) ) ) ) ) ) ) ! S N S ) ) ) ) ) ) ) ) ) ) ) ) ) ) ) ! ) ",
"Q N A Q ) ) ) ) ) ) ) ) ) ) ) ) ) ) ) ) Q m M S Q ) ) ) ) ) ) ) ) ) ) ) ) ) Q Q ",
"M m S ! ) ) ) ) ) ) ) ) ) ) ) ) ) ) ) ) Q M e e N S Q Q ) ) ) ) ) ) ) ) ) ) Q K ",
"w M Q ! ) ) ) ) ) ) ) ) ) ) ) ) ) ) ) ) ! M e e w e B Q ) ) ) ) ) ) ) ) ) Q K F "
};
