/* XPM */
static char *idle_down11736610286[] = {
/* columns rows colors chars-per-pixel */
"40 40 168 2 ",
"   c #323B63",
".  c #4A3C58",
"X  c #413660",
"o  c #463768",
"O  c #503F61",
"+  c #453B72",
"@  c #384468",
"#  c #3D517A",
"$  c #4D445B",
"%  c #59475A",
"&  c #674955",
"*  c #6D4952",
"=  c #665E5C",
"-  c #755153",
";  c #785557",
":  c #494B68",
">  c #5B4F61",
",  c #544469",
"<  c #434F74",
"1  c #43547D",
"2  c #4B5679",
"3  c #5A5C72",
"4  c #6D4C61",
"5  c #704D62",
"6  c #84584C",
"7  c #945649",
"8  c #9F5C4A",
"9  c #885E54",
"0  c #B55A45",
"q  c #B95E47",
"w  c #9B6F4F",
"e  c #8F6153",
"r  c #87685A",
"t  c #926353",
"y  c #9D6752",
"u  c #9A6854",
"i  c #9E7355",
"p  c #B7634B",
"a  c #BD6349",
"s  c #BD694D",
"d  c #A66955",
"f  c #A76F56",
"g  c #B46D53",
"h  c #AB7155",
"j  c #AF735A",
"k  c #A5795A",
"l  c #AB7C5B",
"z  c #B07456",
"x  c #B97B5A",
"c  c #8C6363",
"v  c #80646D",
"b  c #9A7875",
"n  c #B37C67",
"m  c #C1664B",
"M  c #C46A4D",
"N  c #C86F4F",
"B  c #C9704F",
"V  c #CB7251",
"C  c #C97B57",
"Z  c #C37C5A",
"A  c #D07753",
"S  c #D47C55",
"D  c #BC825C",
"F  c #AAAA4F",
"G  c #8F806F",
"H  c #8E8779",
"J  c #948371",
"K  c #BE8166",
"L  c #C58852",
"P  c #C3825A",
"I  c #CA835C",
"U  c #D78057",
"Y  c #D88057",
"T  c #D68259",
"R  c #DC8559",
"E  c #D68A5D",
"W  c #DC8A5C",
"Q  c #DE905E",
"!  c #E38D5D",
"~  c #E6915F",
"^  c #E8935F",
"/  c #C38365",
"(  c #D58B61",
")  c #E59360",
"_  c #EB9661",
"`  c #3E5B85",
"'  c #494883",
"]  c #445B86",
"[  c #5C4E99",
"{  c #545093",
"}  c #56559A",
"|  c #5C549C",
" . c #47628A",
".. c #476A95",
"X. c #4B6A96",
"o. c #51659B",
"O. c #727C94",
"+. c #794FA2",
"@. c #6159A7",
"#. c #7A5DB7",
"$. c #5569A5",
"%. c #4F7AA3",
"&. c #5279A3",
"*. c #5878A7",
"=. c #547AAC",
"-. c #6762B1",
";. c #7A65B1",
":. c #7C6DB8",
">. c #637BBB",
",. c #7874BC",
"<. c #777CC2",
"1. c #9F2E80",
"2. c #93388D",
"3. c #A9398E",
"4. c #B33C85",
"5. c #AA3C91",
"6. c #9B4197",
"7. c #A94E8D",
"8. c #B44F8A",
"9. c #A45490",
"0. c #8954A5",
"q. c #845EBF",
"w. c #8D78BF",
"e. c #9172B8",
"r. c #CA508E",
"t. c #DC6494",
"y. c #E46998",
"u. c #F0769C",
"i. c #8C7FC8",
"p. c #758097",
"a. c #5482AA",
"s. c #588CB3",
"d. c #6998B9",
"f. c #749EB6",
"g. c #78A4BC",
"h. c #5F94C1",
"j. c #648CC5",
"k. c #698BCA",
"l. c #6898CA",
"z. c #6B97D0",
"x. c #7491D1",
"c. c #729FDC",
"v. c #66A1C6",
"b. c #7AA5E3",
"n. c #77ADE3",
"m. c #79AEE6",
"M. c #7DB4E9",
"N. c #79C4E8",
"B. c #9E9588",
"V. c #A99987",
"C. c #AEA796",
"Z. c #BAB3A6",
"A. c #888CD2",
"S. c #92A9D8",
"D. c #87B7D0",
"F. c #87A0E2",
"G. c #87B9F5",
"H. c #83C3E7",
"J. c #83C6EA",
"K. c #88C6FF",
"L. c #8FD9F4",
"P. c #94D6F9",
"I. c #92DAFF",
"U. c #97E5FD",
"Y. c #9BE9FF",
"T. c #ADE8F4",
"R. c #B6F5FE",
"E. c #D8D5C7",
/* pixels */
"q R _ _ _ _ _ _ _ _ _ _ _ _ _ _ _ _ _ _ ^ M M R ^ _ _ _ _ ^ S A m 0 q N m 0 0 0 ",
"N W _ _ _ _ _ _ _ _ _ _ _ _ _ _ _ _ _ _ _ S S ! _ _ _ _ _ _ ! ! ! S V A N M m 0 ",
"A ! _ _ _ _ _ _ _ _ _ _ _ _ _ _ _ _ _ _ _ S R _ _ _ _ _ _ _ _ _ _ ~ R S R ! A M ",
"A ! _ _ _ _ _ _ _ _ _ _ _ _ _ _ _ _ _ _ _ R ! _ _ _ _ _ _ _ _ _ _ _ ~ R ~ _ ~ S ",
"V ! _ _ _ _ _ _ _ _ _ _ _ _ _ _ _ _ _ _ ^ _ ^ _ _ _ _ _ _ _ _ _ _ _ _ _ ^ _ _ _ ",
"a R ^ _ _ _ _ _ _ _ _ _ _ _ _ _ _ _ _ ^ S ! _ _ _ _ _ _ _ _ _ _ _ _ _ _ _ _ _ _ ",
"0 V ! _ _ _ _ _ _ _ _ _ _ _ _ _ _ _ _ ^ S ! _ _ _ _ _ _ _ _ _ _ _ _ _ _ R ! _ _ ",
"M M R _ _ _ _ _ _ _ _ _ _ _ _ _ _ _ _ W V ! _ _ _ _ _ _ _ _ _ _ _ _ _ _ S A S R ",
"S N A ! _ _ _ _ _ _ _ _ _ _ _ _ _ _ R N q S ) _ / v ; / _ _ _ _ _ _ _ R S N N S ",
"^ Y S S ! ^ _ _ _ _ _ _ _ ^ ^ _ _ R V q q V R Z p.D.D.p./ _ _ _ _ _ ! M V R ^ _ ",
"_ ^ R B N ! ^ ^ ^ _ _ ^ _ ~ R ^ _ _ ~ R m N n O.d.g.f.1 K _ _ _ _ _ ! S ! ^ _ _ ",
"_ _ ^ ! S N M M B S Y ^ ) ^ ! _ _ _ _ _ R A d &.H.H.F.X.K _ _ _ _ _ _ ! ^ _ _ _ ",
"_ _ _ _ ! a m m V ! W ! k P _ _ _ _ _ _ _ ! C c *.l.X.b ( ) ) _ _ _ ! _ _ _ _ _ ",
"_ _ _ _ ! M N A R ^ ~ l Z.J L ^ _ _ ( ( E E R d : < r ( ; : x ) _ ! S ! _ _ _ _ ",
"_ _ _ _ ^ S S ! ^ _ x V.E.H D ^ E D & , $ $ 5 x - 9 W 9  ...: I _ R S ! _ _ _ _ ",
"_ _ _ _ ~ S ! ~ _ _ ~ l r C.G z & : =.s.a.&.] . & M ! 9 2 1 $ I R B a V ! _ _ _ ",
"_ _ _ ! R ! ^ _ _ _ _ ^ Q i B.3 %.v.J.N.l.l.s...1 * p s * . g S V q 0 a M V Y Y ",
"R S A V S ^ _ _ _ _ _ _ _ I > %.v.T.R.Y.U.U.N.a.X.# * s S T C Y S S S V V U R W ",
"S A m m V ! _ _ _ _ _ _ _ & ] h.L.Y.Y.Y.U.I.K.m.a.`   6 L P G D _ _ _ _ _ _ _ _ ",
"^ ^ ! V M ! _ _ _ _ _ ^ I > *.M.S.S.P.U.I.G.A.F.l...@ = G H Z.i W _ _ _ _ _ _ _ ",
"_ _ _ ! S ! _ _ _ _ _ _ - ` m.x.7.3.i.G.G.e.4.2.k.*.: e.C.Z.B.D ) _ _ _ _ _ _ _ ",
"_ _ ^ ~ ! Y ! _ _ _ _ _ ; # n.6.t.y.2.G.F.1.u.r.0.*.o., ; w J G _ _ _ _ _ _ _ _ ",
"_ _ _ _ ^ W ^ _ _ _ _ _ - @ z.:.5.8.w.G.b.0.4.9.,.>.@.+ l _ L Q _ _ _ _ _ _ _ _ ",
"_ _ _ _ _ _ ~ ) _ _ _ _ - ' $.k.:.:.b.n.c.x.;.<.j.@.q., z _ _ ^ _ _ _ _ _ _ _ _ ",
"_ _ _ _ _ _ R R ^ _ _ _ f O { $.z.c.c.c.c.c.c.j.o.#.+.4 I _ _ _ _ _ _ _ _ _ _ _ ",
"_ _ _ _ _ _ S A Y ^ _ _ Z e O } k.*.k.< ] k.=.k.#.+.4 u E _ _ _ _ _ _ _ _ _ _ _ ",
"_ _ _ _ _ _ R M N S Y Y g y t $ + | -.[ | -.@.} o & u h E _ _ _ _ _ _ _ _ _ _ _ ",
"_ _ _ _ _ _ S m q m m V V d f t 9 . X X   o . % e u j I ) _ _ _ _ _ _ _ _ _ _ _ ",
"_ _ _ _ _ ! A M M M N S Y S g d d 6 6 e t t t u h h I _ _ _ _ _ _ _ _ _ _ _ _ _ ",
"_ _ _ _ ^ S m S ^ ^ ~ ^ _ ! C p 8 7 7 j j j z z P ) ) _ _ _ _ _ _ _ _ _ _ _ _ _ ",
"_ _ _ _ ^ S ! ~ _ _ _ _ _ _ ! V p 0 m ! ) ) ) ) ) _ _ _ _ _ _ _ _ _ _ _ _ _ _ _ ",
"_ _ _ _ _ ! ^ ^ _ _ _ _ _ _ _ ! A a M _ _ _ _ _ _ _ _ _ _ _ _ _ _ _ _ _ _ _ _ _ ",
"_ _ _ ^ ! _ _ _ _ _ _ _ _ _ _ _ ! A V ! ^ ^ _ _ _ _ _ _ _ _ _ _ _ _ _ _ _ _ _ _ ",
"_ _ _ ~ S ^ _ _ _ _ _ _ _ _ _ _ _ ! S S ^ _ _ _ _ _ _ _ _ _ _ _ _ _ _ _ _ _ _ _ ",
"_ _ _ ~ ^ _ _ _ _ _ _ _ _ _ _ _ _ _ ! S ! _ _ _ _ _ _ _ _ _ _ _ _ _ _ _ _ _ _ _ ",
"_ _ ! S _ _ _ _ _ _ _ _ _ _ _ _ _ _ _ ! S ! ^ _ _ _ _ _ _ _ _ _ _ _ _ _ _ _ _ _ ",
"_ ! S S _ _ _ _ _ _ _ _ _ _ _ _ _ _ _ ^ S N S _ _ _ _ _ _ _ _ _ _ _ _ _ _ _ ^ _ ",
"S N A ! _ _ _ _ _ _ _ _ _ _ _ _ _ _ _ _ ! M M S ! _ _ _ _ _ _ _ _ _ _ _ _ _ ! ! ",
"N m S ^ _ _ _ _ _ _ _ _ _ _ _ _ _ _ _ _ ! M 0 q N S ! ~ _ _ _ _ _ _ _ _ _ _ ! L ",
"q N ! ~ _ _ _ _ _ _ _ _ _ _ _ _ _ _ _ _ ^ M q q 0 0 V ! _ _ _ _ _ _ _ _ _ ! L F "
};
