/* XPM */
static char *idle_down31736610286[] = {
/* columns rows colors chars-per-pixel */
"40 40 171 2 ",
"   c #373151",
".  c #3F3563",
"X  c #443F5B",
"o  c #543F5C",
"O  c #413B62",
"+  c #443B69",
"@  c #3C415C",
"#  c #34436C",
"$  c #3D4D73",
"%  c #3D537C",
"&  c #6E4A54",
"*  c #714E5E",
"=  c #6D535A",
"-  c #795657",
";  c #735358",
":  c #7F644D",
">  c #424262",
",  c #534B62",
"<  c #5C4E62",
"1  c #41526F",
"2  c #585267",
"3  c #424670",
"4  c #434E74",
"5  c #475877",
"6  c #525B77",
"7  c #6B4E62",
"8  c #757572",
"9  c #804A4A",
"0  c #85554D",
"q  c #945649",
"w  c #9F5C4A",
"e  c #835A55",
"r  c #905F50",
"t  c #B55A45",
"y  c #B95E47",
"u  c #8D6153",
"i  c #926452",
"p  c #9B6452",
"a  c #9E6A54",
"s  c #B7634B",
"d  c #BD6349",
"f  c #BF694D",
"g  c #A26651",
"h  c #AC7255",
"j  c #A97658",
"k  c #A57B5E",
"l  c #B07456",
"z  c #B37A55",
"x  c #B7795B",
"c  c #926767",
"v  c #8B777D",
"b  c #987977",
"n  c #A47569",
"m  c #C1664B",
"M  c #C46A4D",
"N  c #C86F4F",
"B  c #C9704F",
"V  c #C67655",
"C  c #CB7251",
"Z  c #C17E5C",
"A  c #D07753",
"S  c #D47C55",
"D  c #B4805D",
"F  c #BD835C",
"G  c #AAAA4F",
"H  c #8E8373",
"J  c #978877",
"K  c #BE8066",
"L  c #C58852",
"P  c #C6825A",
"I  c #CB835C",
"U  c #D78057",
"Y  c #D88057",
"T  c #D3835B",
"R  c #DC8559",
"E  c #D5895E",
"W  c #DD895B",
"Q  c #E38D5D",
"!  c #E6915F",
"~  c #E8935F",
"^  c #C38365",
"/  c #CE8964",
"(  c #D08963",
")  c #DB8E63",
"_  c #DE9062",
"`  c #E59260",
"'  c #EB9661",
"]  c #3D5C88",
"[  c #494580",
"{  c #455584",
"}  c #445A84",
"|  c #544D90",
" . c #4A5590",
".. c #774C9D",
"X. c #795B9D",
"o. c #41618D",
"O. c #486288",
"+. c #4F6799",
"@. c #49719D",
"#. c #766F86",
"$. c #7B7389",
"%. c #7F5DBA",
"&. c #517EA7",
"*. c #557CAE",
"=. c #6967B6",
"-. c #7778BF",
";. c #6C76C1",
":. c #777EC4",
">. c #7B79C1",
",. c #9F2C81",
"<. c #99398D",
"1. c #8B3E94",
"2. c #A92F83",
"3. c #9A4F92",
"4. c #BF4D86",
"5. c #AC4B90",
"6. c #B64091",
"7. c #8460AD",
"8. c #9565AB",
"9. c #8773BF",
"0. c #CB568C",
"q. c #DB5E96",
"w. c #E56D96",
"e. c #EF739D",
"r. c #8872C6",
"t. c #5282AD",
"y. c #5686B2",
"u. c #5888B4",
"i. c #5D8EBE",
"p. c #5B93BC",
"a. c #6B92B4",
"s. c #79A6BD",
"d. c #6989C6",
"f. c #7386CA",
"g. c #6798C5",
"h. c #7294D4",
"j. c #69A5CA",
"k. c #6DA9CC",
"l. c #72A9CA",
"z. c #7BB3CC",
"x. c #77ACDC",
"c. c #76A7E1",
"v. c #78ACE5",
"b. c #7AB3EA",
"n. c #7ECBEE",
"m. c #9B9286",
"M. c #868998",
"N. c #A49D8F",
"B. c #AD9D8C",
"V. c #AFA595",
"C. c #C3BCAD",
"Z. c #8687CC",
"A. c #908FC6",
"S. c #9095CB",
"D. c #8790D5",
"F. c #80AAC2",
"G. c #87A0E2",
"H. c #87B2EF",
"J. c #87B7F3",
"K. c #8AC2E9",
"L. c #88C3F5",
"P. c #91CEF7",
"I. c #8AD3F0",
"U. c #8FD5FF",
"Y. c #92DEF6",
"T. c #92D9FF",
"R. c #98E5FF",
"E. c #9AE9FF",
"W. c #AEEBF7",
"Q. c #B5F5FF",
"!. c #D1CEC0",
/* pixels */
"y R ' ' ' ' ' ' ' ' ' ' ' ' ' ' ' ' ' ' ! N M Y ' ' ' ' ' ~ S A m t y N m t t t ",
"B W ' ' ' ' ' ' ' ' ' ' ' ' ' ' ' ' ' ' ~ S S Q ~ ' ' ' ' ' ! Q Q S C A N N m t ",
"A Q ' ' ' ' ' ' ' ' ' ' ' ' ' ' ' ' ' ' ~ Y R ' ' ' ' ' ' ' ' ' ' ~ R A S Q S N ",
"A Q ' ' ' ' ' ' ' ' ' ' ' ' ' ' ' ' ' ' ' R Q ' ' ' ' ' ' ' ' ' ' ~ ! Q ~ ' Q S ",
"C Q ' ' ' ' ' ' ' ' ' ' ' ' ' ' ' ' ' ' ~ ' ' ' ' ' ' ' ' ' ' ' ' ' ' ' ' ' ' ~ ",
"d R ' ' ' ' ' ' ' ' ' ' ' ' ' ' ' ' ' ~ Y Q ' ' ' ' ' K n ) ' ' ' ' ' ' ' ~ ' ' ",
"t C Q ' ' ' ' ' ' ' ' ' ' ' ' ' ' ' ' ~ S Q ' ' ' ' K M.a.v ) ' ' ' ' ~ Q Q ~ ' ",
"m M R ' ' ' ' ' ' ' ' ' ' ' ' ' ' ' ' Q B W ' ' ' K < F.s.{ ^ ' ' ' ' ~ S A S Q ",
"S M A Q ~ ' ' ' ' ' ' ' ' ' ' ' ' ! R M y S ! ' ' c +.K.z.} ^ ' ' ' ! R S C C S ",
"~ R S S Q ! ' ' ' ' ' ' ~ ~ ~ ' ' Q C m t N Q ' ' / $.x.a.J ) ' ' ' Q M C R ! ' ",
"' ! R C N Q ~ ! ~ ~ ~ ' ' ! R ~ ' ' Q R m N R ' ' ' / #.b _ ' ' ' ' Q S Q ! ' ' ",
"' ' ! Q Y B M M A S R ! ~ ! ! ' ' ' ! ' R A S W ' ' ' ( ) ' ' ` ' ' ' Q ! ' ' ' ",
"' ' ' ' Q m m m B Q Q ! ~ ' ' ' ' ( - T ' W S S ' ' ' ' ' ' ` e E Q Q ' ' ' ' ' ",
"' ' ' ' Q M N A Q ! ' ~ ! ~ ' ' Q ; 5 ; ! ' Q R Q ' ' ' ' ' ' ( ' Q S ! ' ' ' ' ",
"' ' ' ' ! S S Q ! ' ' ! k F ! ' ' I = ^ ' ' ` V B Q ! ' ' ' ' ' ' R S Q ' ' ' ' ",
"' ' ' ' ! S Q ! ~ ~ Q k C.H I ~ ' ! Z I I ^ j X & V Q ' ! ' ' ' R C d C Q ` ' ' ",
"' ' ' ! R Q ~ ' ' ' z B.!.J D ! I x , > # > 1 @.O.& s M C S S R C d t d m C R S ",
"R S A A S ! ' ' ' ' ~ j : V.H k < $ u.p.y.t.t.@.@.1 9 C S W R W U C C S A Y R W ",
"S C m m B ! ' ' ' ' ' ' ' a m.6 &.l.I.n.j.j.g.t.@.5 ; I ' ' ' ' ' ' ' ' ' ' ' ' ",
"~ ~ R B M Q ' ' ' ' ' ' ' P 2 &.k.W.Q.E.E.E.I.i.@.@.% - ( ' P ! ' ' ' ' ' ' ' ' ",
"' ' ' Q A ! ~ ' ' ' ' ' x < @.k.Y.E.E.E.E.R.U.b.y.@.o.@ i h J D ` ' ' ' ' ' ' ' ",
"' ' ' ! Q R ! ' ' ' ' ' - ] i.K.S.A.P.T.T.K.r.D.b.t.5 8 m.N.V.D ` ' ' ' ' ' ' ' ",
"' ' ' ' ' W ~ ' ' ' ' x , o.b.r.4.6.9.L.H.8.4.5.Z.u.1 8 J N.V.k ' ' ' ' ' ' ' ' ",
"' ' ' ' ' ~ ! ~ ' ' ' e # ] c.1.q.w.<.J.G.,.e.0...*. .X.< i J k ' ' ' ' ' ' ' ' ",
"' ' ' ' ' ' R R ! ' ' - [  .g.>.<.5.D.J.H.7.2.3.f.;.%...c ) P Q ' ' ' ' ' ' ' ' ",
"' ' ' ' ' ' S A R ' ' S 7 | =.h.>.:.c.v.c.h.-.f.f.r...* Z ' ' ' ' ' ' ' ' ' ' ' ",
"' ' ' ' ' ~ R M M S R S p o . 3 d.=.d.4 { f.;.u.. + 7 a E ' ' ' ' ' ' ' ' ' ' ' ",
"' ' ' ' ' ~ Y m y m m C C p u u , O O     > . < u u g / ~ ' ' ' ' ' ' ' ' ' ' ' ",
"' ' ' ' ' Q A N M M M A R U l g i 0 0 r i i i a h h P ' ' ' ' ' ' ' ' ' ' ' ' ' ",
"' ' ' ' ! S m S ! ' ' ' ` Q C s w q q h l h l l F ! ' ' ' ' ' ' ' ' ' ' ' ' ' ' ",
"' ' ' ' ! S Q ! ' ' ' ' ' ' Q A s t f ! ` ` ` ` ! ' ' ' ' ' ' ' ' ' ' ' ' ' ' ' ",
"' ' ' ' ~ ! ! ~ ' ' ' ' ' ' ' Q A d M ` ' ' ' ' ' ' ' ' ' ' ' ' ' ' ' ' ' ' ' ' ",
"' ' ' ~ Q ' ' ' ' ' ' ' ' ' ' ' Q A N Q ~ ~ ' ' ' ' ' ' ' ' ' ' ' ' ' ' ' ' ' ' ",
"' ' ' ~ S ~ ' ' ' ' ' ' ' ' ' ' ' Q S S ! ' ' ' ' ' ' ' ' ' ' ' ' ' ' ' ' ' ' ' ",
"' ~ ~ ~ ~ ' ' ' ' ' ' ' ' ' ' ' ' ' ! S Q ' ' ' ' ' ' ' ' ' ' ' ' ' ' ' ' ' ' ' ",
"' Q Q Q ' ' ' ' ' ' ' ' ' ' ' ' ' ' ' Q S Q ' ' ' ' ' ' ' ' ' ' ' ' ' ' ' ' ' ' ",
"~ Q S S ' ' ' ' ' ' ' ' ' ' ' ' ' ' ' ~ S N S ' ' ' ' ' ' ' ' ' ' ' ' ' ' ' ~ ' ",
"S N A Q ' ' ' ' ' ' ' ' ' ' ' ' ' ' ' ~ Q m M S Q ' ' ' ' ' ' ' ' ' ' ' ' ' Q Q ",
"N m S ~ ' ' ' ' ' ' ' ' ' ' ' ' ' ' ' ' Q M y y N S Q Q ' ' ' ' ' ' ' ' ' ~ Q L ",
"y N Q ~ ' ' ' ' ' ' ' ' ' ' ' ' ' ' ' ' ~ M y d t y B Q ' ' ' ' ' ' ' ' ' ! L G "
};
