/* XPM */
static char *idle_down41736610286[] = {
/* columns rows colors chars-per-pixel */
"40 40 169 2 ",
"   c #4D3E57",
".  c #443765",
"X  c #413A62",
"o  c #503F61",
"O  c #453B72",
"+  c #553E7B",
"@  c #3B4260",
"#  c #36426A",
"$  c #35466F",
"%  c #3B517A",
"&  c #4C445C",
"*  c #5D4C5C",
"=  c #654D58",
"-  c #724A50",
";  c #665E5C",
":  c #755153",
">  c #7B5054",
",  c #424166",
"<  c #454D6E",
"1  c #494B69",
"2  c #5B4F61",
"3  c #544469",
"4  c #444571",
"5  c #495179",
"6  c #5A5C72",
"7  c #6D4C61",
"8  c #7B626D",
"9  c #84584C",
"0  c #945649",
"q  c #9F5C4A",
"w  c #875C55",
"e  c #B55A45",
"r  c #B95E47",
"t  c #9B6F4F",
"y  c #8F6153",
"u  c #806A56",
"i  c #926253",
"p  c #9D6752",
"a  c #9A6854",
"s  c #92655A",
"d  c #9E7355",
"f  c #BD634A",
"g  c #BB664C",
"h  c #A76B55",
"j  c #A76F56",
"k  c #B36E52",
"l  c #AB7155",
"z  c #AF735A",
"x  c #A5795A",
"c  c #AB7C5B",
"v  c #B07456",
"b  c #B87C58",
"n  c #867E6F",
"m  c #987C65",
"M  c #8D747B",
"N  c #977977",
"B  c #A27469",
"V  c #B37C67",
"C  c #B87E66",
"Z  c #C1664B",
"A  c #C46A4D",
"S  c #C86F4F",
"D  c #C9704F",
"F  c #CB7251",
"G  c #C97955",
"H  c #C27E5C",
"J  c #D07753",
"K  c #D47C55",
"L  c #BC825C",
"P  c #AAAA4F",
"I  c #8F806F",
"U  c #8E8779",
"Y  c #948371",
"T  c #C58852",
"R  c #C3825B",
"E  c #C9835B",
"W  c #D78057",
"Q  c #D88057",
"!  c #DC8559",
"~  c #D68A5E",
"^  c #DD8A5B",
"/  c #E38D5D",
"(  c #E6915F",
")  c #E8935F",
"_  c #C58465",
"`  c #DB8E62",
"'  c #DD9062",
"]  c #E59260",
"[  c #EB9661",
"{  c #3D5984",
"}  c #494883",
"|  c #455A85",
" . c #425F89",
".. c #59559B",
"X. c #42628E",
"o. c #436592",
"O. c #476E9A",
"+. c #496E9B",
"@. c #536793",
"#. c #4A729D",
"$. c #5F5CA3",
"%. c #794FA2",
"&. c #6157A6",
"*. c #4F7CA5",
"=. c #5878A7",
"-. c #557DAE",
";. c #6565AB",
":. c #6568B0",
">. c #7A65B1",
",. c #7C6DB8",
"<. c #637BBB",
"1. c #7874BC",
"2. c #6E7AC4",
"3. c #7779C0",
"4. c #9F2E80",
"5. c #93388D",
"6. c #8B3E94",
"7. c #A9398E",
"8. c #B33C85",
"9. c #AA3C91",
"0. c #A94E8D",
"q. c #B44F8A",
"w. c #A45490",
"e. c #8954A5",
"r. c #845EBF",
"t. c #8D78BF",
"y. c #9172B8",
"u. c #CA508E",
"i. c #DC6494",
"p. c #F0769C",
"a. c #8369C6",
"s. c #8C7FC8",
"d. c #74869E",
"f. c #5282AB",
"g. c #568BB4",
"h. c #5A8CB9",
"j. c #5B94BD",
"k. c #6386AA",
"l. c #6084B5",
"z. c #6C8BCC",
"x. c #6798CA",
"c. c #708CD1",
"v. c #6B98D0",
"b. c #7293D4",
"n. c #729FDC",
"m. c #69A6CC",
"M. c #78A0DE",
"N. c #6BB2DB",
"B. c #78A9E4",
"V. c #76B9E8",
"C. c #7AC8EC",
"Z. c #898080",
"A. c #9E9588",
"S. c #808596",
"D. c #A99987",
"F. c #AEA796",
"G. c #BAB2A4",
"H. c #BAB5A8",
"J. c #899ECE",
"K. c #878BD2",
"L. c #93A9D6",
"P. c #8CBDD4",
"I. c #87A0E2",
"U. c #87B9F5",
"Y. c #95DBF9",
"T. c #92DAFF",
"R. c #99E6FF",
"E. c #9AE9FF",
"W. c #D8D5C7",
/* pixels */
"r ! [ [ [ [ [ [ [ [ [ [ [ [ [ [ [ [ [ [ ) A A Q ) [ [ [ [ ) K J Z r r S f e e e ",
"S ^ [ [ [ [ [ [ [ [ [ [ [ [ [ [ [ [ [ [ [ K K ( [ [ [ [ [ [ / / / K S J S S Z r ",
"J / [ [ [ [ [ [ [ [ [ [ [ [ [ [ [ [ [ [ [ K ! [ [ [ [ [ [ [ [ [ [ ) ! J ! / K A ",
"J / [ [ [ [ [ [ [ [ [ [ [ [ [ [ [ [ [ [ [ ! / [ [ [ [ [ [ [ [ [ [ ) ( / / [ / K ",
"D / [ [ [ [ [ [ [ [ [ [ [ [ [ [ [ [ [ [ ) ) [ [ [ [ [ [ _ V ' [ [ [ [ [ ) [ ) [ ",
"f ! [ [ [ [ [ [ [ [ [ [ [ [ [ [ [ [ [ ( Q / [ [ [ [ [ _ S.k.N ` [ [ [ [ [ [ [ [ ",
"e F / [ [ [ [ [ [ [ [ [ [ [ [ [ [ [ [ [ K / [ [ [ [ [ 8 P.Y.@._ [ [ [ ) / / ) [ ",
"A A ! [ [ [ [ [ [ [ [ [ [ [ [ [ [ [ [ ^ D ^ [ [ [ [ [ C d.l.M ' [ [ [ ) K J K / ",
"K A J ( [ [ [ [ [ [ [ [ [ [ [ [ [ ( ! A r K ] [ [ [ [ [ C B ` [ [ [ ) ! K S D K ",
") Q K K / ) [ [ [ [ [ [ [ ) ) [ [ / F Z r S / [ [ [ [ [ [ [ [ [ [ [ / S S / ) [ ",
"[ ) ! F S / ) ) ) [ [ ) [ / ! ) [ ( ( ! Z S ! [ [ [ [ [ [ [ [ [ [ [ ( K / ) ) [ ",
"[ ) ( / Q S A A F K Q ( ) ( ( ) [ [ [ / ! J K ! [ [ [ [ [ [ [ [ [ [ ) ( ( ) [ [ ",
"[ [ [ [ / Z Z Z D ! ^ / x R ) [ [ [ ~ w / / K G ` ] [ [ [ [ [ [ [ ) / ] [ [ [ [ ",
"[ [ [ [ / A D K ! [ ( c G.Y E [ [ [ ~ H ~ ` j     s ] [ [ [ [ [ [ / K / [ [ [ [ ",
"[ [ [ [ ) K K ! [ [ b D.W.U L ( ~ R *   & & < { { < h [ [ [ [ [ ) ! J / [ [ [ [ ",
"[ [ [ [ / K / ) [ [ ( c u F.I b = 1 -.g.f.*.+.O.X.# i ] [ [ [ [ / D f J / ( [ [ ",
"[ [ [ / Q / ) [ [ [ [ ) ] d D.6 *.j.V.N.g.g.f.#.o.$ - g F K Q Q F r e f A F Q Q ",
"! K J J K ) [ [ [ [ [ [ [ R 2 #.h.C.C.m.x.x.h.#.O.X.$ : G ! G ! W J J J J W ! ! ",
"K F Z Z F ) [ [ [ [ [ [ [ =  .f.x.Y.E.E.R.T.V.-.O.{ { @ a L m L ) [ [ [ [ [ [ [ ",
"[ [ ! D A / [ [ [ [ [ ) H 2 o.h.J.L.T.R.T.U.K.z.O.{ @ ; n U H.m ' [ [ [ [ [ [ [ ",
"[ [ ] / J / [ [ [ [ [ [ : { g.3.0.7.s.U.U.y.8.9.:.o.5 Z.F.H.A.L ] [ [ [ [ [ [ [ ",
"[ [ [ ) / Q ( [ [ [ [ [ : % B.6.i.i.5.U.I.4.p.u.e.-...3 > t Y Y [ [ [ [ [ [ [ [ ",
"[ [ [ [ [ / ) [ [ [ [ [ : $ v.y.0.q.t.U.n.e.8.w.1.<.&.O b ) T ( [ [ [ [ [ [ [ [ ",
"[ [ [ [ [ [ / [ [ [ [ [ : } z.b.,.,.B.B.n.b.>.3.M.2.r.+ c ) ) ) [ [ [ [ [ [ [ [ ",
"[ [ [ [ [ ) ! ! ( [ [ [ h 3 ;.b.n.n.n.n.n.n.n.M.z.a.%.7 E [ [ [ [ [ [ [ [ [ [ [ ",
"[ [ [ [ [ [ K J ! ] [ ) H i o ;.b.n.v.5 | n.M.c.a.%.7 a ~ [ [ [ [ [ [ [ [ [ [ [ ",
"[ [ [ [ [ ) ! S A K ! K k p w & 4 :.z...$.z.2.=.. 7 a l ~ [ [ [ [ [ [ [ [ [ [ [ ",
"[ [ [ [ [ [ K Z r Z A F S k h i w o X X X , , 2 y a l E ] [ [ [ [ [ [ [ [ [ [ [ ",
"[ [ [ [ [ / J S A A S K K K k h p 9 9 y y i i a l z E [ [ [ [ [ [ [ [ [ [ [ [ [ ",
"[ [ [ [ ) K Z J [ ] ) ] [ / G g q 0 0 l v v v v R ] ] [ [ [ [ [ [ [ [ [ [ [ [ [ ",
"[ [ [ [ ) K / ( [ [ [ [ [ [ / J f e Z ] ] ] ] ] ) [ [ [ [ [ [ [ [ [ [ [ [ [ [ [ ",
"[ [ [ [ [ / ) ) [ [ [ [ [ [ ] / F Z A ] [ [ [ [ [ [ [ [ [ [ [ [ [ [ [ [ [ [ [ [ ",
"[ [ [ ) / [ [ [ [ [ [ [ [ [ [ [ / J F / ( [ [ [ [ [ [ [ [ [ [ [ [ [ [ [ [ [ [ [ ",
"[ [ [ ( K ) [ [ [ [ [ [ [ [ [ [ [ / K K / [ [ [ [ [ [ [ [ [ [ [ [ [ [ [ [ [ [ [ ",
"[ [ [ ) ) [ [ [ [ [ [ [ [ [ [ [ [ [ / K / [ [ [ [ [ [ [ [ [ [ [ [ [ [ [ [ [ [ [ ",
"[ [ / K [ [ [ [ [ [ [ [ [ [ [ [ [ [ [ / K / [ [ [ [ [ [ [ [ [ [ [ [ [ [ [ [ [ [ ",
") / K K [ [ [ [ [ [ [ [ [ [ [ [ [ [ [ ) K D K [ [ [ [ [ [ [ [ [ [ [ [ [ [ [ [ [ ",
"K S J / [ [ [ [ [ [ [ [ [ [ [ [ [ [ [ [ / Z A K / [ [ [ [ [ [ [ [ [ [ [ [ [ / / ",
"S Z K ) [ [ [ [ [ [ [ [ [ [ [ [ [ [ [ [ / A r r D K / / [ [ [ [ [ [ [ [ [ [ / T ",
"r S / ) [ [ [ [ [ [ [ [ [ [ [ [ [ [ [ [ ) A r r e r D / [ [ [ [ [ [ [ [ [ / T P "
};
