/* XPM */
static char *xpm_[] = {
/* columns rows colors chars-per-pixel */
"40 40 218 2 ",
"   c #040000",
".  c #0C0200",
"X  c #130400",
"o  c #1B0501",
"O  c #170905",
"+  c #1D0902",
"@  c #1E1818",
"#  c #230600",
"$  c #2B0700",
"%  c #230902",
"&  c #2C0A01",
"*  c #210D08",
"=  c #330B02",
"-  c #3C0D02",
";  c #2E1007",
":  c #361104",
">  c #3B1104",
",  c #2C1714",
"<  c #371B16",
"1  c #3B2626",
"2  c #362E2C",
"3  c #420F03",
"4  c #441204",
"5  c #4B1404",
"6  c #4C1807",
"7  c #531504",
"8  c #5A1604",
"9  c #551906",
"0  c #5B1A05",
"q  c #591C08",
"w  c #631B06",
"e  c #6B1D06",
"r  c #641E09",
"t  c #701E06",
"y  c #57241A",
"u  c #6C2007",
"i  c #66220A",
"p  c #6D230A",
"a  c #752007",
"s  c #7B2307",
"d  c #74240A",
"f  c #7D2509",
"g  c #7C290C",
"h  c #7D321A",
"j  c #472A29",
"k  c #493739",
"l  c #54353C",
"z  c #5C3739",
"x  c #663329",
"c  c #753722",
"v  c #683938",
"b  c #783C39",
"n  c #59433D",
"m  c #674338",
"M  c #78463B",
"N  c #3C3648",
"B  c #573742",
"V  c #5D3B43",
"C  c #623E44",
"Z  c #693C41",
"A  c #5E4447",
"S  c #624A45",
"D  c #64454B",
"F  c #694748",
"G  c #6C444A",
"H  c #794848",
"J  c #6B524E",
"K  c #7A5248",
"L  c #6D4754",
"P  c #764954",
"I  c #744D54",
"U  c #6E5859",
"Y  c #745756",
"T  c #7A535B",
"R  c #7F615B",
"E  c #6E5A6B",
"W  c #7E6962",
"Q  c #766775",
"!  c #822407",
"~  c #892607",
"^  c #842609",
"/  c #8A2708",
"(  c #842B0C",
")  c #8C2B0B",
"_  c #932C0A",
"`  c #9A2D0B",
"'  c #89310E",
"]  c #95320E",
"[  c #9D320D",
"{  c #812E10",
"}  c #893419",
"|  c #973612",
" . c #9D3611",
".. c #A4340E",
"X. c #A8340D",
"o. c #A53911",
"O. c #A63B14",
"+. c #AC3B12",
"@. c #B33B11",
"#. c #BB3E12",
"$. c #AF4418",
"%. c #B14314",
"&. c #BB4113",
"*. c #804C3C",
"=. c #C34414",
"-. c #C44A17",
";. c #CC4916",
":. c #D54B17",
">. c #D34D18",
",. c #CE5019",
"<. c #D85119",
"1. c #CB6139",
"2. c #874544",
"3. c #83534C",
"4. c #89564E",
"5. c #99594B",
"6. c #844D58",
"7. c #835654",
"8. c #885958",
"9. c #985D58",
"0. c #A65E57",
"q. c #88655C",
"w. c #9C635C",
"e. c #9C6A5D",
"r. c #9D755D",
"t. c #A3685D",
"y. c #925762",
"u. c #8A6669",
"i. c #9A6868",
"p. c #9C6F71",
"a. c #8C7475",
"s. c #957774",
"d. c #A56663",
"f. c #A76A68",
"g. c #AA756A",
"h. c #B2776D",
"j. c #B47969",
"k. c #AC6E71",
"l. c #AA7372",
"z. c #A87976",
"x. c #AE7D7B",
"c. c #B47A74",
"v. c #B67A78",
"b. c #C6766C",
"n. c #9B8273",
"m. c #BC856A",
"M. c #AB877B",
"N. c #B4837C",
"B. c #BE867C",
"V. c #BB8879",
"C. c #B0927B",
"Z. c #DC886A",
"A. c #C5887B",
"S. c #E48D6B",
"D. c #5C5D81",
"F. c #978785",
"G. c #9C928F",
"H. c #B78682",
"J. c #AB998F",
"K. c #B99A8A",
"L. c #B9A798",
"P. c #BDAEA3",
"I. c #C58C84",
"U. c #CA8886",
"Y. c #D28D88",
"T. c #CD9384",
"R. c #C7978A",
"E. c #CB948C",
"W. c #D2958C",
"Q. c #D69A8D",
"!. c #D68D90",
"~. c #C99893",
"^. c #D49C92",
"/. c #D79994",
"(. c #DA9C93",
"). c #DB9D99",
"_. c #E39D99",
"`. c #C2A698",
"'. c #D5A294",
"]. c #DAA396",
"[. c #D4AF93",
"{. c #D9A69A",
"}. c #DDA49B",
"|. c #E0A597",
" X c #E2A49D",
".X c #E1AB9D",
"XX c #C5AAA6",
"oX c #D7A7A2",
"OX c #DBABA3",
"+X c #C8B5A8",
"@X c #D9B5A8",
"#X c #C8BCB3",
"$X c #D4BCB3",
"%X c #DCBDB6",
"&X c #E4ACA3",
"*X c #E8AEA9",
"=X c #E4B2A3",
"-X c #E7B2A7",
";X c #EAB6AB",
":X c #E6BDAC",
">X c #ECBBAC",
",X c #E4B5B1",
"<X c #EDBCB1",
"1X c #F1BDB3",
"2X c #CAC4BD",
"3X c #D7C4B5",
"4X c #DED0BF",
"5X c #F0C0AE",
"6X c #EAC3B8",
"7X c #EDC4BB",
"8X c #F3C3B5",
"9X c #F2C4BC",
"0X c #F3C9BE",
"qX c #DED1C5",
"wX c #F6CBC3",
"eX c #F8CCC4",
"rX c #F3D1C1",
"tX c #F9D3CA",
/* pixels */
"6 X & ! ..:._ / / 3 o +.=.7 $ & o   - ( q 9 _ _ / g o.% $ - ] _ _ ! $ X = _ o . ",
"% X   # i @.4 & 4 s 4 ~ 4 a 8 $ X X 4 #._ s 3 3 - # f : o o e s > & # X % _ $ # ",
"& $ #   e e   . X e ] d . % s } m g.~.L.s.W U j O . e 0 . X - =.a # o . 3 / = # ",
"% $ #   f 9 . $ $ 7 %.p . @ W L.#X$X$X%X%X$X+XXXG.S | [ 4 4 e ( ( 8 X - X.../ r ",
". X X . f 9   o & = ' } n.XX+X:X6X6X8X9XwX0X7X%X$XXXJ.v ^ _ w $ & / w ! 6 = = r ",
"6 4 f _ :.f = X . O n P.+X$X0X0XtXtXeXeXeXwX9X9X,XXX$X#XS & 3 7 s #.X.- . .   X ",
"@./ 5 7 &.( ^ s : z XX+X@X6X0X0XtXtXtXtXwXeX1X1X,XOXXXqX2XM ~ / 9 3 _ $ X # # X ",
"d X . 4 / + & 4 $.C.3X3X:X6X8X0XwXeXeXtXwXwX9X8X,XoXE.L.qXF.& o $ # e a o $ $ o ",
"! + . : =.[ 0 & c `.4X3X:X>X5X5X8XtX8X0X9X1X1X>X*XU.R.H.J.G.@ * $ o - ! 3 o o . ",
"t 7 & e o.e ! 7 m L.4X@X5X>X5X5X8X8X1X;X;X;X-X7XoX^.I.x.s.F.k % $ $ $ 5 ~ $ X = ",
"o ' $.i . . - ..n.+X3X3X=X=X>X>X1X0X9X-X<X9X<X;X&X~.U.N.R Q B . $ $ # # ^ 5 7 _ ",
". ' ( X o X X g C.L.+X3X=X.X-X5X0XrX9X-X<X<X0X0X;X^.x.z.Y U A   # $ X o ^ @.t = ",
"g ,.6   # . . s n.C.+X+XQ.[.|.A.V.B.I.E.|.(.|.I.i.8.K 8.S A K O . X . # p #.% . ",
"] ' e X .   % / n.C.K.C.].|.|.-XT.h.w.f.|.Y.t.*.3.4.7.4.m n K 9 . . o 3 / w . # ",
"q + a w # $ a +.n.n.C.[.].].Q.|.OX{.I.K t.j.K N.I.B.g.I n m A ) $ - f _ <.0 # & ",
": . 6 #.` _  .$.G.n.W n.r.M j..XoXH.d.w.r.*.M g.H z M n Y U J ~ ..;.e = 5 _ & % ",
"= . > / $ # . @ F.R R 4.h.g.E.h.m K f.}.A.>Xh.N.T.v.f.q.a.J z 9 o +.6 . o @.[ e ",
"o . > <.u # # 1 R.N.K.^.g.w.B.U.'.E.].=XA.tX).e.A.c.d.8.M.F j . X / 7 o 6 _ r 7 ",
"o q f 6 e 8 # , M H H.].&X}.t.A.'.=X:XT.Q.tX;X3.j.A.g.f.9.J j O # / 5 3 / = X . ",
"> ) o   X ` % * b 4.V.]. X*X XT.[.=XT.A.OXOXx.Z M 0.5.H Z D 2 = _ ] $ 5 ! o X X ",
" .' $ o : =.( ^ 5.j.A.].Q._._.Y.b.0.2.d.v P V j x d.k.Z V D j f | _ ~ +.5 o $ $ ",
"$._ & X f g ] e j ].{.{.).).)._.!.d.f.{.N.H l l Z k.k.P V V x 6 X o g >.[ / 9 = ",
"% 8 _ ) 0 X 7 e = m '.}. X&X/./.Y.d.&X7X7Xx.B B v y.d.L V B < X .   0 ! o 3 ) a ",
"X % ;.| X X $ w a + V.Q.W.&X&X/.U.c.&X=X~.x.8.B v 7.k.6.G l j # $ . 8 s . X : 1.",
"X 9 ^ g X X & # o...j.A.I.]. X}.U.E.^.K , , , , B G v.i.P B y $ $ X 4 ! # = 0 Z.",
"6 p % e 8 X o X _ 4 8.g.N.^. X}.T.'.i.+ O X O X 1 C x.k.L l } 3 o . % _ 9 t | S.",
"p ; # # ! 4   . _ & F H.i.R. X}.W.R.q., < < < < < C d.l.Z k 7 ^ . . w o._ 0 % c ",
"d + $ = @.[ = 7 &.$ j E.I.I.(.(.W.'.OX[.[.A.m.m.0.7.9.i.C 1 # ! e e 8 + $ $ & ) ",
"6 u o w s 9 _ / ( f d c.I.N.A.Y.A..X;X<X<X'.W.Y.v.q.l.i.B h - p >._ w % + & d 6 ",
"X ! - / : o / o.= p ( 9.I.x.l.H.W.-X&X^.I.v.f.6.Z 7.B.7.v +.) =.+.5 a ^ a o.) # ",
"  ^ 0 ' p o 5 ` $ & ^ x ^.~.f.x.^.,X:X*X*X).U.l.i.z.p.V , $ - :...0 + % % : / 4 ",
". ~ ' [  .$ 8 s # $ _ & a.'.z.u.p.~.oX*X,X!.U.U.l.G C j X # 3 [ = d 8 o # % r o.",
"4 +.;.w / 9 ~ -   & _ * 1 a.z.8.T 7.i.p.y.6.6.P C C V , X $ 5 ~ o X e e 6 ! s ! ",
"s 6 [ = 7 @.w & % i $.& . N Q Q T T T T P P L L C C } * X $ _ 7 X   X t @.7 % X ",
"- $ / 5 X q ;.` ` [ f d # X V D.E U I I L P L V B O.X.3 o # _ - .     : ;.9 % X ",
"X # t t   5 @.$ X .   8 { 9 i 1 B b M P Z C j y t # - ! 5 r ! #   o . O o.r # o ",
"6 f ;.( . 5 ~ o o X   q <.( # X X 4 =.>._ s 8 s w . # 3 ! ` <.- X $ o O o.;.6 o ",
"e & 7 s r _ 7 $ % . i ^ 5 * # # = e  .9 4 > ) >.f X o X o 5 ` 9 $ 8 8 q ) 0 a 9 ",
"o o $ =  .-.= # % 9 ,.{ = - e / _ 6 + # & ; g | ( 0 O     o 5 @.! / -.o.& & = / ",
"% X + o # / t t ! s g @./ _ r t s X o = s ) r . . 9 t - o - ^ _ 4 X ^ 4 X o X q "
};
