/* XPM */
static char *xpm_[] = {
/* columns rows colors chars-per-pixel */
"40 40 137 2 ",
"   c #0E0B02",
".  c #131607",
"X  c #1C1406",
"o  c #161A05",
"O  c #3F0807",
"+  c #201703",
"@  c #3E1308",
"#  c #3B1E09",
"$  c #301B11",
"%  c #172206",
"&  c #1C2907",
"*  c #202B09",
"=  c #3E2E0B",
"-  c #273E0F",
";  c #272610",
":  c #2D2F13",
">  c #302214",
",  c #3B2A16",
"<  c #2C3412",
"1  c #400F0C",
"2  c #500809",
"3  c #5E1E0B",
"4  c #481C14",
"5  c #640C0C",
"6  c #740E0E",
"7  c #72100F",
"8  c #701311",
"9  c #7A1311",
"0  c #7B1913",
"q  c #463B08",
"w  c #4D3D09",
"e  c #432615",
"r  c #452619",
"t  c #4A2A1B",
"y  c #542418",
"u  c #5D2419",
"i  c #4E3D12",
"p  c #40391B",
"a  c #66271B",
"s  c #4E3922",
"d  c #543120",
"f  c #633121",
"g  c #24410A",
"h  c #35500E",
"j  c #324E13",
"k  c #384E16",
"l  c #335114",
"z  c #335A10",
"x  c #3A5E17",
"c  c #346110",
"v  c #3C6915",
"b  c #4E4409",
"n  c #504409",
"m  c #46431D",
"M  c #416A15",
"N  c #48751C",
"B  c #5A4027",
"V  c #5A4B26",
"C  c #68472B",
"Z  c #69482B",
"A  c #754E32",
"S  c #776C3C",
"D  c #7B6F3E",
"F  c #74743B",
"G  c #7C733D",
"H  c #757C3C",
"J  c #7A7C3C",
"K  c #821714",
"L  c #8E1413",
"P  c #941413",
"I  c #9B1312",
"U  c #A71214",
"Y  c #B51616",
"T  c #BD1616",
"R  c #C41617",
"E  c #CD1919",
"W  c #D91817",
"Q  c #D31A1A",
"!  c #DC1A1A",
"~  c #E11B1B",
"^  c #DD2424",
"/  c #DF2B2B",
"(  c #E02D2D",
")  c #845738",
"_  c #8B5C3B",
"`  c #8B613C",
"'  c #93613F",
"]  c #82743E",
"[  c #966441",
"{  c #996541",
"}  c #9D6A44",
"|  c #867241",
" . c #8C7442",
".. c #937444",
"X. c #9A7546",
"o. c #9D7648",
"O. c #9E7848",
"+. c #A56F48",
"@. c #A37549",
"#. c #AA734A",
"$. c #A37849",
"%. c #AC7A4C",
"&. c #B37B4F",
"*. c #B67D50",
"=. c #BB7E51",
"-. c #E34646",
";. c #E54C4C",
":. c #E65252",
">. c #E65A59",
",. c #E96A6A",
"<. c #EC7474",
"1. c #50831E",
"2. c #57911E",
"3. c #538621",
"4. c #5C9A20",
"5. c #76823D",
"6. c #79833D",
"7. c #7D8B3F",
"8. c #64A425",
"9. c #66A328",
"0. c #67A829",
"q. c #6DB12A",
"w. c #71B72C",
"e. c #73BA2D",
"r. c #778340",
"t. c #798640",
"y. c #7F8E44",
"u. c #808F42",
"i. c #BE8153",
"p. c #C18154",
"a. c #C28354",
"s. c #C58455",
"d. c #C58556",
"f. c #C68456",
"g. c #C78556",
"h. c #C78656",
"j. c #ED8484",
/* pixels */
"y.y.y.y.y.y.y.y.y.u.y.u.y.y.y.y.y.y.y.y.y.y.y.y.y.y.y.y.y.y.y.y.y.y.y.y.y.y.y.y.",
"y.y.u.y.y.u.u.y.y.y.y.y.y.y.u.y.y.u.y.u.y.y.y.y.y.y.y.y.y.y.y.y.y.y.y.u.u.y.u.y.",
"u.y.y.y.y.y.y.y.u.y.u.y.u.y.y.y.y.y.y.y.y.y.y.y.y.y.y.y.y.y.y.y.y.y.y.y.y.y.u.y.",
"y.y.u.y.y.u.y.y.y.u.y.t.y.y.y.y.y.y.y.y.y.y.y.y.y.y.y.y.y.y.y.y.y.y.y.y.y.y.y.y.",
"y.y.y.y.y.y.y.y.t.t.t.t.t.y.t.y.t.t.t.t.t.y.y.r.r.r.y.y.y.6.t.y.y.y.y.y.y.y.y.y.",
"y.y.u.y.u.u.y.t.H G S F G H F H S G H G G ] F S G S F F F S F F 5.y.y.y.y.u.y.y.",
"u.y.y.y.y.u.H | ..$.$.$.o.o.o.O.$.$.$.%.%.$.$.%.%.o.O.O.@.%.@.X.| r.u.y.y.u.y.y.",
"y.y.y.y.y.t.G ..*.i.i.i.i.i.i.i.i.p.i.p.f.i.i.f.i.i.i.i.i.i.i.*...G y.y.y.y.y.y.",
"y.y.y.y.y.r.D O.f.f.f.d.h.f.h.d.d.d.d.f.d.d.f.f.d.d.f.f.h.f.h.f.@.| H y.y.y.y.y.",
"u.y.y.u.y.H | %.f.f.d.d.f.h.f.h.d.=.=.i.d.d.d.d.d.d.d.d.f.h.f.h.%.| H y.y.y.y.y.",
"y.y.y.y.y.F ..*.f.d.f.f.d.f.d.f.%.C C #.*.&.*.*.*.i.d.d.f.h.d.h.*. .F y.y.y.y.y.",
"y.y.u.y.y.H | &.h.h.f.f.h.f.f.#.C i i s s d s s B } i.i.f.d.h.h.*.| H t.y.y.y.y.",
"u.y.y.u.y.r. .&.h.f.h.d.h.d.d.} , b n o g l l j k V A [ i.f.f.f.%. .r.y.u.y.y.y.",
"y.y.y.y.y.r.| &.h.f.d.h.d.d.f.} , b n * 1.q.q.q.9.v < m ` *.f.f.&. .r.y.y.y.y.y.",
"y.y.y.y.y.r.| %.h.f.f.f.h.d.d.' r w q % v 0.w.e.e.0.0.N , [ d.h.%.| y.y.y.y.y.y.",
"u.y.y.u.y.r...&.f.h.h.f.d.d.[ f 0 3 +   & M 3.4.q.e.e.3.< ` f.f.&. .r.y.u.y.y.y.",
"y.y.y.y.7.F  .&.f.d.d.d.d.[ f 0 T I 5 5 5 = - l 2.8.q.1.< _ f.h.*. .F r.y.y.y.y.",
"y.y.y.y.t.H ..%.f.d.d.=.[ f 9 E / ^ Q W E 6 O # h c N z ; _ f.h.&...H y.y.y.y.y.",
"y.y.y.y.y.H ..i.f.f.f.#.d 8 R / >.-./ ! ! E R I @ X X . > ' f.f.*...H y.y.y.y.y.",
"y.y.y.y.y.H X.&.h.f.f.+.r 6 ! / ,.<.-.! W ! ~ Q U P 2 $ ) &.f.h.*.o.G y.y.y.y.y.",
"y.u.y.y.y.J ..i.h.d.d.#.r 6 W / ,.j.>.^ W ! ! ! ! W 6 t +.f.a.f.*...r.t.y.y.y.y.",
"y.y.y.y.y.6...&.h.h.f.+.r 6 ! ^ :.<.>.^ W ~ ! ! ! W 6 r #.f.h.h.*...r.y.y.y.u.y.",
"y.y.u.y.y.H ..&.d.d.f.+.r 6 ! ! / ;.;.^ ! ! ! ! ! ! 7 r #.d.f.d.*...H y.u.y.y.y.",
"y.u.y.y.r.F ..i.d.d.d.+.t 6 Q ! ! ( ( ! ! ! ! ! ! Q 7 t +.d.d.h.*...F y.y.y.y.y.",
"y.u.y.y.y.5...*.h.f.d.=.) a L E ~ ! ! W ! ! ! ~ Q L a ) =.d.d.d.&. .H y.y.y.y.y.",
"y.y.y.y.y.6. .%.h.h.d.h.=.) a P E ~ T I P R ~ E P u ) =.d.d.f.f.&. .r.t.y.y.y.y.",
"y.y.y.u.y.r. .%.h.d.f.h.f.=.) u P Y K 4 4 K Y P u _ =.d.h.d.h.h.%. .H y.y.y.y.y.",
"y.u.y.y.r.H  .&.h.h.d.d.f.f.=._ y 1 d ' [ f @ y _ i.f.f.d.h.d.h.&. .H y.y.y.y.y.",
"y.y.y.y.y.F  .*.h.h.f.f.f.f.f.&._ A { =.i.' A _ i.f.h.d.h.d.h.h.*...F t.y.y.y.y.",
"y.y.y.y.t.F ..*.h.h.d.h.h.h.f.f.d.f.h.f.f.f.f.f.d.h.d.d.d.h.d.h.*. .F y.y.u.y.y.",
"y.y.y.y.y.r. .&.h.f.h.f.f.d.f.f.h.f.h.f.d.h.f.d.d.f.f.d.h.f.h.h.%. .t.y.y.u.y.u.",
"y.y.y.y.y.r.G X.*.i.d.f.i.f.f.i.d.f.f.f.f.a.f.f.f.p.a.f.f.f.*.i.o.G y.y.y.y.y.y.",
"y.y.u.y.y.y.r.|  .O.O.@.@.O.O.O.@.@.@.%.%.@.@.%.@.O.@.@.O.@.X. .| H y.y.y.y.y.y.",
"y.y.y.y.y.u.y.r.F S D G G G G G D G G |  .J ] D ] D ] D G D F F 5.y.y.y.u.y.y.u.",
"u.y.y.u.y.y.u.u.y.t.r.r.t.t.y.y.6.r.y.y.t.y.r.r.r.r.r.t.t.r.y.y.y.y.y.y.y.y.y.y.",
"y.y.y.y.y.u.y.y.y.y.y.y.y.y.y.y.y.y.y.y.y.y.y.y.y.y.y.y.y.y.y.y.y.y.y.y.u.y.y.u.",
"y.y.y.y.y.y.y.y.y.y.y.y.y.y.y.y.y.u.y.y.y.y.y.y.y.y.y.y.y.y.y.y.y.y.y.y.y.u.y.y.",
"u.y.u.y.y.u.y.u.y.y.y.y.y.y.y.y.y.y.y.y.y.y.u.y.y.y.y.y.y.y.y.y.y.y.y.u.y.y.y.y.",
"y.y.u.y.y.u.y.y.y.y.y.y.y.y.y.y.u.y.y.u.u.y.y.y.y.y.y.y.y.y.y.y.y.u.y.y.y.y.y.u.",
"y.y.y.y.y.y.y.y.y.y.y.y.y.y.y.y.y.y.y.y.y.y.y.y.y.y.y.y.y.y.y.y.y.y.y.y.y.u.y.y."
};
