/* XPM */
static char *xpm_[] = {
/* columns rows colors chars-per-pixel */
"40 40 146 2 ",
"   c #180602",
".  c #121404",
"X  c #1E1405",
"o  c #250E04",
"O  c #290F06",
"+  c #330D09",
"@  c #221A0E",
"#  c #1D2B07",
"$  c #2C210E",
"%  c #21310C",
"&  c #213909",
"*  c #37350B",
"=  c #2E2C12",
"-  c #3F2B16",
";  c #323114",
":  c #5B0D0C",
">  c #45130E",
",  c #54110A",
"<  c #541D0B",
"1  c #4D1510",
"2  c #441C13",
"3  c #5C1612",
"4  c #69140C",
"5  c #6B1511",
"6  c #6B1C16",
"7  c #771A15",
"8  c #503309",
"9  c #4F2519",
"0  c #562315",
"q  c #552A1F",
"w  c #46351C",
"e  c #593E1C",
"r  c #632118",
"t  c #6B251A",
"y  c #543823",
"u  c #5A3D24",
"i  c #6F3D28",
"p  c #733524",
"a  c #783F2C",
"s  c #26490C",
"d  c #344A0E",
"f  c #2C530F",
"g  c #365316",
"h  c #385216",
"j  c #395E16",
"k  c #4C410A",
"l  c #54470A",
"z  c #5E411E",
"x  c #495C1D",
"c  c #447216",
"v  c #487B17",
"b  c #544A21",
"n  c #66412A",
"m  c #6D482B",
"M  c #76422C",
"N  c #7C422D",
"B  c #754A2F",
"V  c #86100F",
"C  c #840F10",
"Z  c #8B0F10",
"A  c #801613",
"S  c #8D1312",
"D  c #921312",
"F  c #9A1413",
"G  c #A41514",
"H  c #AB1515",
"J  c #B21516",
"K  c #BA1616",
"L  c #C01717",
"P  c #CE1718",
"I  c #C61818",
"U  c #CA1818",
"Y  c #D21817",
"T  c #D51A1A",
"R  c #DC1A1A",
"E  c #E21B1B",
"W  c #D42323",
"Q  c #DE2424",
"!  c #DF2B2B",
"~  c #E02929",
"^  c #E03030",
"/  c #E33A3A",
"(  c #814531",
")  c #855537",
"_  c #875638",
"`  c #8D5638",
"'  c #92573B",
"]  c #945B3B",
"[  c #985D3D",
"{  c #A05F40",
"}  c #B65A45",
"|  c #B95E47",
" . c #9E6541",
".. c #A66A43",
"X. c #AC6D46",
"o. c #BD6249",
"O. c #B86849",
"+. c #B4724A",
"@. c #BA764D",
"#. c #BE794E",
"$. c #E54D4D",
"%. c #E65252",
"&. c #E75E5E",
"*. c #C1664B",
"=. c #C46A4D",
"-. c #C86F4F",
";. c #C9704F",
":. c #C17A4F",
">. c #CB7251",
",. c #C57B50",
"<. c #CC7C52",
"1. c #D07753",
"2. c #D47C55",
"3. c #E86060",
"4. c #EA6B6B",
"5. c #EB7575",
"6. c #4D8519",
"7. c #51891C",
"8. c #59931E",
"9. c #528420",
"0. c #609E22",
"q. c #64A326",
"w. c #69AC27",
"e. c #68A629",
"r. c #6CAF2B",
"t. c #70B62C",
"y. c #74BB2E",
"u. c #AAAA4F",
"i. c #CC8254",
"p. c #C58852",
"a. c #D38457",
"s. c #D88057",
"d. c #DC8559",
"f. c #D68858",
"g. c #DD8A5A",
"h. c #E38D5D",
"j. c #E6915F",
"k. c #E7945F",
"l. c #E8925F",
"z. c #E8935F",
"x. c #E99360",
"c. c #E89460",
"v. c #EA9460",
"b. c #EA9661",
"n. c #EB9661",
"m. c #ED8484",
/* pixels */
"| d.n.n.n.n.n.n.n.n.n.n.n.n.n.n.n.n.n.n.x.=.=.d.x.n.n.n.n.z.2.1.*.} } -.*.} } } ",
"-.g.n.n.n.n.n.n.n.n.n.n.n.n.n.n.n.n.n.n.n.2.2.h.z.n.n.n.n.n.h.h.h.2.>.1.-.-.*.} ",
"1.h.n.n.n.n.n.n.n.n.n.n.n.n.n.n.n.n.n.n.x.2.d.n.n.n.n.n.n.n.n.n.n.l.d.2.2.h.2.-.",
"1.h.n.n.n.n.n.n.n.n.n.n.n.n.n.n.n.n.n.n.n.d.h.n.n.n.n.n.n.n.n.n.n.n.z.d.z.n.h.2.",
"-.h.n.n.n.n.n.n.n.n.n.n.n.n.n.n.n.n.n.n.z.z.n.n.n.n.n.n.n.n.n.n.n.n.n.x.n.n.n.n.",
"o.d.n.n.n.n.n.n.n.n.n.n.n.n.n.n.n.n.n.j.2.h.n.n.n.n.n.n.n.n.n.n.n.n.n.n.z.z.n.n.",
"} >.h.n.n.n.n.n.n.n.n.n.n.n.n.n.n.n.n.j.2.h.n.n.n.n.n.n.n.n.n.n.n.n.n.n.h.h.v.n.",
"*.=.s.n.n.n.n.n.n.n.n.n.n.n.n.n.n.n.j.d.>.g.n.n.n.n.n.n.n.n.n.n.n.n.n.n.2.>.2.d.",
"2.=.1.z.n.n.n.n.n.n.n.n.n.n.n.n.n.n.d.=.o.1.j.n.n.n.n.n.n.n.n.n.n.n.z.d.2.-.>.2.",
"n.2.2.2.h.n.n.n.n.n.n.n.x.z.z.x.n.d.>.o.| -.d.n.n.n.n.n.n.n.n.n.n.n.h.=.>.d.z.x.",
"n.n.d.>.=.h.z.z.x.n.n.v.n.j.2.z.n.n.j.g.o.-.g.x.n.n.n.n.n.n.n.n.n.n.z.2.h.z.v.n.",
"n.n.h.h.2.-.=.=.>.2.2.z.n.z.z.n.n.h.h.j.d.1.2.g.n.n.n.n.n.n.n.n.n.n.x.h.z.n.n.n.",
"n.n.n.n.h.o.*.*.-.d.g.z.n.n.n.x.g.....d.h.g.1.2.j.z.z.n.n.n.n.n.n.z.h.x.n.n.n.n.",
"n.n.n.n.h.=.-.1.d.n.n.n.n.n.x.g...b e '  . .] ' [ #.z.n.n.n.n.n.n.h.2.h.n.n.n.n.",
"n.n.n.n.z.2.2.h.n.n.n.n.n.x.x.:.y k l $ = ; ; ; = m @.i.g.z.n.n.n.g.1.h.z.n.n.n.",
"n.n.n.n.h.2.h.z.n.n.n.n.n.n.v.+.- k l X j 7.7.9.9.x w y  .h.v.v.d.>.*.>.h.x.x.n.",
"n.n.n.h.2.h.z.n.n.n.n.n.n.z.j.@.- k l # c r.y.y.y.8.x j z ] <.s.>.| } o.=.>.s.s.",
"d.2.1.1.2.z.n.n.n.n.n.n.n.k.a.[ 0 8 * . s 7.w.r.t.t.t.e.g y :.g.2.1.1.1.1.s.d.g.",
"2.>.*.*.>.x.n.n.n.n.n.n.z.g.] r D 4 o   X d v 6.q.t.y.r.g u a.n.n.n.n.n.n.n.n.n.",
"n.x.d.>.=.h.n.n.n.n.n.k.f.` t F I J Z Z V < # & c 8.0.q.h b a.n.n.n.n.n.x.n.n.n.",
"n.n.x.h.>.h.n.n.n.n.k.f.' t D W / ^ R R T F : , * s f j % y i.n.n.n.n.n.n.n.n.n.",
"n.n.n.z.h.d.c.n.n.n.k.+.9 S Y ! 3.%.~ R R T P K 4 + O . @ B f.n.n.n.n.n.n.n.n.n.",
"n.n.x.n.n.g.j.n.n.n.k.X.2 D R ^ 4.5.$.Q R R E R K H C + n ,.x.x.n.n.n.n.n.n.n.n.",
"n.n.n.n.x.n.j.k.n.n.k.X.2 D T ^ 4.m.&.Q R R R R E E H > _ j.x.x.n.n.n.n.n.n.n.n.",
"n.n.n.n.n.n.2.d.n.n.x.X.2 S R ! %.5.&.Q R R R R R E H > ) g.n.n.n.n.n.n.n.n.n.n.",
"n.n.n.n.n.x.s.1.s.n.j.X.2 D R R Q %.%.Q R R R R R E H > ) h.n.n.n.n.n.n.n.n.n.n.",
"n.n.n.n.n.n.s.=.=.1.>.{ 2 Z R R R ~ ! R R R R R R R H > _ h.x.n.n.n.n.n.n.n.n.n.",
"n.n.n.n.n.x.s.=.| *.=.O.a 6 G T R R R R R R R R R J 7 N @.n.n.n.n.n.n.n.n.n.n.n.",
"n.n.n.n.x.h.1.=.=.=.=.<.#.M 6 G T E U G G L E R J 7 i #.j.n.n.n.n.n.n.n.n.n.n.n.",
"n.n.n.n.j.2.=.2.n.x.n.c.x.<.N 3 G U F 1 > 7 I K 5 M #.k.n.n.n.n.n.n.n.n.n.n.n.n.",
"n.n.n.n.z.2.d.z.n.n.n.n.x.x.,.N 3 , r ` ] p : 3 N #.k.n.n.n.n.n.n.n.n.n.n.n.n.n.",
"n.n.n.n.n.h.z.n.n.n.n.n.x.n.n.<.M q ( f.h.X.n B #.k.c.n.n.n.n.n.n.n.n.n.n.n.n.n.",
"n.n.n.z.h.l.x.n.n.n.n.n.n.n.n.z.s.O.=.g.z.h.f.g.j.x.n.n.n.n.n.n.n.n.n.n.n.n.n.n.",
"n.n.v.h.d.x.v.n.n.n.n.n.n.n.n.v.v.h.2.2.j.n.n.n.n.n.n.n.n.n.n.n.n.n.n.n.n.n.n.n.",
"n.v.x.z.x.v.n.n.n.n.n.n.n.n.n.n.n.v.h.2.j.n.x.n.n.n.n.n.n.n.n.n.n.n.n.n.n.n.n.n.",
"n.z.h.d.z.n.n.n.n.n.n.n.n.n.n.n.n.n.n.h.2.h.n.x.n.n.n.n.n.n.n.n.n.n.n.n.n.n.n.n.",
"x.d.2.2.n.n.n.n.n.n.n.n.n.n.n.n.n.n.n.z.1.-.2.v.n.n.n.n.n.n.n.n.n.n.n.n.n.n.n.n.",
"d.>.1.h.n.n.n.n.n.n.n.n.n.n.n.n.n.n.n.v.d.*.-.2.g.n.n.n.n.n.n.n.n.n.n.n.n.n.j.g.",
"-.*.2.n.n.n.n.n.n.n.n.n.n.n.n.n.n.n.n.n.x.=.} | -.s.h.j.n.n.n.n.n.n.n.n.n.z.g.p.",
"} -.d.x.n.n.n.n.n.n.n.n.n.n.n.n.n.n.n.n.v.=.} } } | =.g.n.n.n.n.n.n.n.n.n.d.p.u."
};
