/* XPM */
static char *xpm_[] = {
/* columns rows colors chars-per-pixel */
"40 40 146 2 ",
"   c black",
".  c #010101",
"X  c #020202",
"o  c gray1",
"O  c #040404",
"+  c gray2",
"@  c #070707",
"#  c #090608",
"$  c gray3",
"%  c #080908",
"&  c #090909",
"*  c gray4",
"=  c #0B0B0B",
"-  c #0E0E0E",
";  c gray6",
":  c gray7",
">  c #131313",
",  c gray8",
"<  c #141514",
"1  c #1B1A1B",
"2  c #1B1B1B",
"3  c #1D1D1D",
"4  c gray12",
"5  c #20161D",
"6  c #202020",
"7  c gray13",
"8  c #222222",
"9  c #232323",
"0  c gray14",
"q  c #262727",
"w  c gray16",
"e  c #2A2A2A",
"r  c #2C2C2C",
"t  c #392734",
"y  c #3B2F38",
"u  c #313131",
"i  c #323232",
"p  c gray21",
"a  c #373737",
"s  c gray22",
"d  c #3A3A3A",
"f  c gray23",
"g  c #3C3C3C",
"h  c #3F3F3F",
"j  c #402D3B",
"k  c #4C4C4C",
"l  c gray30",
"z  c #4E4E4E",
"x  c gray31",
"c  c #4F504F",
"v  c #505050",
"b  c #515151",
"n  c gray33",
"m  c #565656",
"M  c gray34",
"N  c #585357",
"B  c #565857",
"V  c #585858",
"C  c #595A59",
"Z  c #5A5A5A",
"A  c #606060",
"S  c gray38",
"D  c #626262",
"F  c #676767",
"G  c #686868",
"H  c gray42",
"J  c #6D6D6D",
"K  c #717171",
"L  c gray46",
"P  c gray48",
"I  c gray50",
"U  c #808080",
"Y  c gray51",
"T  c gray52",
"R  c #898989",
"E  c gray54",
"W  c gray55",
"Q  c #8D8D8D",
"!  c #8E8E8E",
"~  c gray57",
"^  c #939393",
"/  c gray58",
"(  c gray59",
")  c #989898",
"_  c gray60",
"`  c #9A9A9A",
"'  c #9B9B9B",
"]  c gray62",
"[  c #9F9F9F",
"{  c #A69FA4",
"}  c #BC98B2",
"|  c #A0A0A0",
" . c gray64",
".. c #A5A5A5",
"X. c gray67",
"o. c #ABACAB",
"O. c #ACACAC",
"+. c gray68",
"@. c #AEAEAE",
"#. c #AFAFAF",
"$. c gray69",
"%. c #B1B1B1",
"&. c #B0B2B1",
"*. c #B2B2B2",
"=. c gray71",
"-. c #B5B6B5",
";. c #B6B6B6",
":. c gray72",
">. c gray73",
",. c #BBBBBB",
"<. c #BCBCBC",
"1. c gray74",
"2. c gray",
"3. c gray75",
"4. c #C18EB3",
"5. c #D692C4",
"6. c #C0C0C0",
"7. c #C1C1C1",
"8. c gray76",
"9. c #C3C3C3",
"0. c gray77",
"q. c #C5C5C5",
"w. c #C6C6C6",
"e. c gray78",
"r. c #C8C8C8",
"t. c gray79",
"y. c #CACACA",
"u. c #CBCBCB",
"i. c #CECECE",
"p. c #D6CFD4",
"a. c #D0D0D0",
"s. c gray82",
"d. c gray83",
"f. c #D7D7D7",
"g. c #D8D8D8",
"h. c gray85",
"j. c #DADADA",
"k. c gray86",
"l. c #DDDDDD",
"z. c #DFDFDF",
"x. c gray88",
"c. c #FFE8FA",
"v. c #F6F6F6",
"b. c #F9F9F9",
"n. c white",
"m. c None",
/* pixels */
"m.m.m.m.m.m.m.m.m.m.m.m.m.m.m.m.m.m.m.m.m.m.m.m.m.m.m.m.m.m.m.m.m.m.m.m.m.m.m.m.",
"m.m.m.m.m.m.m.m.m.m.m.m.m.m.m.m.m.m.m.m.m.m.m.m.m.m.m.m.m.m.m.m.m.m.m.m.m.m.m.m.",
"m.m.m.m.m.m.m.m.m.m.m.m.m.m.m.m.m.m.m.m.m.m.m.m.m.m.m.m.m.m.m.m.m.m.m.m.m.m.m.m.",
"m.m.m.m.m.m.m.m.m.m.m.m.m.m.m.m.m.m.m.m.m.m.m.m.m.m.m.m.m.m.m.m.m.m.m.m.m.m.m.m.",
"m.m.m.m.m.m.m.m.m.m.m.m.m.m.m.m.m.m.m.m.m.m.m.m.m.m.m.m.m.m.m.m.m.m.m.m.m.m.m.m.",
"m.m.m.m.m.m.m.m.m.m.m.m.m.m.m.m.m.m.m.m.m.m.m.m.m.m.m.m.m.m.m.m.m.m.m.m.m.m.m.m.",
"m.m.m.m.m.m.m.m.m.m.m.m.m.m.m.m.m.m.m.m.m.m.m.m.m.m.m.m.m.m.m.m.m.m.m.m.m.m.m.m.",
"m.m.m.m.m.m.m.m.m.m.m.m.m.m.m.m.m.m.m.m.m.m.m.m.m.m.m.m.m.m.m.m.m.m.m.m.m.m.m.m.",
"m.m.m.m.m.m.m.m.m.m.m.m.m.m.m.m.m.m.m.m.m.m.m.m.m.m.m.m.m.m.m.m.m.m.m.m.m.m.m.m.",
"m.m.m.m.m.m.m.m.m.m.m.m.m.m.m.m.m.m.m.m.m.m.m.m.m.m.m.m.m.m.m.m.m.m.m.m.m.m.m.m.",
"m.m.m.m.m.m.m.m.m.m.m.m.m.m.    m.m.m.m.m.m.m.m.    m.m.m.m.m.m.m.m.m.m.m.m.m.m.",
"m.m.m.m.m.m.m.m.m.m.m.m.m.q V % m.m.        m.m.% V q m.m.m.m.m.m.m.m.m.m.m.m.m.",
"m.m.m.m.m.m.m.m.m.m.m.m.  y } N < ; a S S a ; < N } y   m.m.m.m.m.m.m.m.m.m.m.m.",
"m.m.m.m.m.m.m.m.m.m.m.m.  t 4.{ c x ( a.a.( x c  .4.t   m.m.m.m.m.m.m.m.m.m.m.m.",
"m.m.m.m.m.m.m.m.m.m.m.m.m.1 H [ @.<.y.y.u.y.>.@.{ H 2 m.m.m.m.m.m.m.m.m.m.m.m.m.",
"m.m.m.m.m.m.m.m.m.m.m.m.  s @.J ` -.>.y.y.,.-.` H @.s   m.m.m.m.m.m.m.m.m.m.m.m.",
"m.m.m.m.m.m.m.m.m.m.m.m.v ! P ~ f.q.{ :.>.{ 9.f.~ P ! b m.m.m.m.m.m.m.m.m.m.m.m.",
"m.m.m.m.m.m.m.m.m.m.m.m I ! R f.6.6.8.[ [ 0.3.6.g.R W U m m.m.m.m.m.m.m.m.m.m.m.",
"m.m.m.m.m.m.m.m.m.m.o K Y R y.:.V K :.-.-.:.K C :.y.R Y K   m.m.m.m.m.m.m.m.m.m.",
"m.m.m.m.m.m.m.m.m.m.m.< m 7.x.6   = C l.l.C =   6 x.7.m < m.m.m.m.m.m.m.m.m.m.m.",
"m.m.m.m.m.m.m.m.m.m.  T S C j.3   L @.6 0 @.L   3 k.V A T O m.m.m.m.m.m.m.m.m.m.",
"m.m.m.m.m.m.m.m.m.m.m.h 2 ; f %   6 G @.#.G 6   % f ; 2 f m.m.m.m.m.m.m.m.m.m.m.",
"m.m.m.m.m.m.m.m.m.m.m.  % f b O   f o.n.n.X.s   O b f %   m.m.m.m.m.m.m.m.m.m.m.",
"m.m.m.m.m.m.m.m.m.m.m.i N ` 7.x @ C d.c.c.p.C % x 7.` N i m.m.m.m.m.m.m.m.m.m.m.",
"m.m.m.m.m.m.m.m.m.m.O ! a.7.-.<.h   j 5.5.j   h <.-.9.a.! O m.m.m.m.m.m.m.m.m.m.",
"m.m.m.m.m.m.m.m.m.m.o ! f.( e R H 0 # 5 5 # 0 H R e ^ f.!   m.m.m.m.m.m.m.m.m.m.",
"m.m.m.m.m.m.m.m.m.m.  ^ ! 3 <  .$.$.-.$.$.-.$...U ; 3 ! ( O m.m.m.m.m.m.m.m.m.m.",
"m.m.m.m.m.m.m.m.m.m.o F S : : -.f.z.v.n.n.v.x.y.` ; < S F   m.m.m.m.m.m.m.m.m.m.",
"m.m.m.m.m.m.m.m.m.m.  h x f x X.>.7.j.n.n.j.0.q.-.x s x s   m.m.m.m.m.m.m.m.m.m.",
"m.m.m.m.m.m.m.m.m.m.  s 6 i X.[ ) $.j.b.b.j.<.-.-.$.i 0 s   m.m.m.m.m.m.m.m.m.m.",
"m.m.m.m.m.m.m.m.m.m.m.= o   r $.y.q.y.i.i.y.y.u.$.r   O ; m.m.m.m.m.m.m.m.m.m.m.",
"m.m.m.m.m.m.m.m.m.m.m.m.    % J 6.R a s s a R 6.J =     m.m.m.m.m.m.m.m.m.m.m.m.",
"m.m.m.m.m.m.m.m.m.m.m.m.m.  O 6 m i         i m 6 O   m.m.m.m.m.m.m.m.m.m.m.m.m.",
"m.m.m.m.m.m.m.m.m.m.m.m.m.m.                        m.m.m.m.m.m.m.m.m.m.m.m.m.m.",
"m.m.m.m.m.m.m.m.m.m.m.m.m.m.m.m.                m.m.m.m.m.m.m.m.m.m.m.m.m.m.m.m.",
"m.m.m.m.m.m.m.m.m.m.m.m.m.m.m.m.m.m.m.m.m.m.m.m.m.m.m.m.m.m.m.m.m.m.m.m.m.m.m.m.",
"m.m.m.m.m.m.m.m.m.m.m.m.m.m.m.m.m.m.m.m.m.m.m.m.m.m.m.m.m.m.m.m.m.m.m.m.m.m.m.m.",
"m.m.m.m.m.m.m.m.m.m.m.m.m.m.m.m.m.m.m.m.m.m.m.m.m.m.m.m.m.m.m.m.m.m.m.m.m.m.m.m.",
"m.m.m.m.m.m.m.m.m.m.m.m.m.m.m.m.m.m.m.m.m.m.m.m.m.m.m.m.m.m.m.m.m.m.m.m.m.m.m.m.",
"m.m.m.m.m.m.m.m.m.m.m.m.m.m.m.m.m.m.m.m.m.m.m.m.m.m.m.m.m.m.m.m.m.m.m.m.m.m.m.m."
};
