/* XPM */
static char *xpm_[] = {
/* columns rows colors chars-per-pixel */
"40 40 150 2 ",
"   c #020202",
".  c #0D0C0C",
"X  c #130D09",
"o  c #14140D",
"O  c #1B140D",
"+  c #1C1C0E",
"@  c #131313",
"#  c #191614",
"$  c #1C1C1C",
"%  c #20160E",
"&  c #201711",
"*  c #261B13",
"=  c #231E1A",
"-  c #1F2116",
";  c #212411",
":  c #2C2D17",
">  c #2F2219",
",  c #322318",
"<  c #3A2718",
"1  c #3C2A1C",
"2  c #35321B",
"3  c #251922",
"4  c #242424",
"5  c #2B2B2B",
"6  c #302822",
"7  c #3C2C20",
"8  c #32242E",
"9  c #332F2B",
"0  c #3D3325",
"q  c #333129",
"w  c #38332E",
"e  c #342932",
"r  c #343434",
"t  c #3C3937",
"y  c #3C3C3C",
"u  c #422C1C",
"i  c #473827",
"p  c #4E3828",
"a  c #553C26",
"s  c #543B2A",
"d  c #412C3C",
"f  c #433B35",
"g  c #4D3E33",
"h  c #3E4425",
"j  c #484225",
"k  c #4A4926",
"l  c #4E5529",
"z  c #4C4034",
"x  c #534337",
"c  c #5F4939",
"v  c #63432B",
"b  c #68462D",
"n  c #6B482E",
"m  c #744E33",
"M  c #7A5336",
"N  c #7C5538",
"B  c #7D583D",
"V  c #5A6331",
"C  c #6C6636",
"Z  c #776B3C",
"A  c #7D6F3E",
"S  c #657136",
"D  c #6A7539",
"F  c #6F7D3B",
"G  c #72753B",
"H  c #7C733D",
"J  c #747C3C",
"K  c #7A7D3D",
"L  c #4B3245",
"P  c #433D42",
"I  c #444444",
"U  c #4C4C4B",
"Y  c #514E4A",
"T  c #535353",
"R  c #5B5B5B",
"E  c #69605A",
"W  c #72526A",
"Q  c #775D71",
"!  c #646464",
"~  c #6B6B6B",
"^  c #736D68",
"/  c #72706E",
"(  c #737373",
")  c #7D7C7C",
"_  c #835739",
"`  c #845B3C",
"'  c #8C5E3D",
"]  c #8E603E",
"[  c #92623F",
"{  c #82743E",
"}  c #966541",
"|  c #986743",
" . c #916941",
".. c #9C6A45",
"X. c #867241",
"o. c #8C7442",
"O. c #937444",
"+. c #9A7546",
"@. c #9D7748",
"#. c #A46F47",
"$. c #AA744A",
"%. c #A37849",
"&. c #AC7A4D",
"*. c #B1764C",
"=. c #B37B4E",
"-. c #B67D50",
";. c #BA7E51",
":. c #86657D",
">. c #76823E",
",. c #79833D",
"<. c #7D8B3F",
"1. c #778440",
"2. c #798540",
"3. c #7F8E44",
"4. c #808F42",
"5. c #BE8053",
"6. c #83807E",
"7. c #C68556",
"8. c #817F80",
"9. c #838383",
"0. c #8B8B8B",
"q. c #9C8196",
"w. c #929292",
"e. c #989796",
"r. c #9D9D9D",
"t. c #AD82A3",
"y. c #AC88A3",
"u. c #A399A1",
"i. c #B391AB",
"p. c #A3A3A3",
"a. c #ABABAB",
"s. c #B4B4B4",
"d. c #BCBCBC",
"f. c #D198C2",
"g. c #EAA9D9",
"h. c #C2C2C2",
"j. c #C5C5C5",
"k. c gray79",
"l. c #CACACA",
"z. c #CCCCCC",
"x. c #D0D0D0",
"c. c #D4D3D4",
"v. c #DADADA",
"b. c #E5DEE3",
"n. c #E3E3E3",
"m. c #EAEAEA",
"M. c #F7ECF4",
"N. c #F3F3F3",
"B. c #FDF0FA",
"V. c #FCFCFC",
/* pixels */
"3.3.3.4.3.3.4.3.3.3.3.3.3.3.3.3.3.3.3.3.3.3.3.3.3.3.3.3.3.3.3.3.3.3.4.3.3.4.3.3.",
"3.3.3.3.3.3.3.3.3.3.3.3.3.3.3.3.3.3.3.3.3.3.3.3.3.3.3.3.3.3.3.3.3.3.3.3.3.3.3.4.",
"4.3.3.3.3.3.3.3.3.3.3.3.3.3.3.3.3.3.3.4.3.3.3.3.3.3.3.3.3.3.3.3.4.3.3.4.3.4.3.3.",
"3.3.3.4.4.3.3.4.3.3.3.3.3.F S D 3.3.3.3.3.3.3.>.S S 2.3.3.3.3.3.3.3.3.3.3.3.3.3.",
"4.4.4.4.3.3.3.3.3.<.>.,.>.h o ; D E >.F F F >.l o - V >.2.1.3.3.3.3.3.3.3.3.3.3.",
"3.4.4.4.3.4.3.2.G K Z C : U U O V 2 + + + + l j @ R q k G Z G G ,.4.4.3.3.3.3.3.",
"3.3.4.4.<.4.E K O.@.&.[ + Q q.U j w Y / ! t 0 z ! y.e a %.&.%.O.{ K 4.3.3.3.3.3.",
"4.3.4.4.4.<.K @.=.5.7.$.% W i.w.Y E p.z.h.0.T ! u.t.8 v ;.7.;.-.O.G 3.3.3.3.3.3.",
"3.3.4.3.3.,.H $.7.7.;.} & I ) p.a.d.j.z.l.j.s.a.e.~ $ a *.7.7.7.$.{ ,.3.3.3.3.3.",
"3.3.3.3.3.J { &.7.7.} , . ~ e.( a.s.h.l.l.s.s.e.( r.r o s =.7.7.=.{ K 3.3.3.3.3.",
"3.3.3.3.4.J [ -.7.` x 8.9.9.9.p.c.s.a.d.s.a.l.j.w.8.9.0.^ s *.7.&.{ K <.3.3.3.3.",
"4.3.3.4.4.,.{ -.7.} c ^ w.9.p.x.s.h.s.p.a.d.d.h.j.0.w.9.E n =.7.5.[ J <.3.3.3.3.",
"3.3.3.3.3.E { =.7.*.B f R p.j.a.R r.d.a.a.h.( ( h.d.9.U g | 5.7.-.{ K 4.3.4.3.3.",
"3.3.3.3.4.<.{ 5.7.M f e.r.x.p.$ . 4 9.v.j.T @ . z c.s.r.:.i $.7.-.{ ,.4.3.3.3.4.",
"3.3.3.3.4.,.{ &.7.=.` 9 4 p.p.  . w.9.r I a.U   5 c.R 4 g | 7.7.%.<.2.3.3.3.3.3.",
"4.3.3.4.<.,.{ 5.7.7.*.n X P I   . U 8.w.0./ 5   @ R $ < ' 7.7.7.5.O.E 3.3.4.3.3.",
"3.4.3.3.3.D o.-.7.7.=.M 6 r 5     y a.V.m.( 4   . y 5 g ' 5.7.7.=.O.G 2.3.3.4.3.",
"3.3.3.4.2.J O.&.7.-.` r R r.0.$ @ w.n.B.M.x.U . P a.9.I g #.7.7.=.O.J 3.3.3.3.3.",
"3.3.4.4.4.J O.5.7.M t r.s.d.d.w.3 # 8.g.f.P . U a.d.s.a.:.1 #.7.=.O.J <.3.3.3.3.",
"4.3.4.4.2.K +.;.7.b r a.R y ( s.I . 3 L d . 4 ! w.U P 0.w., #.7.;.+.J 3.3.3.4.3.",
"3.3.4.3.4.J O.=.7.b 4 ) y . U d.w.~ ~ ) ( ! ) e.0.$ $ R ! $ $.7.-.O.K 3.3.3.3.3.",
"3.3.3.3.4.K O.-.7.b # U I y ! d.d.l.n.V.N.v.l.l.a.I P I h - #.7.=.O.,.3.3.3.3.3.",
"3.3.3.3.2.J O.=.7.m = y @ ! p.u.u.h.b.V.N.c.j.s.s.r.5 5 t > $.7.-.O.J 3.3.3.3.3.",
"4.3.3.4.4.G +.;.7.=.N #   $ R d.j.l.x.x.c.z.l.j.p.t . . 7 ..5.7.;.O.D 3.3.3.3.3.",
"3.3.3.4.3.,.X.;.7.7.;.m X I ~ Y R a.a.9.0.d.3.T R ~ - 1  .-.7.7.=.O.J 3.3.3.3.3.",
"3.3.3.3.3.E X.5.7.7.7.*.* U R 5 U ~ R y P ( W y r ~ 3 b 7.7.7.7.=.o.>.3.3.3.3.3.",
"3.3.3.3.3.>.o.=.7.7.7.-.u X # T 0.5     .   ! ) r . O m 7.7.7.7.&.o.J 3.3.3.3.3.",
"4.3.3.4.<.J o.=.7.7.7.7.*.p X # $ .         @ # o o _ 5.7.7.7.7.=.o.J <.3.3.3.3.",
"3.3.4.3.3.G  .-.7.7.7.7.7.#.] m .             < ] [ -.7.7.7.7.7.-.[ J <.3.4.3.3.",
"4.3.3.3.3.D O.-.7.7.7.7.7.7.7.*.c v v v v v v ` 7.7.7.7.7.7.7.7.7.{ J <.3.3.3.3.",
"3.3.3.3.3.,.o.&.7.7.7.7.7.7.7.7.7.7.7.7.7.7.7.7.7.7.7.7.7.7.7.7.5.{ >.3.3.3.3.4.",
"3.3.3.3.3.>.H +.-.;.7.7.7.7.7.;.7.7.7.7.7.7.7.7.7.7.5.7.7.7.7.7.%.E 2.3.3.4.3.3.",
"3.3.3.3.3.3.^ { { [ %.@.%.%.+.@.%.%.%.&.&.%.%.$.%.@.$.%.@.%.O.O.X.,.3.3.3.3.3.3.",
"4.3.3.4.3.4.4.,.K ,.H H H H H H X.E H { { { { { { H { E H H G G >.<.3.3.3.4.3.4.",
"3.3.3.3.4.3.4.4.4.<.,.<.2.>.3.3.2.1.2.3.3.<.,.>.,.,.<.<.>.,.3.4.4.3.3.3.3.3.3.3.",
"3.4.3.3.3.3.3.3.4.<.<.4.4.3.3.3.3.3.3.3.4.<.4.3.<.<.3.<.3.3.3.3.3.3.3.3.3.3.4.3.",
"3.4.3.3.3.3.3.3.3.3.3.3.4.3.3.3.3.3.4.3.3.3.3.3.3.3.3.3.3.4.3.3.3.3.3.3.3.3.3.3.",
"3.3.3.4.3.4.4.3.3.3.3.3.3.3.3.3.3.3.3.3.3.3.4.3.3.3.3.3.3.3.3.4.3.3.4.3.3.4.4.3.",
"3.4.3.3.3.4.3.3.3.3.3.3.3.3.3.3.3.4.3.4.4.3.3.3.3.3.3.3.3.4.3.3.3.4.3.3.3.3.4.3.",
"3.3.3.3.3.3.3.3.3.3.3.3.3.3.3.3.3.3.3.3.3.3.4.3.3.3.3.3.3.3.3.3.3.3.3.3.3.3.3.3."
};
