/* XPM */
static char *xpm_[] = {
/* columns rows colors chars-per-pixel */
"40 40 144 2 ",
"   c #020101",
".  c #0C0B0B",
"X  c #160E09",
"o  c #180D09",
"O  c #17100D",
"+  c #1C120B",
"@  c #151515",
"#  c #1C1715",
"$  c #1D1C1C",
"%  c #23140E",
"&  c #261A12",
"*  c #2B1C12",
"=  c #20161E",
"-  c #311C14",
";  c #24201F",
":  c #2C2019",
">  c #352216",
",  c #37251A",
"<  c #241D22",
"1  c #242323",
"2  c #2D2C2C",
"3  c #382C25",
"4  c #322D2D",
"5  c #3A2A35",
"6  c #333333",
"7  c #3C3531",
"8  c #3D3835",
"9  c #3B3B3B",
"0  c #41291A",
"q  c #4C3323",
"w  c #4F3728",
"e  c #553725",
"r  c #5C3827",
"t  c #4B3E37",
"y  c #623D2A",
"u  c #4C443F",
"i  c #564236",
"p  c #5C4537",
"a  c #5F483A",
"s  c #6A442C",
"d  c #684D3C",
"f  c #764C33",
"g  c #7A4E32",
"h  c #7F5134",
"j  c #74533E",
"k  c #5A3D52",
"l  c #424242",
"z  c #4C4C4C",
"x  c #51424D",
"c  c #535353",
"v  c #5B5B5B",
"b  c #685B52",
"n  c #60585C",
"m  c #6F645E",
"M  c #626262",
"N  c #686462",
"B  c #6A6268",
"V  c #6C6C6C",
"C  c #716764",
"Z  c #716E6D",
"A  c #747474",
"S  c #7C7C7C",
"D  c #874B35",
"F  c #835336",
"G  c #81553A",
"H  c #8B593B",
"J  c #935B3C",
"K  c #9F593F",
"L  c #A75D42",
"P  c #B65A45",
"I  c #B95E47",
"U  c #966344",
"Y  c #9D6341",
"T  c #A26743",
"R  c #AA6445",
"E  c #A36945",
"W  c #AC6D47",
"Q  c #BD6249",
"!  c #BA6B4A",
"~  c #B5734B",
"^  c #BC764E",
"/  c #BF794F",
"(  c #845F7A",
")  c #826D7D",
"_  c #81777D",
"`  c #C1664B",
"'  c #C46A4D",
"]  c #C86E4F",
"[  c #C2744E",
"{  c #C9704F",
"}  c #C27C4F",
"|  c #CB7250",
" . c #C37D51",
".. c #CD7C53",
"X. c #D07753",
"o. c #D47C55",
"O. c #AAAA4F",
"+. c #CB8154",
"@. c #C58852",
"#. c #D28556",
"$. c #D88057",
"%. c #DC8559",
"&. c #D68858",
"*. c #DC8A5A",
"=. c #E38D5D",
"-. c #E6915E",
";. c #E8935F",
":. c #EB9661",
">. c #9F6C91",
",. c #B67CA6",
"<. c #838383",
"1. c #8F838C",
"2. c #8C8C8C",
"3. c #958490",
"4. c #959595",
"5. c #989196",
"6. c #9C9C9C",
"7. c #A19DA0",
"8. c #BB93B0",
"9. c #A3A3A3",
"0. c #ABABAB",
"q. c #BFADBA",
"w. c #B2B2B2",
"e. c #B4B4B4",
"r. c #B7B7B7",
"t. c #BABABA",
"y. c #BCBCBC",
"u. c #C290B5",
"i. c #C1C1C1",
"p. c #C2C2C2",
"a. c #C5C5C5",
"s. c #C9C9C9",
"d. c #CBCBCB",
"f. c gray80",
"g. c gray82",
"h. c #D4D4D4",
"j. c gray85",
"k. c #DCDCDC",
"l. c #EBCBE2",
"z. c #FAD5F0",
"x. c #E6E6E6",
"c. c gray92",
"v. c gray96",
"b. c #FDFDFD",
/* pixels */
"I %.:.:.:.:.:.:.:.:.:.:.:.:.:.:.:.:.:.:.-.] ' o.:.:.:.:.:.;.o.o.` P I ] ` P P P ",
"] *.:.:.:.:.:.:.:.:.:.:.:.:.:.:.:.:.:.:.:.o.o.-.;.:.:.:.:.:.-.=.=.o.| X.] ] ` P ",
"X.=.:.:.:.:.:.:.:.:.:.:.:.:.:.:.:.:.:.:.:.o.*.:.:.:.:.:.:.:.:.:.:.-.=.X.o.=.o.] ",
"X.=.:.:.:.:.:.:.:.:.:.:.:.:.:.:.:.:.:.:.;.%.=.:.:.:.:.:.:.:.:.:.:.;.-.%.;.:.=.o.",
"| =.:.:.:.:.:.:.:.:.:.:.:.:.:.:.:.:.:.:.-.:.:.:.:.:.:.:.:.:.:.:.:.:.:.:.;.:.;.:.",
"Q %.:.:.:.:.:.:.:.:.:.:.:.:.:.:.:.:.:.-.$.=.:.:.:.:.:.:.:.:.:.:.:.:.:.:.:.:.:.:.",
"P | =.:.:.:.:.:.:.:.:.:.;.Y s F =.:.:.-.o.=.:.~ s f +.:.:.:.:.:.:.:.:.:.=.=.-.:.",
"` ' %.:.:.:.:.:.:.:.:.-.W p $ * @.~ Y J D J #.H . 4 G ..:.:.:.:.:.:.:.-.o.X.o.=.",
"o.' X.=.;.:.:.:.:.:.:.&.> n B 3 Y e $ 1 ; # F j 4 _ 4 h ;.:.:.:.:.:.-.%.o.{ | o.",
";.%.o.o.=.-.:.:.:.:.:.#.* ( 8.Z 3 l S 0.9.v 3 u 1.u.5 f :.:.:.:.:.:.=.' | =.-.:.",
":.-.%.| ] =.-.-.;.;.;.#.* x 3.7.<.4.t.s.a.0.2.2.7.) < h :.:.:.:.:.:.=.o.%.:.:.:.",
":.:.-.=.$.] ] ' { o.[ f X c 2.2.0.y.a.s.s.i.r.9.2.S 1 0 T ;.:.:.:.:.:.=.-.:.:.:.",
":.:.:.:.=.` ` ` | } H 7 4 S 4.S r.w.r.a.i.w.r.6.S 6.c 2 i ~ -.;.:.:.=.:.:.:.:.:.",
":.:.:.:.=.' ] X.=.J t 6.0.<.<.t.k.r.0.w.w.9.f.g.9.A 6.9.S w +.;.:.=.o.=.:.:.:.:.",
":.:.:.:.-.o.o.=.-.&.U 7 M 2.t.j.2.s.i.4.9.j.9.9.k.9.S z i ^ -.;.:.%.o.=.:.:.:.:.",
":.:.:.:.-.o.=.-.;.W d A <.y.w.M 6 v 6.g.a.S l l <.f.9.S m g &.;.%.| Q | =.:.-.:.",
":.:.:.=.%.=.;.:.;.E a S A a.7.  . 9 S 9.6.B 1   2 j.4.S C y [ o.| Q P Q ` | $.$.",
"%.o.o.X.o.-.:.:.:.;.~ , . <.<.. . 4.<.6 z 0.z   1 0.9 o r ..%.%.%.%.X.X.X.$.*.%.",
"o.| ` ` | -.:.:.:.:.*.W : $ $     1 <.k.a.z @   . 1 @ y +.:.:.:.:.:.:.:.:.:.:.:.",
":.;.%.| ` =.:.:.:.:.} w 8 V c   . S j.b.v.y.l   $ A z 7 f -.:.:.:.:.:.:.:.:.:.:.",
":.:.:.%.o.-.;.:.:.~ j N <.w.9.c @ M q.z.l.5.6 1 A r.6.A b H &.:.:.:.:.:.:.:.:.:.",
":.:.:.-.*.%.-.:.:.h 6 r.7.4.0.0.2 . k ,.>.= . v r.6.6.w.2.: +.:.:.:.:.:.:.:.:.:.",
":.:.:.:.:.*.-.:.:.h 4 6.9 @ c r.M 2 1 2 2 $ l A <.1 @ V <.:  .:.:.:.:.:.:.:.:.:.",
":.:.:.:.:.;.-.-.:.h $ v z $ z i.e.0.r.f.s.0.0.y.6.$ 6 v z &  .:.:.:.:.:.:.:.:.:.",
":.:.:.:.:.:.%.%.-.h @ z 2 c 2.0.0.i.x.b.v.h.i.y.0.S 9 9 9 &  .:.:.:.:.:.:.:.:.:.",
":.:.:.:.:.:.$.X.$.T w 4 . z 2.9.0.i.k.c.c.g.i.t.w.S $ $ 8 s #.:.:.:.:.:.:.:.:.:.",
":.:.:.:.:.:.$.' ' o.R -   @ c 9.9.i.i.r.t.s.w.9.2.6 . X s *.:.:.:.:.:.:.:.:.:.:.",
":.:.:.:.:.:.o.' I ` ! K % m A 1 2 4.2.v V 0.M 1 9 <.2 s #.:.:.:.:.:.:.:.:.:.:.:.",
":.:.:.:.:.=.X.' ' ' ' ! & 1 9 z <.c 2 @ $ 6 A A l 6 . f :.:.:.:.:.:.:.:.:.:.:.:.",
":.:.:.:.-.o.' o.-.:.:.*.H * X 6 c $         9 z 1 . e ~ :.:.:.:.:.:.:.:.:.:.:.:.",
":.:.:.:.:.o.%.-.:.:.:.:.-.F 0 -               + , e / :.:.:.:.:.:.:.:.:.:.:.:.:.",
":.:.:.:.:.=.-.:.:.:.:.:.:.-.*.~ - X o + + + + s &.*.-.:.:.:.:.:.:.:.:.:.:.:.:.:.",
":.:.:.-.=.=.:.:.:.:.:.:.:.:.:.=.[ R L ! }  . .#.-.:.:.:.:.:.:.:.:.:.:.:.:.:.:.:.",
":.:.:.-.=.;.:.:.:.:.:.:.:.:.:.:.:.=.o.o.=.:.:.:.:.:.:.:.:.:.:.:.:.:.:.:.:.:.:.:.",
":.:.:.-.-.:.:.:.:.:.:.:.:.:.:.:.:.;.-.o.=.-.:.:.:.:.:.:.:.:.:.:.:.:.:.:.:.:.:.:.",
":.-.=.%.:.:.:.:.:.:.:.:.:.:.:.:.:.:.:.=.%.=.:.:.:.:.:.:.:.:.:.:.:.:.:.:.:.:.:.:.",
";.=.o.o.:.:.:.:.:.:.:.:.:.:.:.:.:.:.:.-.o.] o.:.:.:.:.:.:.:.:.:.:.:.:.:.:.:.:.:.",
"%.] X.=.:.:.:.:.:.:.:.:.:.:.:.:.:.:.:.:.=.` ] o.*.:.:.:.:.:.:.:.:.:.:.:.:.:.-.%.",
"] ` o.:.:.:.:.:.:.:.:.:.:.:.:.:.:.:.:.:.-.` P I ] $.=.=.:.:.:.:.:.:.:.:.:.:.*.@.",
"P ' %.:.:.:.:.:.:.:.:.:.:.:.:.:.:.:.:.:.-.] P I P I ] =.:.:.:.:.:.:.:.:.:.=.@.O."
};
