/* XPM */
static char *xpm_[] = {
/* columns rows colors chars-per-pixel */
"40 40 142 2 ",
"   c #020202",
".  c #0B0604",
"X  c #0F0A06",
"o  c #0C0B0B",
"O  c #160F0B",
"+  c #180D09",
"@  c #1D120C",
"#  c #131313",
"$  c #1C1C1C",
"%  c #251912",
"&  c #2B1B12",
"*  c #251F1C",
"=  c #2B1F18",
"-  c #311C14",
";  c #362216",
":  c #382317",
">  c #3D2318",
",  c #242424",
"<  c #2C2C2C",
"1  c #3F322A",
"2  c #333333",
"3  c #3B3532",
"4  c #3B3B3B",
"5  c #42291B",
"6  c #4A2E1F",
"7  c #413026",
"8  c #4F3220",
"9  c #553524",
"0  c #583724",
"q  c #593825",
"w  c #553928",
"e  c #453B35",
"r  c #603826",
"t  c #6E3D2B",
"y  c #4D4037",
"u  c #594539",
"i  c #62412D",
"p  c #69422B",
"a  c #634735",
"s  c #6B4832",
"d  c #624B3C",
"f  c #734B32",
"g  c #7B4F33",
"h  c #714D3B",
"j  c #72503A",
"k  c #7A563F",
"l  c #434343",
"z  c #494644",
"x  c #4B4B4B",
"c  c #5B4B41",
"v  c #504E4C",
"b  c #51504F",
"n  c #545454",
"m  c #595553",
"M  c #5C5C5C",
"N  c #665850",
"B  c #6F6159",
"V  c #636363",
"C  c #6B6B6B",
"Z  c #78706B",
"A  c #747474",
"S  c #7D7773",
"D  c #7F7A77",
"F  c #7B7B7B",
"G  c #835336",
"H  c #8A5639",
"J  c #87593C",
"K  c #8D5A3B",
"L  c #925D3D",
"P  c #A75D42",
"I  c #B65A45",
"U  c #B95E47",
"Y  c #976444",
"T  c #9E6441",
"R  c #AB6445",
"E  c #A36843",
"W  c #B76648",
"Q  c #BD6249",
"!  c #B66C49",
"~  c #BA6B4A",
"^  c #AF714A",
"/  c #B2714A",
"(  c #BC774D",
")  c #BE794F",
"_  c #C1664B",
"`  c #C46A4D",
"'  c #C86E4F",
"]  c #C9704F",
"[  c #CB7250",
"{  c #C37C51",
"}  c #CC7D53",
"|  c #D07753",
" . c #D47C55",
".. c #AAAA4F",
"X. c #82807E",
"o. c #CD8354",
"O. c #C58852",
"+. c #D38456",
"@. c #D88057",
"#. c #DC8559",
"$. c #D68858",
"%. c #DC8A5A",
"&. c #E38D5D",
"*. c #E6915E",
"=. c #E8935F",
"-. c #EB9661",
";. c #848484",
":. c #8B8B8B",
">. c #939393",
",. c #959595",
"<. c #979695",
"1. c #979797",
"2. c gray60",
"3. c #9A9A9A",
"4. c #9B9B9B",
"5. c #9D9D9D",
"6. c #9F9F9F",
"7. c gray63",
"8. c #A3A3A3",
"9. c #A4A4A4",
"0. c #A5A5A5",
"q. c gray65",
"w. c gray66",
"e. c #A9A9A9",
"r. c gray67",
"t. c #ACACAC",
"y. c #AFAFAF",
"u. c #B1B1B1",
"i. c #B2B2B2",
"p. c gray71",
"a. c #BBBBBB",
"s. c #BCBCBC",
"d. c gray",
"f. c gray75",
"g. c gray76",
"h. c #C3C3C3",
"j. c #C5C5C5",
"k. c #C6C6C6",
"l. c gray78",
"z. c gray79",
"x. c #CACACA",
"c. c #CBCBCB",
/* pixels */
"U #.-.-.-.-.-.-.-.-.-.-.-.-.-.-.-.-.-.-.-.` ` @.-.-.-.-.-.*. .| ` I U ] Q I I I ",
"' %.-.-.-.-.-.-.-.-.-.-.-.-.-.-.-.-.-.-.-. . .&.-.-.-.-.-.-.&.&.&. .] | ] ' ` I ",
"| &.-.-.-.-.-.-.-.-.-.-.-.-.-.-.-.-.-.-.-. .$.-.-.-.-.-.-.-.-.-.-.*.#. . .&. .' ",
"| &.-.-.-.-.-.-.-.-.-.-.-.-.-.-.-.-.-.-.-.#.&.-.-.-.-.-.-.-.-.-.-.-.*.#.=.-.&. .",
"[ &.-.-.-.-.-.-.-.-.-.-.-.%.$.$.-.-.-.-.*.-.-.&.$.$.*.-.-.-.-.-.-.-.-.-.-.-.=.=.",
"Q #.-.-.-.-.-.-.-.-.-.-.=.G ; 0 $.-.-.*. .&.-.E : 5 ) -.-.-.-.-.-.-.-.-.=.-.-.-.",
"I [ &.-.-.-.-.-.-.-.-.%.G c 2 & O.L p p r p ( K # z a ^ -.-.-.-.-.-.-.-.#.&.-.-.",
"_ ` #.-.-.-.-.-.-.-.-.+.& V F e J 7 < 4 3 , s j z :.< g -.-.-.-.-.-.-.-. .|  .&.",
" .` | *.-.-.-.-.-.-.-.+.= C r.F 2 n :.t.0.C 4 x <.0.< g -.-.-.-.-.-.=.#. .' '  .",
"-.@. . .&.-.-.-.-.-.*.o.& 4 ;.8.2.y.s.c.h.s.0.6.4.C $ f &.=.-.-.-.-.&.` ' &.=.-.",
"-.=.#.[ ' &.=.=.*.=.{ 8 X V >.X.r.h.c.c.c.c.a.2.F >.< % g *.-.-.-.-.=.| &.-.-.-.",
"-.-.*.&. .[ ` ` ] R h M M X.:.;.9.s.c.c.c.c.i.<.;.:.C M N L %.-.-.-.-.&.&.-.-.-.",
"-.-.-.-.&.Q Q _ ] H y <.r.;.;.i.0.s.c.c.c.c.u.0.w.F 6.9.S w o.=.-.-.&.-.-.-.-.-.",
"-.-.-.-.&.` [  .#.$.Y 3 M >.p.l.l.c.c.c.c.c.c.l.h.0.F l y ( =.=.-.&. .&.-.-.-.-.",
"-.-.-.-.=. . .#.=.L y <.6.r.a.c.c.c.c.c.c.c.c.c.c.h.r.8.D w o.=.-.#.| &.-.-.-.-.",
"-.-.-.-.&. .&.-.-.) k m v >.s.s.c.c.c.c.c.c.;.n n M 8.:.N L %.=.#.[ Q | %.-.-.-.",
"-.-.-.-.@.&.=.-.-.-.{ 0 o x :.1.a.l.z.c.a.:.l $ , , C m t }  .@.[ Q I Q _ [ @.@.",
"#. .[ [  .-.-.-.-.-.&./ 1 , < n >.a.z.h.9., l M n x $ 9 W #.#.#.#.@.| |  .@.#.#.",
"@.[ _ _ [ &.-.-.-.*.^ e >.2.V $ < 2.s.a.0.< F 2.M n $ o i $.=.=.-.-.-.-.-.-.-.-.",
"-.-.#.[ ` &.-.-.-.T u :.y.C n :.>.a.l.6.b X.u.a.<.n # x Z p +.=.-.-.-.-.-.-.-.-.",
"-.-.-.#. .&.-.-.-.g 2 r.i.x x l.z.c.c.<.$ F <.0.s.:., V ;.= O.-.-.-.-.-.-.-.-.-.",
"-.-.-.*.&.#.&.-.-.g $ F ;.n C l.c.c.c.>.$ M M A r.:.< l M & { -.-.-.-.-.-.-.-.-.",
"-.-.-.-.*.%.=.-.-.g o # # A s.c.c.c.s.:.2 8.:.M x , o o # @ { -.-.-.-.-.-.-.-.-.",
"-.-.-.-.-.-.*.-.-.g # 2 o C f.c.c.c.F z 8.h.a.A < A , , < % { -.-.-.-.-.-.-.-.-.",
"-.-.-.-.-.-.@.#.=.) f * . A f.f.c.c.V , F ;.V M F w.2 # 1 L $.*.-.-.-.-.-.-.-.-.",
"-.-.-.-.-.-.@.| @.=.{ i 0 B >.a.f.c.V $ x 4 4 A y.X.d q G *.-.-.-.-.-.-.-.-.-.-.",
"-.-.-.-.-.-.@.` _ @.@. .! 6 y 8.1.r.M # 4 $ M 4.:.* K +.=.-.-.-.-.-.-.-.-.-.-.-.",
"-.-.-.-.-.-.@.` Q _ _ ~ : . o $ , x <   # 4 < $ $   O G -.-.-.-.-.-.-.-.-.-.-.-.",
"-.-.-.-.-.&.| ` ` ` ` ~ &   # 4 4 , o     # < 4 2     g -.-.-.-.-.-.-.-.-.-.-.-.",
"-.-.-.-.&. .`  .=.=.=.%.H & # < , o         $ < , X 0 / -.-.-.-.-.-.-.-.-.-.-.-.",
"-.-.-.-.-. .#.=.-.-.-.-.=.G 5 -               O > 8 O.-.-.-.-.-.-.-.-.-.-.-.-.-.",
"-.-.-.-.-.&.=.-.-.-.-.-.-.*.$.! - + + @ @ @ @ s %.%.=.-.-.-.-.-.-.-.-.-.-.-.-.-.",
"-.-.-.=.&.*.-.-.-.-.-.-.-.-.-.&.{ R P ! { { { +.-.-.-.-.-.-.-.-.-.-.-.-.-.-.-.-.",
"-.-.-.&.#.-.-.-.-.-.-.-.-.-.-.-.-.&. . .&.-.-.-.-.-.-.-.-.-.-.-.-.-.-.-.-.-.-.-.",
"-.-.-.-.-.-.-.-.-.-.-.-.-.-.-.-.-.-.&. .&.-.-.-.-.-.-.-.-.-.-.-.-.-.-.-.-.-.-.-.",
"-.-.&. .-.-.-.-.-.-.-.-.-.-.-.-.-.-.-.&. .&.-.-.-.-.-.-.-.-.-.-.-.-.-.-.-.-.-.-.",
"-.#. . .-.-.-.-.-.-.-.-.-.-.-.-.-.-.-.*. .' @.-.-.-.-.-.-.-.-.-.-.-.-.-.-.-.-.-.",
"#.] [ &.-.-.-.-.-.-.-.-.-.-.-.-.-.-.-.-.#._ `  .#.-.-.-.-.-.-.-.-.-.-.-.-.-.=.%.",
"' _  .-.-.-.-.-.-.-.-.-.-.-.-.-.-.-.-.-.-.` I U ' @.&.=.-.-.-.-.-.-.-.-.-.-.%.O.",
"I ' #.-.-.-.-.-.-.-.-.-.-.-.-.-.-.-.-.-.=.` I U I U ' #.-.-.-.-.-.-.-.-.-.&.O..."
};
