/* XPM */
static char *xpm_[] = {
/* columns rows colors chars-per-pixel */
"40 40 141 2 ",
"   c #020201",
".  c #080503",
"X  c #0D0D0D",
"o  c #110B07",
"O  c #130F0C",
"+  c #190F0A",
"@  c #1B110B",
"#  c #141414",
"$  c #191212",
"%  c #1D1916",
"&  c #1B1B1B",
"*  c #2B1610",
"=  c #251B15",
"-  c #2A1B13",
";  c #342116",
":  c #3A2217",
">  c #352318",
",  c #3E281A",
"<  c #251D22",
"1  c #232323",
"2  c #2F2926",
"3  c #292929",
"4  c #342C27",
"5  c #3C342F",
"6  c #3D2C37",
"7  c #333332",
"8  c #3F3739",
"9  c #3C3B3B",
"0  c #472B1C",
"q  c #482E1E",
"w  c #443226",
"e  c #4A382D",
"r  c #513223",
"t  c #573825",
"y  c #523228",
"u  c #553B2B",
"i  c #5E3D29",
"p  c #493B32",
"a  c #4B433E",
"s  c #5C493E",
"d  c #63412C",
"f  c #6A432C",
"g  c #70462E",
"h  c #73492F",
"j  c #6D4932",
"k  c #7A4330",
"l  c #764C32",
"z  c #7A4E34",
"x  c #714A3C",
"c  c #7C543C",
"v  c #434343",
"b  c #4D4548",
"n  c #4C4C4C",
"m  c #534C48",
"M  c #5D544F",
"N  c #594D56",
"B  c #545454",
"V  c #585657",
"C  c #5B5B5B",
"Z  c #60495A",
"A  c #785F50",
"S  c #695664",
"D  c #705060",
"F  c #78556F",
"G  c #646464",
"H  c #6D6C6C",
"J  c #736B66",
"K  c #737373",
"L  c #787370",
"P  c #7B7977",
"I  c #7A7178",
"U  c #7B7B7B",
"Y  c #844E35",
"T  c #845436",
"R  c #895739",
"E  c #865A3F",
"W  c #99623F",
"Q  c #835441",
"!  c #805A43",
"~  c #B65A45",
"^  c #B95E47",
"/  c #9E6441",
"(  c #A36945",
")  c #AC6D47",
"_  c #B26547",
"`  c #BD6249",
"'  c #B5744A",
"]  c #BB774D",
"[  c #BF7A4F",
"{  c #897263",
"}  c #C1664B",
"|  c #C46A4D",
" . c #C86E4F",
".. c #C3764F",
"X. c #C9704F",
"o. c #CB7250",
"O. c #C67E52",
"+. c #C97C52",
"@. c #D07753",
"#. c #D47C55",
"$. c #AAAA4F",
"%. c #CD8254",
"&. c #C58852",
"*. c #D38456",
"=. c #D88057",
"-. c #DC8559",
";. c #D68958",
":. c #DC8A5A",
">. c #E38D5D",
",. c #E7915F",
"<. c #E8935F",
"1. c #EB9661",
"2. c #838383",
"3. c #8B8380",
"4. c #8D8D8D",
"5. c #959595",
"6. c #9B9B9B",
"7. c #AB8EA3",
"8. c #B582A7",
"9. c #A4A4A4",
"0. c #ABABAB",
"q. c #B4A6B1",
"w. c #B9AFB6",
"e. c #B4B4B4",
"r. c #BEBEBE",
"t. c #D7A3C9",
"y. c #C5C5C5",
"u. c #CBCBCB",
"i. c gray82",
"p. c LightGray",
"a. c #D7D7D7",
"s. c #DED3DB",
"d. c gray85",
"f. c #E2E2E2",
"g. c #E4E4E4",
"h. c gray92",
"j. c #F9E5F3",
"k. c gray95",
"l. c #FAF9FA",
"z. c #FBFBFB",
"x. c white",
/* pixels */
"^ -.1.1.1.1.1.1.1.1.1.1.1.1.1.1.1.1.1.1.>. .| =.1.1.1.1.1.,.#.@.} ~ ^  .} ~ ~ ~ ",
" .:.1.1.1.1.1.1.1.1.1.1.1.1.1.1.1.1.1.1.1.#.#.>.1.1.1.1.1.1.>.>.>.#. .@. . .} ~ ",
"@.>.1.1.1.1.1.1.1.1.1.1.1.1.1.1.1.1.:.*.,.*.-.1.1.1.1.1.1.1.1.1.1.,.-.@.#.>.#. .",
"@.>.1.1.1.1.1.1.1.1.1.1.1.1.1.1.1.<.E r %.-.>.1.1.1.1.1.1.1.1.1.1.1.,.>.<.1.>.#.",
"o.>.1.1.1.1.1.1.1.1.1.1.1.1./ R *.T e 5 d [ 1.1.1.1.1.1.1.1.1.1.1.1.1.1.<.1.<.<.",
"` -.1.1.1.1.1.1.1.1.1.1.:.) u w E p N S $ f [ 1.1.1.1.1.1.1.1.1.1.1.1.1.1.1.1.1.",
"~ o.>.1.1.1.1.1.1.1.1.1.O.> 9 b 2 G 7.8.< % j *.1.1.1.1.1.1.1.1.1.1.1.<.>.>.1.1.",
"} | -.1.1.1.1.1.1.1.1.1.+.= F 8.H 7 I q.V U J t *.1.1.1.1.1.1.1.1.1.1.<.#.@.#.>.",
"#.| @.>.1.1.1.1.1.1.1.1.+.= Z 7.9.K 9.a.e.p.9.m l ] 1.1.1.1.1.1.1.1.,.>.@. .X.#.",
"<.-.#.#.>.<.1.1.1.1.1.:.( 3 n 4.y.u.g.x.z.d.0.K 8 A O.1.1.1.1.1.1.1.>.| X.>.,.1.",
"1.,.-.o. .>.<.,.<.<.<./ 6 H 6.r.r.y.f.z.f.G 7 G 6.N a %.1.1.1.1.1.1.>.#.>.,.1.1.",
"1.1.,.>.#. . .| X.=.=.+.! 9 4.9.B H r.a.G & X 3 H $.F i [ 1.1.1.1.1.1.>.,.<.1.1.",
"1.1.1.1.>.} } } o.-.-.[ Q M 6.9.B 9 5.y.&   3 C 9 5.w.D ! ] 1.1.1.,.>.1.1.1.1.1.",
"1.1.1.1.>.|  .#.*.%.%.z 2 6.y.r.5.9 U e.&   B 0.3 5.j.t.6 x 1.1.1.>.#.,.1.1.1.1.",
"1.1.1.1.,.#.#.-.] , - O & $.q.5.9 G K C X   # 1 X 6.z.s.8 l 1.1.1.-.@.>.1.1.1.1.",
"1.1.1.1.>.#.>.( u 5 7 u c a G U H n n v X < 7 v 2.p.p.L ! ' 1.1.-.o.` @.>.,.1.1.",
"1.1.1.>.-.>.,.l # n H { W t 5 C 5.V 9 9 7 n G 6.h.p.$.6 ~ #.#.:.o.` ~ ` } o.=.=.",
"-.#.@.o.#.<.<.l # B 6.P ; ' i 3 H 9.H 7 K H 6.f.f.K y _  .#.-.-.-.=.@.@.@.=.-.:.",
"=.X.} } X.,.1.l # B 9.P - [ i 7 9.y.e.4.H 5.r.r.B x _ :.1.1.1.1.1.1.1.1.1.1.1.1.",
"1.<.>.X.| >.1.' d 7 K V O d s B H e.u.0.n 2.0.0.2.A / :.1.1.1.1.1.1.1.1.1.1.1.1.",
"1.1.<.>.@.,.<.1.' = n v     V G 1 6.u.6.1 G 6.e.h.H w >.1.1.1.1.1.1.1.1.1.1.1.1.",
"1.1.1.,.>.-.>.1.' - U H   X C G & 5.y.6.1 C e.k.l.H w -.1.1.1.1.1.1.1.1.1.1.1.1.",
"1.1.1.1.1.:.<.<.' = H G & K 4.H & C U H v 7 2.z.l.S w -.1.1.1.1.1.1.1.1.1.1.1.1.",
"1.1.1.1.1.<.,.,.%.g M v 7 H 5.K # v B B n & B a.k.H w :.1.1.1.1.1.1.1.1.1.1.1.1.",
"1.1.1.1.1.1.=.-.1.-.d 4 9 # G K # v B n v # 9 5.y.C 0 :.1.1.1.1.1.1.1.1.1.1.1.1.",
"1.1.1.1.1.1.=.@.#.1.%.c o   # # X v B v & . 1 B 7 # 0 ;.1.1.1.1.1.1.1.1.1.1.1.1.",
"1.1.1.1.1.1.=.| | #.#.z           & 1 & . 1 3 & .   $ f %.1.1.1.1.1.1.1.1.1.1.1.",
"1.1.1.1.1.1.#.| ^ | | k       . # & & & & 7 1         @ ' 1.1.1.1.1.1.1.1.1.1.1.",
"1.1.1.1.1.>.@.| | | | Y @     # v v v v v &         . - ' 1.1.1.1.1.1.1.1.1.1.1.",
"1.1.1.1.,.#.} #.1.1.1.*./ @   . # # # # # .         > ( :.1.1.1.1.1.1.1.1.1.1.1.",
"1.1.1.1.,.#.>.,.1.1.1.1.;.T f 0               o i l / 1.1.1.1.1.1.1.1.1.1.1.1.1.",
"1.1.1.1.<.,.,.<.1.1.1.1.1.1.<._ : * - ; ; ; ; y %.,.1.1.1.1.1.1.1.1.1.1.1.1.1.1.",
"1.1.1.<.>.>.<.1.1.1.1.1.1.1.1.>.+.` _ ..*.%.*.;.,.1.1.1.1.1.1.1.1.1.1.1.1.1.1.1.",
"1.1.1.,.>.,.1.1.1.1.1.1.1.1.1.1.1.>.#.#.,.<.1.1.1.1.1.1.1.1.1.1.1.1.1.1.1.1.1.1.",
"1.1.1.,.1.1.1.1.1.1.1.1.1.1.1.1.1.1.>.#.>.<.1.1.1.1.1.1.1.1.1.1.1.1.1.1.1.1.1.1.",
"1.1.>.#.1.1.1.1.1.1.1.1.1.1.1.1.1.1.1.>.=.>.1.1.1.1.1.1.1.1.1.1.1.1.1.1.1.1.1.1.",
"1.>.@.#.1.1.1.1.1.1.1.1.1.1.1.1.1.1.1.,.#. .#.1.1.1.1.1.1.1.1.1.1.1.1.1.1.1.<.1.",
"#. .@.>.1.1.1.1.1.1.1.1.1.1.1.1.1.1.1.1.>.} | #.:.<.1.1.1.1.1.1.1.1.1.1.1.1.,.>.",
" .} #.1.1.1.1.1.1.1.1.1.1.1.1.1.1.1.1.1.,.| ~ ` X.=.>.,.1.1.1.1.1.1.1.1.1.1.:.&.",
"^  .>.,.1.1.1.1.1.1.1.1.1.1.1.1.1.1.1.1.,.| ~ ^ ~ ^  .-.1.1.1.1.1.1.1.1.1.>.&.$."
};
