/* XPM */
static char *xpm_[] = {
/* columns rows colors chars-per-pixel */
"40 40 142 2 ",
"   c #020101",
".  c #080503",
"X  c #0C0C0C",
"o  c #100B07",
"O  c #190F0A",
"+  c #1D130C",
"@  c #141313",
"#  c #1D1612",
"$  c #1C1C1C",
"%  c #2B1610",
"&  c #251A13",
"*  c #2D1B12",
"=  c #251E1A",
"-  c #2C231C",
";  c #332015",
":  c #3A2217",
">  c #232323",
",  c #2B2B2B",
"<  c #3B2D25",
"1  c #3D322B",
"2  c #323232",
"3  c #3D3530",
"4  c #3E3937",
"5  c #3C3C3C",
"6  c #47291C",
"7  c #482E1E",
"8  c #403025",
"9  c #4A3325",
"0  c #48372D",
"q  c #513321",
"w  c #523C2F",
"e  c #5C3A2A",
"r  c #603D27",
"t  c #623E28",
"y  c #574132",
"u  c #63412C",
"i  c #6D462D",
"p  c #70462E",
"a  c #73492F",
"s  c #6A4330",
"d  c #7A4330",
"f  c #7A4E32",
"g  c #714E39",
"h  c #7D5034",
"j  c #7C5238",
"k  c #444444",
"l  c #4C4C4C",
"z  c #5F534B",
"x  c #525252",
"c  c #5E5854",
"v  c #5B5B5B",
"b  c #675245",
"n  c #6D5546",
"m  c #66554B",
"M  c #6B5C53",
"N  c #6C635D",
"B  c #646464",
"V  c #686563",
"C  c #6C6C6C",
"Z  c #736A65",
"A  c #727272",
"S  c #7D7875",
"D  c #7B7B7B",
"F  c #855537",
"G  c #8B5237",
"H  c #82553A",
"J  c #8A523A",
"K  c #8D5A3A",
"L  c #935C3D",
"P  c #98613F",
"I  c #925F40",
"U  c #B65A45",
"Y  c #B95E47",
"T  c #9D6340",
"R  c #A36542",
"E  c #AD6144",
"W  c #A26844",
"Q  c #AC6D47",
"!  c #A66B48",
"~  c #B26246",
"^  c #BD6249",
"/  c #AF7049",
"(  c #B5744B",
")  c #BA774D",
"_  c #BF7A4F",
"`  c #817D7A",
"'  c #C1664B",
"]  c #C46A4D",
"[  c #C86E4F",
"{  c #C3764F",
"}  c #C17B4F",
"|  c #CB7250",
" . c #C37D51",
".. c #C97A52",
"X. c #D07753",
"o. c #D47C55",
"O. c #AAAA4F",
"+. c #80807F",
"@. c #CD8354",
"#. c #C58852",
"$. c #D38556",
"%. c #D88057",
"&. c #DC8559",
"*. c #D68858",
"=. c #DC8A5A",
"-. c #E28D5D",
";. c #E6915F",
":. c #E8935F",
">. c #EB9661",
",. c #838383",
"<. c #8A8A8A",
"1. c #949494",
"2. c #9B9B9B",
"3. c gray61",
"4. c #9D9D9D",
"5. c gray62",
"6. c #A1A1A1",
"7. c gray64",
"8. c #A4A4A4",
"9. c gray65",
"0. c #AAAAAA",
"q. c #ACACAC",
"w. c gray68",
"e. c #AEAEAE",
"r. c #AFAFAF",
"t. c #B1B1B1",
"y. c gray70",
"u. c #B6B6B6",
"i. c gray72",
"p. c gray73",
"a. c #BBBBBB",
"s. c #BDBDBD",
"d. c gray",
"f. c #C0C0C0",
"g. c #C1C1C1",
"h. c #C3C3C3",
"j. c #C5C5C5",
"k. c #C6C6C6",
"l. c #C8C8C8",
"z. c gray79",
"x. c #CACACA",
"c. c #CBCBCB",
/* pixels */
"Y &.>.>.>.>.>.>.>.>.>.>.>.>.>.>.>.>.>.>.:.] ] %.>.>.>.>.>.:.o.X.] U U [ ' U U U ",
"[ =.>.>.>.>.>.>.>.>.>.>.>.>.>.>.>.>.>.>.>.o.o.-.>.>.>.>.>.:.-.-.-.o.| X.| ] ] U ",
"X.-.>.>.>.>.>.>.>.>.>.>.>.>.>.>.>.>.>.>.>.o.&.>.>.>.>.>.>.>.>.>.>.;.&.X.&.&.o.] ",
"X.-.>.>.>.>.>.>.>.>.>.>.>.>.>.>.>.>.>.>.>.&.-.>.:.:.>.>.>.>.>.>.>.>.:.&.-.>.;.o.",
"| -.>.>.>.>.>.>.>.>.>.>.*.f t K -.>.;.:.:.:.:.*.f u K ;.>.>.>.>.>.>.>.>.>.>.>.>.",
"^ &.>.>.>.>.>.>.>.>.>.@.L 1 @ 7 @.( W T L P } } & @ y W =.>.>.>.>.>.>.>.>.>.>.>.",
"U | -.>.>.>.>.>.>.>.>.L - A k 9 / 8 & - = # u / - v B - ) >.>.>.>.>.>.>.&.-.>.>.",
"' ] &.>.>.>.>.>.>.>.>.K > 6.1.c < 4 B <.,.c 3 1 B 3.+.- ( >.>.>.>.>.>.>.o.X.o.&.",
"o.] X.-.>.>.>.>.>.>.>.K $ D 2.<.B ,.9.a.a.5.S B 1.3.B = ( :.>.>.>.>.>.&.o.[ | o.",
">.%.o.%.-.>.>.>.>.:.@.i @ v <.6.y.k.c.c.c.c.f.e.6.+.l + K @.>.>.>.>.-.] | &.-.>.",
">.:.&.| [ -.:.:.;.@.u # > 2.<.D q.k.c.c.c.c.f.9.A 1.+.$ & h :.:.>.>.-.o.-.>.>.>.",
">.>.-.-.o.[ ] ] E e Z <.<.D <.1.6.f.c.c.c.c.i.5.1.<.+.,.<.N i *.>.>.>.-.:.>.>.>.",
">.>.>.>.-.' ^ ] E s N <.1.,.6.u.q.h.z.c.c.c.s.r.a.1.,.1.+.M h =.>.>.-.>.>.>.>.>.",
">.>.>.>.-.] | o.%.) y 5 A 9.e.0.0.q.a.c.c.c.z.z.z.i.3.B 2 g #.:.>.-.o.-.>.>.>.>.",
">.>.>.>.:.o.o.&._ 9 S 6.9.i.B $ > > A l.z.c.c.c.z.s.q.6.8.N q $.>.&.o.;.>.>.>.>.",
">.>.>.>.-.o.-.:.*.I m x l x k 2 , 2 k C t.k.c.l.f.s.5.x x n P -.&.[ ^ | &.>.>.>.",
">.>.>.;.%.-.;.>.>.=.f *     2 x v A 5 , 9.g.e.<.+.,.B X * J o.%.| ^ Y ^ ' | %.%.",
"&.o.X.| o.;.>.>.>.>.@.j @   2 v C 0.C 2 6.i.D @ X $ $ - J ..&.=.&.o.X.X.o.%.&.&.",
"%.| ' ' | ;.>.>.>.-.a z ,.$ 2 A 0.k.y.,.k 1.1.5 X l <.<.y K :.>.>.>.>.>.>.>.>.>.",
">.:.&.| ] -.>.>.$.H M <.5.$ x 6.f.5.1.A $ ,.t.<.C B D q.A b L =.>.>.>.>.>.>.>.>.",
">.>.:.-.| >.>.>.) = C 1.D 4 A 8.8.C B x $ <.z.z.l.A l ,.<.k - @.>.>.>.>.>.>.>.>.",
">.>.>.;.-.%.;.>.) + @ $ , 1.v 4 v v <.1., ,.h.z.z.a.+.$ $ X ; @.>.>.>.>.>.>.>.>.",
">.>.>.>.:.-.;.;.) # > > > 2.5.V 2 ,.y.a.<.v D k.z.g.+.@ , $ ; $.>.>.>.>.>.>.>.>.",
">.>.>.>.>.;.;.>.@.i 3 $ $ 5.s.5.v A <.5.1.2 x h.g.s.+.@ , 0 h =.>.>.>.>.>.>.>.>.",
">.>.>.>.>.>.o.&.:.=.r & < 1.t.a.t.l 2 l x $ l f.a.r.` - * F ;.:.>.>.>.>.>.>.>.>.",
">.>.>.>.>.>.%.X.&.:.@. .! 1 D s.t.q.v $ k $ l e.s.B w ( } =.>.:.>.>.>.>.>.>.>.>.",
">.>.>.>.>.>.%.[ ] o.o.R q o 2 x x D k X > , 5 l x > # u @.>.>.>.>.>.>.>.>.>.>.>.",
">.>.>.>.>.>.o.] Y ' ] d     X $ $ 2 $     > , $ @ X   + ( >.>.>.>.>.>.>.>.>.>.>.",
">.>.>.>.>.-.X.[ ] ] [ G O   , k 5 @         $ k k $ . - ( >.>.>.>.>.>.>.>.>.>.>.",
">.>.>.>.-.o.' o.:.:.:.$.P + X @ @           X @ @ . ; Q =.>.>.>.>.>.>.>.>.>.>.>.",
">.>.>.>.>.o.&.:.>.>.>.>.=.F p 6               o u a P :.>.>.>.>.>.>.>.>.>.>.>.>.",
">.>.>.>.>.-.:.>.>.>.>.>.>.:.:.Q : % % ; ; ; ; q $.:.>.>.>.>.>.>.>.>.>.>.>.>.>.>.",
">.>.>.:.-.;.>.>.>.>.>.>.>.>.>.-...^ ~ { @.@.@.$.;.>.>.>.>.>.>.>.>.>.>.>.>.>.>.>.",
">.>.>.-.&.;.>.>.>.>.>.>.>.>.>.>.>.-.o.o.:.>.>.>.>.>.>.>.>.>.>.>.>.>.>.>.>.>.>.>.",
">.>.>.>.>.>.>.>.>.>.>.>.>.>.>.>.>.>.;.o.-.>.>.>.>.>.>.>.>.>.>.>.>.>.>.>.>.>.>.>.",
">.>.-.o.>.>.>.>.>.>.>.>.>.>.>.>.>.>.>.-.%.-.>.>.>.>.>.>.>.>.>.>.>.>.>.>.>.>.>.>.",
":.-.X.o.>.>.>.>.>.>.>.>.>.>.>.>.>.>.>.;.o.[ o.>.>.>.>.>.>.>.>.>.>.>.>.>.>.>.>.>.",
"&.] X.-.>.>.>.>.>.>.>.>.>.>.>.>.>.>.>.>.-.] ] o.=.>.>.>.>.>.>.>.>.>.>.>.>.>.:.=.",
"] ' o.>.>.>.>.>.>.>.>.>.>.>.>.>.>.>.>.>.;.] U Y [ %.-.:.>.>.>.>.>.>.>.>.>.>.=.#.",
"Y ] -.>.>.>.>.>.>.>.>.>.>.>.>.>.>.>.>.>.;.] U Y U Y [ &.>.>.>.>.>.>.>.>.>.-.#.O."
};
