/* XPM */
static char *xpm_[] = {
/* columns rows colors chars-per-pixel */
"40 40 140 2 ",
"   c #020101",
".  c #0D0C0C",
"X  c #180D09",
"o  c #1D120C",
"O  c #131313",
"+  c #1C1715",
"@  c #1C1C1C",
"#  c #221612",
"$  c #251912",
"%  c #2C1D13",
"&  c #20161E",
"*  c #311C14",
"=  c #26211E",
"-  c #2C201A",
";  c #241D22",
":  c #242424",
">  c #2D2C2D",
",  c #382C25",
"<  c #322D2D",
"1  c #3A2A35",
"2  c #323232",
"3  c #3D3936",
"4  c #3B3B3B",
"5  c #432B1C",
"6  c #4B3122",
"7  c #533625",
"8  c #583824",
"9  c #503A2C",
"0  c #473A32",
"q  c #5C402F",
"w  c #4D4037",
"e  c #4C443F",
"r  c #5C4537",
"t  c #6A432C",
"y  c #7B4E33",
"u  c #7F5134",
"i  c #74533E",
"p  c #7A563F",
"a  c #5A3D52",
"s  c #434343",
"d  c #4D4D4D",
"f  c #5A4942",
"g  c #51424D",
"h  c #534E4B",
"j  c #535353",
"k  c #5B5B5B",
"l  c #64564D",
"z  c #685B52",
"x  c #605A5B",
"c  c #626262",
"v  c #686462",
"b  c #6A6268",
"n  c #6C6C6C",
"m  c #716E6D",
"M  c #747474",
"N  c #7C7C7C",
"B  c #844735",
"V  c #854C35",
"C  c #835336",
"Z  c #81553A",
"A  c #8C5138",
"S  c #8B593A",
"D  c #935B3D",
"F  c #835A41",
"G  c #A75D42",
"H  c #B65A45",
"J  c #B95E47",
"K  c #9D6442",
"L  c #AC6345",
"P  c #A56A47",
"I  c #AC6D47",
"U  c #A86D48",
"Y  c #B56047",
"T  c #BC6249",
"R  c #B4724A",
"E  c #BE764E",
"W  c #BE794F",
"Q  c #826D7D",
"!  c #81777D",
"~  c #C1664B",
"^  c #C46A4D",
"/  c #C86E4F",
"(  c #C9704F",
")  c #CB7250",
"_  c #C47D51",
"`  c #CB7C53",
"'  c #D07753",
"]  c #D47C55",
"[  c #AAAA4F",
"{  c #CB8254",
"}  c #C58852",
"|  c #D28456",
" . c #D88057",
".. c #DC8559",
"X. c #DC8A5A",
"o. c #E38D5D",
"O. c #E6915F",
"+. c #E8935F",
"@. c #EB9661",
"#. c #9F6C91",
"$. c #B67CA6",
"%. c #828282",
"&. c #888685",
"*. c #8F838C",
"=. c #8B8B8B",
"-. c #92908F",
";. c #958490",
":. c #949494",
">. c #989196",
",. c #9C9C9C",
"<. c #A19DA0",
"1. c #BB93B0",
"2. c #A3A3A3",
"3. c #ACACAC",
"4. c #BFADBA",
"5. c #B1B1B1",
"6. c #B3B3B3",
"7. c #B5B5B5",
"8. c #B7B7B7",
"9. c #BABABA",
"0. c #BCBCBC",
"q. c #C290B5",
"w. c #C1C1C1",
"e. c #C4C4C4",
"r. c #C5C5C5",
"t. c #C6C6C6",
"y. c #C9C9C9",
"u. c #CBCBCB",
"i. c #CDCDCD",
"p. c gray82",
"a. c #D4D4D4",
"s. c gray85",
"d. c #DBDBDB",
"f. c #DFDFDF",
"g. c #EBCBE2",
"h. c #FAD5F0",
"j. c #E3E3E3",
"k. c #EFEFEF",
"l. c #F4F4F4",
"z. c #FDFDFD",
/* pixels */
"J ..@.@.@.@.@.@.@.@.@.@.@.@.@.@.@.@.@.@.O./ ^  .+.@.@.@.@.+.] ] ~ H J / ~ H H H ",
"/ X.@.@.@.@.@.@.@.@.@.@.@.@.@.@.@.@.@.@.+.] ] O.+.@.@.@.@.@.o.o.o.] ) ' / ^ ~ J ",
"' o.@.@.@.@.@.@.@.@.@.@.@.@.@.@.@.@.@.@.+. .o.@.@.@.@.@.@.@.@.@.@.O.o.' ..o.' ^ ",
"' o.@.@.@.@.@.@.@.@.@.@.@.@.@.@.@.@.@.@.+...o.@.@.@.@.@.@.@.@.@.@.@.o...O.@.o.] ",
") o.@.@.@.@.@.@.@.@.@.@.@.@.@.+.@.@.@.+.+.+.+.@.@.@.@.@.@.@.@.@.@.@.@.@.@.@.+.+.",
"T ..@.@.@.@.@.@.@.@.@.@.@.@.@.+.@.@.+.O. .O.+.+.@.@.@.@.@.@.@.@.@.@.@.@.+.@.@.@.",
"H ) o.@.@.@.@.@.@.@.+.+.+.P t C O.@.@.O.] O.@.R t y { @.@.@.@.@.@.@.@.@.o.o.@.@.",
"~ ^ ..@.@.@.@.@.@.@.+.O.I r & % } R K D V D | D . < Z ` @.@.@.@.@.@.@.+.] ' ] o.",
"] ^ ' o.@.@.@.@.@.@.@.| * x b , P 5 @ : = + C p > ! > u +.@.@.@.@.@.O.o.' / ( ] ",
"+...] ] o.+.@.@.@.@.@.| % Q 1.m , e N 3.,.c , e *.q.1 y @.@.@.@.@.@.o.^ / o.O.@.",
"@.O...) / o.+.O.+.+.@.| % g ;.,.%.:.8.u.r.3.&.=.<.Q ; y @.@.@.@.@.@.O.' o.+.@.@.",
"@.@.O.o.] / / ^ ) ]  .{ % j =.-.6.0.r.u.u.w.8.2.=.N : u @.@.@.@.@.@.@.o.O.+.@.@.",
"@.@.@.@.o.~ ~ ~ ) ..| P 0 N :.N 8.6.8.r.w.3.9.,.N ,.d i _ +.@.@.@.O.o.@.@.@.@.@.",
"@.@.@.@.o.^ ( ] X.o.U 0 -.%.%.9.s.8.3.6.6.2.i.p.2.M ,.c q { +.@.@.o.] O.@.@.@.@.",
"@.@.@.@.O.] ] ..+.D w -.N =.0.s.-.u.0.:.2.s.2.2.f.2.N &.N 7 { @.O...' o.@.@.@.@.",
"@.@.@.@.O.] o.O.@.E p x N 0.6.c 2 k ,.p.r.N s s %.u.2.m l D X.@.o.) T ' X.@.@.@.",
"@.@.@.@. .o.@.@.+.} F h n r.2.    s N 2.,.b :   > a.:.k f D ` ] ) J H T ^ ) ..] ",
"..] ) ) ] @.@.@.@.D w &.: %.&.  . :.%.2 s 6.d   : 3.4 k N 6 _ ......' ' '  .....",
"..) ~ ~ ) o.@.@.@.X.K = . @ @     : &.s.r.d O   . : O O 9 _ o.@.@.@.@.@.@.@.@.@.",
"@.O...) ^ o.@.@.@.@.I O > n k   . %.a.z.l.0.s   @ M d @ 6 X.@.@.@.@.@.@.@.@.@.@.",
"@.@.@...] o.@.@.@.R i v %.6.2.j O c 4.h.g.>.2 : M 9.,.M z S X.@.@.@.@.@.@.@.@.@.",
"@.@.@.O.X...o.@.@.C 2 9.t.3.2.2.>   a $.#.& . j 6.<.0.i.=.- _ @.@.@.@.@.@.@.@.@.",
"@.@.@.@.@...@.@.@.u 2 9.9.j s :.c > : > > @ s M N > =.0.=.- _ @.@.@.@.@.@.@.@.@.",
"@.@.@.@.@.@.o.O.@.u 2 2.s O s 9.8.r.p.p.p.p.0.3.N O @ N =.- _ @.@.@.@.@.@.@.@.@.",
"@.@.@.@.@.@. ...O.y = n s O d r.i.s.l.z.z.j.p.e.:.@ : c k - W @.@.@.@.@.@.@.@.@.",
"@.@.@.@.@.@. .)  .y O d 4 s M 6.8.r.j.z.z.p.e.r.3.j 4 s 4 $ } @.@.@.@.@.@.@.@.@.",
"@.@.@.@.@.@. .) / V - 4 O c <.<.2.0.j.l.k.p.0.8.6.,.> : 3 5 { @.@.@.@.@.@.@.@.@.",
"@.@.@.@.@.@. .~ J Y B #   . j 0.r.0.0.r.e.0.r.w.<.>   . 6 } O.@.@.@.@.@.@.@.@.@.",
"@.@.@.@.O.o.' ^ / ^ T A o   > %.8.c 4 4 4 4 :.3.k .   7 W @.@.@.@.@.@.@.@.@.@.@.",
"@.@.@.@.O.] ^ ] +.+.+.X.S % . 2 j @         4 d : . 8 R @.@.@.@.@.@.@.@.@.@.@.@.",
"@.@.@.@.@.] ..O.@.@.@.@.@.C 5 *               o 5 6 E @.@.@.@.@.@.@.@.@.@.@.@.@.",
"@.@.@.@.@.o.O.@.@.@.@.@.@.o.X.R * X X o o o o t X.X.@.@.@.@.@.@.@.@.@.@.@.@.@.@.",
"@.@.@.O.o.O.@.@.@.@.@.@.@.@.@.o./ L G R E _ E | @.@.@.@.@.@.@.@.@.@.@.@.@.@.@.@.",
"@.@.@.O...O.@.@.@.@.@.@.@.@.@.@.@.o.] ] O.@.@.@.@.@.@.@.@.@.@.@.@.@.@.@.@.@.@.@.",
"@.@.@.O.@.@.@.@.@.@.@.@.@.@.@.@.@.@.O.] o.+.@.@.@.@.@.@.@.@.@.@.@.@.@.@.@.@.@.@.",
"@.@.....@.@.@.@.@.@.@.@.@.@.@.@.@.@.@.o. .o.@.@.@.@.@.@.@.@.@.@.@.@.@.@.@.@.@.@.",
"+.o.' ] @.@.@.@.@.@.@.@.@.@.@.@.@.@.@.O.] ( ..@.@.@.@.@.@.@.@.@.@.@.@.@.@.@.@.@.",
"../ ' o.@.@.@.@.@.@.@.@.@.@.@.@.@.@.@.@...~ ~ ] X.@.@.@.@.@.@.@.@.@.@.@.@.@.O.X.",
"^ ~ ] @.@.@.@.@.@.@.@.@.@.@.@.@.@.@.@.@.O.^ H J (  .o.O.@.@.@.@.@.@.@.@.@.O.X.} ",
"H ^ o.@.@.@.@.@.@.@.@.@.@.@.@.@.@.@.@.@.@.^ H J H J ( X.@.@.@.@.@.@.@.@.@.o.} [ "
};
