/* XPM */
static char *xpm_[] = {
/* columns rows colors chars-per-pixel */
"40 40 140 2 ",
"   c #020101",
".  c #0F0A06",
"X  c #0B0B0B",
"o  c #160E09",
"O  c #180D09",
"+  c #1D120C",
"@  c #141414",
"#  c #1C1C1C",
"$  c #23130E",
"%  c #261A12",
"&  c #2B1B12",
"*  c #311C14",
"=  c #2D2119",
"-  c #362216",
";  c #382317",
":  c #232323",
">  c #2C2B2C",
",  c #3E2E24",
"<  c #312F2D",
"1  c #382834",
"2  c #343433",
"3  c #3D3631",
"4  c #3B3B3B",
"5  c #42291B",
"6  c #413026",
"7  c #4F3220",
"8  c #4F3728",
"9  c #543623",
"0  c #553928",
"q  c #463B35",
"w  c #603826",
"e  c #633F29",
"r  c #6E3D2B",
"t  c #4D4037",
"y  c #594539",
"u  c #62412D",
"i  c #69432C",
"p  c #634735",
"a  c #6B4832",
"s  c #754A30",
"d  c #7B4F33",
"f  c #714D3B",
"g  c #72503A",
"h  c #7A563F",
"j  c #433D42",
"k  c #424242",
"l  c #494645",
"z  c #4C4C4C",
"x  c #5B4B41",
"c  c #51504F",
"v  c #555555",
"b  c #595553",
"n  c #5C5C5B",
"m  c #64564D",
"M  c #665850",
"N  c #704C66",
"B  c #6A5B66",
"V  c #626262",
"C  c #6A6168",
"Z  c #6B6B6B",
"A  c #70666D",
"S  c #78706B",
"D  c #737373",
"F  c #7D7773",
"G  c #7F7A77",
"H  c #7D7D7D",
"J  c #835336",
"K  c #87593C",
"L  c #8D5A3B",
"P  c #925D3D",
"I  c #9F593F",
"U  c #A75D42",
"Y  c #B65A45",
"T  c #B95E47",
"R  c #976444",
"E  c #9E6441",
"W  c #AA6444",
"Q  c #A36843",
"!  c #AD6E47",
"~  c #AD6F48",
"^  c #BD6249",
"/  c #B66C4A",
"(  c #B2714A",
")  c #BC774D",
"_  c #BE794F",
"`  c #82727E",
"'  c #807E7E",
"]  c #C1664B",
"[  c #C46A4D",
"{  c #C86E4F",
"}  c #C9704F",
"|  c #CB7250",
" . c #C37C51",
".. c #CC7D53",
"X. c #D07753",
"o. c #D47C55",
"O. c #AAAA4F",
"+. c #CD8354",
"@. c #C58852",
"#. c #D38557",
"$. c #D88057",
"%. c #DC8559",
"&. c #D68858",
"*. c #DC8A5A",
"=. c #E38D5D",
"-. c #E6915E",
";. c #E8935F",
":. c #EB9661",
">. c #877F85",
",. c #848484",
"<. c #8A8887",
"1. c #8D8D8D",
"2. c #968190",
"3. c #949493",
"4. c #9E929A",
"5. c #9C9C9C",
"6. c #BF8CB2",
"7. c #BE96B3",
"8. c #A3A3A3",
"9. c #AAAAAA",
"0. c gray70",
"q. c #B9B9B9",
"w. c #BBBBBB",
"e. c gray74",
"r. c #E2B3D5",
"t. c #C1C1C1",
"y. c #C3C3C3",
"u. c #C6C6C6",
"i. c #CACACA",
"p. c #CCCCCC",
"a. c #CECECE",
"s. c #D2D2D2",
"d. c #D3D2D2",
"f. c #DCDCDC",
"g. c #F8C2E9",
"h. c #E6E5E6",
"j. c #EAEAEA",
"k. c gray97",
"l. c #F8F4F7",
"z. c #FCFBFC",
/* pixels */
"T %.:.:.:.:.:.:.:.:.:.:.:.:.:.:.:.:.:.:.-.{ [ $.;.:.:.:.:.;.o.X.] Y T } ] Y Y Y ",
"{ *.:.:.:.:.:.:.:.:.:.:.:.:.:.:.:.:.:.:.:.X.o.=.:.:.:.:.:.:.-.=.=.o.} X.{ { ] Y ",
"X.=.:.:.:.:.:.:.:.:.:.:.:.:.:.:.:.:.:.:.:.$.%.:.:.:.:.:.:.:.:.:.:.-.%.o.$.=.o.{ ",
"X.=.:.:.:.:.:.:.:.:.:.:.:.:.:.:.:.:.:.:.;.%.=.:.:.:.:.:.:.:.:.:.:.:.;.%.-.:.=.o.",
"| =.:.:.:.:.:.:.:.:.:.:.:.*.#.*.:.:.:.:.-.;.:.-.&.*.-.:.:.:.:.:.:.:.:.:.:.:.:.:.",
"^ %.:.:.:.:.:.:.:.:.:.:.;.J - 9 &.:.:.-.$.=.:.Q - 5 ) :.:.:.:.:.:.:.:.:.:.;.:.:.",
"Y | =.:.:.:.:.:.:.:.:.*.J x 1 % @.L i i w i ) L @ l p ! :.:.:.:.:.:.:.:.%.=.:.:.",
"] [ %.:.:.:.:.:.:.:.:.#.& B ` q K 6 2 k 4 : a g l 2.< d :.:.:.:.:.:.:.:.o.X.o.%.",
"o.[ X.-.:.:.:.:.:.:.:.#.& A 7.>.2 c 3.t.q.D 4 z 4.6.1 d :.:.:.:.:.:.:.%.o.{ | o.",
":.$.o.o.=.;.:.:.:.:.:...& j >.9.5.9.t.i.u.q.8.5.5.C # s -.;.:.:.:.:.=.[ { =.;.;.",
":.;.%.| { =.;.;.;.;._ 7 X V 3.H 9.q.t.i.i.q.0.5.' 3.> $ d -.:.:.:.:.=.o.=.:.:.:.",
":.:.=.=.$.{ [ [ } W f n n H 1.1.u.0.0.t.e.9.t.0.,.1.Z n M L *.:.:.:.:.=.=.:.:.:.",
":.:.:.:.=.] ^ [ } L t 3.9.<.1.u.s.q.9.9.9.9.u.s.0.H 5.8.F 0 +.;.:.:.=.:.:.:.:.:.",
":.:.:.:.=.[ | o.%.&.R 3 M 3.t.u.D q.q.8.9.a.1.1.s.0.H l t _ ;.;.:.=.o.=.:.:.:.:.",
":.:.:.:.;.o.o.%.;.P t 3.8.a.9.2 @ > 1.j.a.v : # v s.0.8.G 8 +.;.:.%.o.=.:.:.:.:.",
":.:.:.:.=.o.=.;.:._ h b c 0.8.  X Z ' Z D <.4   < s.H c m P *.;.%.{ ^ | =.:.:.:.",
":.:.:.=.$.=.:.:.:.:. .0 . V Z   X D ' n C 3.k   # ,.> $ r ..o.$.| ^ Y ^ [ | $.$.",
"%.o.X.X.o.;.:.:.:.:.*.~ = # #     : 3.k.f.v @   X : @ 0 / %.%.%.%.$.X.X.X.o.%.*.",
"$.| ] ] } ;.:.:.:.;.~ , l <.D X X 3.h.z.l.d.c   : 3.C 3 e #.:.:.:.:.:.:.:.:.:.:.",
":.;.%.| [ =.:.:.:.E y <.8.w.0.D @ 2 4.g.r.C # 2 5.t.0.3.S p #.:.:.:.:.:.:.:.:.:.",
":.:.;.%.o.=.:.:.:.d 2 w.i.1.,.5.4 X q N N # @ V 8.H 0.p.1.=  .:.:.:.:.:.:.:.:.:.",
":.:.:.:.=.$.=.:.:.d 2 0.8.4 4 3.D v k k j j V H D : Z 0.1.=  .:.:.:.:.:.:.:.:.:.",
":.:.:.:.:.*.-.:.:.d < 5.4 X l y.u.f.h.j.j.h.a.0.H @ @ Z ,.=  .:.:.:.:.:.:.:.:.:.",
":.:.:.:.:.;.-.-.:.d # V z # c u.i.s.j.z.z.f.a.u.5.# 2 v z %  .:.:.:.:.:.:.:.:.:.",
":.:.:.:.:.:.$.%.;.d @ l > v 1.8.9.y.h.z.l.d.y.w.0.H 2 4 4 % @.:.:.:.:.:.:.:.:.:.",
":.:.:.:.:.:.$.X.$.Q 8 < X z 1.9.9.y.f.j.j.a.y.q.9.H : # 3 i #.:.:.:.:.:.:.:.:.:.",
":.:.:.:.:.:.$.} ] $.W &   @ v 8.9.e.y.q.q.u.0.9.1.2 X o e *.:.:.:.:.:.:.:.:.:.:.",
":.:.:.:.:.:.$.] ^ ] ^ I % V D : < 3.1.n Z 9.n : 4 ,.> u &.:.:.:.:.:.:.:.:.:.:.:.",
":.:.:.:.;.=.X.[ [ [ { / % = 4 z ' c > @ # 2 Z D 4 2 X d :.:.:.:.:.:.:.:.:.:.:.:.",
":.:.:.:.-.o.[ o.;.;.;.*.K & @ 2 v :         4 v : . 0 ( :.:.:.:.:.:.:.:.:.:.:.:.",
":.:.:.:.:.o.%.-.:.:.:.:.;.J ; -               + 5 9 _ :.:.:.:.:.:.:.:.:.:.:.:.:.",
":.:.:.:.:.=.;.:.:.:.:.:.:.-.*./ * O o + + + + u *.*.:.:.:.:.:.:.:.:.:.:.:.:.:.:.",
":.:.:.-.=.-.:.:.:.:.:.:.:.:.:.-.{ W U / _  . .#.;.:.:.:.:.:.:.:.:.:.:.:.:.:.:.:.",
":.:.:.=.%.;.:.:.:.:.:.:.:.:.:.:.:.=.o.o.-.:.:.:.:.:.:.:.:.:.:.:.:.:.:.:.:.:.:.:.",
":.:.:.:.:.:.:.:.:.:.:.:.:.:.:.:.:.:.-.o.=.;.:.:.:.:.:.:.:.:.:.:.:.:.:.:.:.:.:.:.",
":.:.=.o.:.:.:.:.:.:.:.:.:.:.:.:.:.:.:.=.$.=.:.:.:.:.:.:.:.:.:.:.:.:.:.:.:.:.:.:.",
":.%.X.o.:.:.:.:.:.:.:.:.:.:.:.:.:.:.:.-.o.{ o.:.:.:.:.:.:.:.:.:.:.:.:.:.:.:.:.:.",
"%.} X.=.:.:.:.:.:.:.:.:.:.:.:.:.:.:.:.:.%.] { o.*.:.:.:.:.:.:.:.:.:.:.:.:.:.;.*.",
"{ ] o.:.:.:.:.:.:.:.:.:.:.:.:.:.:.:.:.:.:.] Y T } $.=.-.:.:.:.:.:.:.:.:.:.:.*.@.",
"Y { %.:.:.:.:.:.:.:.:.:.:.:.:.:.:.:.:.:.;.{ Y T Y T { %.:.:.:.:.:.:.:.:.:.=.@.O."
};
