/* XPM */
static char *xpm_[] = {
/* columns rows colors chars-per-pixel */
"40 40 137 2 ",
"   c #010101",
".  c #0A0604",
"X  c #0C0C0C",
"o  c #180D09",
"O  c #1D120C",
"+  c #131313",
"@  c #1C1C1C",
"#  c #241A17",
"$  c #2A1B13",
"%  c #23211F",
"&  c #2E231C",
"*  c #3D2518",
"=  c #261E24",
"-  c gray14",
";  c #2F2523",
":  c #2B2B2B",
">  c #352A23",
",  c #38302D",
"<  c #343434",
"1  c #3A3837",
"2  c #3C3C3C",
"3  c #44271B",
"4  c #41291A",
"5  c #4A2D1E",
"6  c #412D21",
"7  c #4F3220",
"8  c #46372D",
"9  c #4C332A",
"0  c #543523",
"q  c #5D3725",
"w  c #5E3C27",
"e  c #553C2D",
"r  c #423E3C",
"t  c #553E30",
"y  c #633627",
"u  c #603D27",
"i  c #643E2B",
"p  c #4E4038",
"a  c #53443A",
"s  c #66412D",
"d  c #6A442C",
"f  c #6B4732",
"g  c #684936",
"h  c #654B3A",
"j  c #6F4E3A",
"k  c #7A4130",
"l  c #794D32",
"z  c #704E38",
"x  c #413F40",
"c  c #493844",
"v  c #454444",
"b  c #4C4B4B",
"n  c #504743",
"m  c #574D53",
"M  c #535353",
"N  c #5D5D5D",
"B  c #705242",
"V  c #7A5E4D",
"C  c #64605E",
"Z  c #705B6A",
"A  c #636363",
"S  c #686664",
"D  c #6B6B6B",
"F  c #747474",
"G  c #787573",
"H  c #7D7D7D",
"J  c #8D4D38",
"K  c #845436",
"L  c #8A5839",
"P  c #935E3D",
"I  c #94603F",
"U  c #835E47",
"Y  c #A75D42",
"T  c #B65A45",
"R  c #B95E47",
"E  c #956242",
"W  c #A36142",
"Q  c #AC6345",
"!  c #AA6C46",
"~  c #AE6F48",
"^  c #B76648",
"/  c #BD6249",
"(  c #B66E4A",
")  c #BA6D4A",
"_  c #B4724A",
"`  c #BA754C",
"'  c #BE794E",
"]  c #837D7D",
"[  c #C1664B",
"{  c #C46A4D",
"}  c #C86E4F",
"|  c #C9704F",
" . c #C07A4F",
".. c #CB7250",
"X. c #C27C51",
"o. c #D07753",
"O. c #D47C55",
"+. c #AAAA4F",
"@. c #CF8456",
"#. c #C58852",
"$. c #D58457",
"%. c #D88057",
"&. c #D78758",
"*. c #DC8559",
"=. c #D78958",
"-. c #DC8A5A",
";. c #E38D5D",
":. c #E6915E",
">. c #E8935F",
",. c #EB9661",
"<. c #897E86",
"1. c #A67194",
"2. c #AD7A9F",
"3. c #838383",
"4. c #898989",
"5. c #918B88",
"6. c #949494",
"7. c #9B9B9B",
"8. c #A1889A",
"9. c #A69BA3",
"0. c #A3A3A3",
"q. c #ACACAC",
"w. c #B3AAB1",
"e. c #B2B2B2",
"r. c #BCBCBC",
"t. c #CA98BD",
"y. c #CBB0C3",
"u. c #C4C4C4",
"i. c #CBCBCB",
"p. c #DFC6D9",
"a. c LightGray",
"s. c #DCDCDC",
"d. c #E1E1E1",
"f. c #ECECEC",
"g. c #FDEFF9",
"h. c #F3F3F3",
"j. c gray98",
/* pixels */
"R *.,.,.,.,.,.,.,.,.,.,.,.,.,.,.,.,.,.,.,.{ [ *.,.,.,.,.,.;.O.o.{ T R | / T T T ",
"} -.,.,.,.,.,.,.,.,.,.,.,.,.,.,.,.,.,.,.,.O.O.:.,.,.,.,.,.,.;.;.;.O.| o.| } [ R ",
"o.;.,.,.,.,.,.,.,.,.,.,.,.,.,.,.,.,.,.,.,.O.*.,.,.,.,.,.,.,.,.,.,.>.O.o.O.;.O.{ ",
"o.;.,.,.,.,.,.,.,.,.,.,.,.,.,.,.,.,.,.,.,.*.;.,.,.,.,.,.,.,.,.,.,.,.>.;.>.,.;.O.",
"..;.,.,.,.,.,.,.,.,.,.,.,.,.,.,.,.,.,.:.&.:.,.,.,.,.,.,.,.,.,.,.,.,.,.,.,.,.,.>.",
"/ *.,.,.,.,.,.,.,.,.,.,.,.,.,.,.,.,.,.` 0 X.,.,.,.,.,.,.,.,.,.,.,.,.,.,.>.>.,.,.",
"T ..;.,.,.,.,.,.,.,.,.,.,.,.,.,.,.,.~ e , i ` ` K -.,.,.,.,.,.,.,.,.,.,.;.;.>.>.",
"[ { *.,.,.,.,.,.,.,.,.,.,.,.,.,.,.` 7 - Z r z f > E -.,.,.,.,.,.,.,.,.>.O.o.O.;.",
"O.{ o.;.,.,.,.,.,.,.,.,.,.,.,.:.' t @ c t.<.p 1 m # ~ ,.,.,.,.,.,.,.>.*.O.} o.O.",
">.*.O.O.;.>.,.,.,.,.,.,.,.:.:. .8 3.H F w.2 N 8.2.& ~ ,.,.,.,.,.,.,.:.{ } ;.>.>.",
",.:.*...} ;.>.:.>.>.,.>.,.;.W e S u.s.a.s.7.0.9.Z # ~ ,.,.,.,.,.,.,.:.O.;.>.,.,.",
",.,.:.;.O.} } { ..O.*.:.,.! B N F 4.u.j.j.a.i.e.H b j ` ,.,.,.,.,.,.:.:.:.>.,.,.",
",.,.,.,.;.[ [ [ ..*.-.;.' h N 7.b + A a.h.r.0.q.r.G 8 I ,.,.,.,.,.:.;.:.,.,.,.,.",
",.,.,.,.;.{ } o.;.>.:.X.9 ] 7.b - X X M s.F 1 D q.r E =.,.,.,.,.,.;.O.:.,.,.,.,.",
",.,.,.,.:.O.O.;.:.,.' 9 1.p.0.< 0.1   v i.x S e.u.7.p L ,.,.,.,.:.*.o.;.>.,.,.,.",
",.,.,.,.:.O.;.:.,.,.( ; y.g.7.@ N @   : 4.A M 3.u.0.: l X.d d ` ;.| [ o.;.,.,.>.",
",.,.,.;.%.;.:.,.,.,.X.g 5.s.u.M - @ + + M N M D 6.A 9 y i - = i P / T / { o.O.%.",
"*.O.O.o.O.,.,.,.,.,.,.@.0 5.d.s.H N < - x : H 3.v & k i 1 N M - q O.o.o.o.O.*.;.",
"O...[ [ ..;.,.,.,.,.,.>.@.j F f.s.3.F A : 6.3.x # J 3 C q.q.A @ s >.,.,.>.,.,.,.",
",.,.*...{ ;.,.,.,.,.,.,.,.' U S u.e.e.q.7.r.3.< $ ( * 2 6.e.S @ d ,.,.,.,.,.,.,.",
",.,.:.;.o.;.,.,.,.,.,.,.,.! V 3.q.u.e.0.u.i.0.F n g O : S 3.2 e ~ ,.,.,.,.,.,.,.",
",.,.,.:.;.%.:.,.,.,.,.,.,.u N f.r.r.H A u.i.q.6.F + . 2 A 2 6 ~ ,.,.,.,.,.,.,.,.",
",.,.,.,.,.;.:.,.,.,.,.,.>.u N j.f.e.b 2 r.i.M v H - . N 3.& ` :.,.,.,.,.,.,.,.,.",
",.,.,.,.,.,.;.,.,.,.,.,.,.w N j.j.e.b 1 r.u.b 2 6.6.: M D & X.,.,.,.,.,.,.,.,.,.",
",.,.,.,.,.,.%.*.>.,.,.,.,.w N h.r.N < b H 3.< v 7.N 1 1 a E =.,.,.,.,.,.,.,.,.,.",
",.,.,.,.,.,.O.o.%.>.>.>.>.w 1 6.H - : M M M % < A + : 8 K ;.,.,.,.,.,.,.,.,.,.,.",
",.,.,.,.,.,.*.{ [ %.%.%.` 5   + 2 @ : b M M %   .     l ,.,.,.,.,.,.,.,.,.,.,.,.",
",.,.,.,.,.,.O.{ / [ [ ^ * .     X < : % M M -         l ,.,.,.,.,.,.,.,.,.,.,.,.",
",.,.,.,.,.;.o.} | { { ) $       . + : v M M v -       l ,.,.,.,.,.,.,.,.,.,.,.,.",
",.,.,.,.;.O.{ O.>.>.>.-.L $         + : : : : @   . 0 _ ,.,.,.,.,.,.,.,.,.,.,.,.",
",.,.,.,.,.O.*.:.,.,.,.,.>.L 3 $ .             O 4 7 ` ,.,.,.,.,.,.,.,.,.,.,.,.,.",
",.,.,.,.,.;.:.,.,.,.,.>.>.;.-._ $ o o O O O O d -.-.,.,.,.,.,.,.,.,.,.,.,.,.,.,.",
",.,.,.:.;.,.,.,.,.,.,.,.,.,.,.:.} Q Y ( ' X.X.$.,.,.,.,.,.,.,.,.,.,.,.,.,.,.,.,.",
",.,.,.:.O.:.,.,.,.,.,.,.,.,.,.,.,.;.O.O.:.,.,.,.,.,.,.,.,.,.,.,.,.,.,.,.,.,.,.,.",
",.,.,.:.,.,.,.,.,.,.,.,.,.,.,.,.,.>.:.O.;.,.,.,.,.,.,.,.,.,.,.,.,.,.,.,.,.,.,.,.",
",.:.;.*.,.,.,.,.,.,.,.,.,.,.,.,.,.,.,.;.%.;.:.,.,.,.,.,.,.,.,.,.,.,.,.,.,.,.,.,.",
">.;.O.O.,.,.,.,.,.,.,.,.,.,.,.,.,.,.,.:.O.} O.,.,.,.,.,.,.,.,.,.,.,.,.,.,.,.,.,.",
"O.} o.;.,.,.,.,.,.,.,.,.,.,.,.,.,.,.,.,.*.{ } O.-.,.,.,.,.,.,.,.,.,.,.,.,.,.:.;.",
"} [ O.,.,.,.,.,.,.,.,.,.,.,.,.,.,.,.,.,.:.} T R | %.;.:.,.,.,.,.,.,.,.,.,.>.-.#.",
"R } *.,.,.,.,.,.,.,.,.,.,.,.,.,.,.,.,.,.:.{ T R T R } *.,.,.,.,.,.,.,.,.,.;.#.+."
};
