/* XPM */
static char *xpm_[] = {
/* columns rows colors chars-per-pixel */
"40 40 144 2 ",
"   c #010101",
".  c #080503",
"X  c #0F0806",
"o  c #0C0C0C",
"O  c #120B07",
"+  c #1B0F0A",
"@  c #11100F",
"#  c #1B100B",
"$  c #111111",
"%  c #191312",
"&  c #1D1C1C",
"*  c #23160E",
"=  c #271910",
"-  c #2B1C13",
";  c #241E1A",
":  c #21201F",
">  c #2D221C",
",  c #342115",
"<  c #32251D",
"1  c #3D2719",
"2  c #3A281C",
"3  c #242424",
"4  c #2E242B",
"5  c #2B2B2B",
"6  c #352B25",
"7  c #312B2A",
"8  c #3A332E",
"9  c #353535",
"0  c #3B3531",
"q  c #383837",
"w  c #3E313A",
"e  c #3C3C3C",
"r  c #472E1E",
"t  c #4C311F",
"y  c #4B3123",
"u  c #41342B",
"i  c #4A372B",
"p  c #513423",
"a  c #5A3925",
"s  c #513A2C",
"d  c #5B402F",
"f  c #41403E",
"g  c #4C423C",
"h  c #534136",
"j  c #574438",
"k  c #67452F",
"l  c #68442E",
"z  c #734A2F",
"x  c #624432",
"c  c #6B4A35",
"v  c #6C4639",
"b  c #754C32",
"n  c #7B4C33",
"m  c #734F38",
"M  c #7E5034",
"N  c #593F52",
"B  c #434343",
"V  c #4C4C4C",
"C  c #504F4E",
"Z  c #584E56",
"A  c #535353",
"S  c #5A5457",
"D  c #5B5B5B",
"F  c #785742",
"G  c #625F5C",
"H  c #6F5E59",
"J  c #6F635C",
"K  c #645F62",
"L  c #765E6F",
"P  c #646464",
"I  c #6E6763",
"U  c #6B6B6B",
"Y  c #737373",
"T  c #7B7673",
"R  c #7B7B7B",
"E  c #805439",
"W  c #8B563A",
"Q  c #8B5939",
"!  c #93543B",
"~  c #925C3C",
"^  c #99623F",
"/  c #835941",
"(  c #A55C41",
")  c #B65A45",
"_  c #B95E47",
"`  c #956040",
"'  c #9F6642",
"]  c #A06642",
"[  c #AB6244",
"{  c #A56944",
"}  c #AA6B46",
"|  c #AE6F48",
" . c #B06847",
".. c #BD6249",
"X. c #B06E48",
"o. c #B3724A",
"O. c #BD794F",
"+. c #8B6279",
"@. c #C1664B",
"#. c #C46A4D",
"$. c #C86E4F",
"%. c #C5744F",
"&. c #C9704F",
"*. c #C27A4F",
"=. c #CB7250",
"-. c #C57E52",
";. c #CF7F54",
":. c #D07753",
">. c #D47C55",
",. c #AAAA4F",
"<. c #CC8254",
"1. c #C58852",
"2. c #D38456",
"3. c #D88057",
"4. c #DC8559",
"5. c #D58858",
"6. c #DD8B5A",
"7. c #E28D5D",
"8. c #E6915F",
"9. c #E8935F",
"0. c #EB9661",
"q. c #847B82",
"w. c #997F92",
"e. c #848484",
"r. c #8B8B8B",
"t. c #939393",
"y. c #9A9A9A",
"u. c #A48B9D",
"i. c #A4A4A4",
"p. c #ABAAAB",
"a. c #B3B3B3",
"s. c #BBBBBB",
"d. c #C28EB4",
"f. c #D6ABCA",
"g. c #C9B9C4",
"h. c #C2C2C2",
"j. c #CACACA",
"k. c #D2D2D2",
"l. c #DBDBDB",
"z. c #E1E1E1",
"x. c #EDEDED",
"c. c #FCEAF8",
"v. c #F4F4F4",
"b. c #FBFBFB",
/* pixels */
"_ 4.0.0.0.0.0.0.0.0.0.0.0.0.0.0.0.0.0.0.0.#.#.>.0.0.0.0.0.0.>.:.#.) _ =...) ) ) ",
"$.6.0.0.0.0.0.0.0.0.0.0.0.0.0.0.0.0.0.0.8.;.>.7.0.0.0.0.0.0.7.7.7.>.$.:.$.$.#.) ",
":.7.0.0.0.0.0.0.0.0.0.0.0.0.0.0.0.0.0.0.0.>.4.0.0.0.0.0.0.0.0.0.0.9.>.:.>.7.>.$.",
":.7.0.0.0.0.0.0.0.0.0.0.0.0.0.0.0.0.6.5.0.4.6.0.0.0.0.0.0.0.0.0.0.0.0.7.9.0.7.>.",
"=.7.0.0.0.0.0.0.0.0.0.0.0.0.9.7.0.9.^ t -.8.0.0.0.0.0.0.0.0.0.0.0.0.0.9.0.0.0.8.",
"_ 4.0.0.0.0.0.0.0.0.0.0.0.0.X.b 2.Q i 0 p | 0.0.0.0.0.0.0.0.0.0.0.0.0.0.9.0.0.0.",
") :.7.0.0.0.0.0.0.0.0.0.9.o.x 6 M j A L % a o.0.0.0.0.0.0.0.0.0.0.0.0.0.7.7.0.0.",
"#.@.4.0.0.0.0.0.0.0.0.0.6.p 7 Z 5 D u.d.4 & x ;.0.0.0.0.0.0.0.0.0.0.0.9.>.=.>.7.",
">.#.:.8.0.0.0.0.0.0.0.0.6.y Z d.q.e K a.G e.T y ;.0.0.0.0.0.0.0.0.0.0.4.:.&.&.>.",
"9.3.>.>.7.0.0.0.0.0.0.0.6.t w w.p.t.i.z.h.l.a.D d o.0.0.0.0.0.0.0.0.7.#.&.7.8.0.",
"0.8.4.=.$.7.9.9.9.0.0.6.' h C r.h.j.z.b.b.j.y.Y C F o.0.0.0.0.0.0.0.8.>.7.8.0.0.",
"0.0.8.7.>.%.#.#.=.>.3.*.y S y.h.a.a.k.v.l.D 3 D y.G x <.0.0.0.0.0.0.0.7.8.0.0.0.",
"0.0.0.0.7.@...#.=.4.6.7.O.s P p.f V i.k.C $ . & D t.T y -.0.0.0.0.0.7.8.0.0.0.0.",
"0.0.0.0.7.#.=.>.4.0.0.2.b J y.s.R N R k.3   q R q y.g.+.v | 0.0.0.7.>.8.0.0.0.0.",
"0.0.0.0.8.>.:.>.{ ] -.O.- R h.s.r.A U i.&   N r.3 y.c.f.4 W 0.0.0.4.>.7.0.0.0.0.",
"0.0.0.0.8.>.>.} - % l | 2 G y.i.f D U V o   o & 3 i.v.h.0 Q 0.0.4.$...=.7.0.0.0.",
"0.0.0.7.3.7.~ < f B 8 r ] s e Y t.V 9 B o 5 B A s.x.a.g / $.>.3.=..._ ..@.=.3.>.",
"4.>.:.:.>.8.M $ C e.e.I c n d q R R A 5 V A R s.x.p.H n $.7.4.4.4.>.:.:.>.3.4.4.",
">.=.@.@.=.8.M $ A i.s.r.: ^ W @ V i.t.A r.r.i.z.s.J l 6.0.0.0.0.0.0.0.0.0.0.0.0.",
"0.0.4.=.#.7.W ; C y.t.V # ~ E : D p.h.s.s.h.h.a.B F <.0.0.0.0.0.0.0.0.0.0.0.0.0.",
"0.0.0.4.>.7.5.` > A P B o * g R p.h.j.s.e.p.s.i.s.J z 8.0.0.0.0.0.0.0.0.0.0.0.0.",
"0.0.0.9.7.3.7.5.E u A R $   e r.U i.j.p.B R s.k.v.P t 6.0.0.0.0.0.0.0.0.0.0.0.0.",
"0.0.0.0.0.6.0.0.5.r A y.& 3 D R & e.j.p.3 D s.b.b.P p 8.0.0.0.0.0.0.0.0.0.0.0.0.",
"0.0.0.0.0.0.6.0.6.a g Y 3 Y i.R & R h.i.3 A p.v.v.P p 8.0.0.0.0.0.0.0.0.0.0.0.0.",
"0.0.0.0.0.0.3.4.8.-.m 3 e q U y.& V Y U V 5 A a.x.P p 8.9.0.0.0.0.0.0.0.0.0.0.0.",
"0.0.0.0.0.0.3.:.3.0.o.k 7 o 3 A $ q A A A : 5 Y R 9 p 6.0.0.0.0.0.0.0.0.0.0.0.0.",
"0.0.0.0.0.9.3.$.#.>.3.} #         q S A f 3 3 9 o   1 | 6.0.0.0.0.0.0.0.0.0.0.0.",
"0.0.0.0.0.0.3.@._ @.#.( #       o e A B & 9 5 o     . , 1.0.0.0.0.0.0.0.0.0.0.0.",
"0.0.0.0.0.7.:.$.#.#.#.[ +     o 9 V A A f 3 o         # *.0.0.0.0.0.0.0.0.0.0.0.",
"0.0.0.0.7.>.#.>.9.9.0.2.n *   . 3 5 5 5 5 @         = M 5.0.0.0.0.0.0.0.0.0.0.0.",
"0.0.0.0.9.>.4.8.0.0.0.0.6.z , * .             . - , z 8.0.0.0.0.0.0.0.0.0.0.0.0.",
"0.0.0.0.0.7.9.0.0.0.0.0.0.6.2.} = X O o O O O - o.5.6.0.0.0.0.0.0.0.0.0.0.0.0.0.",
"0.0.0.0.7.7.9.0.0.0.0.0.0.0.0.7. .! ! ( { } } o.6.0.0.0.0.0.0.0.0.0.0.0.0.0.0.0.",
"0.0.0.7.7.8.0.0.0.0.0.0.0.0.0.0.0.7.>.>.8.0.0.0.0.0.0.0.0.0.0.0.0.0.0.0.0.0.0.0.",
"0.0.0.8.9.0.0.0.0.0.0.0.0.0.0.0.0.0.7.>.7.0.0.0.0.0.0.0.0.0.0.0.0.0.0.0.0.0.0.0.",
"0.0.7.>.0.0.0.0.0.0.0.0.0.0.0.0.0.0.0.7.>.7.0.0.0.0.0.0.0.0.0.0.0.0.0.0.0.0.0.0.",
"0.7.>.>.0.0.0.0.0.0.0.0.0.0.0.0.0.0.0.8.>.$.>.0.0.0.0.0.0.0.0.0.0.0.0.0.0.0.0.0.",
">.$.:.7.0.0.0.0.0.0.0.0.0.0.0.0.0.0.0.0.7.#.#.>.6.0.0.0.0.0.0.0.0.0.0.0.0.0.9.4.",
"$.@.>.0.0.0.0.0.0.0.0.0.0.0.0.0.0.0.0.0.7.#.) _ &.3.7.9.0.0.0.0.0.0.0.0.0.0.6.1.",
"_ $.4.0.0.0.0.0.0.0.0.0.0.0.0.0.0.0.0.0.9.#.) _ ) _ $.4.0.0.0.0.0.0.0.0.0.7.1.,."
};
