/* XPM */
static char *xpm_[] = {
/* columns rows colors chars-per-pixel */
"40 40 152 2 ",
"   c #020101",
".  c #080503",
"X  c #0B0806",
"o  c #0B0B0B",
"O  c #110B07",
"+  c #130E0B",
"@  c #190F0A",
"#  c #1C120B",
"$  c #141414",
"%  c #1B1316",
"&  c #1B1B1B",
"*  c #2B1610",
"=  c #2B1C13",
"-  c #22201E",
";  c #2C231E",
":  c #352116",
">  c #3A2217",
",  c #35241A",
"<  c #36281F",
"1  c #3A291E",
"2  c #222222",
"3  c #2A2A2A",
"4  c #362B25",
"5  c #392C24",
"6  c #3A312B",
"7  c #352E33",
"8  c #3A2F37",
"9  c #333333",
"0  c #3B3B3B",
"q  c #44291C",
"w  c #482E1E",
"e  c #433126",
"r  c #42362E",
"t  c #49352C",
"y  c #4F3A2D",
"u  c #533523",
"i  c #523A2B",
"p  c #423E3D",
"a  c #653527",
"s  c #623B27",
"d  c #623E28",
"f  c #5D402E",
"g  c #43413F",
"h  c #4E443E",
"j  c #574336",
"k  c #63412C",
"l  c #6A432C",
"z  c #70462E",
"x  c #73492F",
"c  c #6E4931",
"v  c #61403C",
"b  c #7A4330",
"n  c #754C32",
"m  c #7B4D34",
"M  c #473C44",
"N  c #434343",
"B  c #4E404A",
"V  c #4C4C4C",
"C  c #514A45",
"Z  c #58504B",
"A  c #535353",
"S  c #5D5D5D",
"D  c #664F40",
"F  c #6F5646",
"G  c #6B5F5B",
"H  c #766356",
"J  c #72635A",
"K  c #6B5A66",
"L  c #7D5873",
"P  c #646464",
"I  c #6A6765",
"U  c #6B6866",
"Y  c #6C6C6C",
"T  c #706E6C",
"R  c #737373",
"E  c #787678",
"W  c #7B7B7B",
"Q  c #834E35",
"!  c #865537",
"~  c #8A5738",
"^  c #8F5C3D",
"/  c #905C3B",
"(  c #97603E",
")  c #99613F",
"_  c #9D5F40",
"`  c #A65740",
"'  c #B65A45",
"]  c #B95E47",
"[  c #9B6340",
"{  c #A16742",
"}  c #A66944",
"|  c #AA6C46",
" . c #A16A48",
".. c #AB6E48",
"X. c #B36446",
"o. c #BD6349",
"O. c #B86949",
"+. c #B4734B",
"@. c #BA744C",
"#. c #BC784E",
"$. c #836C7D",
"%. c #C1664B",
"&. c #C46A4D",
"*. c #C86E4F",
"=. c #C3744F",
"-. c #C9704F",
";. c #CB7250",
":. c #C67F52",
">. c #CB7C52",
",. c #D07753",
"<. c #D47C55",
"1. c #AAAA4F",
"2. c #CD8354",
"3. c #C58852",
"4. c #D48457",
"5. c #D88057",
"6. c #DC8559",
"7. c #D68858",
"8. c #DC8B5A",
"9. c #E38D5D",
"0. c #E6915F",
"q. c #E8935F",
"w. c #EB9661",
"e. c #8B6881",
"r. c #A07290",
"t. c #838383",
"y. c #8A8486",
"u. c #8F838C",
"i. c gray55",
"p. c #949494",
"a. c #9B9B9B",
"s. c #A58B9E",
"d. c #BB90AF",
"f. c #A3A3A3",
"g. c #ACACAC",
"h. c #B4B4B4",
"j. c #B8B7B7",
"k. c #BAB6B9",
"l. c #BCBCBC",
"z. c #C195B5",
"x. c #DEB8D3",
"c. c #C4C3C4",
"v. c #CCCCCC",
"b. c #D7C7D2",
"n. c #D3D3D3",
"m. c gainsboro",
"M. c gray89",
"N. c #EBEBEB",
"B. c #FDEEF9",
"V. c gray95",
"C. c #F4F4F4",
"Z. c #FCFCFC",
/* pixels */
"] 6.w.w.w.w.w.w.w.w.w.w.w.w.w.w.w.w.w.w.q.*.&.5.w.w.w.w.w.q.<.,.%.' ] ;.%.' ' ' ",
"*.8.w.w.w.w.w.w.w.w.w.w.w.w.w.w.w.w.#.{ 8.,.<.9.q.w.w.w.w.w.0.9.9.<.;.;.*.*.%.' ",
",.9.w.w.w.w.w.w.w.w.w.w.w.w.4.4.0.2.c 1 +.>.6.w.w.w.w.w.w.w.w.w.w.0.9.<.<.9.<.*.",
",.9.w.w.w.w.w.w.w.w.w.w.w.w.n k :.u 6 g < _ 8.w.w.w.w.w.w.w.w.w.w.w.q.<.q.w.9.<.",
";.9.w.w.w.w.w.w.w.w.w.w.7.n r r f Z $.e.% q [ 0.w.w.w.w.w.w.w.w.w.w.w.w.w.w.w.q.",
"] 6.w.w.w.w.w.w.w.w.w.w.:.= B K 9 S s.d.7 9 D ..9.w.w.w.w.w.w.w.w.w.w.w.q.w.w.w.",
"' ;.9.w.w.w.w.w.w.w.w.w.:.= L z.y.0 E k.R f.W e @.0.w.w.w.w.w.w.w.w.w.q.9.9.w.w.",
"&.&.6.w.w.w.w.w.w.w.w.w.:.= M u.h.f.c.N.m.N.l.U e [ w.w.w.w.w.w.w.w.w.w.<.;.<.9.",
"<.*.,.9.w.w.w.w.w.w.w.#.n B R f.c.v.M.Z.C.g.W R I F ) 0.w.w.w.w.w.w.w.6.<.*.*.<.",
"q.5.<.<.9.q.w.w.w.w.w.{ 6 K f.l.f.g.m.C.c.g & A a.P j +.8.w.w.w.w.w.9.&.*.9.q.q.",
"w.q.6.;.*.9.q.q.q.w.w.7. .8 1.a.0 V g.v.9 o o 2 A p.y.t +.0.w.w.w.w.0.<.9.0.w.w.",
"w.w.0.9.5.*.&.&.;.<.5.} M E g.h.t.9 i.c.-   N p.0 p.b.r.j ) w.w.w.w.0.0.0.w.w.w.",
"w.w.w.w.9.o.o.&.-.6.6.~ - p.l.h.W N W p.$   0 W & p.B.x.8 x w.w.w.0.9.0.w.w.w.w.",
"w.w.w.w.9.&.;.=.@.2.0.[ 5 T f.i.0 P Y N o . $ $ 3 f.V.c.C ! w.w.w.9.<.0.w.w.w.w.",
"w.w.w.w.q.<.;.Q * : } 7...5 N W p.0 9 N $ 9 V S x.M.l.h  .7.w.w.0.6.,.9.w.w.w.w.",
"w.w.w.w.0.;.m t 9 9 i / 8.( y N t.W V 3 V A W c.N.f.J ^ 4.q.w.q.9.;.o.;.9.w.w.w.",
"w.w.w.0.5.>., 3 S R A D ..8.k $ S g.t.A p.t.g.M.j.G a o.-.5.5.5.;.] ] ] &.;.5.5.",
"6.<.,.,.<.>., 3 Y h.h.T : ..k 3 P h.c.l.l.c.c.g.N v ` *.<.6.6.6.6.<.,.,.<.<.6.6.",
"<.;.%.%.;.2.= 3 Y j.i.N X : A t.g.c.v.j.t.g.j.f.l.G s 4.w.w.q.q.w.w.w.w.w.w.w.w.",
"w.w.6.;.%.4._ t p t.I 9     A t.R h.v.g.N t.l.n.V.Y w 7.w.w.w.w.w.w.w.w.w.w.w.w.",
"w.w.w.6.,.0.w._ 4 g S N X & A A 2 a.v.f.2 P l.Z.Z.Y w 8.w.w.w.w.w.w.w.w.w.w.w.w.",
"w.w.w.w.0.<.0.6.[ 3 1.T & Y N $ $ p.c.a.2 S j.C.Z.Y w 8.w.w.w.w.w.w.w.w.w.w.w.w.",
"w.w.w.w.0.9.0.w.@.; Y K 2 p.y.N $ S W Y N 9 P l.N.U w 8.w.w.w.w.w.w.w.w.w.w.w.w.",
"w.w.w.w.w.w.0.0.>.M A 0 9 Y p.R $ N A A V & 9 W p.H ~ q.w.w.w.w.w.w.w.w.w.w.w.w.",
"w.w.w.w.w.w.<.6.w.7.d 4 0 $ P E $ p A A N $ & 0 $ c 2.0.q.w.w.w.w.w.w.w.w.w.w.w.",
"w.w.w.w.w.w.<.<.5.w.4.m o   $ $ o N A N $ . X o   + k 7.q.q.w.w.w.w.w.w.w.w.w.w.",
"w.w.w.w.w.w.5.*.&.<.<.Q .         & 2 & o 2 &       # l 2.w.w.w.w.w.w.w.w.w.w.w.",
"w.w.w.w.w.w.5.%.] %.&.b .     . & & $ & & 9 2         # +.w.w.w.w.w.w.w.w.w.w.w.",
"w.w.w.w.w.9.;.*.&.&.&.Q @     $ N N N N p &         . : #.w.w.w.w.w.w.w.w.w.w.w.",
"w.w.w.w.0.<.%.<.0.w.w.4.[ #   . $ $ $ $ $ .         : ..8.q.w.w.w.w.w.w.w.w.w.w.",
"w.w.w.w.0.<.6.w.w.w.w.w.7.! z q .             O f x ) q.w.w.w.w.w.w.w.w.w.w.w.w.",
"w.w.w.w.w.9.0.w.w.w.w.w.w.w.w.| > * = = : : : u 2.q.w.w.w.w.w.w.w.w.w.w.w.w.w.w.",
"w.w.w.w.9.w.w.w.w.w.w.w.w.w.w.0.;.O.X.=.2.4.2.4.w.w.w.w.w.w.w.w.w.w.w.w.w.w.w.w.",
"w.w.w.9.<.0.w.w.w.w.w.w.w.w.w.w.w.9.<.<.w.w.w.w.w.w.w.w.w.w.w.w.w.w.w.w.w.w.w.w.",
"w.w.w.0.w.w.w.w.w.w.w.w.w.w.w.w.w.w.0.<.9.w.w.w.w.w.w.w.w.w.w.w.w.w.w.w.w.w.w.w.",
"w.0.9.6.w.w.w.w.w.w.w.w.w.w.w.w.w.w.w.9.<.9.w.w.w.w.w.w.w.w.w.w.w.w.w.w.w.w.w.w.",
"q.9.<.<.q.w.w.w.w.w.w.w.w.w.w.w.w.w.w.0.<.*.<.w.w.w.w.w.w.w.w.w.w.w.w.w.w.w.w.w.",
"<.*.,.9.w.w.w.w.w.w.w.w.w.w.w.w.w.w.w.w.6.%.*.<.6.w.w.w.w.w.w.w.w.w.w.w.w.w.0.9.",
"*.%.<.w.w.w.w.w.w.w.w.w.w.w.w.w.w.w.w.w.w.&.' ] *.4.8.w.w.w.w.w.w.w.w.w.w.w.7.3.",
"] *.6.w.w.w.w.w.w.w.w.w.w.w.w.w.w.w.w.w.0.&.' ] ' ] -.6.w.w.w.w.w.w.w.w.w.9.3.1."
};
