/* XPM */
static char *xpm_[] = {
/* columns rows colors chars-per-pixel */
"40 40 143 2 ",
"   c #020101",
".  c #080503",
"X  c #0F0906",
"o  c #0B0B0B",
"O  c #110B07",
"+  c #190F0A",
"@  c #15110F",
"#  c #1B120C",
"$  c #141414",
"%  c #181412",
"&  c #191817",
"*  c #1B1B1B",
"=  c #2B1610",
"-  c #231812",
";  c #2B1C13",
":  c #231E1D",
">  c #2F241E",
",  c #332015",
"<  c #3A2217",
"1  c #232323",
"2  c #2C2C2C",
"3  c #332821",
"4  c #322B2B",
"5  c #3B332E",
"6  c #392B35",
"7  c #323232",
"8  c #3B3B3B",
"9  c #47291C",
"0  c #4A301F",
"q  c #522C20",
"w  c #473225",
"e  c #4F3220",
"r  c #4C372A",
"t  c #4F392B",
"y  c #513321",
"u  c #543B2B",
"i  c #453932",
"p  c #643328",
"a  c #733E2D",
"s  c #5C4334",
"d  c #53443B",
"f  c #64422D",
"g  c #70462E",
"h  c #694732",
"j  c #64493A",
"k  c #694B38",
"l  c #7C4231",
"z  c #724B32",
"x  c #7A4F34",
"c  c #453441",
"v  c #563D50",
"b  c #434343",
"n  c #4A4248",
"m  c #4B4B4B",
"M  c #544C50",
"N  c #555454",
"B  c #5C5957",
"V  c #5D575B",
"C  c #5D5D5D",
"Z  c #7A4E45",
"A  c #63544A",
"S  c #7C5F4C",
"D  c #63485A",
"F  c #605B58",
"G  c #615D60",
"H  c #735C6C",
"J  c #646363",
"K  c #6C6C6C",
"L  c #7D6F6A",
"P  c #747474",
"I  c #7C737A",
"U  c #7B7B7B",
"Y  c #874C36",
"T  c #824E3B",
"R  c #865537",
"E  c #845538",
"W  c #8F5539",
"Q  c #8A5A3B",
"!  c #915339",
"~  c #98613F",
"^  c #9E5F40",
"/  c #B65A45",
"(  c #B95E47",
")  c #926040",
"_  c #9C6542",
"`  c #A36342",
"'  c #A76844",
"]  c #AA6C46",
"[  c #BD6249",
"{  c #B86949",
"}  c #B3724A",
"|  c #B9764C",
" . c #BD784E",
".. c #BF7B51",
"X. c #837E7C",
"o. c #C1664B",
"O. c #C46A4D",
"+. c #C86E4F",
"@. c #C3764F",
"#. c #C9704F",
"$. c #CB7250",
"%. c #C47E51",
"&. c #CB7B52",
"*. c #D07753",
"=. c #D47C55",
"-. c #AAAA4F",
";. c #CE8355",
":. c #C58852",
">. c #D48557",
",. c #D88057",
"<. c #DC8559",
"1. c #D78959",
"2. c #DC8A5A",
"3. c #E38D5D",
"4. c #E6915E",
"5. c #E8935F",
"6. c #EB9661",
"7. c #838383",
"8. c #8C8C8C",
"9. c #9C8796",
"0. c #949493",
"q. c #9A9A9A",
"w. c #A4849C",
"e. c #BC8BAF",
"r. c #A4A4A4",
"t. c #ABA5A9",
"y. c #ACACAC",
"u. c #B8A9B4",
"i. c #B4B4B4",
"p. c #BCBCBC",
"a. c #C38FB6",
"s. c #EBB7DD",
"d. c #C3C3C3",
"f. c #C8C3C6",
"g. c #CBCBCB",
"h. c #D5D5D5",
"j. c #DCDCDC",
"k. c #E5E5E5",
"l. c gray91",
"z. c #F4EAF2",
"x. c #F2F2F2",
"c. c gray98",
"v. c #FEFEFE",
/* pixels */
"( <.6.6.6.6.6.6.6.6.6.6.6.6.6.6.6.6.6.6.6.O.O.=.6.6.6.6.6.3.=.=.O./ ( #.o./ ( / ",
"+.2.6.6.6.6.6.6.6.6.6.6.6.6.6.6.6.6.6.6.6.*.=.3.6.6.6.6.6.6.3.3.3.=.+.*.+.+.o./ ",
"*.3.6.6.6.6.6.6.6.6.6.6.6.6.6.6.6.6.6.6.;.&.<.6.6.6.6.6.6.6.6.6.6.4.<.*.=.3.=.+.",
"*.3.6.6.6.6.6.6.6.6.6.6.6.6.6.6.6.6.6.| w ^ 2.6.6.6.6.6.6.6.6.6.6.6.5.<.4.6.3.=.",
"$.3.6.6.6.6.6.6.6.6.6.6.6.6.6.6.6.6.` u 6 t ^ >.x } 6.6.6.6.6.6.6.6.6.6.6.6.6.6.",
"[ <.6.6.6.6.6.6.6.6.6.6.6.6.6.6.3.} i * H v u ) 3 h | 6.6.6.6.6.6.6.6.6.6.6.6.6.",
"/ $.3.6.6.6.6.6.6.6.6.6.6.6.6.6...6 $ 6 a.9.N 1 M 4 y 2.6.6.6.6.6.6.6.6.<.3.6.6.",
"o.O.<.6.6.6.6.6.6.6.6.6.6.6.6.} r -.K G u.V b I e.v w 2.6.6.6.6.6.6.6.6.,.$.=.<.",
"=.O.*.3.6.6.6.6.6.6.6.6.6.6.] j B p.g.i.h.8.7.t.w.c w 2.5.6.6.6.6.6.3.<.=.$.$.=.",
"5.<.=.=.3.6.6.6.6.6.6.6.3. .j m 8.i.k.v.c.j.g.p.U b i } 4.5.6.6.6.6.3.O.$.<.3.6.",
"6.5.<.$.+.3.5.5.5.6.6.4.%.w K 0.N 2 7.x.c.h.d.p.p.0.F w %.6.6.6.6.6.6.*.2.6.6.6.",
"6.6.5.3.=.$.O.O.#.=.,.' c U 7.C 1 . 1 U k.r.J C y.P u _ 1.6.6.6.6.6.6.3.6.6.6.6.",
"6.6.6.6.3.[ [ o.$.,._ Z H f.I b N $   8 h.P 8 J i.7.A Q 1.5.5.6.6.6.<.6.6.6.6.6.",
"6.6.6.6.3.O.$.=.<.2.e D s.z.K n y.7   7 p.B N r.d.d.7.> ~ %.>.5.6.3.=.6.6.6.6.6.",
"6.6.6.6.5.=.=.<.6.2.e J z.z.K o 1 o   & J P N b y.y.K @ # ; y ;.6.<.*.3.6.6.6.6.",
"6.6.6.6.3.=.3.6.6.4.] S -.j.d.P 8 2 & $ m b N U 7.C d x i 7 5 f { $.( &.2.6.6.6.",
"6.6.6.5.,.3.5.6.6.6.6.] s q.j.j.8.G b 7 8 8 K 0.m 3 q T X.J d @ Y [ / [ O.$.,.,.",
"<.=.*.$.=.5.6.6.6.6.6.4.%.r 0.l.j.7.K K 7 7.q.C & p a 3 9.8.b @ ! &.$.=.=.=.<.<.",
"=.$.o.o.$.5.6.6.6.6.6.6.4.| k K g.i.8.K q.p.d.0.1 g ! : q.0.b @ ' 6.6.6.6.6.6.6.",
"6.6.<.$.O.3.6.6.6.6.5.5.1.Q L 8.y.i.K m i.g.r.J m s y % K C 5 z ;.6.6.6.6.6.6.6.",
"6.6.5.2.*.5.5.6.6.6.6.6...; 0.k.y.q.m 2 i.g.U * U 8   o N 8 , ;.6.6.6.6.6.6.6.6.",
"6.6.6.5.3.<.3.6.6.6.6.6.;.; 0.c.k.r.m 2 y.d.P * U b o $ 8.C , ;.6.6.6.6.6.6.6.6.",
"6.6.6.6.5.3.5.6.6.6.6.6.%.; 0.v.l.G 7 m P U m * U 8.C * X.B , ;.6.6.6.6.6.6.6.6.",
"6.6.6.6.6.6.5.5.6.6.6.6.;.; 0.x.p.7 2 N N N 7 * 8.8.G 2 m d x 1.6.6.6.6.6.6.6.6.",
"6.6.6.6.6.6.,.<.5.6.6.6.%.; U p.7.1 1 m N N 7 * 8.m & 8 > E 4.6.6.6.6.6.6.6.6.6.",
"6.6.6.6.6.6.,.*.,.5.6.5.@.- & 8 m * . * m N 7 . * o . % _ 1.6.6.6.6.6.6.6.6.6.6.",
"6.6.6.6.6.6.=.+.+.=.,.` e X   o 1 2 & . 1 1 $         # } 6.6.6.6.6.6.6.6.6.6.6.",
"6.6.6.6.6.6.=.O.( o.o.l .       . 2 2 * * & * $ .     # } 6.6.6.6.6.6.6.6.6.6.6.",
"6.6.6.6.6.3.*.O.+.+.O.R + .       . 1 m b b b 8 o   . , | 6.6.6.6.6.6.6.6.6.6.6.",
"6.6.6.6.5.=.O.=.4.6.4.>.W #         o $ $ $ & $     , ] 2.6.6.6.6.6.6.6.6.6.6.6.",
"6.6.6.6.6.=.<.4.6.6.6.6.2.R g 9 .             O f g _ 4.6.6.6.6.6.6.6.6.6.6.6.6.",
"6.6.6.6.6.3.5.6.6.6.6.6.6.6.6.] < = = ; , , , 0 ;.5.6.6.6.6.6.6.6.6.6.6.6.6.6.6.",
"6.6.6.4.3.6.6.6.6.6.6.6.6.6.6.3.&.{ / @.;.;.;.>.4.6.6.6.6.6.6.6.6.6.6.6.6.6.6.6.",
"6.6.6.4.=.4.6.6.6.6.6.6.6.6.6.6.6.3.=.=.5.6.6.6.6.6.6.6.6.6.6.6.6.6.6.6.6.6.6.6.",
"6.6.5.5.6.6.6.6.6.6.6.6.6.6.6.6.6.6.4.=.3.6.6.6.6.6.6.6.6.6.6.6.6.6.6.6.6.6.6.6.",
"6.6.3.=.6.6.6.6.6.6.6.6.6.6.6.6.6.6.6.3.,.3.6.6.6.6.6.6.6.6.6.6.6.6.6.6.6.6.6.6.",
"6.3.=.=.6.6.6.6.6.6.6.6.6.6.6.6.6.6.6.5.=.+.=.6.6.6.6.6.6.6.6.6.6.6.6.6.6.6.6.6.",
"=.+.*.3.6.6.6.6.6.6.6.6.6.6.6.6.6.6.6.6.<.o.+.=.2.6.6.6.6.6.6.6.6.6.6.6.6.6.5.2.",
"+.o.=.6.6.6.6.6.6.6.6.6.6.6.6.6.6.6.6.6.6.O./ ( +.,.2.5.6.6.6.6.6.6.6.6.6.6.2.:.",
"( +.<.6.6.6.6.6.6.6.6.6.6.6.6.6.6.6.6.6.4.O.( ( / ( #.<.6.6.6.6.6.6.6.6.6.3.:.-."
};
