/* XPM */
static char *xpm_[] = {
/* columns rows colors chars-per-pixel */
"40 40 148 2 ",
"   c #020101",
".  c #080503",
"X  c #0B0B0B",
"o  c #100B07",
"O  c #130F0D",
"+  c #190F0A",
"@  c #1D130C",
"#  c #141413",
"$  c #181514",
"%  c #191817",
"&  c #1C1C1C",
"*  c #2B1610",
"=  c #251912",
"-  c #2A1B13",
";  c #241E1A",
":  c #23201F",
">  c #2E221A",
",  c #332015",
"<  c #3A2217",
"1  c #232323",
"2  c #2B2B2B",
"3  c #3A2D26",
"4  c #322D2A",
"5  c #35312D",
"6  c #3D322B",
"7  c #343434",
"8  c #3C3C3C",
"9  c #472C1D",
"0  c #482E1E",
"q  c #493224",
"w  c #41362F",
"e  c #48372D",
"r  c #523422",
"t  c #5D3B26",
"y  c #523A2B",
"u  c #433933",
"i  c #433F3D",
"p  c #513F34",
"a  c #623E28",
"s  c #5E412F",
"d  c #5A4234",
"f  c #5C483F",
"g  c #65402A",
"h  c #6B452D",
"j  c #70462E",
"k  c #644431",
"l  c #7A4330",
"z  c #724A34",
"x  c #7C4F33",
"c  c #72503A",
"v  c #454544",
"b  c #484341",
"n  c #4C4C4C",
"m  c #594E47",
"M  c #56504C",
"N  c #535353",
"B  c #5C5C5C",
"V  c #6F5444",
"C  c #625148",
"Z  c #7A5741",
"A  c #615E5B",
"S  c #69615C",
"D  c #636363",
"F  c #6B6B6B",
"G  c #747474",
"H  c #7A7370",
"J  c #7D7875",
"K  c #7C7C7C",
"L  c #874E36",
"P  c #845436",
"I  c #8A553B",
"U  c #8C5B3B",
"Y  c #93583D",
"T  c #B65A45",
"R  c #B95E47",
"E  c #9D6440",
"W  c #A36543",
"Q  c #AB6C46",
"!  c #A66B48",
"~  c #AE6F48",
"^  c #B36446",
"/  c #BC6349",
"(  c #B66D4A",
")  c #BA694A",
"_  c #B5734B",
"`  c #B9774C",
"'  c #BF784E",
"]  c #BE7B50",
"[  c #C1664B",
"{  c #C46A4D",
"}  c #C86E4F",
"|  c #C3764F",
" . c #C9704F",
".. c #C17B4F",
"X. c #CB7250",
"o. c #C47D51",
"O. c #CA7B52",
"+. c #D07753",
"@. c #D47C55",
"#. c #AAAA4F",
"$. c #CD8354",
"%. c #C58852",
"&. c #D48657",
"*. c #D88057",
"=. c #DC8559",
"-. c #D68959",
";. c #DC8A5A",
":. c #E38D5D",
">. c #E6915F",
",. c #E8935F",
"<. c #EB9661",
"1. c #828282",
"2. c #8C8C8C",
"3. c #909090",
"4. c #929292",
"5. c #959594",
"6. c #999999",
"7. c #9A9A9A",
"8. c #9B9B9B",
"9. c #9D9D9D",
"0. c gray62",
"q. c #9F9F9F",
"w. c #A1A1A1",
"e. c #A2A2A2",
"r. c #A4A4A4",
"t. c gray65",
"y. c #A7A7A7",
"u. c #A9A9A9",
"i. c #AAAAAA",
"p. c #ABABAB",
"a. c #AFAFAF",
"s. c #B1B1B1",
"d. c #B4B4B4",
"f. c #B7B7B7",
"g. c #B9B9B9",
"h. c gray73",
"j. c #BBBBBB",
"k. c #BCBCBC",
"l. c gray",
"z. c #C0C0C0",
"x. c #C1C1C1",
"c. c #C3C3C3",
"v. c gray77",
"b. c #C5C5C5",
"n. c #C6C6C6",
"m. c #C8C8C8",
"M. c #CACACA",
"N. c #CBCBCB",
/* pixels */
"R =.<.<.<.<.<.<.<.<.<.<.<.<.<.<.<.<.<.<.<.{ { *.<.<.<.<.<.>.@.+.{ T R X./ T T T ",
"} ;.<.<.<.<.<.<.<.<.<.<.<.<.<.,.<.<.<.<.<.+.+.>.<.<.<.<.<.<.:.:.:.@.} +.} } [ R ",
"+.:.<.<.<.<.<.<.<.<.<.<.,.$.$.&.,.<.<.<.<.@.=.>.$.o.&.<.<.<.<.<.<.,.@.@.@.:.@.{ ",
"+.:.<.<.<.<.<.<.<.<.<.,.%.0 = g ;.,.,.,.<.-.;.$.9 = g -.<.<.<.<.<.<.<.=.,.<.:.@.",
"X.:.<.<.<.<.<.<.<.<.<._ k n 1 9 %.P a a a a E ] - 2 m j $.<.<.<.<.<.<.<.<.<.<.<.",
"/ =.<.<.<.<.<.<.<.<.<.U & 2.B d U 3 2 7 7 1 y U u G G ; _ <.<.<.<.<.<.<.,.<.<.<.",
"T X.:.<.<.<.<.<.<.<.,.U 1 6.q.F 4 n 1.y.e.G b 5 J y.1.; _ <.<.<.<.<.<.<.=.:.<.<.",
"[ { =.<.<.<.<.<.<.<.<.U % A 3.q.3.y.j.b.v.f.9.2.r.2.M $ _ <.<.<.<.<.<.<.@.+.@.=.",
"@.{ +.>.,.<.<.<.<.>.E 9 $ G 2.3.s.b.N.N.N.N.z.i.2.2.D # t ~ >.<.<.<.,.=.@.} X.@.",
"<.*.@.@.:.,.<.<.:.` d 2 i 6.2.K i.v.N.N.N.m.z.e.G 3.2.7 2 c ..,.<.<.:.{ X.=.,.<.",
"<.>.=.X.} :.>.>.' q J i.y.G 2.y.e.z.N.N.N.N.f.w.r.1.K i.u.S r -.<.<.>.@.:.,.<.<.",
"<.<.>.:.@.} } } ) Y f B K 3.a.z.j.b.N.N.N.N.z.j.z.y.2.G N c ~ >.<.<.<.:.>.<.<.<.",
"<.<.<.<.:.[ R [ ^ I C D 1.y.z.m.m.N.N.N.N.N.N.N.m.k.e.J B V E :.<.<.:.<.<.<.<.<.",
"<.<.<.<.:.{ } @.( q J 9.6.a.z.m.N.N.N.b.a.s.j.m.N.l.i.5.9.S y -.<.:.@.:.<.<.<.<.",
"<.<.<.<.>.@.@.:.>.' d : 7 i.j.j.m.N.m.r.7 1 D z.m.m.3.2 1 c $.>.<.=.+.:.<.<.<.<.",
"<.<.<.<.>.@.:.>.<.>.! r O v F 3.j.m.3.n 7 7 8 D i.1.8 O h _ ,.,.=.X.[ X.:.<.<.<.",
"<.<.<.:.=.:.>.<.<.<.` Z i 7 8 N K i.B # n N 8 2 F N 8 d c ~ @.@.X.R R / { X.@.*.",
"=.@.+.+.@.>.<.<.>.$.t B a.5.n & 2 G N 1 N B N v $ B 9.r.v z O.=.=.@.+.+.+.@.=.:.",
"@.+.[ [ X.>.<.<.o.y H t.e.v F 0.3.8 B 9.y.G B v X % N i.e.A t -.<.<.<.<.<.<.<.<.",
"<.>.=.X.{ :.<.<._ ; 1.h.6.& G N.d.7 v 9.z.r.2.G %   8 y.l.D > &.<.<.<.<.<.<.<.<.",
"<.<.<.:.X.>.<.<.` = B 2.K v 1.N.d.7 2 F u.z.N.p.: & n 1.2.v , $.<.<.<.<.<.<.<.<.",
"<.<.<.>.>.@.>.<._ @ O % 2 6.x.N.d.2 2 B F r.z.r.1 D 1.: % O , &.<.<.<.<.<.<.<.<.",
"<.<.<.<.>.:.>.<._ @ 2 1 & 0.v.N.j.2 N 3.D F K F % F K # 2 & , $.<.<.<.<.<.<.<.<.",
"<.<.<.<.<.<.>.<.$.h w & & 9.z.v.d.7 8 K K D v 8 v 2.1.# 2 e x -.<.<.<.<.<.<.<.<.",
"<.<.<.<.<.<.@.:.<.;.a = 3 3.d.h.f.v # 2 8.F 7 7 6.a.K - - P <.<.<.<.<.<.<.<.<.<.",
"<.<.<.<.<.<.@.X.@.>.-.o.! 6 K l.s.i.N % N 2 v 3.g.D p _ o.-.<.<.<.<.<.<.<.<.<.<.",
"<.<.<.<.<.<.@.} } @.@.W r X 2 n N G v . 1 2 8 n N 1 @ h O.<.<.<.<.<.<.<.<.<.<.<.",
"<.<.<.<.<.<.@.{ R [ { l .   # & & 7 &     2 2 & % X   + _ <.<.<.<.<.<.<.<.<.<.<.",
"<.<.<.<.<.:.@.[ } } } L + . 2 v d %         & v v & . , ` <.<.<.<.<.<.<.<.<.<.<.",
"<.<.<.<.<.@.[ @.>.>.>.&.Y + X # #           X # # X , ! ;.<.<.<.<.<.<.<.<.<.<.<.",
"<.<.<.<.>.@.:.:.<.<.<.<.-.I j 9 .           . o t j E >.<.<.<.<.<.<.<.<.<.<.<.<.",
"<.<.<.<.<.:.<.<.<.<.<.<.<.<.<.! < * * > , , , q $.<.<.<.<.<.<.<.<.<.<.<.<.<.<.<.",
"<.<.<.<.:.<.<.<.<.<.<.<.<.<.<.<.O.R ^ | -.&.$.-.<.<.<.<.<.<.<.<.<.<.<.<.<.<.<.<.",
"<.<.<.:.@.<.<.<.<.<.<.<.<.<.<.<.<.:.@.@.:.<.<.<.<.<.<.<.<.<.<.<.<.<.<.<.<.<.<.<.",
"<.<.<.>.<.<.<.<.<.<.<.<.<.<.<.<.<.<.:.@.:.<.<.<.<.<.<.<.<.<.<.<.<.<.<.<.<.<.<.<.",
"<.<.:.@.<.<.<.<.<.<.<.<.<.<.<.<.<.<.<.:.@.:.<.<.<.<.<.<.<.<.<.<.<.<.<.<.<.<.<.<.",
"<.:.@.@.<.<.<.<.<.<.<.<.<.<.<.<.<.<.<.>.@.} @.<.<.<.<.<.<.<.<.<.<.<.<.<.<.<.<.<.",
"@.{ @.:.<.<.<.<.<.<.<.<.<.<.<.<.<.<.<.<.:.[ { @.=.<.<.<.<.<.<.<.<.<.<.<.<.<.<.:.",
"X.[ @.<.<.<.<.<.<.<.<.<.<.<.<.<.<.<.<.<.:.{ R R } *.;.<.<.<.<.<.<.<.<.<.<.<.-.%.",
"R } @.<.<.<.<.<.<.<.<.<.<.<.<.<.<.<.<.<.<.{ T T T R } =.<.<.<.<.<.<.<.<.<.:.%.#."
};
