/* XPM */
static char *xpm_[] = {
/* columns rows colors chars-per-pixel */
"40 40 136 2 ",
"   c #010000",
".  c #080503",
"X  c #0F0806",
"o  c #0D0D0C",
"O  c #120B07",
"+  c #140D0A",
"@  c #190F0A",
"#  c #16100C",
"$  c #1C130E",
"%  c #141414",
"&  c #1A1715",
"*  c #1C1C1C",
"=  c #24160E",
"-  c #271A12",
";  c #2B1B13",
":  c #221E1D",
">  c #321F14",
",  c #2F2017",
"<  c #25211F",
"1  c #2E2018",
"2  c #352116",
"3  c #232323",
"4  c #2C2C2C",
"5  c #362B23",
"6  c #363636",
"7  c #3E3936",
"8  c #3C3C3C",
"9  c #472E1E",
"0  c #4C301F",
"q  c #543827",
"w  c #5B3925",
"e  c #563C2B",
"r  c #633B28",
"t  c #49413C",
"y  c #564438",
"u  c #65412A",
"i  c #6A442C",
"p  c #70472E",
"a  c #72492F",
"s  c #7B4E33",
"d  c #744B38",
"f  c #7A4E38",
"g  c #7E5034",
"h  c #7B553D",
"j  c #454545",
"k  c #4B4B4B",
"l  c #545454",
"z  c #5F5550",
"x  c #5C5C5C",
"c  c #745643",
"v  c #625852",
"b  c #636363",
"n  c #6D6C6C",
"m  c #747474",
"M  c #7C7C7C",
"N  c #874F36",
"B  c #805135",
"V  c #885738",
"C  c #86593E",
"Z  c #93543B",
"A  c #925C3C",
"S  c #98603E",
"D  c #9E5F40",
"F  c #B65A45",
"G  c #B95E47",
"H  c #936243",
"J  c #9C6441",
"K  c #AB6244",
"L  c #A66A45",
"P  c #A96B45",
"I  c #BD6249",
"U  c #B36D48",
"Y  c #BD6D4B",
"T  c #AF7048",
"R  c #B4724A",
"E  c #B8754C",
"W  c #BE794E",
"Q  c #C1664B",
"!  c #C46A4D",
"~  c #C86E4F",
"^  c #C3744E",
"/  c #C9704F",
"(  c #C17B4F",
")  c #CB7250",
"_  c #C37C51",
"`  c #D07753",
"'  c #D47C55",
"]  c #AAAA4F",
"[  c #CB8254",
"{  c #C58852",
"}  c #D48456",
"|  c #D88057",
" . c #DC8559",
".. c #D58858",
"X. c #DC8B5A",
"o. c #E28D5D",
"O. c #E6915F",
"+. c #E8935F",
"@. c #E99460",
"#. c #EA9560",
"$. c #EB9661",
"%. c #818181",
"&. c gray51",
"*. c gray52",
"=. c #898989",
"-. c gray54",
";. c #919191",
":. c #929292",
">. c #939393",
",. c gray58",
"<. c #979797",
"1. c #9B9B9B",
"2. c gray62",
"3. c #9F9F9F",
"4. c #A1A1A1",
"5. c #A2A2A2",
"6. c gray64",
"7. c #A4A4A4",
"8. c #A5A5A5",
"9. c #A9A9A9",
"0. c #AAAAAA",
"q. c #ACACAC",
"w. c #AEAEAE",
"e. c #AFAFAF",
"r. c #B6B6B6",
"t. c #B9B9B9",
"y. c gray73",
"u. c #BCBCBC",
"i. c gray74",
"p. c gray75",
"a. c #C0C0C0",
"s. c #C1C1C1",
"d. c #C3C3C3",
"f. c #C8C8C8",
"g. c #CACACA",
"h. c #CBCBCB",
/* pixels */
"G  .$.$.$.$.$.$.$.$.$.$.$.$.$.$.$.$.$.$.+.! ! ' $.$.$.$.$.+.' ` Q F G ~ I F F F ",
"~ X.$.$.$.$.$.$.$.$.$.$.$.$.$.$.$.$.$.$.$.' ' O.+.$.$.$.$.$.o.O.o.' ) ` ) ~ Q F ",
"` o.$.$.$.$.$.$.$.$.$.$.$.$.$.$.$.$.$.$.+.|  .$.$.$.$.$.$.$.$.$.$.+.o.' ' o.' ! ",
"` o.$.$.$.$.$.$.$.$.$.$.$.$.$.$.$.$.$.$.$. .o.$.$.$.$.$.$.$.$.$.$.@.+.' +.$.o.' ",
") o.$.$.$.$.$.$.$.$.$.$.+.O.O.O.$.$.$.+.O.$.+.$.O.o.+.$.$.$.$.$.$.$.$.@.$.$.$.+.",
"I  .$.$.$.$.$.$.$.$.$.$.O.V w a ..$.$.O.| o.$...p w C +.$.$.$.$.$.$.$.$.@.+.$.$.",
"F ) o.$.$.$.$.$.$.$.$.X.S y 3 - { R A A B A R _ - : y J X.$.$.$.$.$.$.@.o.o.$.$.",
"Q ! ' $.$.$.$.$.$.$.$.( , b x 5 L q & < : & w L 5 b b > _ $.$.$.$.$.$.$.' ) ' o.",
"' ~ ) o.$.$.$.$.$.$.$.( - &.5.n 5 7 b :.>.b 7 5 n 5.M ; W $.$.$.$.$.@. .' ~ ~ ' ",
"$.| ' ' o.$.$.$.$.$.+.( - x :.1.m -.q.s.s.9.-.m 1.:.l - _ $.$.$.$.$.o.! ~ o.+.+.",
"$.$. .) ~ o.+.+.O.$._ N & l *.<.e.d.h.h.h.h.s.w.<.*.l & V { $.$.$.$.o.' o.+.$.$.",
"$.$.+.o.' ~ ! ! ~ ^ f < 3 &.>.m 6.s.h.h.h.h.s.6.m <.M 3 3 C ..$.$.$.@.o.+.@.$.$.",
"$.$.$.$.o.I Q Q Y w z 8.5.M &.2.1.t.h.h.h.h.t.1.4.M M 6.4.z i X.$.+.o.+.$.$.$.$.",
"$.$.$.$.o.! ~ ` ' L c x &.-.5.u.t.d.h.h.h.h.s.r.i.4.-.&.x c L @.@.o.' O.$.$.$.$.",
"$.$.$.$.+.' ' o.O.E c k n 2.u.h.h.h.h.s.<.-.6.f.h.i.1.n k c E @.@.o.` O.$.$.$.$.",
"$.$.$.+.O.' o.O.o.u v 5.1.0.u.f.g.h.d.<.4 % l e.s.i.9.1.4.z i X. .) I ) o.@.$.$.",
"$.$.$.O.| o.$.$.+.[ h 3 4 :.a.t.f.h.-.4 8 j 6 8 4.s.=.4 3 c Y ' ) G F I ! ) ' | ",
" .' ' ) ' +.$.$.$.$.W u # 8 n =.r.d.M % k l k 6 k l 8 % w R  . .' ` ' ) ' '  . .",
"' ) Q Q ) o.$.$.$.$.[ H t 6 6 k m -.n k n b l k % : 6 e H [ @.@.$.$.$.$.$.$.$.$.",
"+.$. .) ! o.$.$.$...C t 5.1.x : 3 % k w.i.*.b l % l 2.4.8 H X.@.$.$.$.$.$.$.$.$.",
"$.$.$.o.' o.+.$.X.i v 7.0.l x 2.<.6 4 M y.t.e.<.* * l w.7.v i o.$.$.$.$.$.$.$.$.",
"$.$.$.o.X. .o.$.X.9 l t.9.6 l f.s.k 3 x *.r.h.q.3   8 q.y.k 0 X.$.$.$.$.$.$.$.$.",
"$.$.$.$.$.X.+.$.X.9 8 M M l m f.d.k 4 n x -.q.>.* 3 k %.&.6 0 o.$.$.$.$.$.$.$.$.",
"$.$.$.$.$.$.O.+.X.9 o % * M p.h.s.l k 2.n x x k 3 m M * % o 0 X.$.$.$.$.$.$.$.$.",
"$.$.$.$.$.$.'  .X.9 * 6 % M p.h.h.q.n j <.m 8 4 *.q.M o 6 & 0 X.$.$.$.$.$.$.$.$.",
"$.$.$.$.$.+.' ' ' A e 3 o M p.p.h.h.M * m l j n w.p.M o 3 y A @.$.$.$.$.$.$.$.$.",
"$.$.$.$.$.$.| / ! | Z - o b :.-.<.7.n o 6 3 j :.-.;.b o > J @.$.$.$.$.$.$.$.$.$.",
"$.$.$.$.$.$.' Q G Q I Z $ o % * * j 6   o 4 6 * * % o $ T @.$.$.$.$.$.$.$.$.$.$.",
"$.$.$.$.$.o.) ~ ! ! ! K @   * 8 8 3 o     o 3 8 8 *   $ { $.$.$.$.$.$.$.$.$.$.$.",
"$.$.$.$.$.' ! ' +.O.$...s = % 4 4 %         % 4 4 # - s } @.$.$.$.$.$.$.$.$.$.$.",
"$.$.$.$.+.'  .O.$.$.$.$.o.i > - .             . ; 2 p O.$.$.$.$.$.$.$.$.$.$.$.$.",
"$.$.$.+.$.o.O.$.$.$.$.$.$.X.} P = X X O O O O , R [ X.@.$.$.$.$.$.$.$.$.$.$.$.$.",
"$.$.$.+.o.$.$.$.$.$.$.$.$.$.$.o.K J N D K P L U o.$.$.$.$.$.$.$.$.$.$.$.$.$.$.$.",
"$.$.$.+.' +.$.$.$.$.$.$.$.$.$.$.$.o.' ' +.$.$.$.$.$.$.$.$.$.$.$.$.$.$.$.$.$.$.$.",
"$.$.O.+.$.+.$.$.$.$.$.$.$.$.$.$.$.$.o.' o.$.$.$.$.$.$.$.$.$.$.$.$.$.$.$.$.$.$.$.",
"$.+.o.' +.$.$.$.$.$.$.$.$.$.$.$.$.$.$.o.' o.$.$.$.$.$.$.$.$.$.$.$.$.$.$.$.$.$.$.",
"$.o.' ' $.$.$.$.$.$.$.$.$.$.$.$.$.$.$.+.' ~ ' $.$.$.$.$.$.$.$.$.$.$.$.$.$.$.@.$.",
"' ~ ` o.$.$.$.$.$.$.$.$.$.$.$.$.$.$.$.+. .Q ! ' X.@.@.$.$.$.$.$.$.$.$.$.$.$.+. .",
"~ Q ' $.$.$.$.$.$.$.$.$.$.$.$.$.$.$.$.$.+.! F G ~ ' o.@.$.$.$.$.$.$.$.$.$.+.X.{ ",
"G ~  .$.$.$.$.$.$.$.$.$.$.$.$.$.$.$.$.$.+.~ F F F G )  .$.$.$.$.$.$.$.$.$.X.{ ] "
};
