/* XPM */
static char *xpm_[] = {
/* columns rows colors chars-per-pixel */
"40 40 132 2 ",
"   c #010101",
".  c #080503",
"X  c #0F0806",
"o  c #0C0C0C",
"O  c #120B07",
"+  c #1A120C",
"@  c #131313",
"#  c #181310",
"$  c #1F171C",
"%  c #1C1C1C",
"&  c #22160E",
"*  c #271910",
"=  c #2B1B12",
"-  c #2F221A",
";  c #352116",
":  c #34251C",
">  c #242424",
",  c #2B2B2B",
"<  c #3B2E26",
"1  c #342D29",
"2  c #3E3129",
"3  c #392D35",
"4  c #343434",
"5  c #3C3C3C",
"6  c #452A1C",
"7  c #4C301F",
"8  c #472E2F",
"9  c #4C3121",
"0  c #4A372B",
"q  c #513422",
"w  c #5B3925",
"e  c #533929",
"r  c #4A3432",
"t  c #47423F",
"y  c #594132",
"u  c #5D4739",
"i  c #66432D",
"p  c #70472E",
"a  c #6A4630",
"s  c #7B4D33",
"d  c #765139",
"f  c #553C4F",
"g  c #424242",
"h  c #4C4C4C",
"j  c #5A4E47",
"k  c #5B514A",
"l  c #555555",
"z  c #5C5C5C",
"x  c #604E43",
"c  c #645146",
"v  c #7A5340",
"b  c #7B5F4F",
"n  c #666565",
"m  c #6D6765",
"M  c #6C6966",
"N  c #6B6B6B",
"B  c #7D6677",
"V  c #7E6C79",
"C  c #747474",
"Z  c #7C7279",
"A  c #7E7E7E",
"S  c #835436",
"D  c #8D5539",
"F  c #8C593A",
"G  c #93543B",
"H  c #99613F",
"J  c #805D47",
"K  c #9E5F40",
"L  c #B65A45",
"P  c #B95E47",
"I  c #9C6442",
"U  c #A16442",
"Y  c #AB6244",
"T  c #A56944",
"R  c #A96B46",
"E  c #AA6C49",
"W  c #BD6249",
"Q  c #B86D4A",
"!  c #B27149",
"~  c #BA764C",
"^  c #BC794F",
"/  c #C1664B",
"(  c #C46A4D",
")  c #C86E4F",
"_  c #C9704F",
"`  c #C07A4F",
"'  c #CB7250",
"]  c #C27B50",
"[  c #CD7B52",
"{  c #D07753",
"}  c #D47C55",
"|  c #AAAA4F",
" . c #CC8254",
".. c #C58852",
"X. c #D38456",
"o. c #D88057",
"O. c #DC8559",
"+. c #D68858",
"@. c #DD8B5B",
"#. c #E28D5D",
"$. c #E6915E",
"%. c #E8935F",
"&. c #EB9661",
"*. c #99718E",
"=. c #907E8B",
"-. c #848484",
";. c #8D8D8D",
":. c #949393",
">. c #9B9198",
",. c #9B9B9B",
"<. c #A5A29F",
"1. c #A4A4A4",
"2. c #ACACAC",
"3. c #B4B4B4",
"4. c #BBBBBB",
"5. c #C794BA",
"6. c #C39AB8",
"7. c #DABFD3",
"8. c #C5C5C5",
"9. c gray80",
"0. c gray83",
"q. c #D6D6D6",
"w. c gainsboro",
"e. c gray87",
"r. c #E7D2E1",
"t. c #E6E6E6",
"y. c gray92",
"u. c gray94",
"i. c #F7F7F7",
"p. c #FDF2FA",
"a. c #FBFBFB",
"s. c #FDFDFD",
/* pixels */
"P O.&.&.&.&.&.&.&.&.&.&.&.&.&.&.&.&.&.&.&.( / o.&.&.&.&.&.&.} ' / P L ' W L L L ",
") @.&.&.&.&.&.&.&.&.&.&.&.&.&.&.&.&.&.&.&.} } $.&.&.&.&.&.&.#.#.#.} ) { ' ) / L ",
"{ #.&.&.&.&.&.&.&.&.&.&.&.&.&.&.&.&.&.$.I Q o.&.&.&.&.&.&.&.&.&.&.%.#.} } #.} ( ",
"{ #.&.&.&.&.&.&.&.&.&.&.&.&.&.&.&.&.@.E : s [ &. .@.&.&.&.&.&.&.&.&.%.} %.&.#.} ",
"' #.&.&.&.&.&.&.&.&.&.&.&.&.&.&.&.&.H - g < p ] 7 H $.&.&.&.&.&.&.&.&.&.&.&.&.&.",
"P O.&.&.&.&.&.&.&.&.&.&.&.&.&.&.$.F ; $ *.V k e 4 0 F $.&.&.&.&.&.&.&.&.%.&.&.&.",
"L ' #.&.&.&.&.&.&.&.&.&.&.&.&.@.I k 5 5 6.=.h g B 3 q $.&.&.&.&.&.&.&.&.#.#.&.&.",
"( ( O.&.&.&.&.&.&.&.&.&.&.&.@.E 2 ;.1.A 4.n h >.5.f 9 $.&.&.&.&.&.&.&.%.} ' { #.",
"} ( { #.&.&.&.&.&.&.&.&.&.&.I < C 8.y.t.u.8.3.3.Z , q @.&.&.&.&.&.&.$.#.{ _ _ } ",
"&.o.} } #.&.&.&.&.&.&.&.$.F c C N n 1.a.s.w.8.8.1.C j p X.&.&.&.&.&.#.( _ #.$.&.",
"&.%.O.' ) #.%.%.&.&.&.@.U x N :.g % g 3.u.8.:.:.4.;.k i X.&.&.&.&.&.$.} #.%.&.&.",
"&.&.%.#.} ) ( ( _ } [ R r :.:.h , o   4 q.:.g g 2.n y ^ $.&.&.&.&.&.&.#.#.&.&.&.",
"&.&.&.&.#.W / / _ O.D 8 *.y.:.4 2.g   , 9.N g 1.8.3.C 0 ..&.&.&.&.$.#.$.&.&.&.&.",
"&.&.&.&.#.( ) { O.&.S , 7.p.:.# l ,   % -.C l N 3.4.N = ^ &.&.&.&.$.} $.&.&.&.&.",
"&.&.&.&.%.} } #.&.&.T u <.t.4.h > % o o g z l l :.A g + S  .&.&.&.O.{ #.&.&.&.&.",
"&.&.&.&.$.} #.$.&.&.#.^ r <.r.w.C l 5 % g 4 l ,.z , . o # S +.&.O.' W ' #.&.&.&.",
"&.&.&.$.o.#.&.&.&.&.&.$.^ a -.a.w.-.n n > N ;.z >   % 5 g 1 w [ ' W L W ( ' o.o.",
"O.} { { } $.&.&.&.&.&.&.&.T b -.9.3.1.1.A 2.1.h o   4 ;.:.g 6 X.O.} } ' [ o.O.O.",
"} ' / / ' $.&.&.&.&.&.&.$.^ J z 2.8.4.2.8.9.2.N 5 o 5 1.8.l 9 @.&.&.&.&.&.&.&.&.",
"&.&.O.' / #.&.&.&.&.&.&.@.e M w.2.3.,.N 3.9.8.1.;.4 > n 2.l 7 @.&.&.&.&.&.&.&.&.",
"&.&.&.O.} $.&.&.&.&.&.&.@.9 N i.y.3.n 4 2.9.:.g A 5 % l n 4 8 @.&.&.&.&.&.&.&.&.",
"&.&.&.&.@.o.#.&.&.&.&.&.@.9 N a.a.4.z > 2.9.A o 5 h g 4 J h 0 @.&.&.&.&.&.&.&.&.",
"&.&.&.&.&.@.&.&.&.&.&.&.@.9 N a.w.,.g 4 :.2.N o > N N > ,.h 9 @.&.&.&.&.&.&.&.&.",
"&.&.&.&.&.&.@.&.&.&.&.&.@.w M q.,.5 , h z z 5 % C 1.C > C g w @.&.&.&.&.&.&.&.&.",
"&.&.&.&.&.&.} O.%.&.&.&.%.` d g z > > l l l 4 > ,.n 4 5 , d ..$.&.&.&.&.&.&.&.&.",
"&.&.&.&.&.&.} { o.$.&.%.#.H 6 . > o o 4 h l 4 @ h , @ 1 a ~ $.&.&.&.&.&.&.&.&.&.",
"&.&.&.&.&.&.O.) ( o.o.[ U ;       o o o 4 g ,         & ` &.$.&.&.&.&.&.&.&.&.&.",
"&.&.&.&.&.&.} / W / / Y = .       , , o o o o .       + ..&.&.&.&.&.&.&.&.&.&.&.",
"&.&.&.&.&.#.{ ) ( ( ( Y +         o , 5 5 g 5 4 o     & ` &.&.&.&.&.&.&.&.&.&.&.",
"&.&.&.&.$.} ( { %.%.%.+.s &         o , , , , > .   * s +.&.&.&.&.&.&.&.&.&.&.&.",
"&.&.&.&.$.} O.$.&.&.&.&.@.p ; & .             . = ; p $.&.&.&.&.&.&.&.&.&.&.&.&.",
"&.&.&.&.&.#.&.&.&.&.&.&.%.@.X.R * X X O O O O ; !  .@.&.&.&.&.&.&.&.&.&.&.&.&.&.",
"&.&.&.%.#.&.&.&.&.&.&.&.&.&.&.#.Y K G K T E E ! #.&.&.&.&.&.&.&.&.&.&.&.&.&.&.&.",
"&.&.&.$.} %.&.&.&.&.&.&.&.&.&.&.&.#.{ { $.&.&.&.&.&.&.&.&.&.&.&.&.&.&.&.&.&.&.&.",
"&.&.%.%.&.&.&.&.&.&.&.&.&.&.&.&.&.&.$.} #.&.&.&.&.&.&.&.&.&.&.&.&.&.&.&.&.&.&.&.",
"&.&.#.} &.&.&.&.&.&.&.&.&.&.&.&.&.&.&.#.} #.&.&.&.&.&.&.&.&.&.&.&.&.&.&.&.&.&.&.",
"&.#.} } &.&.&.&.&.&.&.&.&.&.&.&.&.&.&.%.} ) } &.&.&.&.&.&.&.&.&.&.&.&.&.&.&.&.&.",
"} ) { #.%.&.&.&.&.&.&.&.&.&.&.&.&.&.&.&.O./ ( } O.&.&.&.&.&.&.&.&.&.&.&.&.&.&.O.",
") / } %.&.&.&.&.&.&.&.&.&.&.&.&.&.&.&.&.%.( P P _ o.#.$.&.&.&.&.&.&.&.&.&.&.@...",
"P ) #.%.&.&.&.&.&.&.&.&.&.&.&.&.&.&.&.&.%.( P P L P ) O.&.&.&.&.&.&.&.&.&.#...| "
};
