/* XPM */
static char *xpm_[] = {
/* columns rows colors chars-per-pixel */
"40 40 150 2 ",
"   c #020202",
".  c #080503",
"X  c #0F0906",
"o  c #0C0C0C",
"O  c #110B07",
"+  c #100F0E",
"@  c #190F0A",
"#  c #1A110B",
"$  c #141414",
"%  c #1B1B1B",
"&  c #2B1610",
"*  c #231B16",
"=  c #2B1D13",
"-  c #201E1E",
";  c #311F14",
":  c #2D221D",
">  c #342115",
",  c #3A2217",
"<  c #34251A",
"1  c #271C24",
"2  c #242424",
"3  c #2C2C2C",
"4  c #322723",
"5  c #3D342F",
"6  c #332B31",
"7  c #343333",
"8  c #3B3937",
"9  c #3D3B3B",
"0  c #4A251C",
"q  c #442B1D",
"w  c #482D1E",
"e  c #532F21",
"r  c #4D3223",
"t  c #4E3629",
"y  c #4C392D",
"u  c #573926",
"i  c #5E3C26",
"p  c #55372B",
"a  c #503A2C",
"s  c #5B3E2D",
"d  c #463933",
"f  c #433F3F",
"g  c #603D27",
"h  c #65352A",
"j  c #6E382A",
"k  c #783E2E",
"l  c #56483F",
"z  c #64412B",
"x  c #70462F",
"c  c #73492F",
"v  c #6B4E3C",
"b  c #774730",
"n  c #7A4330",
"m  c #784D32",
"M  c #473B44",
"N  c #454545",
"B  c #4B4B4B",
"V  c #564941",
"C  c #5B4B42",
"Z  c #514E4C",
"A  c #545454",
"S  c #5F5956",
"D  c #5B5B5B",
"F  c #6F494E",
"G  c #6C594E",
"H  c #63515E",
"J  c #625E5B",
"K  c #6C635E",
"L  c #646464",
"P  c #6C6C6C",
"I  c #73676A",
"U  c #766D68",
"Y  c #7F7068",
"T  c #756170",
"R  c #737373",
"E  c #7C7B7B",
"W  c #844C35",
"Q  c #864D39",
"!  c #825538",
"~  c #895739",
"^  c #8B593A",
"/  c #97603E",
"(  c #98613F",
")  c #865C41",
"_  c #885D42",
"`  c #955F40",
"'  c #B55A45",
"]  c #B95E47",
"[  c #9C6542",
"{  c #A36342",
"}  c #A46945",
"|  c #AC6D47",
" . c #BD6249",
".. c #B86949",
"X. c #B3724A",
"o. c #BA774D",
"O. c #BD794E",
"+. c #847972",
"@. c #C1664B",
"#. c #C46A4D",
"$. c #C86E4F",
"%. c #C3764F",
"&. c #C9704F",
"*. c #CB7250",
"=. c #C57E52",
"-. c #CC7B52",
";. c #D07753",
":. c #D47C55",
">. c #AAAA4F",
",. c #88807B",
"<. c #CE8354",
"1. c #C58852",
"2. c #D38557",
"3. c #D88057",
"4. c #D48857",
"5. c #DC8559",
"6. c #D68958",
"7. c #DC8B5A",
"8. c #E38D5D",
"9. c #E6915F",
"0. c #E8935F",
"q. c #EB9661",
"w. c #97728D",
"e. c #907E8B",
"r. c #838383",
"t. c #898887",
"y. c #8D8D8D",
"u. c #968D94",
"i. c #949494",
"p. c #9D9C9C",
"a. c #AD82A1",
"s. c #A4A4A4",
"d. c gray67",
"f. c #B3B3B3",
"g. c #BBB6BA",
"h. c #BCBCBC",
"j. c #C793B9",
"k. c #C79BBB",
"l. c #C2C2C2",
"z. c #CBCBCB",
"x. c #D3D3D3",
"c. c #D9D6D7",
"v. c #D8D8D7",
"b. c gainsboro",
"n. c #F3CCE8",
"m. c #E5E5E5",
"M. c #EBEBEB",
"N. c #F3F3F3",
"B. c #F9F1F7",
"V. c #FDFDFD",
/* pixels */
"] 5.q.q.q.q.q.q.q.q.q.q.q.q.q.q.q.q.q.q.q.#.#.5.q.q.q.q.q.0.:.;.#.' ] *. .' ' ' ",
"$.7.q.q.q.q.q.q.q.q.q.q.q.q.q.q.q.q.q.6.[ ..:.8.q.q.q.q.q.q.0.8.8.:.$.;.*.$.#.' ",
";.8.q.q.q.q.q.q.q.q.q.q.q.q.q.q.q.q.7.[ : m %.q.-.7.q.q.q.q.q.q.q.9.5.:.:.8.:.#.",
";.8.q.q.q.q.q.q.q.q.q.q.q.q.q.q.q.q.^ : f 4 x =.r / 0.0.q.q.q.q.q.q.9.5.9.q.8.:.",
"*.8.q.q.q.q.q.q.q.q.q.q.q.q.q.q.7.m > 1 w.I C s 5 y ^ 8.q.q.q.q.q.q.q.q.q.q.q.q.",
"] 5.q.q.q.q.q.q.q.q.q.q.q.q.q.2.[ C 3 M k.e.Z 8 T 7 w 7.q.q.q.q.q.q.q.q.q.q.q.q.",
"] *.8.q.q.q.q.q.q.q.q.q.q.q.7.[ 5 p.i.E g.D B u.j.Z w 7.q.q.q.q.q.q.q.q.5.8.q.q.",
"@.#.5.q.q.q.q.q.q.q.q.q.q.q.! d E x.m.b.M.f.d.f.w.6 w 7.q.q.q.q.q.q.q.q.:.*.:.5.",
":.#.;.8.q.q.q.q.q.q.q.q.6.^ G P E E l.V.V.b.z.l.i.L V m 4.q.q.q.q.q.q.5.:.&.*.:.",
"q.3.:.3.8.q.q.q.q.q.q.6.} d E y.f o L x.N.z.d.s.l.i.S t O.q.q.q.q.q.8.@.*.5.9.q.",
"q.0.5.*.&.8.0.0.0.0.8.` d p.r.N % . o Z v.i.N N d.L y o.q.q.q.q.q.q.9.;.8.9.q.q.",
"q.q.8.8.:.$.#.#.*.-.b F a.b.R N y.2   7 x.L N i.h.s.U z =.q.q.q.q.q.q.8.q.q.q.q.",
"q.q.q.q.8. . .#.*.-.w H n.B.P 3 r.2   2 p.L A r.h.l.E * X.q.q.q.q.q.5.q.q.q.q.q.",
"q.q.q.q.8.$.*.:.5.7.g K c.N.,.- $ o o $ A P A 9 p.i.J q o.6.=.<.8.8.:.q.q.q.q.q.",
"q.q.q.q.0.:.:.5.q.q.2.) Z v.m.d.A N 2 $ N 3 A p.R 8 a O.7.~ * > } 5.;.8.q.q.q.q.",
"q.q.q.q.8.:.8.0.q.q.q.=._ I l.M.f.P A B 3 D E E 7 p ( 2.! y 7 7 t W ] ;.7.q.q.q.",
"q.q.q.9.:.8.q.q.q.q.q.q.2.z +.l.b.i.y.y.A p.p.B o j ' Q V D P A % 0 '  .#.*.3.3.",
"5.:.;.;.:.9.q.q.q.q.q.q.9.<.v D h.l.l.h.l.l.p.D % h k = t.g.d.D % e %.*.:.:.5.5.",
":.*.@.@.*.9.q.q.q.q.q.q.<.u ,.h.s.l.p.r.l.z.l.s.E f # o A p.f.D % i q.q.q.q.q.q.",
"q.q.5.*.#.8.q.q.q.q.q.q.1.= i.M.z.f.R Z f.z.s.R y.9   o N R E 8 s [ q.q.q.q.q.q.",
"q.q.9.8.:.9.q.q.q.q.q.q.=.= i.V.N.d.B 3 f.z.E $ D N % o A A 9 4 X.q.q.q.q.q.q.q.",
"q.q.q.9.8.3.8.q.q.q.q.q.=.= i.V.M.s.B 3 d.l.R o % A D % y.L < O.q.q.q.q.q.q.q.q.",
"q.q.q.q.q.5.9.q.q.q.q.q.=.= i.M.d.B 7 B R E B $ A i.r.- ,.A > 2.q.q.q.q.q.q.q.q.",
"q.q.q.q.q.q.8.q.q.q.q.q.4.c Y y.R % 3 A A A 7 % y.y.J 3 B l m 7.q.q.q.q.q.q.q.q.",
"q.q.q.q.q.q.:.8.0.q.q.q.0.O.r % 9 + 2 N A A 7 % y.B % 8 < ! 0.q.q.q.q.q.q.q.q.q.",
"q.q.q.q.q.q.:.;.3.0.0.0.=.q X   o   o % B A 7 . % o   % [ 6.q.q.q.q.q.q.q.q.q.q.",
"q.q.q.q.q.q.:.$.$.:.3.{ e O       2 $ o % 2 $         @ X.q.q.q.q.q.q.q.q.q.q.q.",
"q.q.q.q.q.q.:.#.] @.#.n         o 3 3 % % % % $       @ X.q.q.q.q.q.q.q.q.q.q.q.",
"q.q.q.q.q.8.;.#.$.#.$.W @           2 N N N N 8 o     > o.q.q.q.q.q.q.q.q.q.q.q.",
"q.q.q.q.9.:.#.:.0.0.0.2.( #         o $ $ $ $ $     < | 7.q.q.q.q.q.q.q.q.q.q.q.",
"q.q.q.q.0.:.8.8.q.q.q.q.6.~ x 0               O i c ( 9.q.q.q.q.q.q.q.q.q.q.q.q.",
"q.q.q.q.0.8.9.q.q.q.q.q.q.0.0.| , & & ; ; > > r <.q.q.q.q.q.q.q.q.q.q.q.q.q.q.q.",
"q.q.q.0.9.q.q.q.q.q.q.q.q.q.q.9.*... .%.<.<.<.2.q.q.q.q.q.q.q.q.q.q.q.q.q.q.q.q.",
"q.q.q.9.:.0.q.q.q.q.q.q.q.q.q.q.q.8.:.:.q.q.q.q.q.q.q.q.q.q.q.q.q.q.q.q.q.q.q.q.",
"q.q.0.0.q.q.q.q.q.q.q.q.q.q.q.q.q.0.9.:.8.q.q.q.q.q.q.q.q.q.q.q.q.q.q.q.q.q.q.q.",
"q.q.8.:.q.q.q.q.q.q.q.q.q.q.q.q.q.q.q.8.:.8.q.q.q.q.q.q.q.q.q.q.q.q.q.q.q.q.q.q.",
"q.8.:.:.q.q.q.q.q.q.q.q.q.q.q.q.q.q.q.9.:.$.:.q.q.q.q.q.q.q.q.q.q.q.q.q.q.q.q.q.",
":.$.;.9.q.q.q.q.q.q.q.q.q.q.q.q.q.q.q.q.8.#.#.:.5.q.q.q.q.q.q.q.q.q.q.q.q.q.q.5.",
"$.@.:.q.q.q.q.q.q.q.q.q.q.q.q.q.q.q.q.q.9.#.' ] &.:.8.q.q.q.q.q.q.q.q.q.q.q.6.1.",
"] $.:.q.q.q.q.q.q.q.q.q.q.q.q.q.q.q.q.q.9.#.' ] ' ] *.5.q.q.q.q.q.q.q.q.q.8.1.>."
};
