/* XPM */
static char *xpm_[] = {
/* columns rows colors chars-per-pixel */
"40 40 134 2 ",
"   c #010101",
".  c #090503",
"X  c #0B0B0B",
"o  c #120B07",
"O  c #140D09",
"+  c #180D09",
"@  c #1D120C",
"#  c #131313",
"$  c #181010",
"%  c #1D1C1C",
"&  c #281710",
"*  c #2C1B12",
"=  c #3F281A",
"-  c #242424",
";  c #282827",
":  c #2C2B2C",
">  c #302925",
",  c #3B322D",
"<  c #332A30",
"1  c #333333",
"2  c #3E3835",
"3  c #3C3C3C",
"4  c #422A1B",
"5  c #482C1F",
"6  c #4F3423",
"7  c #45322D",
"8  c #553624",
"9  c #593925",
"0  c #543C2D",
"q  c #5F3E2A",
"w  c #473935",
"e  c #413C3A",
"r  c #603D27",
"t  c #5E4333",
"y  c #5C453E",
"u  c #62412C",
"i  c #6A442B",
"p  c #614431",
"a  c #654B3A",
"s  c #7C4F33",
"d  c #794E3F",
"f  c #7C5035",
"g  c #77543F",
"h  c #78523A",
"j  c #4F3849",
"k  c #444444",
"l  c #4A4A4A",
"z  c #594D45",
"x  c #555555",
"c  c #5B5652",
"v  c #5C5C5C",
"b  c #62545E",
"n  c #615F5E",
"m  c #65615F",
"M  c #796050",
"N  c #765468",
"B  c #626262",
"V  c #6C6C6C",
"C  c #726F6D",
"Z  c #776271",
"A  c #7E6978",
"S  c #747474",
"D  c #7B7476",
"F  c #7E747B",
"G  c #7D7D7D",
"H  c #864935",
"J  c #845437",
"K  c #885738",
"L  c #8A5839",
"P  c #95543E",
"I  c #A75D42",
"U  c #B65A45",
"Y  c #B95E47",
"T  c #9E6541",
"R  c #A26743",
"E  c #A76B45",
"W  c #AE6F48",
"Q  c #B46447",
"!  c #BD6249",
"~  c #B66E4A",
"^  c #BA6B4A",
"/  c #B3714A",
"(  c #BB744D",
")  c #BE794E",
"_  c #C1664B",
"`  c #C46A4D",
"'  c #C86E4F",
"]  c #C9714F",
"[  c #CB7250",
"{  c #C37C51",
"}  c #C97F52",
"|  c #D07753",
" . c #D47C55",
".. c #AAAA4F",
"X. c #CB8154",
"o. c #C58852",
"O. c #D38457",
"+. c #D88057",
"@. c #D78658",
"#. c #DC8559",
"$. c #D78958",
"%. c #DC8A5A",
"&. c #E38C5D",
"*. c #E6915E",
"=. c #E8935F",
"-. c #EB9661",
";. c #828282",
":. c gray54",
">. c #968E94",
",. c #939393",
"<. c #9C9795",
"1. c #9E9E9E",
"2. c #A48A9D",
"3. c #AF89A4",
"4. c #A5A4A4",
"5. c #ACACAC",
"6. c #B4B3B4",
"7. c #B9B7B8",
"8. c #BBBBBB",
"9. c #C693B8",
"0. c #E6B8DA",
"q. c #C5C5C5",
"w. c gray80",
"e. c gray82",
"r. c gray84",
"t. c #DBD6DA",
"y. c #DDDDDD",
"u. c gray90",
"i. c #E6E6E6",
"p. c #E9E9E9",
"a. c gray95",
"s. c gray97",
"d. c #FDF1FA",
"f. c white",
/* pixels */
"Y #.-.-.-.-.-.-.-.-.-.-.-.-.-.-.-.-.-.-.=.` ` +.=.-.-.-.-.*. .| _ U Y ' ! Y U U ",
"' %.-.-.-.-.-.-.-.-.-.-.-.-.-.-.-.-.-.-.=. . .*.-.-.-.-.-.-.*.&.&. .' | ' ' _ U ",
"| &.-.-.-.-.-.-.-.-.-.-.-.-.-.-.-.-.-.-.=.+.&.-.-.-.-.-.-.-.-.-.-.*.&. . .&. .` ",
"| &.-.-.-.-.-.-.-.-.-.-.-.-.-.-.-.=.$.O.=.#.&.-.-.-.-.-.-.-.-.-.-.-.*. .-.-.&. .",
"[ &.-.-.-.-.-.-.-.-.-.-.-.-.*.$.=.%.s 8 } &.=.-.-.-.-.-.-.-.-.-.-.-.-.-.-.-.-.*.",
"! #.-.-.-.-.-.-.-.-.-.-.-.=.E 9 o.i , e 5 { -.-.-.-.-.-.-.-.-.-.-.-.-.-.-.-.-.-.",
"U [ &.-.-.-.-.-.-.-.-.=.=.R 0 , p z A Z $ 8 ( =.-.-.-.-.-.-.-.-.-.-.-.-.#.&.-.-.",
"_ ` #.-.-.-.-.-.-.-.-.=.=.u < Z 3 x 2.3.< 3 g ) -.-.-.-.-.-.-.-.-.-.-.-. .|  .&.",
" .` | *.-.-.-.-.-.-.-.-.=.q j 9.>.k G 7.G 7.m p X.-.-.-.-.-.-.-.-.-.-.#. .[ [  .",
"-.+. . .&.-.-.-.-.-.-.-.*.q : F 6.6.e.a.u.p.4.c 6 X.=.-.-.-.-.-.-.-.&.` [ #.*.-.",
"-.=.#.[ ] &.=.-.*.-.-.#.i z G 5.q.w.u.f.p.S B S D p { =.-.-.-.-.-.-.*. .&.*.-.-.",
"-.-.&.&. .' ` ` ] +.+.O.f z G 7.G :.q.y.;.% % x :.B g ( -.-.-.-.-.-.*.&.*.-.-.-.",
"-.-.-.-.&.! ! _ [ #.%.&.) a V 5.k 3 1.7.#   - 3 v 7.b g o.=.-.-.-.*.&.-.-.-.-.-.",
"-.-.-.-.&.` ]  .#.-.-.O.= C 8.q.1.k ;.5.#   G G 1 t.0.N 9 %.-.-.-.&. .*.-.-.-.-.",
"-.-.-.-.=. . .#.-.-.-.O.* n 5.5.k B S x X   - % 1 u.d.D 5 %.-.-.-.#.| &.-.-.-.-.",
"-.-.-.-.=. .&.=.-.-.} r O - v ;.S l l 3 X : : x 4.u.,.M R *.=.-.#.[ ! | &.*.-.-.",
"-.-.-.*. .&.*.-.-.{ f - % X # k :.B k 1 1 l G 8.a.4.y H ]  .+.+.[ ! U ! ` [  .#.",
" . .| |  .*.-.-.-.f % v B :   # x 4.S k :.S 8.p.6.7 P ]  .#.#.#.#. .[ | [ @.%.%.",
" .| ! ! | *.-.-.-.f 1 5.6.l   % x 5.8.6.8.8.q.,.w P ] %.-.-.-.-.-.-.-.-.-.-.-.-.",
"-.-.&.[ _ *.-.-.=.f 1 5.:.1 - C 1.q.w.6.:.7.6.5.<.t ) -.-.-.-.-.-.-.-.-.-.-.-.-.",
"-.-.-.&. .*.-.-.-.s - ..B - 1 :.G 5.w.1.l <.8.y.e.> W -.-.-.-.-.-.-.-.-.-.-.-.-.",
"-.-.-.*.&. .*.-.-.J % b l : k x % ,.w.,.% G r.f.e.> W -.-.-.-.-.-.-.-.-.-.-.-.-.",
"-.-.-.-.*.&.*.-.*.d : >.: x B % X ;.8.:.- V w.s.w.> W -.-.-.-.-.-.-.-.-.-.-.-.-.",
"-.-.-.-.-.-.*.&.-.b - ;.% S 4.B % l V B k - V w.w.> W -.-.-.-.-.-.-.-.-.-.-.-.-.",
"-.-.-.-.-.-. .&.=.) h e 1 k S ,.% 3 x x l X k V B T O.-.-.-.-.-.-.-.-.-.-.-.-.-.",
"-.-.-.-.-.-. .| +.=.{ u 2 # 1 B % 3 x l 1 X - % @ K O.-.-.-.-.-.-.-.-.-.-.-.-.-.",
"-.-.-.-.-.-. .' `  .+.( *         1 k 1 . X       o L $.-.-.-.-.-.-.-.-.-.-.-.-.",
"-.-.-.-.-.-. .` Y _ ` Q *       . X # X X 3 %       + L -.-.-.-.-.-.-.-.-.-.-.-.",
"-.-.-.-.-.&.| ` ` ` ` ^ &     X 1 3 3 3 3 % X         f -.-.-.-.-.-.-.-.-.-.-.-.",
"-.-.-.-.*. .`  .=.*.=.%.L *   X ; : : : - .       . 9 / -.-.-.-.-.-.-.-.-.-.-.-.",
"-.-.-.-.*. . .-.-.-.-.-.=.K = * .             @ 4 6 ) -.-.-.-.-.-.-.-.-.-.-.-.-.",
"-.-.-.-.-.*.-.-.-.-.-.-.-.*.%.~ * + + @ @ @ @ i $.%.-.-.-.-.-.-.-.-.-.-.-.-.-.-.",
"-.-.-.*.&.-.-.-.-.-.-.-.-.-.-.=.' I I ^ { { ) O.-.-.-.-.-.-.-.-.-.-.-.-.-.-.-.-.",
"-.-.-.*. .=.-.-.-.-.-.-.-.-.-.-.-.&. . .-.-.-.-.-.-.-.-.-.-.-.-.-.-.-.-.-.-.-.-.",
"-.-.=.*.-.-.-.-.-.-.-.-.-.-.-.-.-.-.*. .&.-.-.-.-.-.-.-.-.-.-.-.-.-.-.-.-.-.-.-.",
"-.-.&. .-.-.-.-.-.-.-.-.-.-.-.-.-.-.-.&. .&.-.-.-.-.-.-.-.-.-.-.-.-.-.-.-.-.-.-.",
"-. . . .-.-.-.-.-.-.-.-.-.-.-.-.-.-.-.=. .'  .-.-.-.-.-.-.-.-.-.-.-.-.-.-.-.-.-.",
"&.| | *.-.-.-.-.-.-.-.-.-.-.-.-.-.-.-.-. ._ `  .#.-.-.-.-.-.-.-.-.-.-.-.-.-.-.#.",
"` _  .-.-.-.-.-.-.-.-.-.-.-.-.-.-.-.-.-.-.` Y Y [  .&.-.-.-.-.-.-.-.-.-.-.-.%.o.",
"Y `  .-.-.-.-.-.-.-.-.-.-.-.-.-.-.-.-.-.-.` Y Y U Y ' #.-.-.-.-.-.-.-.-.-.&.o..."
};
