/* XPM */
static char *xpm_[] = {
/* columns rows colors chars-per-pixel */
"40 40 178 2 ",
"   c black",
".  c #010101",
"X  c #020202",
"o  c gray1",
"O  c #060606",
"+  c #070707",
"@  c #090909",
"#  c #090A09",
"$  c gray4",
"%  c #0A0B0A",
"&  c #0B0B0B",
"*  c #0C0B0C",
"=  c #0F0A0E",
"-  c #0C0C0C",
";  c gray5",
":  c #0E0E0E",
">  c gray6",
",  c gray7",
"<  c #131313",
"1  c gray8",
"2  c #141514",
"3  c #151615",
"4  c #161616",
"5  c gray9",
"6  c #181116",
"7  c #1C1419",
"8  c #191919",
"9  c gray10",
"0  c #1B1B1B",
"q  c gray11",
"w  c #1D1D1D",
"e  c #1E1E1E",
"r  c #202020",
"t  c #222222",
"y  c #232323",
"u  c gray14",
"i  c #252525",
"p  c gray15",
"a  c #272727",
"s  c #282828",
"d  c #2A2A2A",
"f  c gray17",
"g  c #2C292B",
"h  c #2C2C2C",
"j  c #2D2D2D",
"k  c gray18",
"l  c #2F2F2F",
"z  c #323232",
"x  c gray20",
"c  c #343434",
"v  c #353535",
"b  c #373737",
"n  c gray22",
"m  c #393939",
"M  c #3A3A3A",
"N  c #3C3B3B",
"B  c #3C3C3C",
"V  c gray24",
"C  c #3E3E3E",
"Z  c #3F3F3F",
"A  c #3D403D",
"S  c #3F413F",
"D  c #5F3C56",
"F  c gray25",
"G  c #414141",
"H  c gray26",
"J  c #434343",
"K  c #444344",
"L  c gray27",
"P  c #464646",
"I  c gray28",
"U  c #484848",
"Y  c gray29",
"T  c #4C494B",
"R  c #4C4C4C",
"E  c gray30",
"W  c gray31",
"Q  c #515151",
"!  c gray32",
"~  c #535353",
"^  c gray33",
"/  c #595157",
"(  c #5C555A",
")  c #585858",
"_  c gray35",
"`  c #5A5A5A",
"'  c #5B5B5B",
"]  c #5F5F5F",
"[  c #606060",
"{  c gray38",
"}  c #626262",
"|  c gray39",
" . c #636463",
".. c #646464",
"X. c #656565",
"o. c #6A6A6A",
"O. c gray42",
"+. c #6C6C6C",
"@. c #6C6E6C",
"#. c gray43",
"$. c #6F6F6F",
"%. c #7D6877",
"&. c gray44",
"*. c #717171",
"=. c gray45",
"-. c #747474",
";. c gray47",
":. c gray48",
">. c #7C7C7C",
",. c #7E7E7E",
"<. c gray50",
"1. c #926E88",
"2. c #887784",
"3. c #838383",
"4. c gray52",
"5. c #858685",
"6. c gray53",
"7. c #868887",
"8. c gray55",
"9. c #8D8D8D",
"0. c #939393",
"q. c gray58",
"w. c #959595",
"e. c gray59",
"r. c #979797",
"t. c #9A9A9A",
"y. c gray61",
"u. c #9D9D9D",
"i. c #9F9F9F",
"p. c #A48F9E",
"a. c #B381A5",
"s. c #A0A0A0",
"d. c gray63",
"f. c gray65",
"g. c gray66",
"h. c #AFAFAF",
"j. c #B6A9B3",
"k. c gray69",
"l. c #B2B2B2",
"z. c gray70",
"x. c gray71",
"c. c #B6B6B6",
"v. c #B7B7B7",
"b. c gray73",
"n. c #BBBBBB",
"m. c gray75",
"M. c #C68BB7",
"N. c #C79DBC",
"B. c #C3AEBE",
"V. c #C0C0C0",
"C. c #C1C1C1",
"Z. c #C3C3C3",
"A. c gray77",
"S. c gray79",
"D. c #CBCBCB",
"F. c gray80",
"G. c #CECECE",
"H. c #D0D0D0",
"J. c gray82",
"K. c #D0D2D1",
"L. c LightGray",
"P. c gray83",
"I. c #D5D5D5",
"U. c #D9D8D8",
"Y. c #DBDEDC",
"T. c gray88",
"R. c #E1E1E1",
"E. c #E2E2E2",
"W. c gray89",
"Q. c #E4E4E4",
"!. c gray90",
"~. c gray93",
"^. c #FFF7FF",
"/. c #F8F8F8",
"(. c #F9F9F9",
"). c #FBFBFB",
"_. c white",
"`. c None",
/* pixels */
"`.`.`.`.`.`.`.`.`.`.`.`.`.`.`.`.`.`.`.`.`.`.`.`.`.`.`.`.`.`.`.`.`.`.`.`.`.`.`.`.",
"`.`.`.`.`.`.`.`.`.`.`.`.`.`.`.`.`.`.`.`.`.`.`.`.`.`.`.`.`.`.`.`.`.`.`.`.`.`.`.`.",
"`.`.`.`.`.`.`.`.`.`.`.`.`.`.`.`.`.`.`.`.`.`.`.`.`.`.`.`.`.`.`.`.`.`.`.`.`.`.`.`.",
"`.`.`.`.`.`.`.`.`.`.`.`.`.`.`.`.`.`.`.`.`.`.`.`.`.`.`.`.`.`.`.`.`.`.`.`.`.`.`.`.",
"`.`.`.`.`.`.`.`.`.`.`.`.`.`.`.`.`.`.`.`.`.`.`.`.`.`.`.`.`.`.`.`.`.`.`.`.`.`.`.`.",
"`.`.`.`.`.`.`.`.`.`.`.`.`.`.`.`.`.`.`.`.`.`.`.`.`.`.`.`.`.`.`.`.`.`.`.`.`.`.`.`.",
"`.`.`.`.`.`.`.`.`.`.`.`.`.`.`.`.`.`.`.`.`.`.`.`.`.`.`.`.`.`.`.`.`.`.`.`.`.`.`.`.",
"`.`.`.`.`.`.`.`.`.`.`.`.`.`.`.`.`.`.`.`.`.`.`.`.`.`.`.`.`.`.`.`.`.`.`.`.`.`.`.`.",
"`.`.`.`.`.`.`.`.`.`.`.`.`.`.`.`.`.`.`.`.2 # `.`.`.`.`.`.`.`.`.`.`.`.`.`.`.`.`.`.",
"`.`.`.`.`.`.`.`.`.`.`.`.`.`.`.`.`.`.`.* / g % `.# `.`.`.`.`.`.`.`.`.`.`.`.`.`.`.",
"`.`.`.`.`.`.`.`.`.`.`.`.`.`.`.`.`.`.  7 M.p.S 5 K # `.`.`.`.`.`.`.`.`.`.`.`.`.`.",
"`.`.`.`.`.`.`.`.`.`.`.`.`.`.`.`.`.Q -.T B.( S 2.a.6 `.`.`.`.`.`.`.`.`.`.`.`.`.`.",
"`.`.`.`.`.`.`.`.`.`.`.`.`.`.`.`.v s.W.x.Y.5.7.j.1.= `.`.`.`.`.`.`.`.`.`.`.`.`.`.",
"`.`.`.`.`.`.`.`.`.`.`.`.`.`.`.M @.s.J._._.T.P.x.@.v 5 `.`.`.`.`.`.`.`.`.`.`.`.`.",
"`.`.`.`.`.`.`.`.`.`.`.`.`.`.h f.*.w G T.).J.x.b.C.6.p `.`.`.`.`.`.`.`.`.`.`.`.`.",
"`.`.`.`.`.`.`.`.`.`.`.`.`.N g.O.p o   M W.e.z W z.d `.`.`.`.`.`.`.`.`.`.`.`.`.`.",
"`.`.`.`.`.`.`.`.`.`.`.`.D N.U.v 9.|   0 E._ U g.Z.w.x `.`.`.`.`.`.`.`.`.`.`.`.`.",
"`.`.`.`.`.`.`.`.`.`.`.  %.^.T.2 ` P   2 w.o.! 5.F.n.x   `.`.`.`.`.`.`.`.`.`.`.`.",
"`.`.`.`.`.`.`.`.`.`.`.`. .J.~.] 0 , > + U X.E ) d.@.y `.`.`.`.`.`.`.`.`.`.`.`.`.",
"`.`.`.`.`.`.`.`.`.`.`.`.`.I !./.e.` C 0 J u @.d.P - `.`.`.# % `.`.`.`.`.`.`.`.`.",
"`.`.`.`.`.`.`.`.`.`.`.`.`.`.M T./.i.| *.w 3.0.P > `.`.`.0 R Y 2 `.`.`.`.`.`.`.`.",
"`.`.`.`.`.`.`.`.`.`.`.`.`.`.`.G l.S.h.b.e.m.0.z   `.`.Q i.s.| 2   `.`.`.`.`.`.`.",
"`.`.`.`.`.`.`.`.`.`.`.`.`.`.0 *.t.C.C.i.S.J.l.2.P >   P l.A.X.2   `.`.`.`.`.`.`.",
"`.`.`.`.`.`.`.`.`.`.`.`.`.`.w !.G.x.0.R b.J.h.e.5.>   p @.t.Y 1 `.`.`.`.`.`.`.`.",
"`.`.`.`.`.`.`.`.`.`.`.`.`.`.w T._.G.| 0 x.P.| p =.w   x [ P % `.`.`.`.`.`.`.`.`.",
"`.`.`.`.`.`.`.`.`.`.`.`.`.`.r T._.S.] 0 l.J. .  r -.y [ 8.- `.`.`.`.`.`.`.`.`.`.",
"`.`.`.`.`.`.`.`.`.`.`.`.`.`.w !.P.@.d P *.>.M 5 @.v.c ~ >.  `.`.`.`.`.`.`.`.`.`.",
"`.`.`.`.`.`.`.`.`.`.`.`.`.`.w ;.,.z , ` Q Q r v j.*.B m M `.`.`.`.`.`.`.`.`.`.`.",
"`.`.`.`.`.`.`.`.`.`.`.`.`.`.`.  p w > C ^ ` p f ,.> d p `.`.`.`.`.`.`.`.`.`.`.`.",
"`.`.`.`.`.`.`.`.`.`.`.`.`.`.      + + # G R p           `.`.`.`.`.`.`.`.`.`.`.`.",
"`.`.`.`.`.`.`.`.`.`.`.`.`.        a b o # > +         `.`.`.`.`.`.`.`.`.`.`.`.`.",
"`.`.`.`.`.`.`.`.`.`.`.`.          * p C C C G h         `.`.`.`.`.`.`.`.`.`.`.`.",
"`.`.`.`.`.`.`.`.`.`.`.`.`.          % h h h z r       `.`.`.`.`.`.`.`.`.`.`.`.`.",
"`.`.`.`.`.`.`.`.`.`.`.`.`.`.                        `.`.`.`.`.`.`.`.`.`.`.`.`.`.",
"`.`.`.`.`.`.`.`.`.`.`.`.`.`.`.`.                `.`.`.`.`.`.`.`.`.`.`.`.`.`.`.`.",
"`.`.`.`.`.`.`.`.`.`.`.`.`.`.`.`.`.`.`.`.`.`.`.`.`.`.`.`.`.`.`.`.`.`.`.`.`.`.`.`.",
"`.`.`.`.`.`.`.`.`.`.`.`.`.`.`.`.`.`.`.`.`.`.`.`.`.`.`.`.`.`.`.`.`.`.`.`.`.`.`.`.",
"`.`.`.`.`.`.`.`.`.`.`.`.`.`.`.`.`.`.`.`.`.`.`.`.`.`.`.`.`.`.`.`.`.`.`.`.`.`.`.`.",
"`.`.`.`.`.`.`.`.`.`.`.`.`.`.`.`.`.`.`.`.`.`.`.`.`.`.`.`.`.`.`.`.`.`.`.`.`.`.`.`.",
"`.`.`.`.`.`.`.`.`.`.`.`.`.`.`.`.`.`.`.`.`.`.`.`.`.`.`.`.`.`.`.`.`.`.`.`.`.`.`.`."
};
