/* XPM */
static char *xpm_[] = {
/* columns rows colors chars-per-pixel */
"40 40 149 2 ",
"   c #010101",
".  c #0F0A06",
"X  c #0C0C0C",
"o  c #17120F",
"O  c #1C120C",
"+  c #121111",
"@  c #1C1612",
"#  c #1C1C1C",
"$  c #24180F",
"%  c #261910",
"&  c #2B1D13",
"*  c #282C16",
"=  c #22201D",
"-  c #302116",
";  c #312F1C",
":  c #3D2C1D",
">  c #3B381D",
",  c #232323",
"<  c #2C2721",
"1  c #2D242B",
"2  c #2B2B2A",
"3  c #3E2E22",
"4  c #302B28",
"5  c #313022",
"6  c #33332F",
"7  c #3B2F37",
"8  c #343434",
"9  c #3A3634",
"0  c #3A3836",
"q  c #3C3C3C",
"w  c #422C1C",
"e  c #46301E",
"r  c #412F22",
"t  c #473223",
"y  c #4D3421",
"u  c #473927",
"i  c #4A372A",
"p  c #513C2D",
"a  c #5D3F29",
"s  c #473E33",
"d  c #4E3F34",
"f  c #473F39",
"g  c #5F3F35",
"h  c #494724",
"j  c #5B442D",
"k  c #58562D",
"l  c #545D2C",
"z  c #5A582D",
"x  c #4B443F",
"c  c #65442D",
"v  c #69462D",
"b  c #644935",
"n  c #6F4A30",
"m  c #724D33",
"M  c #745334",
"N  c #795435",
"B  c #795A37",
"V  c #71533C",
"C  c #795338",
"Z  c #7C5A38",
"A  c #6A6235",
"S  c #776C3C",
"D  c #7D6F3E",
"F  c #687236",
"G  c #6E7B3A",
"H  c #73743B",
"J  c #7C733D",
"K  c #757C3C",
"L  c #797C3C",
"P  c #553C4F",
"I  c #434343",
"U  c #4D4D4D",
"Y  c #544B44",
"T  c #504F4F",
"R  c #574C54",
"E  c #535353",
"W  c #5A5355",
"Q  c #5D5957",
"!  c #5C5C5B",
"~  c #605C5F",
"^  c #695F58",
"/  c #6D625C",
"(  c #70655C",
")  c #765F70",
"_  c #646364",
"`  c #6A6A6A",
"'  c #747474",
"]  c #7B7774",
"[  c #7C7876",
"{  c #7B7B7B",
"}  c #815738",
"|  c #875B3C",
" . c #91623F",
".. c #82743E",
"X. c #8C6142",
"o. c #946440",
"O. c #996743",
"+. c #9B6944",
"@. c #867241",
"#. c #8C7442",
"$. c #937444",
"%. c #9B7446",
"&. c #9C7648",
"*. c #9E7848",
"=. c #A26D47",
"-. c #A66F48",
";. c #A37549",
":. c #AB734A",
">. c #A17848",
",. c #AC7A4D",
"<. c #B2774D",
"1. c #B37B4F",
"2. c #B67D50",
"3. c #BB7E51",
"4. c #8A627B",
"5. c #76823E",
"6. c #79833D",
"7. c #7D8B3F",
"8. c #778340",
"9. c #798540",
"0. c #7F8E44",
"q. c #808F42",
"w. c #BE8052",
"e. c #C68556",
"r. c #867C83",
"t. c #977D90",
"y. c #848484",
"u. c #8A8581",
"i. c #8C8C8C",
"p. c #949494",
"a. c #9B9B9B",
"s. c #A28A9B",
"d. c #A3A3A3",
"f. c #ADACAC",
"g. c #B8ADB5",
"h. c #B4B4B4",
"j. c #BCBCBC",
"k. c #C390B5",
"l. c #D8ADCC",
"z. c #CABCC6",
"x. c #C2C1C2",
"c. c #CBCBCB",
"v. c #D3D3D3",
"b. c #DDDDDD",
"n. c #E1E1E1",
"m. c #EBEBEB",
"M. c #FCEBF8",
"N. c #F3F3F3",
"B. c #FBFBFB",
/* pixels */
"0.0.q.0.0.q.0.0.0.0.0.0.0.0.0.0.0.0.0.0.0.0.0.0.0.q.0.0.0.0.q.0.0.0.0.0.0.0.0.0.",
"0.0.0.0.0.0.0.0.0.0.0.0.0.0.q.0.0.q.q.0.0.0.0.0.0.0.0.0.0.0.0.0.0.q.q.0.0.q.0.q.",
"q.0.0.0.0.q.q.0.0.0.0.0.0.0.0.0.0.0.0.0.0.0.0.0.0.0.0.0.0.0.0.q.0.0.0.0.0.q.0.0.",
"0.0.q.0.0.0.0.0.0.0.0.0.0.0.0.0.0.0.0.0.G 5.0.0.0.0.0.0.0.0.0.0.0.0.0.0.0.0.0.0.",
"0.0.q.q.0.0.q.0.q.0.L 9.6.0.6.0.9.9.9.F * l 6.9.5.6.7.7.9.6.7.7.0.0.0.0.0.0.0.0.",
"q.0.q.q.0.q.q.8.H H S S H K H L H ( z ; 8 5 h A > k H H ( H L K 5.0.0.0.0.0.q.0.",
"0.0.q.q.q.q.( ..$.>.;.>.>.&.&.>.>.} : @ ) R s j < u B %.>.>.>. .@.K q.0.0.q.q.0.",
"0.0.q.q.q.q.....2.3.e.e.w.3.3.2.=.h @ 4 k.s.W 2 W 2 e 1.e.e.w.w.$.J 0.0.0.0.0.0.",
"q.0.0.q.0.5.J ;.e.e.e.e.e.e.e.:.3 ] y._ g.~ I r.k.P e 3.e.e.e.e.;...6.0.0.0.0.0.",
"0.0.0.0.0.K @.,.e.e.e.e.e.e. .p Q j.v.x.b.d.i.f.t.7 w 3.e.e.e.e.,...K 0.q.0.q.0.",
"0.0.0.0.0.H #.,.e.e.e.e.e. .Y R ' a.c.B.B.n.c.j.i.E d | w.e.e.e.2.$.G 7.0.0.q.0.",
"q.0.0.q.0.K #.,.e.e.e.e.:.p / a.W , ! b.B.v.h.h.j.p.W : :.e.e.e.2...K 7.0.0.0.0.",
"0.0.0.q.0.8.#.w.e.e.e.-.r [ i.! #   + E v.d.E I f._ i +.e.e.e.e.w...5.7.0.q.0.0.",
"0.0.0.0.0.8.#.,.e.e. .g 4.z.p.q { 8   2 v.' I { j.p./ c <.e.e.e.w...5.7.0.0.0.0.",
"q.0.0.0.0.5.@.,.e.e.m 1 l.M.p.= i.I   = d.` E i.j.x.] @ n | O.e.>...0.0.0.0.0.q.",
"0.0.0.q.0.K $.2.e.e.C 9 x.N.d.= # +   X E ` ! q d.a.~ @ o o t -.w.#.( 0.0.q.0.0.",
"0.0.0.0.9.H ..w.e.e.<.X.x j.m.h.E I 2 X I 8 T p.' q i X.Y I 8 3  .$.H 9.q.0.q.0.",
"0.0.q.0.0.K #.,.e.e.e.<.C ( f.m.j.' E U 2 E { { 0 s c b u.' 0 @  .$.K 0.0.0.0.0.",
"q.0.q.0.0.K $.w.e.e.e.e.w.v ^ j.n.d.{ ' U p.f.` + N Z , f.y.0 @  .$.6.7.q.0.0.0.",
"0.0.0.0.0.K %.1.e.e.e.e.e.<.V U h.j.p._ f.c.j.p.2 M m & a.{ 0 - +.%.L 7.0.0.q.0.",
"0.0.0.0.0.L $.w.e.e.e.e.3.a ( j.d.a._ 8 f.c.i.q _ f o + Q q 3 O.<. .7.7.0.0.0.0.",
"q.0.0.q.7.5.$.1.e.e.e.e.3.w ` N.c.f.! , f.c.y.# ' q   # ' q w 3.3...7.7.0.q.0.0.",
"0.0.0.0.0.H $.3.e.e.e.e.2.w ` B.B.d.U 8 p.f.` # { ! , % p.T : 3.w...( 0.0.q.0.q.",
"0.0.q.0.0.H %.w.e.e.e.e.3.w ` B.m.! , U ! ~ q # y.a.` , ' I y 3.e...5.0.0.0.0.0.",
"q.0.0.0.0.5...w.e.e.e.e.w.w ` m.h.q , E E E 8 , a.` 0 q , b -.e.2.$.H 9.0.0.q.0.",
"0.0.0.0.0.( ..w.e.e.e.e.3.w 8 { ' , + 6 E E 8 + E , X 2 j +.e.e.1.#.5.0.0.0.0.0.",
"0.0.0.q.q.L ..1.e.e.e.w. .-   X 6 , X X 8 I 2         O -.e.e.e.<.@.K q.0.0.0.0.",
"0.q.0.0.q.L ..1.e.e.e.-.&       X 6 2 X X X X         O -.e.e.e.1.#.K q.0.0.q.0.",
"0.0.q.0.9.H $.1.e.e.e.=.O         X , q P q q 8 X     O =.e.e.e.w...L 6.0.0.0.0.",
"q.0.0.0.0.H $.1.e.e.e.<.c O         + 2 2 2 2 ,     $ v <.e.e.e.w...H 7.0.0.q.0.",
"0.0.0.0.q.6.#.,.e.e.e.e.3.a - $                 % & a w.e.e.e.e.w...9.0.q.0.q.0.",
"0.0.q.0.0.6.J %.2.3.e.e.e.1.:.o.% . . . . . . % o.<.1.w.e.e.e.3.>.( 9.0.0.0.0.0.",
"0.0.0.0.0.0.( ....*.>.;.>.>.>. .B M M B N M M Z %.>.;.>.>.>. .......q.q.0.0.q.0.",
"q.0.0.q.0.q.q.7.H H J J J ( ..6...( H ............D J D ..( L K 6.7.q.q.0.0.0.0.",
"0.0.0.0.0.q.q.q.q.7.6.9.7.7.7.7.8.8.9.0.7.7.6.5.5.5.8.9.8.8.0.0.q.q.7.q.0.q.q.0.",
"0.0.q.0.0.0.0.0.q.7.0.0.7.7.q.q.0.0.0.0.q.q.q.0.0.0.0.0.0.0.0.0.0.0.q.0.0.0.0.0.",
"q.0.0.q.0.0.0.q.0.q.0.0.0.0.0.q.0.0.0.0.0.q.0.0.0.0.0.0.q.0.0.q.0.0.q.0.0.0.0.0.",
"0.0.0.0.0.0.0.0.0.0.0.q.0.0.0.0.0.q.q.0.0.0.0.q.0.0.0.0.0.0.0.0.q.0.0.0.q.0.q.0.",
"0.0.0.0.q.0.0.0.0.0.0.0.0.0.0.0.0.0.0.0.0.0.0.0.0.0.0.q.0.0.0.0.0.0.0.0.0.0.q.0.",
"q.0.0.q.0.0.0.q.0.q.0.0.q.0.0.q.0.0.q.0.0.q.0.0.0.0.0.0.q.0.0.q.0.0.q.0.0.0.0.0."
};
