/* XPM */
static char *xpm_[] = {
/* columns rows colors chars-per-pixel */
"40 40 144 2 ",
"   c #010101",
".  c #0E0906",
"X  c #0B0B0B",
"o  c #130D09",
"O  c #14130E",
"+  c #1B130D",
"@  c #16190C",
"#  c #110D10",
"$  c #141414",
"%  c #181512",
"&  c #1A1A1A",
"*  c #211711",
"=  c #251A12",
"-  c #2E1F14",
";  c #291F19",
":  c #222111",
">  c #2E2215",
",  c #2A2F16",
"<  c #372517",
"1  c #392619",
"2  c #36281E",
"3  c #3F2B1B",
"4  c #31371A",
"5  c #383F1D",
"6  c #2C1F28",
"7  c #242424",
"8  c #2D2621",
"9  c #2B2B23",
"0  c #2F222B",
"q  c #2C2B2A",
"w  c #302E2C",
"e  c #373520",
"r  c #333333",
"t  c #3A3531",
"y  c #3A3835",
"u  c #3D323A",
"i  c #3C3C3C",
"p  c #4B3220",
"a  c #4A3A2F",
"s  c #543824",
"d  c #5A3D27",
"f  c #543A28",
"g  c #43313F",
"h  c #464E25",
"j  c #5F4029",
"k  c #514D2C",
"l  c #4A5227",
"z  c #4F582B",
"x  c #434734",
"c  c #41403E",
"v  c #65442B",
"b  c #69472D",
"n  c #6C492F",
"m  c #604735",
"M  c #624E3F",
"N  c #744D32",
"B  c #6D513C",
"V  c #785235",
"C  c #75533B",
"Z  c #57612E",
"A  c #5C6431",
"S  c #776B3C",
"D  c #7D6F3E",
"F  c #667036",
"G  c #697638",
"H  c #72753B",
"J  c #7C733D",
"K  c #757C3C",
"L  c #7A7D3D",
"P  c #434343",
"I  c #484644",
"U  c #4E474D",
"Y  c #4B4B4B",
"T  c #524A43",
"R  c #504E4C",
"E  c #535353",
"W  c #5C5C5C",
"Q  c #61455A",
"!  c #694A61",
"~  c #685E65",
"^  c gray39",
"/  c #6B6865",
"(  c #6B6B6B",
")  c #72686F",
"_  c #737373",
"`  c #7B7B7B",
"'  c #825738",
"]  c #845A3D",
"[  c #8B5E3C",
"{  c #8D633F",
"}  c #996743",
"|  c #976F45",
" . c #9E6B45",
".. c #867241",
"X. c #8C7442",
"o. c #937444",
"O. c #9A7546",
"+. c #9D7748",
"@. c #A46E47",
"#. c #A27649",
"$. c #AB744A",
"%. c #A37849",
"&. c #AC7A4D",
"*. c #B1774D",
"=. c #B37B4F",
"-. c #B67D50",
";. c #BA7D51",
":. c #76813D",
">. c #778340",
",. c #798640",
"<. c #7F8E44",
"1. c #808F42",
"2. c #BE8052",
"3. c #C68556",
"4. c #857C83",
"5. c #8B7986",
"6. c #848383",
"7. c #8B8B8B",
"8. c #91838E",
"9. c #939393",
"0. c #9D9D9D",
"q. c #A0A09F",
"w. c #BC94B2",
"e. c #A3A2A3",
"r. c #ACACAC",
"t. c #B4B4B4",
"y. c #BBBBBB",
"u. c #C488B5",
"i. c #C998BD",
"p. c #C0B8BE",
"a. c #D392C2",
"s. c #C3C3C3",
"d. c #C5C5C5",
"f. c #CCC1C9",
"g. c #CACACA",
"h. c #CDCDCD",
"j. c gray82",
"k. c #D9D9D9",
"l. c gray86",
"z. c #F5DCEF",
"x. c #E2E2E2",
"c. c #FCE1F5",
"v. c #F5F5F5",
"b. c #FEFEFE",
/* pixels */
"<.<.1.<.<.1.<.<.<.<.<.<.<.<.1.<.<.1.<.<.<.<.<.1.<.<.<.<.<.<.<.<.<.<.<.<.<.<.<.<.",
"<.<.<.<.<.<.<.<.<.<.<.<.<.<.<.<.<.<.<.<.<.<.<.<.<.<.<.<.<.<.<.<.<.1.1.<.<.1.1.<.",
"1.<.<.<.<.1.1.<.<.<.1.1.<.,.,.,.<.<.<.1.<.<.<.<.<.,.<.<.<.<.<.<.<.<.<.<.<.1.<.<.",
"<.<.1.<.<.<.<.<.<.<.<.1.<.l , 5 >.<.<.<.<.<.<.G 4 , Z <.<.<.<.<.<.<.<.<.<.<.<.<.",
"<.<.<.<.<.<.1.<.<.<.K :.z x q @ F Z h h h h A A O r x Z >.>.,.<.<.<.<.<.<.<.1.<.",
"<.1.<.<.<.1.1.>.H H D E % ~ ) 9 k 7 & 9 7 $ e k q 4.U : F S J H >.<.<.<.1.<.<.<.",
"<.1.<.<.<.1.L ..+.#.#.{ % | w._ q c ` t.r.( i t 4.i.! > | %.%.o...K 1.<.<.<.<.<.",
"<.<.<.<.<.<.H o.;.;.;. .& Q 8.e.7.0.y.h.g.t.9.7.e.5.u < *.3.2.-.o.J <.<.<.<.<.<.",
"<.<.<.<.<.>.D #.3.3.@.d # W 7.7.r.y.d.g.h.s.y.r.7.7.P + b =.3.3.#.D >.<.<.<.<.<.",
"<.1.1.<.<.K ..&.3.$.Q r r ` 9.` y.t.t.s.s.t.t.r.` 0.( r t ] *.3.&...K <.<.<.<.<.",
"<.<.<.<.<.H X.-.3.b M q.r.6.6.y.k.t.r.t.t.e.s.l.r.` 7.r.9.a ' 3.-.X.K ,.<.<.<.<.",
"<.1.<.<.<.K X.=.3.&.V y ^ 7.y.k.9.d.s.0.q.j.t.9.k.r.6.^ y ] =.3.-.X.K <.<.<.<.<.",
"<.1.<.<.<.K X.=.3.{ T ) 6.y.t.( r W 0.h.d.9.R i ` s.t.` / m } 3.-.X.>.,.<.<.<.<.",
"<.<.<.<.<.>.X.&.3.N m 7.6.j.0.X   r ` t.r./ 7   & s.y.6.4.a [ 3.&.X.>.<.<.<.<.<.",
"<.<.<.1.<.>.X.&.3.3.' ; % 9.7.  X 7.7.r i e.(   $ r._ o 2  .3.3.&...>.<.<.<.<.<.",
"<.1.<.<.<.K o.=.3.3.;.[ @ : &     7 _ h.s.W &     7 % > } 2.3.3.-.X.>.<.<.<.<.<.",
"<.<.<.<.,.H X.=.3.3. .f r W Y     ^ s.b.v.t.Y   X W R t v $.3.3.=.o.H <.<.<.<.<.",
"<.<.1.<.<.K X.2.3. .B Y _ t.9.i $ _ f.c.z.p.E $ Y r.q.( Y C $.3.=.o.H <.<.<.<.<.",
"1.<.1.<.<.K X.=.3.d P y.r.r.t.e.7 X Q a.u.g X r r.t.r.t.r.q N 3.-.o.K ,.<.<.<.<.",
"<.<.<.1.<.K O.2.3.s P r.i 7 ^ t.W & $ 6 0 # 7 ^ 7.i & E e.7 N 3.;.+.K <.<.<.<.<.",
"<.<.<.<.<.K O.=.3.s q _ i $ R d.e.7.7.q.0.7.7.e.e.7 & Y ( % N 3.-.o.>.<.<.<.<.<.",
"1.<.<.1.<.L o.=.3.s & Y i P _ t.t.s.x.b.b.k.g.s.t.( c i Y O N 3.-.X.>.<.<.<.<.<.",
"<.<.<.<.<.K o.-.3.v 8 y $ / e.0.e.p.x.v.v.k.s.t.y.r.Y & i ; V 3.-.o.K <.<.<.<.<.",
"<.<.1.<.,.H O.;.3.-.V %   $ ^ y.y.d.g.h.g.g.s.y.r.Y $   = } 2.3.-.+.H <.<.<.<.<.",
"<.1.<.<.<.H o.-.3.3.*.N % E ( I Y 0.r.` ` t.7.P Y _ c = ' ;.3.3.-.o.K ,.<.<.<.<.",
"<.<.<.<.<.K X.=.3.3.3.$.* Y E w E ( E q r ^ / Y r ^ y 1 -.3.3.3.=.X.K <.<.<.<.<.",
"<.<.<.1.<.K X.&.3.3.3.*.3 . & E 7.y         Y 7.P # o s 2.3.3.3.&.X.K <.<.<.<.<.",
"<.1.<.<.<.K X.=.3.3.3.3.$.p o % $ X         X & $ . v =.3.3.3.3.=.X.K <.<.<.<.<.",
"1.<.<.<.,.H o.-.3.3.3.3.3.@.[ N o             * ' [ $.3.3.3.3.3.-.o.H >.<.<.<.1.",
"<.<.<.1.<.H o.-.3.3.3.3.3.3.3.*.n d v d v d d V ;.3.3.3.3.3.3.3.-.o.H <.1.<.<.<.",
"<.<.<.<.<.K ..&.3.3.3.3.3.3.3.3.3.3.3.3.3.3.3.3.3.3.3.3.3.3.3.3.&.X.<.<.<.<.<.<.",
"1.<.<.<.<.,.D O.-.;.3.3.3.3.3.2.3.3.3.3.3.3.3.3.3.3.3.3.3.3.2.2.+.D >.<.<.<.<.1.",
"<.<.1.<.<.<.>...o.+.+.#.#.#.+.+.#.#.#.&.&.#.&.&.#.#.#.#.#.#.o.o.D L ,.<.<.1.<.<.",
"<.<.<.<.<.1.<.K H H D D D J J K D D J ..X.L D D D J D J J J H H >.<.1.<.<.<.<.<.",
"1.<.<.1.<.<.1.1.<.<.>.>.>.>.<.<.K >.<.<.>.<.,.K >.>.<.,.>.>.<.<.1.1.<.<.1.<.<.1.",
"<.<.<.<.1.<.<.<.<.<.<.<.<.<.<.<.<.<.<.<.<.<.<.<.<.<.<.<.<.<.<.<.<.<.<.1.<.<.<.<.",
"<.<.1.<.<.<.<.<.<.<.<.<.<.<.<.<.<.<.1.<.<.<.<.<.<.<.<.<.<.<.<.<.<.<.<.<.<.<.<.<.",
"1.<.<.<.1.<.1.<.<.1.<.<.<.<.<.<.<.<.<.<.<.<.1.<.<.<.<.<.<.<.<.<.<.1.<.1.<.1.<.1.",
"<.<.1.<.<.<.1.<.<.1.<.<.<.<.<.<.<.1.1.<.1.<.1.<.<.<.<.<.<.<.<.<.<.1.<.<.<.1.<.<.",
"<.<.<.<.<.<.<.<.<.<.<.<.<.<.<.<.<.<.<.<.<.<.<.<.<.<.<.<.<.<.<.<.<.<.<.<.<.<.<.<."
};
