/* XPM */
static char *xpm_[] = {
/* columns rows colors chars-per-pixel */
"40 40 156 2 ",
"   c #020101",
".  c #0F0A06",
"X  c #0C0C0C",
"o  c #140E0A",
"O  c #18100B",
"+  c #141413",
"@  c #191815",
"#  c gray11",
"$  c #201B0F",
"%  c #221710",
"&  c #231A11",
"*  c #2B1D13",
"=  c #201D1B",
"-  c #28211D",
";  c #2C2C1F",
":  c #362417",
">  c #30251D",
",  c #3D291A",
"<  c #2C3118",
"1  c #39381C",
"2  c #241D22",
"3  c #232222",
"4  c #2A2725",
"5  c #2A2A2A",
"6  c #332B25",
"7  c #313423",
"8  c #34342C",
"9  c #3D332B",
"0  c #3D2C36",
"q  c #333333",
"w  c #3C3638",
"e  c #3B3B3B",
"r  c #432D1D",
"t  c #473121",
"y  c #493120",
"u  c #453529",
"i  c #4E3D2A",
"p  c #513724",
"a  c #553926",
"s  c #593C26",
"d  c #543C2B",
"f  c #403934",
"g  c #444B24",
"h  c #4A4629",
"j  c #5D412C",
"k  c #5D482A",
"l  c #4B5328",
"z  c #55572C",
"x  c #525C2C",
"c  c #45413E",
"v  c #58483D",
"b  c #62422B",
"n  c #624531",
"m  c #6B4A31",
"M  c #6C4F39",
"N  c #744E32",
"B  c #714C3C",
"V  c #625F31",
"C  c #775033",
"Z  c #7C5336",
"A  c #7A5439",
"S  c #666B36",
"D  c #756D3B",
"F  c #7D6F3E",
"G  c #667035",
"H  c #6A7036",
"J  c #6F7739",
"K  c #6E7A3B",
"L  c #73743B",
"P  c #7C733D",
"I  c #747C3C",
"U  c #7A7D3D",
"Y  c #434343",
"T  c #4A4447",
"R  c #4B4B4B",
"E  c #554C46",
"W  c #594D56",
"Q  c #555555",
"!  c #585657",
"~  c #5C5855",
"^  c #5B5B5B",
"/  c #6F5B4D",
"(  c #60495A",
")  c #6D4F5F",
"_  c #695664",
"`  c #78556F",
"'  c #636363",
"]  c #6E6965",
"[  c #6C6C6C",
"{  c #726C67",
"}  c #76726F",
"|  c #737373",
" . c #7A7178",
".. c #7C7C7C",
"X. c #805637",
"o. c #825739",
"O. c #85593A",
"+. c #8B5E3E",
"@. c #87663E",
"#. c #91613F",
"$. c #8E6740",
"%. c #8E6940",
"&. c #986642",
"*. c #946A42",
"=. c #9D6A44",
"-. c #867241",
";. c #8C7442",
":. c #947444",
">. c #9A7446",
",. c #9C7648",
"<. c #A26C46",
"1. c #A66F48",
"2. c #A27649",
"3. c #AB734A",
"4. c #A17849",
"5. c #AC7A4D",
"6. c #B0764C",
"7. c #B47B4F",
"8. c #B67D50",
"9. c #BA7D51",
"0. c #76823E",
"q. c #79833D",
"w. c #7D8B3F",
"e. c #778340",
"r. c #798640",
"t. c #7F8E44",
"y. c #808F42",
"u. c #BE8053",
"i. c #C68556",
"p. c #828282",
"a. c #8C8682",
"s. c #8C8C8C",
"d. c #959595",
"f. c #9B9B9B",
"g. c #AB8EA3",
"h. c #B582A7",
"j. c #B289A6",
"k. c #A3A2A3",
"l. c #ACACAC",
"z. c #B4A6B1",
"x. c #B9AFB6",
"c. c #B4B4B4",
"v. c #BCBCBC",
"b. c #D7A3C9",
"n. c #C4C4C4",
"m. c #CBCBCB",
"M. c LightGray",
"N. c #DED3DB",
"B. c gray85",
"V. c #E2E2E2",
"C. c #E4E4E4",
"Z. c gray92",
"A. c #F9E5F3",
"S. c gray95",
"D. c #FBFBFB",
"F. c #FCFBFB",
/* pixels */
"t.t.y.t.t.y.t.t.t.t.t.t.t.t.t.t.t.t.t.t.t.t.t.t.t.t.t.t.t.t.t.t.t.t.t.t.t.t.t.t.",
"t.t.t.t.t.t.t.t.t.y.y.t.t.y.t.t.t.t.y.t.t.t.t.t.t.t.t.t.t.t.t.t.t.y.y.t.t.y.t.y.",
"y.t.t.t.t.y.y.t.y.t.t.y.t.t.t.t.t.t.r.K t.t.y.y.t.t.t.t.t.t.t.t.t.t.t.t.t.y.t.t.",
"t.t.y.t.t.t.t.t.y.r.t.t.t.t.t.t.t.t.l 7 I t.t.y.t.t.t.t.t.t.t.t.t.t.t.t.t.t.t.t.",
"t.t.t.t.t.t.y.t.r.r.q.r.r.t.x l K g 8 8 1 G r.r.r.r.t.t.r.r.r.t.t.t.t.t.t.t.t.t.",
"t.t.y.t.t.y.t.r.I P F L L z < ; h q W _ + 1 V L F L L L L D P L e.t.t.t.t.t.y.t.",
"y.t.y.t.y.y.U -.:.4.2.2.@.& w T 3 ' g.h.3 @ i *.2.2.,.4.2.2.4.>.-.I y.t.y.t.y.t.",
"t.t.t.y.t.r.L :.7.u.i.i.=.% ` j.[ q  .z.! ..] t 3.9.u.u.u.i.u.8.:.P t.t.t.t.t.t.",
"t.t.t.t.t.0.F 2.i.i.i.i.1.& ( g.k.| k.B.c.M.k.R n =.i.i.i.i.i.i.2.F r.t.t.t.t.t.",
"y.t.t.y.t.I -.5.i.i.i.8.#.6 R s.n.m.V.D.D.B.l...e M 3.u.i.i.i.i.3.-.I t.t.t.t.t.",
"t.t.t.t.r.I ;.8.i.i.i.O.> [ k.v.v.n.V.D.V.' q ' f.^ d 6.i.i.i.i.8.;.K r.t.t.t.t.",
"t.t.y.t.t.I ;.7.i.i.i.3.Z w s.k.Q [ v.B._ # X 5 [ p.{ d 3.i.i.i.8.;.I t.t.t.t.t.",
"y.t.t.y.t.I ;.7.i.i.i.1.C Q f.k.! e d.n.#   5 ! f d.x.) B <.i.i.8.;.I t.y.t.t.y.",
"t.t.t.t.t.r.;.2.3.3.u.C 4 f.n.v.f.e t.c.#   Q l.5 d.A.b.0 b i.i.5.;.r.t.t.t.t.t.",
"t.t.t.t.t.e.-.b % * +.N = p.x.d.e ' ..^ X   + 2 X f.F.N.f b i.i.5.;.r.t.t.t.t.t.",
"y.t.t.y.t.L h 0 q q u b m f [ p.| R R Y X 2 q Y p.M.M.{ / =.i.i.5.:.e.t.y.t.t.y.",
"t.y.t.t.w.S @ 5 ^ } Q E A t 9 ^ d.Q e e q R [ f.Z.M.a.d 3.i.i.i.8.;.L r.t.t.t.t.",
"t.t.t.t.w.S $ 5 [ c.c.[ * &.p 3 _ k.[ q ..[ d.C.V.| d 3.i.i.i.i.8.;.I t.t.t.t.t.",
"t.t.t.t.t.H & 5 [ v.s.T & <.y # ^ c.c.k.v.c.v.v.Q / 1.i.i.i.i.i.7.;.I r.t.t.t.t.",
"t.y.t.t.w.J k u c p.' q o a v ' s.v.m.v.f.c.n.l.p.~ o.9.i.i.i.i.u.,.I t.t.t.t.t.",
"t.y.t.t.r.q.>.N - c ' Y     ! d.k.n.m.l.^ d.c.v.Z.[ , 7.i.i.i.i.u.:.I t.t.t.t.t.",
"t.t.t.t.t.q.:.2.+.- p.[   X ^ [ q k.m.k.5 [ v.S.S.[ , 9.i.i.i.i.8.:.e.t.t.t.t.t.",
"t.y.y.t.r.I :.8.=.& [ ' @ | d.' # f.m.k.# ' v.S.F.[ , 9.i.i.i.i.8.:.I t.t.t.t.t.",
"t.t.t.t.t.L :.9.3.j E Y q [ d.| # ..f...q R s.M.S.[ r 9.i.i.i.i.8.:.L t.t.t.t.t.",
"t.t.t.t.t.I :.8.i.9.a 6 w + ' | + Y ! Q R # e d.n.^ , 7.i.i.i.i.8.:.I t.t.t.t.t.",
"t.y.t.y.t.I ;.5.i.i.6.m X   + # X Y Q Q Q # 3 Q q + , 7.i.i.i.i.5.;.I t.t.t.t.t.",
"t.y.t.t.t.I ;.5.i.i.i.C         X e Q R 5 5 5 #     O s 3.i.i.i.5.:.K t.t.t.t.t.",
"t.t.t.t.t.I ;.8.i.i.i.C         # R Q R 3 q 3         o &.i.i.i.5.;.I t.t.t.t.t.",
"t.t.t.t.t.L :.8.i.i.i.X.O     @ Y R R R Y #           & <.i.i.i.8.:.L r.t.t.t.t.",
"t.t.t.t.r.L :.8.i.i.i.7.o.o     + + + + +           : #.9.i.i.i.8.:.L t.t.y.t.t.",
"t.t.t.t.t.e.-.5.i.i.i.i.7.N b r               . p b X.9.i.i.i.i.5.;.r.t.t.y.t.y.",
"t.t.t.t.t.r.F ,.9.u.i.u.i.i.i.#.: & * * & * * r 3.i.i.u.i.i.i.9.,.F t.t.t.t.t.t.",
"t.t.t.t.t.t.e.-.:.:.,.2.,.2.,.,.%.$.$.*.*.%.%.*.2.,.2.4.,.2.>.;.-.U r.t.t.t.t.t.",
"t.t.t.t.t.y.t.e.L L F F F P P P F D P -.-.-.P F -.P P F F F L L 0.t.y.t.t.y.y.t.",
"t.t.t.t.t.y.y.y.t.t.e.e.r.r.t.t.e.e.t.t.t.r.r.e.e.e.r.t.e.e.t.y.y.y.t.t.t.t.t.t.",
"t.t.y.t.t.t.t.t.t.t.t.t.t.t.t.t.t.t.t.t.t.t.t.t.t.t.t.t.t.t.t.t.t.t.t.t.t.t.y.t.",
"y.t.t.t.y.t.t.y.t.t.t.t.t.t.t.t.y.t.t.y.t.t.y.t.t.t.t.t.t.t.t.t.y.t.t.y.t.t.y.t.",
"t.t.t.t.t.t.t.t.t.t.t.t.t.t.t.t.t.t.t.t.y.t.t.t.t.t.t.t.t.t.t.y.t.t.t.t.t.t.t.t.",
"t.t.t.t.t.t.t.t.t.t.t.t.t.t.t.t.t.t.t.t.t.t.t.t.t.t.t.t.t.t.t.t.t.t.t.t.y.t.t.t.",
"y.t.t.y.y.t.t.y.t.t.t.t.t.t.t.t.y.t.t.y.t.t.y.t.t.t.t.t.t.t.t.t.y.t.t.y.t.t.y.t."
};
