/* XPM */
static char *xpm_[] = {
/* columns rows colors chars-per-pixel */
"40 40 145 2 ",
"   c #020101",
".  c #0F0A07",
"X  c #0B0B0B",
"o  c #140F0B",
"O  c #19110C",
"+  c #16180C",
"@  c #141414",
"#  c #1D1611",
"$  c #1B1915",
"%  c #1C1C1C",
"&  c #20160F",
"*  c #231A13",
"=  c #2B1D12",
"-  c #291F19",
";  c #262A14",
":  c #282C16",
">  c #362417",
",  c #3C281A",
"<  c #343B1C",
"1  c #232323",
"2  c #2B2B2B",
"3  c #322D23",
"4  c #3F2E21",
"5  c #312F2C",
"6  c #35352F",
"7  c #3B322C",
"8  c #39392C",
"9  c #343434",
"0  c #3C3C3C",
"q  c #442E1D",
"w  c #47301F",
"e  c #473324",
"r  c #4D3321",
"t  c #40342A",
"y  c #4C3A2D",
"u  c #513623",
"i  c #553926",
"p  c #593C26",
"a  c #523C2C",
"s  c #5B3E29",
"d  c #503F33",
"f  c #3D4225",
"g  c #474224",
"h  c #4A4629",
"j  c #50592A",
"k  c #46413D",
"l  c #584A3F",
"z  c #61432B",
"x  c #69462D",
"c  c #634936",
"v  c #6C4B33",
"b  c #724D32",
"n  c #6B503C",
"m  c #775033",
"M  c #7D5639",
"N  c #7C5B38",
"B  c #5D6732",
"V  c #646E36",
"C  c #776B3C",
"Z  c #7D6F3E",
"A  c #697438",
"S  c #6D793A",
"D  c #72753B",
"F  c #7C733D",
"G  c #757C3C",
"H  c #7A7D3D",
"J  c #454544",
"K  c #4B4D43",
"L  c #4C4C4C",
"P  c #5D5047",
"I  c #535353",
"U  c #5C5C5C",
"Y  c #635042",
"T  c #625E5A",
"R  c #66605C",
"E  c #636363",
"W  c #6B6B6B",
"Q  c #77726F",
"!  c #747474",
"~  c #7B7775",
"^  c #7C7C7C",
"/  c #815638",
"(  c #845939",
")  c #8A5D3D",
"_  c #92623F",
"`  c #82743E",
"'  c #8E6440",
"]  c #946340",
"[  c #986743",
"{  c #946A42",
"}  c #9C6844",
"|  c #867241",
" . c #8C7442",
".. c #937444",
"X. c #9A7446",
"o. c #9C7648",
"O. c #A36E47",
"+. c #A66F48",
"@. c #A27549",
"#. c #AD744B",
"$. c #A17848",
"%. c #AC7A4D",
"&. c #B0764C",
"*. c #B37B4F",
"=. c #B67D50",
"-. c #BA7D51",
";. c #76823E",
":. c #79833D",
">. c #7D8B3F",
",. c #778340",
"<. c #798540",
"1. c #7F8E44",
"2. c #808F42",
"3. c #BE8052",
"4. c #C58455",
"5. c #828282",
"6. c #8C8C8C",
"7. c #939393",
"8. c #9C9C9C",
"9. c #A3A3A3",
"0. c #A4A4A4",
"q. c gray65",
"w. c #A7A7A7",
"e. c #A9A9A9",
"r. c #AAAAAA",
"t. c #ABABAB",
"y. c #AFAFAF",
"u. c #B1B1B1",
"i. c #B4B4B4",
"p. c #B7B7B7",
"a. c #B9B9B9",
"s. c gray73",
"d. c #BBBBBB",
"f. c #BCBCBC",
"g. c gray",
"h. c gray75",
"j. c #C0C0C0",
"k. c #C1C1C1",
"l. c #C3C3C3",
"z. c gray77",
"x. c #C5C5C5",
"c. c #C6C6C6",
"v. c gray78",
"b. c #CACACA",
"n. c #CBCBCB",
/* pixels */
"1.1.2.1.1.2.1.1.1.1.1.1.1.1.1.1.1.1.1.1.1.1.1.1.1.1.1.1.1.1.1.1.1.1.1.1.1.1.1.1.",
"1.1.1.1.1.1.1.1.1.1.1.1.1.1.1.1.1.1.1.1.1.1.1.1.1.1.1.1.1.1.1.1.1.2.2.1.1.2.1.2.",
"2.1.1.1.1.2.2.1.1.1.1.1.1.S S ;.1.1.1.1.1.1.1.1.S S ;.1.1.1.1.1.1.1.1.1.1.2.1.1.",
"1.1.2.1.1.1.1.1.1.1.1.2.S : + < ,.<.1.1.<.>.1.S ; + < ,.1.1.1.1.1.1.2.1.1.1.1.1.",
"1.1.2.>.1.1.2.1.2.:.,.B f L 1 ; A f < < < < j V + 5 K f A ,.1.1.1.1.1.1.1.2.1.1.",
"2.1.2.2.1.2.2.,.G F C g % 5.E 8 h : 2 9 9 1 3 h 9 ! ! $ j C D D :.1.1.1.1.1.1.2.",
"1.1.>.2.2.2.R ` ..$.%.x 1 8.8.W 2 L 5.w.9.! J 6 ~ 0.5.$ N %.@...| H 2.1.1.1.1.1.",
"1.1.2.2.>.>.H $.*.3.-.b @ U 7.8.6.e.d.c.c.i.8.6.9.6.L # ] 4.-.=.{ D 1.1.1.2.1.1.",
"1.1.1.1.1.;.Z @.4.4.( , % ! 6.7.u.c.n.n.n.n.h.t.6.6.E @ t _ 4.4.#.` :.1.1.1.1.2.",
"2.1.1.2.1.G | %.-.[ d 2 0 8.5.5.e.c.n.n.n.n.f.0.! 7.6.9 2 P +.-.*.` G 1.1.1.1.1.",
"1.1.1.1.1.D  .=.O.4 ~ e.9.! 6.w.0.f.n.n.n.n.p.8.9.5.2.q.q.T e &.*.` G >.1.1.1.1.",
"1.1.2.1.1.G  .=.-.( l U ^ 7.y.h.f.c.n.n.n.n.l.s.h.q.7.^ I Y _ 3.-.` G >.2.1.1.2.",
"2.1.1.2.1.<. .%.=.M P E 5.w.j.n.b.n.n.n.n.n.n.n.b.f.8.^ T Y ) -.3.` :.>.1.2.1.1.",
"1.1.1.1.1.<. .%.O.4 ~ 8.8.y.j.c.b.n.b.c.y.y.a.b.b.h.t.7.8.T u &.3.` :.>.1.1.1.2.",
"1.1.1.1.1.,.| %.-.O.y 1 9 e.d.d.b.n.b.0.9 1 E l.b.c.7.2 1 c #.4.%.H <.1.1.1.1.1.",
"2.1.1.2.1.,. .=.4.4.) w o J W 7.a.c.7.L 9 9 0 E e.5.0 o i } 4.4.3...R 1.1.2.1.1.",
"1.1.1.1.<.S  .-.4.4.} n 0 0 0 I ^ e.U @ J U 0 2 W I 0 J Y +.4.4.*...G 1.1.1.1.1.",
"1.1.1.1.1.H  .*.4.#.a U u.7.L % 2 Q I 1 U I I J @ U 8.q.k b -.4.*. .G <.1.1.1.1.",
"1.1.1.1.1.G ..*.O.e ~ w.9.J W 8.6.0 U 9.q.! I J X % I t.0.T u -.*...G 1.1.1.1.1.",
"1.1.1.1.1.F o.-.[ * 5.s.7.% ! n.p.9 J 8.h.0.7.^ %   9 e.a.E = #.-.X.F >.1.1.1.1.",
"1.1.1.1.1.H ..*.} * U 6.^ 0 6.b.p.9 2 W q.h.n.t.1 % L 5.6.J = &.=...:.1.1.1.1.1.",
"2.1.1.2.1.H ..*.[ O X % 2 8.j.b.p.2 2 U W 0.h.0.1 E 5.% $ X = &.*...:.1.1.1.1.1.",
"1.1.1.1.2.G ..=.[ # 2 1 % 8.z.b.p.2 I 7.U W ^ W @ W 5.o 2 % = &.=...G 1.1.1.1.1.",
"1.1.2.1.:.D ..-.#.p 7 % % 8.h.c.i.9 0 ^ 5.E J 0 J 6.5.@ 2 t x -.=...S 1.1.1.1.1.",
"2.1.1.1.1.:...3.4.-.p & 3 7.i.s.i.J @ 2 8.W 9 9 8.y.^ - & v 4.4.*...G 1.1.1.1.1.",
"1.1.1.1.1.R ` 3.4.4.&.+._ 7 ^ h.i.e.I @ I 2 J 7.a.E y [ O.*.4.4.*. .G 1.1.1.1.1.",
"1.1.1.1.1.;.` 3.4.4.4.} w . 5 I I ! J X 1 2 0 L I 1 o p &.4.4.4.%. .;.1.1.1.1.1.",
"2.1.1.2.>.S ` 3.4.4.4.b     o % % 9 %     2 2 % % X   o } 4.4.4.*. .G >.1.1.1.1.",
"1.1.1.1.>.S { *.4.4.4./ o   2 J 0 @         % J J %   * O.4.4.4.-._ G >.1.1.2.1.",
"1.1.2.1.>.S ..=.4.4.4.-./ o X @ @ X         X @ @   > _ -.4.4.4.*.` D >.2.1.1.1.",
"2.1.1.1.2.:. .%.4.4.4.4.-.b s q               . i z / -.4.4.4.4.3.:.:.1.1.1.1.1.",
"1.1.1.1.1.:.F X.-.4.4.-.4.4.4.] > = = = = = = q #.4.4.4.4.4.4.-.3.R <.1.1.1.1.2.",
"1.1.1.1.1.1.,.` o.X.@.o.@.$.o.X._ ` _ X._ _ ] { @.o.@.@.$.$._ ` ` ` >.1.1.2.1.1.",
"1.2.2.1.1.2.1.T G ;.F F F F F F | T ` ` ` >.` ` | F F F | T H H >.>.2.2.1.1.1.1.",
"1.1.1.1.1.1.2.2.>.>.:.>.;.>.1.>.<.<.:.1.>.2.:.H ;.,.<.<.;.<.1.1.2.2.2.2.2.1.1.2.",
"1.2.1.1.1.1.1.2.2.>.>.1.1.1.1.1.1.1.1.1.1.1.2.2.1.1.1.1.1.1.1.2.1.2.2.>.1.1.1.1.",
"1.2.1.1.2.1.1.1.1.1.2.1.1.1.1.1.2.1.1.2.1.1.2.1.1.1.1.1.1.1.1.1.1.1.1.1.1.1.1.1.",
"1.1.1.1.1.1.1.1.2.1.1.1.1.1.1.1.1.1.1.1.2.1.1.1.1.1.1.1.1.1.1.1.1.2.2.1.1.2.1.2.",
"1.1.1.2.1.1.1.2.1.1.1.1.1.1.1.1.1.1.1.1.1.1.1.1.1.1.1.1.1.1.1.2.1.2.1.1.1.2.1.1.",
"1.2.1.1.2.1.1.1.1.1.1.1.1.1.1.1.2.1.1.2.1.1.1.2.1.1.1.1.2.1.1.1.1.1.1.1.1.1.1.1."
};
