/* XPM */
static char *xpm_[] = {
/* columns rows colors chars-per-pixel */
"40 40 159 2 ",
"   c black",
".  c #010101",
"X  c #020202",
"o  c gray1",
"O  c #040404",
"+  c gray2",
"@  c #060606",
"#  c #070707",
"$  c gray3",
"%  c #090909",
"&  c #0C0C0C",
"*  c gray6",
"=  c #101010",
"-  c #111111",
";  c gray7",
":  c #131313",
">  c gray8",
",  c #151515",
"<  c #161616",
"1  c gray9",
"2  c #181818",
"3  c #1B1B1B",
"4  c #1D1D1D",
"5  c #1E1E1E",
"6  c gray12",
"7  c #202020",
"8  c #222222",
"9  c gray15",
"0  c #272727",
"q  c #282828",
"w  c #2A2A2A",
"e  c gray17",
"r  c #2C2C2C",
"t  c #2D2D2D",
"y  c gray18",
"u  c #2F2F2F",
"i  c gray19",
"p  c #323232",
"a  c #343434",
"s  c #353535",
"d  c gray21",
"f  c #373737",
"g  c gray22",
"h  c #393939",
"j  c #3C3C3C",
"k  c gray24",
"l  c #3E3E3E",
"z  c #3F3F3F",
"x  c gray26",
"c  c #444444",
"v  c #464646",
"b  c gray28",
"n  c #484848",
"m  c #494949",
"M  c #4C4C4C",
"N  c gray30",
"B  c #4E4E4E",
"V  c #505050",
"C  c #515151",
"Z  c gray32",
"A  c #535353",
"S  c gray33",
"D  c #555555",
"F  c #565656",
"G  c gray34",
"H  c #585858",
"J  c #5B5B5B",
"K  c gray37",
"L  c #5F5F5F",
"P  c #606060",
"I  c gray38",
"U  c #626262",
"Y  c gray39",
"T  c #646464",
"R  c #656565",
"E  c DimGray",
"W  c #6A6A6A",
"Q  c #6D6D6D",
"!  c gray43",
"~  c #6F6F6F",
"^  c #717171",
"/  c gray45",
"(  c gray46",
")  c #767676",
"_  c #777777",
"`  c gray47",
"'  c #797979",
"]  c #7B7B7B",
"[  c gray49",
"{  c #7E7E7E",
"}  c #808080",
"|  c gray51",
" . c #848484",
".. c gray52",
"X. c #8B8B8B",
"o. c gray55",
"O. c gray56",
"+. c #909090",
"@. c gray57",
"#. c #929292",
"$. c #939393",
"%. c gray58",
"&. c #959595",
"*. c gray59",
"=. c #979797",
"-. c #989898",
";. c #9A9A9A",
":. c #9B9B9B",
">. c gray61",
",. c gray62",
"<. c #9F9F9F",
"1. c #A0A0A0",
"2. c gray63",
"3. c gray64",
"4. c gray65",
"5. c #A7A7A7",
"6. c #A9A9A9",
"7. c #AAAAAA",
"8. c gray67",
"9. c #ACACAC",
"0. c gray68",
"q. c #AEAEAE",
"w. c #AFAFAF",
"e. c #B1B1B1",
"r. c #B2B2B2",
"t. c gray70",
"y. c #B4B4B4",
"u. c gray71",
"i. c #B6B6B6",
"p. c #B7B7B7",
"a. c gray72",
"s. c #B9B9B9",
"d. c #BBBBBB",
"f. c #BCBCBC",
"g. c gray74",
"h. c gray",
"j. c gray75",
"k. c #C0C0C0",
"l. c #C1C1C1",
"z. c gray76",
"x. c gray77",
"c. c #C5C5C5",
"v. c #C6C6C6",
"b. c gray78",
"n. c #C8C8C8",
"m. c gray79",
"M. c #CACACA",
"N. c #CBCBCB",
"B. c gray80",
"V. c #CDCDCD",
"C. c #CECECE",
"Z. c gray81",
"A. c #D0D0D0",
"S. c gray82",
"D. c #D2D2D2",
"F. c gray83",
"G. c #D5D5D5",
"H. c gainsboro",
"J. c None",
/* pixels */
"J.J.J.J.J.J.J.J.J.J.J.J.J.J.J.J.J.J.J.J.J.J.J.J.J.J.J.J.J.J.J.J.J.J.J.J.J.J.J.J.",
"J.J.J.J.J.J.J.J.J.J.J.J.J.J.J.J.J.J.J.J.J.J.J.J.J.J.J.J.J.J.J.J.J.J.J.J.J.J.J.J.",
"J.J.J.J.J.J.J.J.J.J.J.J.J.J.J.J.J.J.J.J.J.J.J.J.J.J.J.J.J.J.J.J.J.J.J.J.J.J.J.J.",
"J.J.J.J.J.J.J.J.J.J.J.J.J.J.J.J.J.J.J.J.J.J.J.J.J.J.J.J.J.J.J.J.J.J.J.J.J.J.J.J.",
"J.J.J.J.J.J.J.J.J.J.J.J.J.J.J.J.J.J.J.J.J.J.J.J.J.J.J.J.J.J.J.J.J.J.J.J.J.J.J.J.",
"J.J.J.J.J.J.J.J.J.J.J.J.J.J.J.J.J.J.J.J.J.J.J.J.J.J.J.J.J.J.J.J.J.J.J.J.J.J.J.J.",
"J.J.J.J.J.J.J.J.J.J.J.J.J.J.J.J.J.J.J.J.J.J.J.J.J.J.J.J.J.J.J.J.J.J.J.J.J.J.J.J.",
"J.J.J.J.J.J.J.J.J.J.J.J.J.J.J.J.J.J.J.J.J.J.J.J.J.J.J.J.J.J.J.J.J.J.J.J.J.J.J.J.",
"J.J.J.J.J.J.J.J.J.J.J.J.J.J.J.J.J.J.J.J.J.J.J.J.J.J.J.J.J.J.J.J.J.J.J.J.J.J.J.J.",
"J.J.J.J.J.J.J.J.J.J.J.J.J.J.* o J.J.J.J.J.J.J.J.o * J.J.J.J.J.J.J.J.J.J.J.J.J.J.",
"J.J.J.J.J.J.J.J.J.J.J.J.J.w ^ - J.J.o o o o J.J.- ^ w J.J.J.J.J.J.J.J.J.J.J.J.J.",
"J.J.J.J.J.J.J.J.J.J.J.J.o d t.^ 5 1 M [ ` M 1 5 ^ t.g o J.J.J.J.J.J.J.J.J.J.J.J.",
"J.J.J.J.J.J.J.J.J.J.J.J.J.0 $.4.Q Q 3.v.v.3.Q Q 4.O.0 J.J.J.J.J.J.J.J.J.J.J.J.J.",
"J.J.J.J.J.J.J.J.J.J.J.J.o 5 ` $.q.v.B.M.B.B.v.q.$._ 5 o J.J.J.J.J.J.J.J.J.J.J.J.",
"J.J.J.J.J.J.J.J.J.J.J.1 - m q.Q %.h.B.B.M.B.h.%.Q q.m 1 1 J.J.J.J.J.J.J.J.J.J.J.",
"J.J.J.J.J.J.J.J.J.J.o } a.;.Q <.<.t.B.B.M.B.t.<.<.Q ;.a.} o J.J.J.J.J.J.J.J.J.J.",
"J.J.J.J.J.J.J.J.J.J.J.y H } ;.z.h.z.B.B.B.B.z.h.z.;.} F p J.J.J.J.J.J.J.J.J.J.J.",
"J.J.J.J.J.J.J.J.J.J.J.C _ $.i.M.B.M.M.B.A.A.A.B.M.i.$._ C J.J.J.J.J.J.J.J.J.J.J.",
"J.J.J.J.J.J.J.J.J.J.o ^ X.$.h.v.M.M.B.M.%.O.q.A.M.h.$.X.^ o J.J.J.J.J.J.J.J.J.J.",
"J.J.J.J.J.J.J.J.J.J.J.o o d q.6.z.M.M.<.5 o U h.v.t.p o o J.J.J.J.J.J.J.J.J.J.J.",
"J.J.J.J.J.J.J.J.J.J.J.J.o + 7 F ;.v.%.7 c M y m <.w + o J.J.J.J.J.J.J.J.J.J.J.J.",
"J.J.J.J.J.J.J.J.J.J.J.J.C $._ 5 5 ^ _ o m H c d j _ $.M J.J.J.J.J.J.J.J.J.J.J.J.",
"J.J.J.J.J.J.J.J.J.J.J.M ;.6.U U U C M Q O.U C g + F q.;.M J.J.J.J.J.J.J.J.J.J.J.",
"J.J.J.J.J.J.J.J.J.J.o $.A.` - i.H.U w t.M.$.` F o o [ B.$.o J.J.J.J.J.J.J.J.J.J.",
"J.J.J.J.J.J.J.J.J.J.o Q 4.^ y i.F.R - U t.v.A.O.o 1 ` 6.Q o J.J.J.J.J.J.J.J.J.J.",
"J.J.J.J.J.J.J.J.J.J.o * - x t.M.A.U - F U q.F.X.1 ;.c - * o J.J.J.J.J.J.J.J.J.J.",
"J.J.J.J.J.J.J.J.J.J.o w 1 p h.M.F.L y 3.H Q [ C - 3.d 1 w o J.J.J.J.J.J.J.J.J.J.",
"J.J.J.J.J.J.J.J.J.J.J.0 - d z.h.B.L - Q O.E d y R i.g - 0 J.J.J.J.J.J.J.J.J.J.J.",
"J.J.J.J.J.J.J.J.J.J.J.J.o d %.i.M...7 - ;.L y L h.%.p o J.J.J.J.J.J.J.J.J.J.J.J.",
"J.J.J.J.J.J.J.J.J.J.J.J.J.J.2 <.4.t.} * c 2 C 6.<.2 J.J.J.J.J.J.J.J.J.J.J.J.J.J.",
"J.J.J.J.J.J.J.J.J.J.J.J.J.o o 1 1 j m o + g p 1 1 o o J.J.J.J.J.J.J.J.J.J.J.J.J.",
"J.J.J.J.J.J.J.J.J.J.J.J.o o + d j w * o o - y j p + o o J.J.J.J.J.J.J.J.J.J.J.J.",
"J.J.J.J.J.J.J.J.J.J.J.J.J.o o 0 y - o o o o - y 0 o o J.J.J.J.J.J.J.J.J.J.J.J.J.",
"J.J.J.J.J.J.J.J.J.J.J.J.J.J.o o o o o o o o o o o o J.J.J.J.J.J.J.J.J.J.J.J.J.J.",
"J.J.J.J.J.J.J.J.J.J.J.J.J.J.J.J.o o o o o o o o J.J.J.J.J.J.J.J.J.J.J.J.J.J.J.J.",
"J.J.J.J.J.J.J.J.J.J.J.J.J.J.J.J.J.J.J.J.J.J.J.J.J.J.J.J.J.J.J.J.J.J.J.J.J.J.J.J.",
"J.J.J.J.J.J.J.J.J.J.J.J.J.J.J.J.J.J.J.J.J.J.J.J.J.J.J.J.J.J.J.J.J.J.J.J.J.J.J.J.",
"J.J.J.J.J.J.J.J.J.J.J.J.J.J.J.J.J.J.J.J.J.J.J.J.J.J.J.J.J.J.J.J.J.J.J.J.J.J.J.J.",
"J.J.J.J.J.J.J.J.J.J.J.J.J.J.J.J.J.J.J.J.J.J.J.J.J.J.J.J.J.J.J.J.J.J.J.J.J.J.J.J.",
"J.J.J.J.J.J.J.J.J.J.J.J.J.J.J.J.J.J.J.J.J.J.J.J.J.J.J.J.J.J.J.J.J.J.J.J.J.J.J.J."
};
