/* XPM */
static char *xpm_[] = {
/* columns rows colors chars-per-pixel */
"40 40 173 2 ",
"   c #040000",
".  c #0B0200",
"X  c #130400",
"o  c #1B0500",
"O  c #140905",
"+  c #1E0902",
"@  c #230600",
"#  c #2B0700",
"$  c #230902",
"%  c #2C0A02",
"&  c #220E09",
"*  c #330B02",
"=  c #3C0D02",
"-  c #2E1006",
";  c #2C140D",
":  c #351105",
">  c #3C1104",
",  c #341108",
"<  c #3B120A",
"1  c #420F02",
"2  c #441204",
"3  c #4B1404",
"4  c #4E1806",
"5  c #431409",
"6  c #491809",
"7  c #531504",
"8  c #5A1604",
"9  c #551906",
"0  c #5B1A05",
"q  c #541A08",
"w  c #5B1D09",
"e  c #471C12",
"r  c #631B06",
"t  c #6B1D06",
"y  c #641E0A",
"u  c #711E06",
"i  c #5C200C",
"p  c #5B2416",
"a  c #572817",
"s  c #56271D",
"d  c #5E2B1C",
"f  c #6D2007",
"g  c #66220B",
"h  c #6D2209",
"j  c #752107",
"k  c #7C2207",
"l  c #74240A",
"z  c #7D2509",
"x  c #7D2A0C",
"c  c #622314",
"v  c #622D1D",
"b  c #6B2E1D",
"n  c #752B14",
"m  c #7D2B11",
"M  c #7B2D18",
"N  c #5A3021",
"B  c #6B3123",
"V  c #6E3827",
"C  c #763624",
"Z  c #7C3827",
"A  c #763A29",
"S  c #7A3A29",
"D  c #7B422B",
"F  c #822407",
"G  c #892607",
"H  c #842609",
"J  c #8A2708",
"K  c #842B0C",
"L  c #8C2B0B",
"P  c #922B0A",
"I  c #952C0A",
"U  c #972D0A",
"Y  c #9B2E0A",
"T  c #85310F",
"R  c #8C310E",
"E  c #94300E",
"W  c #94320F",
"Q  c #9C320D",
"!  c #9F320D",
"~  c #812E10",
"^  c #8E2F11",
"/  c #833114",
"(  c #8B3211",
")  c #923310",
"_  c #9D3610",
"`  c #9F3811",
"'  c #933D1D",
"]  c #9C3818",
"[  c #A3350F",
"{  c #A4340E",
"}  c #AA360E",
"|  c #A7380F",
" . c #B1380F",
".. c #A63710",
"X. c #A43911",
"o. c #AB3A12",
"O. c #AD3D12",
"+. c #A43E19",
"@. c #B33B11",
"#. c #B53B10",
"$. c #B93E12",
"%. c #BE3F12",
"&. c #873925",
"*. c #853F2D",
"=. c #993D21",
"-. c #A44019",
";. c #AF4419",
":. c #B24314",
">. c #BC4214",
",. c #844126",
"<. c #89422C",
"1. c #82482E",
"2. c #9B4428",
"3. c #9C4B2E",
"4. c #8F4632",
"5. c #8C4D34",
"6. c #904632",
"7. c #954832",
"8. c #9A4C35",
"9. c #9E4E38",
"0. c #8D5339",
"q. c #945337",
"w. c #95553A",
"e. c #97583B",
"r. c #A64429",
"t. c #A24A2F",
"y. c #B0542E",
"u. c #A24E35",
"i. c #A34F38",
"p. c #A75231",
"a. c #AC5435",
"s. c #A6543B",
"d. c #A9563D",
"f. c #AA593E",
"g. c #B35435",
"h. c #B35B36",
"j. c #B0543A",
"k. c #C54414",
"l. c #C14816",
"z. c #CC4916",
"x. c #C14A1D",
"c. c #CA4B1A",
"v. c #D24916",
"b. c #D34D19",
"n. c #DC4E19",
"m. c #CE5019",
"M. c #D45119",
"N. c #DB5119",
"B. c #E15019",
"V. c #C7653C",
"C. c #CB6139",
"Z. c #A75F40",
"A. c #AC5D41",
"S. c #B35C42",
"D. c #BA5F45",
"F. c #AE6143",
"G. c #B26445",
"H. c #BB6146",
"J. c #B46946",
"K. c #BD6A46",
"L. c #BD6648",
"P. c #B66A48",
"I. c #BE6D49",
"U. c #BC6C4A",
"Y. c #BD714D",
"T. c #C06749",
"R. c #C26D4C",
"E. c #C3724E",
"W. c #C67651",
"Q. c #C87651",
"!. c #CA7953",
"~. c #DC886A",
"^. c #E48D6B",
/* pixels */
"6 X % F [ v.U J J 1 o O.k.7 # # +   * J 8 8 P P J x X.% # = ) P P z * X * U o   ",
"+ o   @ g #.2 % 2 k 2 K 2 u 8 # X X 2 $.Y u 1 1 = @ z * o X u z = % o X $ I # @ ",
"% % @   t t   . o t U j . @ k G 8 L @._ o @ # @ X . t 0 . X * l.j @ @ . 1 P * @ ",
"@ % @   F 7 . # % 3 :.h .   * H u * 3 H 3 3 2 X . # _ Q 3 1 u K K 8 X = ..Y J y ",
". . . . z 7   + % * K L x z F 1 . . @ E Y P L F K H q 5 H P r % % J 0 F 2 : = 0 ",
"4 3 z U v.x * X X o o 0 #.r * . X . 8 u @ o # 0 #.q O + * % 2 7 F $.} = . .   X ",
"@.L 3 7 >.K H k > > = l [ o X o # # P + . # # o +.' ,.D D / P J 8 = U # X @ @ . ",
"u X . 2 G $ % > O.>.H { [ r @ + @ m n O @ * < a G.I.W.!.!.U.1.e % @ u u + # * o ",
"F $   , k.Q 0 # h Q + + * k t 5 / V.P.N & N 5.F.Y.E.W.W.U.W.W.F.v + 2 F > + o . ",
"u 7 % f X.f F 7 = F $ # # @ j c.f.W.!.G.0.F.U.K.K.I.R.K.J.U.E.E.A.D 5.b J % X * ",
"o T ;.g X . = { L k g + X 2 m h.P.Y.P.J.P.L.H.J.J.J.T.J.G.U.U.E.E.Y.!.q.L 3 3 I ",
". R K X o X X z Q f z r K K p.Y.P.P.J.A.D.G.D.S.S.D.H.S.f.H.L.R.R.!.!.0.^ $.k % ",
"x m.4 . @ . . k r X X U y D Y.E.G.G.G.d.S.S.S.S.S.S.D.S.f.S.D.H.R.E.!.5.n %.$ . ",
"E E t .     $ G 2 @ . / y.P.W.Y.f.f.f.f.S.S.S.S.D.D.D.h.D.D.D.D.H.R.!.8.L y . @ ",
"i o l r @ # l o.* . . v E.U.E.G.f.S.A.S.D.D.D.D.D.D.D.D.H.H.D.H.D.R.!.a.N.w @ # ",
"* . 4 >.Y P X.X.P 3 ; q.I.J.K.F.A.S.S.D.D.D.D.D.D.D.H.D.H.H.D.T.H.W.W.<.q P % @ ",
"# . : L * + . . # L 4.P.G.A.D.A.S.S.D.D.D.D.L.D.D.D.D.D.D.H.H.T.W.W.I.V # :...t ",
"o . 5 N.t $ $ . ; 8.U.F.A.A.S.A.S.S.D.D.D.D.D.D.D.D.D.D.H.T.R.Q.Y.P.J.d 7 ( y 7 ",
"o g z 3 t 0 $ ; w.Y.A.A.Z.A.S.S.D.D.D.D.D.D.D.D.D.D.T.R.R.W.R.P.G.G.f.c H * X . ",
"> F o   X U < 0.P.G.A.A.A.S.D.D.D.D.D.D.D.D.D.D.T.R.Q.E.Y.P.G.G.F.A.s.c F o X X ",
"Q R # X : x.A.I.J.A.Z.A.D.D.D.D.D.D.D.D.D.D.H.R.R.Y.P.P.G.G.F.F.A.A.u.o.4 @ # # ",
"-.Q # o ~ j.Y.G.F.Z.d.A.D.D.D.D.D.D.D.D.D.H.E.Y.P.J.G.G.A.A.A.A.d.s.2.b.Y J 7 * ",
"@ 0 W R 3.Y.P.A.A.d.A.S.D.D.D.D.D.D.D.D.D.R.U.P.J.F.A.A.A.A.Z.Z.9.4.M z o 1 L j ",
"X $ c.-.e.W.W.F.A.S.D.D.D.D.D.D.D.D.H.T.T.T.G.S.A.A.A.A.i.i.9.*.b ; 0 z . X - C.",
"o 9 K ( w.W.W.W.W.T.L.D.D.D.D.D.L.U.U.K.P.A.A.A.A.A.s.i.8.=.&.< % X 1 F @ * w ~.",
"3 f $ l d.U.U.W.Q.Q.Q.R.W.L.D.L.R.P.G.A.A.A.A.f.A.s.6.B n n U 1 o X @ U 9 t Q ^.",
"g - $ , s.K.U.R.R.W.W.W.U.G.P.U.G.A.A.A.f.f.s.s.7.s ; 5 L $ 7 F . X r ` P w $ C ",
"l $ # 5 g.H.H.L.U.U.W.U.P.A.G.A.A.A.f.s.s.8.*.=.m = o % P @ # u r t 0 $ # # % L ",
"3 f o f t.a.H.H.D.T.R.L.A.A.A.A.A.d.i.7.Z p w _ Q U k 2 z _ < j M.U r $ + % j 4 ",
"X F : G p S d.j.S.D.L.D.A.A.u.A.i.4.&.M $ 1 L +   X 8 Y o.O.J k...3 u F l [ ^ @ ",
"  K 0 R h # c r.i.S.S.S.A.i.s.3.v 5 # 0 P @.R . X   2 F * % = b.[ r o $ $ > L = ",
". H ( Q ] # 8 x e C a.A.8.A e n t o @ * 2 k.P o # @ y r X @ = Y * u 0 + $ + y ..",
"2 O.z.r L 9 J =   , ] B e & . = F $ $ # o F U * + * F % X * 2 J @ . t t 3 F F z ",
"k 4 Y * 7 #.r % % g ;.- . X . 4 k + X . o P 7 k F X.X.$ X % P 7 X   X u @.4 $ O ",
"= % G 3 X 9 z.Q U Q z j @ X 3 } E +   X u 2 . + z >...2 o @ P = .     : v.9 @ . ",
"X @ t j   3  .# X .   0 F 9 t 1 J J 3 i j o + 2 j @ * z 3 r H @   o . o ..y @ $ ",
"7 z z.K . 3 G o @ X   w B.K + X . 2 l.b.L z 8 k 0 . o 1 F Y n.* X @ + X { z.4 X ",
"t % 3 k r U 3 # @   g x 6 $ @ $ * j Q q 2 2 K M.x X + X + 3 Y 8 # 8 9 w L w z 7 ",
"O o % * _ k.* % $ 9 m.K * * t L P 3 $ @ # : x _ K 0 X     o 2 #.H H c.X.* # * J ",
"$ X $ o @ L u t z z K #.J P t t j X + * l J r . . 9 k * + = J L 3 X z 3 X o . w "
};
