/* XPM */
static char *xpm_[] = {
/* columns rows colors chars-per-pixel */
"40 40 176 2 ",
"   c #040000",
".  c #0B0200",
"X  c #130400",
"o  c #1B0500",
"O  c #1E0902",
"+  c #230600",
"@  c #2B0700",
"#  c #230902",
"$  c #2C0A01",
"%  c #270F0A",
"&  c #330C02",
"*  c #3C0D02",
"=  c #2E1006",
"-  c #26120D",
";  c #361104",
":  c #3C1104",
">  c #33120A",
",  c #3B140A",
"<  c #321710",
"1  c #391710",
"2  c #3E1A11",
"3  c #3B2015",
"4  c #420F03",
"5  c #441204",
"6  c #4B1404",
"7  c #4E1806",
"8  c #40180F",
"9  c #49180A",
"0  c #531604",
"q  c #5A1604",
"w  c #551906",
"e  c #5B1A05",
"r  c #561C08",
"t  c #5C1D0A",
"y  c #441C12",
"u  c #551D10",
"i  c #5C1F10",
"p  c #631B06",
"a  c #6B1D06",
"s  c #621E0B",
"d  c #711E06",
"f  c #5C200C",
"g  c #442018",
"h  c #562416",
"j  c #582315",
"k  c #5B2719",
"l  c #57291A",
"z  c #6C2007",
"x  c #65210A",
"c  c #6D2209",
"v  c #752107",
"b  c #7B2207",
"n  c #742309",
"m  c #7D2508",
"M  c #7D290C",
"N  c #6E2912",
"B  c #642A1A",
"V  c #7F2C11",
"C  c #742D1B",
"Z  c #7A2F1B",
"A  c #653020",
"S  c #763524",
"D  c #7E3B2A",
"F  c #79422E",
"G  c #822407",
"H  c #892607",
"J  c #842609",
"K  c #8A2708",
"L  c #842A0B",
"P  c #8C2A0A",
"I  c #912A09",
"U  c #922B0A",
"Y  c #952C0A",
"T  c #972D0A",
"R  c #9B2E0A",
"E  c #85310F",
"W  c #8C310E",
"Q  c #94300E",
"!  c #94320F",
"~  c #9D320D",
"^  c #9F320D",
"/  c #812F10",
"(  c #83331A",
")  c #8A391E",
"_  c #923313",
"`  c #9C3511",
"'  c #9F3811",
"]  c #93361B",
"[  c #9B3D1E",
"{  c #A3350F",
"}  c #A4340E",
"|  c #AA360E",
" . c #A7380F",
".. c #B1380F",
"X. c #A63710",
"o. c #A43912",
"O. c #AB3A11",
"+. c #AD3D12",
"@. c #B33B11",
"#. c #B53B10",
"$. c #B93E12",
"%. c #BE3F12",
"&. c #893924",
"*. c #873E2D",
"=. c #983B22",
"-. c #B14314",
";. c #BC4214",
":. c #82412D",
">. c #8B432E",
",. c #974027",
"<. c #94422A",
"1. c #9F462D",
"2. c #9B4B2E",
"3. c #8A4230",
"4. c #8E4833",
"5. c #934532",
"6. c #9B4C35",
"7. c #9C4D38",
"8. c #9E513A",
"9. c #97583B",
"0. c #9D5A3F",
"q. c #A64624",
"w. c #A3492C",
"e. c #A94E2E",
"r. c #B14B26",
"t. c #A14F39",
"y. c #A45336",
"u. c #AB5032",
"i. c #A3533C",
"p. c #AC553C",
"a. c #A7593F",
"s. c #AA5B3D",
"d. c #B05435",
"f. c #C54414",
"g. c #C14816",
"h. c #CC4917",
"j. c #C94C1B",
"k. c #D14916",
"l. c #D34D18",
"z. c #DA4E18",
"x. c #CE5019",
"c. c #D45119",
"v. c #DB5119",
"b. c #E15019",
"n. c #CB6139",
"m. c #A55A40",
"M. c #AC5D41",
"N. c #B25E42",
"B. c #AE6243",
"V. c #AF6148",
"C. c #B26545",
"Z. c #BB6546",
"A. c #B26847",
"S. c #BF6847",
"D. c #B66549",
"F. c #BB6648",
"G. c #B3694F",
"H. c #BD6B4B",
"J. c #BA6E53",
"K. c #BB7157",
"L. c #BE755B",
"P. c #C16341",
"I. c #C76841",
"U. c #C26D4D",
"Y. c #C86F4E",
"T. c #C5714E",
"R. c #C9714E",
"E. c #C67551",
"W. c #CA7551",
"Q. c #CD7C55",
"!. c #C2765B",
"~. c #D17E56",
"^. c #D28157",
"/. c #D38158",
"(. c #DC886A",
"). c #E48D6B",
/* pixels */
"9 X $ G { k.Y K K 4 o O.f.0 + @ +   * L e e P I K L o.+ $ * ! U U b & X $ Y o . ",
"O o   + x $.: $ 6 d 5 J 5 d q @ X X 5 $.R d 4 4 & + m ; o o a m * $ O X + U @ + ",
"$ @ +   a a . . X d R c . + b H q I ..` o + $ + X . a e . X & f.n + o . 5 K & + ",
"+ $ +   G 0 . @ $ 6 -.n .   * J d * 5 J 6 6 4 X . & Y ^ 5 5 d / P q X * | X.H p ",
". X X . m 0   O $ & L P M m J 5 . . + _ { I P G M J 0 5 K I p @ @ K p G 9 ; * p ",
"7 5 m Y k.M & X . O O q #.p & . X . q d + O $ e #.w . X $ $ 4 0 G #.| * .     X ",
"#.K 5 0 ;.L J b : : * n X.o X o + @ I + X @ & # o./ N l h n K K 0 4 Y @ X + + . ",
"n X . 5 H O $ 5 +.;.G X.{ p + + + / N - , j A D p.p.N.F.Z.1.y $ $ + d d o $ @ + ",
"m #   ; ;.^ e $ c { O O & b a 5 ( I.B.0.0.M.D.H.H.U.H.U.U.H.a.>.h # * m * # o . ",
"d 0 $ a o.a G 0 : G # $ + + d j.s.Q.Q.Q.!.E.U.H.H.U.U.U.U.U.H.H.M.>.k w K $ X & ",
"O L -.x X . *  .P m p O X 9 n u.J.Q.Q.Q.~.Q.Q.E.U.U.U.U.U.U.U.U.U.U.D.y G 5 0 U ",
". W E X o X X m ^ a m p J J 1.F.H.T.W.Q.Q.Q.Q.Q.Q.T.U.U.E.U.U.U.T.T.!.g J $.d & ",
"M x.7 . + . . b p X X I e A C.U.U.H.U.T.!.Q.Q.Q.Q.Q.Q.W.U.U.U.Y.T.T.!.y c $.+ . ",
"_ W a .     # J 5 + . E q.M.U.U.U.U.U.H.U.H.E.Q.Q.~.~.~.~.Q.W.U.R.R.L.B P p . + ",
"f O v p @ $ n O.& . . l P.U.U.H.U.U.H.U.H.U.U.H.W.Q.~.~.^.~.~.Q.R.W.K.[ l.e + & ",
"& . 7 %.Y U o. .I 6 2 8.U.H.U.U.U.H.U.U.U.U.U.U.U.E.~.~.^.^.~.~.Q.!.J.u 7 U $ # ",
"& . : P @ o .   $ =.M.U.U.H.H.U.H.U.U.H.U.U.U.Y.T.Y.R.R.W.Q.Q.T.H.J.G.< O #.^ a ",
"o . , v.a + @ . 3 C.Q.Q.E.U.U.U.U.U.U.U.Y.R.R.T.R.R.R.R.R.R.H.A.M.B.V.8 6 W x 0 ",
"O e m 6 d e # - 9.Q.Q.Q.Q.Q.W.T.U.U.U.W.Y.Y.R.R.R.R.W.Y.T.Z.N.N.B.A.m.i H & X . ",
": L X . X Y , F H.E.Q.~.Q.Q.~.Q.Q.W.Y.U.R.R.Y.R.R.R.U.Z.N.s.C.A.A.Z.4.t G o X X ",
"{ W @ X & g.2.U.U.H.T.E.Q.^.^.^.~.~.Q.R.T.R.Y.Y.H.Z.B.s.C.A.A.A.B.M.1.O.0 o @ $ ",
"O.! $ o m w.Z.Y.R.U.U.Y.T.W.Q.^.^.~.^.T.T.Y.Z.C.s.B.B.A.C.A.B.s.M.m.,.l.R K 0 & ",
"O e I P ) C.Y.T.R.R.E.Y.R.R.T.E.Q.E.H.Z.Z.C.s.B.A.A.A.B.B.B.s.a.i.8.( m o 4 U n ",
"X # j.` :.F.Y.R.Y.Y.R.R.R.R.R.T.Y.D.C.N.s.C.A.C.C.B.B.B.i.a.i.8.7.*.N b . X = n.",
"o q J M :.H.F.U.W.Y.R.R.R.R.R.I.D.M.V.C.A.A.C.M.B.s.a.i.i.i.t.>.S 1 5 G + & r (.",
"9 c # v y.H.T.F.P.U.U.R.U.H.M.C.C.C.C.C.C.M.M.m.m.i.i.t.7.>.=.t # X O Y w d ^ ).",
"x $ # + 2.H.H.T.T.U.F.F.s.N.C.C.C.C.C.M.M.m.m.i.i.7.7.*.] > w G . . p o.I p # S ",
"n # # & u.A.H.H.T.T.T.F.A.A.C.C.V.M.m.m.m.i.m.i.6.D y , P + + m a a q O $ + $ P ",
"6 c o a e.N.D.D.H.U.U.H.A.B.B.M.M.a.a.i.7.7.5.=.] I G 5 m ` : c c.Y p # O $ n 7 ",
"X m : K <.M.N.N.D.P.H.Z.B.M.M.m.i.8.i.6.D C _ O   X e Y O.@.K f.X.0 d J n X.P + ",
"  G q P &.*.p.N.N.N.Z.Z.M.m.i.i.6.5.S C ` @.P . o   5 G & @ * l.o.q o # # : P * ",
". L P { ` * Z w.i.M.N.C.i.i.7.6.&.2 & & 5 f.U o $ O a p . + * { & d e O # O s X.",
"5 O.h.a K r K 9 y 3.p.M.6.*.l u L # + @ o H Y & O & G $ X @ 6 K + . a a 7 G G J ",
"b 6 R & 0 @.p $ # N r.D u % X 9 b o X . o P w v P o.O.o X $ I 0 X   X d O.0 # X ",
"* $ K 5 o w h.R Y ! M n + X 5 | ! #   X d 5 . + m ;.o.5 o + P * .     : h.w + X ",
"o + a n   5 #.@ X X . q L w a 4 G P 6 t v O o 5 v # & b 6 p G #   o   O  .s + + ",
"6 m h.V X 5 H o + .   t b./ O X . 5 f.c.I m q b e . o 4 G R z.* X + o X X.h.7 X ",
"a $ 7 b p Y 0 $ + . x L 9 # + + & z { 0 5 : L c.m X o X O 6 R q $ q q r P t n q ",
"o o @ & ` h.@ + # w j.L * & a K I 0 + + $ ; M ` J e X     o 6 #.G J h. .$ $ & K ",
"O o O o + K d d m b / #.K K a d n X O & n L p X . r b ; O & H P 6 X m 9 X O X r "
};
