/* XPM */
static char *xpm_[] = {
/* columns rows colors chars-per-pixel */
"40 40 152 2 ",
"   c #776C3C",
".  c #7B6F3E",
"X  c #74743B",
"o  c #7C733D",
"O  c #757C3C",
"+  c #7A7C3C",
"@  c #45395B",
"#  c #423E69",
"$  c #3C4D6F",
"%  c #354770",
"&  c #5D464F",
"*  c #49435C",
"=  c #554251",
"-  c #584757",
";  c #5F505C",
":  c #654B4C",
">  c #694E53",
",  c #635059",
"<  c #785550",
"1  c #7C5850",
"2  c #424C6F",
"3  c #514C61",
"4  c #4C437A",
"5  c #50447E",
"6  c #485678",
"7  c #525972",
"8  c #684679",
"9  c #6F6764",
"0  c #7B6266",
"q  c #7B696F",
"w  c #6F627B",
"e  c #82743E",
"r  c #825D4D",
"t  c #845F54",
"y  c #8B634E",
"u  c #91674E",
"i  c #946A4D",
"p  c #9B6D4F",
"a  c #867241",
"s  c #8C7442",
"d  c #937444",
"f  c #9A7546",
"g  c #9D7648",
"h  c #9E7848",
"j  c #8D6252",
"k  c #966954",
"l  c #9C6C52",
"z  c #8F7359",
"x  c #A2764A",
"c  c #A8774B",
"v  c #A37849",
"b  c #AC7A4C",
"n  c #B37C4F",
"m  c #A26F53",
"M  c #A67252",
"N  c #AA7552",
"B  c #AF7A53",
"V  c #A3755D",
"C  c #A77859",
"Z  c #B57C51",
"A  c #B97E53",
"S  c #866763",
"D  c #916B61",
"F  c #8E7A66",
"G  c #807668",
"H  c #937D68",
"J  c #76823D",
"K  c #79833D",
"L  c #7D8B3F",
"P  c #778340",
"I  c #798640",
"U  c #7F8E44",
"Y  c #808F42",
"T  c #BE8153",
"R  c #95826F",
"E  c #8B8274",
"W  c #A08D79",
"Q  c #C68556",
"!  c #3F5C87",
"~  c #544583",
"^  c #455988",
"/  c #52508D",
"(  c #5B4E97",
")  c #4D5693",
"_  c #5D529C",
"`  c #4E6485",
"'  c #45628C",
"]  c #4A6E96",
"[  c #52669D",
"{  c #4C729D",
"}  c #595CA0",
"|  c #645FAC",
" . c #6E5AB2",
".. c #4D77A3",
"X. c #567BAF",
"o. c #6463AF",
"O. c #6176A1",
"+. c #7C6DB7",
"@. c #6274B6",
"#. c #883A8F",
"$. c #AA3A8E",
"%. c #97418C",
"&. c #974594",
"*. c #A95693",
"=. c #974BA0",
"-. c #865AB9",
";. c #8763B3",
":. c #8F73B3",
">. c #D25493",
",. c #E26D95",
"<. c #5C87B7",
"1. c #5D95BD",
"2. c #6386A4",
"3. c #7086A0",
"4. c #6085BD",
"5. c #6784C3",
"6. c #6A84C2",
"7. c #648DC5",
"8. c #678FC9",
"9. c #7781C4",
"0. c #6693C9",
"q. c #7199C4",
"w. c #729FDC",
"e. c #7B9BDA",
"r. c #6AA1CA",
"t. c #79A6C4",
"y. c #70A5D9",
"u. c #73B5D9",
"i. c #77ADE0",
"p. c #78BCE2",
"a. c #908A86",
"s. c #A19584",
"d. c #ACA393",
"f. c #AFAA9E",
"g. c #8395D7",
"h. c #8698DB",
"j. c #91BED3",
"k. c #86A1E2",
"l. c #87B0EE",
"z. c #90BEED",
"x. c #83B6F1",
"c. c #88C0D9",
"v. c #85C5E9",
"b. c #96D1E5",
"n. c #88C6FF",
"m. c #8ED2FF",
"M. c #91D9FC",
"N. c #94E1F9",
"B. c #9AE6FE",
"V. c #9AE9FF",
"C. c #B6F3FC",
"Z. c #DCD9CC",
/* pixels */
"U U U U U U U U U U U U U U U U Y U U Y U U U U U U U U U U U U U U U U U U U U ",
"U U Y U U Y Y U U U U U Y U U U U U U U U U U U U U U U U U U Y Y U U Y Y U Y U ",
"Y U U U U U U U U U U U U U U Y U U U U U U U U Y U U U U U U U U U U U U U Y U ",
"U U Y U U Y U U U U U U U U U U U U U U U U U U U U U U U U U U U Y U U U U U U ",
"U U U U U U U U L L J I I L L L I I I I U U L J I I I I I P I U U U U U U U Y U ",
"U U Y U Y Y U I O X     O X O O . X X o o o o X o X X o X   o O J U U U Y U U U ",
"Y U U U U Y O a d v c x x f f h x x v B b v v c c h v h v c h d a O Y U U U U U ",
"U U U U U I o d n T Q T T T T T T T T Q Q T T Q T T T A Q Q A Z d o U U U U Y U ",
"U U U U U J o v Q Q Q Q Q Q Q Q Q Q Q Q Q Q Q Q Q Q Q Q Q Q Q Q x e J U U U U U ",
"Y U U Y U O a c Q Q Q Q Q Q Q Q Q Q Q Q Q Q Q Q Q Q Q Q Q Q Q Q b a O U U U U U ",
"U U U U U O d b Q Q Q Q Q Q Q Q Q Q Q Q Q Q Q Q S S C Q Q Q Q Q n d O I U U U U ",
"U U Y U I O s T Q Q Q Q Q Q Q Q Q Q Q Q Q Q Q q t.c.3.C Q Q Q Q b s O L U U U U ",
"Y U U Y U P s b Q Q Q Q Q Q Q Q Q Q Q Q Q Q 0 t.2.j.6 D Q Q Q Q T a J U U U Y U ",
"U U U U U P s B Q Q Q Q Q A T Q Q Q Q Q Q Q 0 q.v.i.O.V Q Q Q Q B s J U Y U U U ",
"U U U U U I a B Q Q Q Q Z H C Q Q Q Q Q Q Q Q @ <.2 D m l Q Q Q b a I U U U U U ",
"Y U U Y U O d B Q Q Q A W Z.q Q Q Q t < < < B t 3 j l 7 6 k Q Q B d P U U U Y U ",
"U U U U I X d n Q Q Q T H E d.i l : ` ] ] ' 3 & k Q 1 ^ ! @ Q Q n d X I Y U U U ",
"U U U U U O d n Q Q Q Q A B F a.6 X.u.p.1.1.{ ' ; Z A , * M Q Q n d O I Y U Y U ",
"U U U U U O s n Q Q Q Q Q Q k 6 <.b.C.B.N.M.r...' - Z A A A Q Q n d O L U U Y U ",
"U U U U L O d T Q Q Q Q Q T * ..p.V.B.B.B.m.n.0.] % : g M R Z Q A f O U U U U U ",
"Y U U Y L + d T Q Q Q Q Q t 6 y.k.:.z.M.m.h.;.e.X.$ 9 d.f.s.M Q B d J U U U Y U ",
"U U U U U J d n Q Q Q Q Q = ..k.*.>.=.x.k.*.>.&.5.^ w G E d.i Q T d J U Y U U U ",
"Y U U Y U O d T Q Q Q Q Q = ' g.$.,.&.l.h.$.,.%.4.) 5 j B z T Q Z d O U U U U U ",
"U U U U I O d T Q Q Q Q Q = ) 0.+.%.g.p.e.+.#.9.6. .~ k Q T Q Q Z d X U U U Y U ",
"U U U U U O s Z Q Q Q Q Q < ~ ) 7.w.w.w.w.w.y.5.} -.8 m Q Q Q Q n d O I U U U U ",
"Y U Y U U P s B Q Q Q Q Q m > 4 @.4.8.[ [ 7.8.o.-.8 < Z Q Q Q Q B s O U U U U Y ",
"U U Y U I O s B Q Q Q Q Q m y > # / o.( _ | | # # r u Z Q Q Q Q b s J U U Y U U ",
"U U U U U O s Z Q Q Q Q Q T l y r & @ @ @ @ @ < r p N Q Q Q Q Q B s O U U U U U ",
"U U U U I X d Z Q Q Q Q Q Q T m i y y y r u r u p M Q Q Q Q Q Q Z s X I U Y U U ",
"U U U U U X d Z Q Q Q Q Q Q Q Q A M M M M m N N Q Q Q Q Q Q Q Q T d O I U U U Y ",
"U U U U U O s b Q Q Q Q Q Q Q Q Q Q Q Q Q Q Q Q Q Q Q Q Q Q Q Q B s I U U U U U ",
"U U U U U L o f A T Q T Q Q T T Q Q Q Q Q Q Q Q Q Q Q Q Q Q Q T p o I U U Y U U ",
"U U U Y U U I a s p h v g h g h M x v N b v c c c v v v v x d s o + U U Y U U Y ",
"U U U U U Y U P O X o o . a o o . X o a a a + o a X o . . . o X J U U U U U U U ",
"Y U U U U U Y Y U K P P K K U U P P U U I L K J J P P I P P U U Y Y U U U U U U ",
"U U U Y U Y U U U U U U U U U U U U U U U U U U U U U U U U U U U U U U Y U U Y ",
"U U U U U U U U U U U U U U U U U Y U U U U U U U U U U U U U Y U U U U U U U U ",
"Y U Y U U Y U Y U U U U U U U U U U U U U U Y U U U U U U U U U Y U Y U U Y U Y ",
"U U Y U U Y U U U U U U U U U U Y U U Y Y U Y U U U U U U U U U U U Y U U Y U U ",
"U U U U U U U U U U U U U U U U U U U U U U U U U U U U Y U U Y U U U U U U U U "
};
