/* XPM */
static char *xpm_[] = {
/* columns rows colors chars-per-pixel */
"40 40 147 2 ",
"   c #776C3C",
".  c #7B6F3E",
"X  c #74743B",
"o  c #7C733D",
"O  c #757C3C",
"+  c #7A7C3C",
"@  c #3E3853",
"#  c #3A3858",
"$  c #44395A",
"%  c #4B3C5C",
"&  c #473B6A",
"*  c #3B527C",
"=  c #5B454D",
"-  c #4C425A",
";  c #55495C",
":  c #4A505D",
">  c #6D4F4E",
",  c #70534E",
"<  c #614B5D",
"1  c #6F5154",
"2  c #795650",
"3  c #7D5950",
"4  c #7B5E5F",
"5  c #414869",
"6  c #564E63",
"7  c #5F536E",
"8  c #484977",
"9  c #544777",
"0  c #47567A",
"q  c #575971",
"w  c #5F5872",
"e  c #505C79",
"r  c #664577",
"t  c #71597B",
"y  c #5D616A",
"u  c #4D657F",
"i  c #6C6762",
"p  c #7B6266",
"a  c #7B696F",
"s  c #82743E",
"d  c #825D4D",
"f  c #855F53",
"g  c #8B634E",
"h  c #91674E",
"j  c #9B6D4F",
"k  c #867241",
"l  c #8C7442",
"z  c #937444",
"x  c #9A7546",
"c  c #9D7648",
"v  c #9E7848",
"b  c #8D6252",
"n  c #8D675C",
"m  c #976953",
"M  c #9A6B52",
"N  c #9C705C",
"B  c #A2764A",
"V  c #A8774B",
"C  c #A37849",
"Z  c #AC7A4C",
"A  c #B37C4F",
"S  c #A67251",
"D  c #AA7453",
"F  c #A3755D",
"G  c #A8775C",
"H  c #B07754",
"J  c #B67C51",
"K  c #B97E52",
"L  c #826564",
"P  c #8B6A64",
"I  c #80767D",
"U  c #76823D",
"Y  c #79833D",
"T  c #7D8B3F",
"R  c #778340",
"E  c #798640",
"W  c #7F8E44",
"Q  c #808F42",
"!  c #BE8153",
"~  c #C68556",
"^  c #395480",
"/  c #3D5985",
"(  c #3F5C8A",
")  c #534F8F",
"_  c #415485",
"`  c #415C85",
"'  c #4A5591",
"]  c #58559B",
"[  c #604588",
"{  c #704B80",
"}  c #6D4E9F",
"|  c #7A4495",
" . c #4E6485",
".. c #43628B",
"X. c #5C6B84",
"o. c #456995",
"O. c #49719D",
"+. c #5F55A3",
"@. c #6B59AF",
"#. c #7B57A3",
"$. c #6D59B0",
"%. c #7F5BBA",
"&. c #4F70A3",
"*. c #6176A1",
"=. c #8D4298",
"-. c #99569C",
";. c #AD4A8A",
":. c #A74999",
">. c #885ABB",
",. c #8F73B3",
"<. c #D35F8F",
"1. c #E16498",
"2. c #5180AA",
"3. c #5D84B4",
"4. c #568AB4",
"5. c #7086A0",
"6. c #6E92BC",
"7. c #6394C5",
"8. c #6796C9",
"9. c #7199C4",
"0. c #69A1CC",
"q. c #69A8CE",
"w. c #79A6C4",
"e. c #71A5DB",
"r. c #77B1D1",
"t. c #77AEE2",
"y. c #79ADE7",
"u. c #8F8C83",
"i. c #928C86",
"p. c #A59C97",
"a. c #BEB9AB",
"s. c #8A8ACF",
"d. c #8796DA",
"f. c #879CDE",
"g. c #91BED3",
"h. c #95B8DF",
"j. c #8CA7E0",
"k. c #86AEEC",
"l. c #8FBDED",
"z. c #87B4F1",
"x. c #85C5E9",
"c. c #81CEF0",
"v. c #86C2F9",
"b. c #9CE3F6",
"n. c #97E4FC",
"m. c #A6EEFF",
"M. c #B9F7FF",
/* pixels */
"W W W W W W W W W W W W W W W W W W W Q W W W W W W W W W W Q W W W W W W W W W ",
"W W Q W W Q Q W W W W W W W W W W W W W W W W W W Q W W W W W W Q W W Q Q W W Q ",
"Q W W W W W W W W W W W W W W W W W W W W W W W W W W W W W W Q W W W W W W Q W ",
"W W Q W W Q W W W W W W W W W W W W W W W W W W W W W W W W W W W W W W W W W W ",
"W W W W W W W W W T U R E W W W W E W E E W E E R R E W E R W W W W W W W W Q W ",
"W W Q W Q Q W E O o     X X X +   X X o o o o . o X o X X   X X U W W W Q W W W ",
"Q W W W W Q O k z C V C v c c c C C C V Z C C C C c C v C V C z k O Q W W W W W ",
"W W W W W E o z J K ~ ! ! K ! ! ! ! ! ~ ~ ! ~ ! ~ ! ! ! ! ~ K J z o W W Q W Q W ",
"W W W W W R o B ~ ~ ~ ~ ~ ~ ~ ~ ~ ~ ~ ~ ~ ~ ~ ~ ~ ~ ~ ~ ~ ~ ~ ~ V . Y W W W W W ",
"Q W W Q W O k V ~ ~ ~ ~ ~ ~ ~ ~ ~ ~ ~ ~ ~ ~ ~ ~ ~ ~ ~ ~ ~ ~ ~ ~ V s O W W W W Q ",
"W W W W W X l A ~ ~ ~ ~ ~ ~ ~ ~ ~ ~ ~ ~ ~ ~ ~ K P L F ~ ~ ~ ~ ~ A z O W W W W W ",
"W W Q W W O l Z ~ ~ ~ ~ ~ ~ ~ ~ ~ ~ ~ ~ ~ ~ ~ a w.g.5.G ~ ~ ~ ~ A l O E W W W W ",
"Q W W Q W R l ! ~ ~ ~ ~ ~ ~ ~ ~ ~ ~ ~ ~ ~ ~ p w.3.g.0 N ~ ~ ~ ~ J l U W W Q W W ",
"W W W W W R l A ~ ~ ~ ~ ~ ~ ~ ~ ~ ~ ~ ~ ~ ~ p 9.x.t.*.n H ~ ~ ~ Z l U W W W W Q ",
"W W W W W E k Z ~ ~ ~ ~ ~ ~ ~ ~ ~ ~ ~ ~ ~ ~ ~ ; 3.5 4 6 5 M ~ ~ Z k E W W W W W ",
"Q W W Q W O z H ~ ~ ~ ~ ~ ~ ~ ~ ~ ~ f 3 2 2 D g 5 b 3 ..` - ~ ~ J l U W W Q W W ",
"W Q W W W X s J ~ ~ ~ ~ ~ ~ ~ ~ M =  .O./ / : = M ~ H ; $ m ~ ~ A z X W W W W W ",
"W W W Q T + x A ~ ~ ~ ~ ~ ~ ~ M e &.4.4.2.O.o.* ; K ~ H H ~ ~ ~ A z O E W W W W ",
"W W W W W O s K ~ ~ ~ ~ ~ ~ N X.r.c.q.4.2.O.O./ ) < K ~ ~ ~ ~ ~ A z O W W W W W ",
"W Q W Q W X z ! ~ ~ ~ ~ ~ ! q b.M.m.n.0.O.O.o.* _ 9 2 ~ ~ ~ ~ ~ K x O W W W W W ",
"W Q W W W O z A ~ ~ ~ ~ ~ P 6.n.h.,.l.z.7.O.u : y i.= D ~ ~ ~ ~ A z U E W W W W ",
"W W W W T U z ! ~ ~ ~ ~ ~ r #.j.:.<.-.z.t.u u.a.a.I 5 m ~ ~ ~ ~ ! z U W W W W W ",
"W Q Q W W O z ! ~ ~ ~ ~ ~ 7 | f.;.1.:.k.e...y i I p.- m ~ ~ ~ ~ J l R W W W W W ",
"W W W W E O x ! ~ ~ ~ ~ ~ w y.v.s.=.d.e.o.^ * * e t { G ~ ~ ~ ~ K z X W W W W W ",
"W W W W W O z H ~ ~ ~ ~ ~ 7 *.y.e.e.8.( ^ ^ * ' $.} > K ~ ~ ~ ~ ! l X E W W W W ",
"W Q W W W O l H ~ ~ ~ ~ ~ d 8 8 ' &.^ * / ] ] @.>.r 2 J ~ ~ ~ ~ A l R W W W W W ",
"W Q W Q W U l A ~ ~ ~ ~ ~ j , # / / ) +.+.%.[ & % d h J ~ ~ ~ ~ Z k U W W W W W ",
"W W W W W O l H ~ ~ ~ ~ ~ ~ j > @ @ $ $ $ & 1 d f m D ~ ~ ~ ~ ~ A k O E W W W W ",
"W W W W E X l J ~ ~ ~ ~ ~ ~ ! M h b g g f g h h j S ~ ~ ~ ~ ~ ~ ! l X W W W W W ",
"W W W W W X z J ~ ~ ~ ~ ~ ~ ~ ~ K S S S S S S V ! ~ ~ ~ ~ ~ ~ ~ ! z X E W Q W W ",
"W W W W W + k Z ~ ~ ~ ~ ~ ~ ~ ~ ~ ~ ~ ~ ~ ~ ~ ~ ~ ~ ~ ~ ~ ~ ~ ~ H l E W W Q W Q ",
"W W W W W T o x K K ~ ~ ~ ~ K ~ ~ ~ ~ ~ ~ ~ ~ ~ ~ ~ ~ ~ ~ ~ ~ ! j . E W W W W W ",
"Q W W Q W W E k l j c C C B c c S v v D Z C C V C v C C B B z l o + W W W W W W ",
"W W W W W Q W R X X o o o o o o .   o k k k o o k o o o o . o X U W W W Q W W Q ",
"W W W W W W Q Q W E E U E Y W W R R W W W T Y U U R E E R R W W Q Q W W W W W W ",
"Q W W Q Q W W W W W W W W W W W W W W W W W W W W W W W W W W W W W W W W Q W W ",
"W W Q W W W W W W W W W W W W W Q W W Q W W Q W W W W W W W W Q W W W W Q W W Q ",
"W W W W Q W Q W W W W W W W W W W W W W Q W W W W W W W W W W W W Q W W W W W W ",
"Q W W W W W Q W W W W W W W W W W W W W W W W W W W W W W W W W W W W Q W W W W ",
"W W Q W W W W W W W W W W W W W Q W W Q W W Q W W W W W Q W W Q W Q W W Q W W Q "
};
