/* XPM */
static char *xpm_[] = {
/* columns rows colors chars-per-pixel */
"40 40 142 2 ",
"   c #776C3C",
".  c #7B6F3E",
"X  c #74743B",
"o  c #7C733D",
"O  c #757C3C",
"+  c #7A7C3C",
"@  c #3D334E",
"#  c #523F4C",
"$  c #453B5B",
"%  c #4B3C5C",
"&  c #413765",
"*  c #513B6B",
"=  c #3D426C",
"-  c #5A444F",
";  c #4C465D",
":  c #574252",
">  c #5A4556",
",  c #5F525F",
"<  c #654D4B",
"1  c #624759",
"2  c #6B5457",
"3  c #765551",
"4  c #7E5B53",
"5  c #514D64",
"6  c #4C5263",
"7  c #41526E",
"8  c #5B5C77",
"9  c #695E63",
"0  c #796166",
"q  c #71646E",
"w  c #676C70",
"e  c #766671",
"r  c #82743E",
"t  c #815D4D",
"y  c #845F55",
"u  c #8A634E",
"i  c #976A4F",
"p  c #867241",
"a  c #8C7442",
"s  c #937444",
"d  c #9A7546",
"f  c #9D7648",
"g  c #9E7848",
"h  c #926552",
"j  c #9C6D51",
"k  c #996D5A",
"l  c #91745A",
"z  c #9A705F",
"x  c #A2764A",
"c  c #A8774B",
"v  c #A37849",
"b  c #AC7A4C",
"n  c #B37C4F",
"m  c #A57251",
"M  c #AB7553",
"N  c #AC795C",
"B  c #B67C51",
"V  c #B97E53",
"C  c #B57D59",
"Z  c #8F6B62",
"A  c #916C61",
"S  c #937C67",
"D  c #76823D",
"F  c #79833D",
"G  c #7D8B3F",
"H  c #778340",
"J  c #798640",
"K  c #7F8E44",
"L  c #808F42",
"P  c #BE8153",
"I  c #BC8058",
"U  c #86837C",
"Y  c #8E897D",
"T  c #C68556",
"R  c #603C83",
"E  c #3A5481",
"W  c #594882",
"Q  c #44558A",
"!  c #505591",
"~  c #56569C",
"^  c #5C539D",
"/  c #6C4888",
"(  c #45628B",
")  c #546980",
"_  c #436792",
"`  c #466A96",
"'  c #4B7097",
"]  c #4A729E",
"[  c #6F6D86",
"{  c #6D7380",
"}  c #5D56A2",
"|  c #6458A9",
" . c #7753A9",
".. c #7459B3",
"X. c #4D73A2",
"o. c #4F7BA4",
"O. c #5C7EB5",
"+. c #B84598",
"@. c #8F5BA3",
"#. c #9259A5",
"$. c #865FB0",
"%. c #8E7ABC",
"&. c #C25E8D",
"*. c #D55897",
"=. c #D2648F",
"-. c #5382AE",
";. c #5B85A8",
":. c #5B82B6",
">. c #558AB4",
",. c #5B94BE",
"<. c #6184B4",
"1. c #6A95BD",
"2. c #709EBD",
"3. c #658FC5",
"4. c #6099C0",
"5. c #6D9BC4",
"6. c #6994C8",
"7. c #779EDE",
"8. c #71A1DA",
"9. c #7DB6D3",
"0. c #77AEE4",
"q. c #7BB3E2",
"w. c #7BB4EA",
"e. c #7CC6E9",
"r. c #AEA99B",
"t. c #CDC9BB",
"y. c #8783CB",
"u. c #8788CF",
"i. c #879CDF",
"p. c #899DDC",
"a. c #81B9D5",
"s. c #88B9F5",
"d. c #85C1DA",
"f. c #8ACDE4",
"g. c #94D7EE",
"h. c #86C2FC",
"j. c #8AC7FD",
"k. c #8FD7F3",
"l. c #97D9F7",
"z. c #9AE9FF",
"x. c #A8E3EF",
"c. c #ABF1FF",
/* pixels */
"K K K K K K K K K K L K K L L K K L K K K K K K K K K K K K K K K K K K K K K K ",
"K K L K K L L K K K K K K K K K K K K K K K K K K K K K K K K K K K L K K L K L ",
"L K K K K K K K K L L L K K K K K K L K K K K K K K K K K K K K K K K K K L K K ",
"K K L K K L K K L K J K K K L K K K K K K K K K K K K K K K K K K K K K K K K K ",
"K K K K K K K K G G F J G K J K J J J J K K G F J J J G J H K K K K K K K K L K ",
"K K L K L L K J X X   X X X O O   . O o o o o     X X X X   X X F K K K L K K K ",
"L K K K K L O p d v c v g g f g m g g b b v v v c x g v x v v s p O L K K K K K ",
"K K K K K J o s B V T V B q 8 q I I I T T V T T T P P V T T P B s o K K K K K K ",
"K K K K K D . x T T T I Z q.k.d.Z I T T T T T T T T T T T T T T x r + K K K K K ",
"L K K L K O p b T T T A 5.a.x.d.8.A T T T T T T T T T T T T T T c p O K K K K K ",
"K K K K K O a B T T T A 3.1.f.2.5.Z T T T T T T T T T T T T T T n s O J K K K K ",
"K K L K J O a n T T T C [ 0.1.q.[ N T T T T T T T T T T T T T T n a O K K K K K ",
"L K K L K H a n T T T T N w ! 6.0 T T T T T T T T T T T T T T T n a D K K K K K ",
"K K K K K H a b T T I y 4 C N e I T T T T T T T T T T T T T T T b a D K K L K K ",
"K K K K K J p b T T C 5 5 N T T T T T T T T T T V P T T T T T T b p J K K L K L ",
"L K K L K O s C T T T M m T T C m T T T T T h t V T T T T T T T B a H K K K K K ",
"K L K K G X s n T T T T T T V S r.< - - - - = ( 2 P T T T T T T n s X K K K L K ",
"K K K L J O s n T T T T T T l t.r.6 E ( ` o.-.( ; P T T T T T T n s O J K K K K ",
"K K K K K O s n T T T T T T j 9 U Y ) ] >.>.,.,.] , P T T T T T n s O K K K K K ",
"K L K K K O d B T T T T T V % } = U w ' -.4.e.k.9.;.3 P T T T T B d + J K K K K ",
"K L K K K O d n T T T T T y / } ( = _ ] -.e.z.c.c.g.{ M T T T T B s D K K K K K ",
"K K K K K D s n T T T T T # ^ Q E 7 _ o.w.j.%.@.g.l.<.k T T T T B s F K K K L K ",
"K L L K K X s V T T T T T # ^ Q E E ] -.h.u.&.*.#.p.R S T T T T B s O K L K L K ",
"K K K K K O s T T T T T T # ^ Q E E E o.w.u.+.=.#.i.W N T T T T C s X K K K K K ",
"K K K K K O s C T T T T T 1 ..| Q E E E X.0.y.$.s.s.O.z T T T T B a O J K K K K ",
"K L K L K O p n T T T T T t / $.| } ~ E E ` :.8.3.7.! k T T T T B a O K K K L K ",
"K L K K K O a C T T T T T j 3 * &  ...} } ^ Q :.= = > M T T T T b a O K K K L K ",
"K K K K K O a b T T T T T I j t t > % $ $ $ @ $ @ : m T T T T T b a O K K K K K ",
"K K K K J X a B T T T T T T P j i u u u u u u u i m T T T T T T B s X J K K L K ",
"L K K K K X s B T T T T T T T T V m m m m m m m P T T T T T T T B a O K L K K K ",
"K K K K K F a b T T T T T T T T T T T T T T T T T T T T T T T T n a H K K K K K ",
"K K K K K F o d V P T P T T T P T T T T T T T T T T T P T T T P j o J K L K L K ",
"L K K L K K + p a j f x x x f g m g m b b v v c c f x x x v s a o + K K K K L K ",
"K K K K K L K H O X o o o o + o . . o p a + r . p o o o . . o O D K K K K K K K ",
"K K K K K K L L K J H H F G J K H H J K J K H D D H H J H H K L L K K K K L L K ",
"L K K L L K K K K K K K K K K K K K K K K K K K K K K K K K K K K K K K K K K K ",
"K K L K K K K K L K K L K K K K K K L K K L K K K K K K K K K K K K L K K K K K ",
"K K K K L K K L K K K K K K K K K K K K K K K L K K K K K L K L K K K K L K L K ",
"L K K K K L K K K K K K K K K K K L L K K K K K K K K K K L K K L K K K K K L K ",
"K K L K K K K K L K K K K K K K K K K K K L K K K K K K K K K K K K L K K K K K "
};
