/* XPM */
static char *xpm_[] = {
/* columns rows colors chars-per-pixel */
"40 40 135 2 ",
"   c #776C3C",
".  c #7B6F3E",
"X  c #74743B",
"o  c #7C733D",
"O  c #757C3C",
"+  c #7A7C3C",
"@  c #3D3F6F",
"#  c #45395B",
"$  c #493A5A",
"%  c #483A6C",
"&  c #3F4463",
"*  c #3A4B73",
"=  c #3A537D",
"-  c #5A444F",
";  c #4A455E",
":  c #5A4E5D",
">  c #7A584E",
",  c #6D4F56",
"<  c #624759",
"1  c #775550",
"2  c #7F5A51",
"3  c #715859",
"4  c #6D625B",
"5  c #424967",
"6  c #4A4F6C",
"7  c #564361",
"8  c #514C61",
"9  c #535066",
"0  c #5B5E65",
"q  c #565D75",
"w  c #785E61",
"e  c #61437C",
"r  c #7A6165",
"t  c #64617B",
"y  c #716371",
"u  c #82743E",
"i  c #825D4E",
"p  c #86624D",
"a  c #8A634E",
"s  c #976A4F",
"d  c #9B6C4F",
"f  c #867241",
"g  c #8C7442",
"h  c #937444",
"j  c #9A7546",
"k  c #9D7648",
"l  c #9E7848",
"z  c #846056",
"x  c #966A52",
"c  c #9B6C52",
"v  c #81705E",
"b  c #9B7253",
"n  c #97795F",
"m  c #A2764A",
"M  c #A8774B",
"N  c #A37849",
"B  c #AC7A4C",
"V  c #B37C4F",
"C  c #A36F53",
"Z  c #A67251",
"A  c #AA7453",
"S  c #AD7A53",
"D  c #AD795B",
"F  c #B67C51",
"G  c #BA7E53",
"H  c #B37C5A",
"J  c #946E60",
"K  c #837362",
"L  c #8F7F6C",
"P  c #917760",
"I  c #977B63",
"U  c #76823D",
"Y  c #79833D",
"T  c #7D8B3F",
"R  c #778340",
"E  c #798640",
"W  c #7F8E44",
"Q  c #808F42",
"!  c #BE8153",
"~  c #BB8058",
"^  c #9D8771",
"/  c #C68556",
"(  c #3A5581",
")  c #3C5985",
"_  c #5C468B",
"`  c #415C85",
"'  c #44558B",
"]  c #524F91",
"[  c #55569B",
"{  c #5C549E",
"}  c #61578E",
"|  c #43628B",
" . c #436691",
".. c #456A95",
"X. c #476D99",
"o. c #49719D",
"O. c #55729B",
"+. c #68728B",
"@. c #717F95",
"#. c #6558AA",
"$. c #6B58AA",
"%. c #7951A4",
"&. c #7555AD",
"*. c #7C5DB8",
"=. c #4C77A3",
"-. c #4F7DA8",
";. c #5473A4",
":. c #507DA6",
">. c #507EA9",
",. c #5382AC",
"<. c #558AB4",
"1. c #5B94BE",
"2. c #6487A9",
"3. c #668DA9",
"4. c #6B88B5",
"5. c #698EBC",
"6. c #5C97C0",
"7. c #6D97C6",
"8. c #609DC7",
"9. c #64A5CE",
"0. c #70A2C5",
"q. c #73A5D9",
"w. c #6DB5DE",
"e. c #71BDE6",
"r. c #988F85",
"t. c #A29584",
"y. c #A29C8F",
"u. c #A9A090",
"i. c #AEA99A",
"p. c #C5C1B3",
"a. c #83BFE1",
"s. c #8EC6DA",
"d. c #8ED3EC",
"f. c #AAF0FF",
"g. c #D7D4C7",
/* pixels */
"W W W W W W W W W W W W W W W W W W W W W W W W W W W W W W W W W W W W W W W W ",
"W W Q W W Q Q W W W W W Q W W Q Q W W Q W W W W W W W W W W W W Q W W Q Q W Q W ",
"Q W W W W W W W W W Q Q W W W W W W W W W W W W W W W W W W Q W W W W W W W Q W ",
"W W Q W W Q W W W W W W W W W W W W W W W W W W W W W W W W W W W Q W W W W W W ",
"Q Q Q Q W W W W T T U Y W W E W E E Y T T T T E E E Y W E R W W W W W W W W Q W ",
"Q Q Q Q Q Q W E X o   X X X X + O > X X o + o   o X X X X   X X U W W W Q W W W ",
"Q Q Q Q Q Q 4 + h N M m k j k m N N N ~ M N N N M k N k m N m h f O Q W W W W W ",
"Q Q Q Q Q Q u u V G / / G G G ! ! ! ! / / ! ! / / G ! G / / ! F h o W W W W W W ",
"Q W Q W W U o M / / / / / H D H / / / / / / / / / / / / / / / / M o Y W W W W W ",
"W W W W W O f B / / / / D +.O.+.D / / / / / / / / / / / / / / / M f O W W W W W ",
"W Q W Q W X g V / / / D @.d.f.d.@.D / / / / / / / / / / / / / / V h X T W W W W ",
"W W W W Q + u B / / / J 0.3.s.2.7.J / / / / / / / / / / / / / / V g O W W W W W ",
"W W W W W 4 g ! / / / J 5.a.d.a.7.J / / / / / / / / / / / / / / B u U T W W Q W ",
"W Q W Q Q T g B / / ! D y q.;.7.r ~ / / / / / / ! ! / / / / / / ~ g Y W Q W W W ",
"W Q W W T Y u N / G z : w 4.t w / / / / / / / / / ! G G / / / / B f E W W W W W ",
"W W W W W U h ! / / 3 9 A J G / / / / / / C 1 F / F ^ I / / / / F g R W W W W W ",
"W W W W W X h V / / G D / / / / c $ - - - ; ` : G M y.g.P ! / / V h X W W W W W ",
"W W Q W W + u V / / / / / / / c 6  ...O.:.,.o.5 c L t.K D / / / V h X E W W W W ",
"Q W Q W T O u ! / / / / / / s 5 X.o.,.<.6.e.9.,.q r.b G / / / / V h + W W W W W ",
"W W W W E + j ! / / G B / ! ; ) o.o.:.<.<.8.w.1.>.8 A / / / / / G h + T W W W W ",
"W W W W T O j B / / n ^ a a ; = ..X.o.>.<.<.<.<.-.` 1 / / / / / B h Y W Q W W W ",
"Q W W Q W U h ! / / n u.p.i.0 = ) ..o.o.=.=.=.=.o.X.6 C / / / / ! g Y W W W W W ",
"W W W W W X h V / G P u.v 4 } = = )  .X.o.o.o.o.o.o.* x / / / / V h O W W W W W ",
"W W Q W W X j G / / S b / $ { ' ( ( ( ) ..o.o.o... .& c / / / / ~ h X W Q W W W ",
"Q W Q W W U u ! / / / / / < &.#.' ( ( ( )  . .| ( ) @ x / / / / F h O E W W W W ",
"W W W W W 4 u ! / / / / / i e _ *.{ ) ( ( ( ( = [ ] 7 Z / / / / V g U W W W W W ",
"Q W W W W U u ! / / / / / C > , % %.$.{ { { { { % % p F / / / / B g U W W W W W ",
"W W Q W W + u V / / / / / ! d a i < $ # # # $ $ 1 p M / / / / / V g X W W W W W ",
"W W W W Y X h V / / / / / / G C x a a a a i a a d Z / / / / / / V h X E W W W W ",
"W Q W W W X h V / / / / / / / / G C Z C Z Z A A / / / / / / / / V g X W W Q W W ",
"W Q W Q Q Y g B / / / / / / / / / / / / / / / / / / / / / / / / ~ + E W W Q W Q ",
"W W W W W Y o j F G / / / / ! / / / / / / ! / / / / / / ! / / / k 2 W W W W W W ",
"W W W W W W 4 u h j m m m m j l N N m B B N m N M m m m N N h h u Y T T W W W W ",
"W Q Q W W Q Q T O X . X o o o + u 4 o u u u u f u o o o + > X X U T Q W Q W W Q ",
"W W W W W Q Q Q T T U T Y T W W R R E W Q Y E O U U E E R R W W Q Q W Q W W W W ",
"W Q W W W W W W W W W W W W E W W W W W Q Q Q W W W W W W W W Q W W W W W Q W W ",
"W Q W W Q W Q W W W Q W W W W W W W W W Q W W Q W W W W W W W W W W W W Q W W Q ",
"W W W W W W W W Q W W W W W W W W Q Q W W W W W W W Q W W Q W W W Q W W W W W W ",
"W W W Q W W W W W W W W W W W W W W W W W W W W W W W W W W W Q W Q W Q W W W W ",
"W Q W W Q W Q W W W Q W W Q W W W W Q W W Q W Q W W W W W Q W W W W W W Q W W Q "
};
