/* XPM */
static char *xpm_[] = {
/* columns rows colors chars-per-pixel */
"40 40 125 2 ",
"   c #050000",
".  c #0C0200",
"X  c #130300",
"o  c #1B0500",
"O  c #1E0902",
"+  c #230600",
"@  c #2B0700",
"#  c #230901",
"$  c #2C0A01",
"%  c #330B02",
"&  c #3B0D02",
"*  c #361104",
"=  c #3B1204",
"-  c #420F02",
";  c #441204",
":  c #4B1404",
">  c #4E1806",
",  c #491809",
"<  c #531504",
"1  c #5A1704",
"2  c #551906",
"3  c #5B1905",
"4  c #541B08",
"5  c #5B1D08",
"6  c #641B06",
"7  c #6B1E06",
"8  c #661E09",
"9  c #711E06",
"0  c #711F08",
"q  c #5C200C",
"w  c #6D2007",
"e  c #66220A",
"r  c #6D230A",
"t  c #6C290E",
"y  c #752107",
"u  c #7C2207",
"i  c #732309",
"p  c #7C2509",
"a  c #75280D",
"s  c #7D290C",
"d  c #763622",
"f  c #822407",
"g  c #822508",
"h  c #802709",
"j  c #852508",
"k  c #842608",
"l  c #852608",
"z  c #892608",
"x  c #882708",
"c  c #8A2708",
"v  c #8A2709",
"b  c #86280A",
"n  c #87290A",
"m  c #862A0C",
"M  c #872B0C",
"N  c #832C0C",
"B  c #8D2809",
"V  c #8C2A0A",
"C  c #8D2B0A",
"Z  c #8D2D0B",
"A  c #902909",
"S  c #912A09",
"D  c #932A09",
"F  c #922C0B",
"G  c #952C0A",
"H  c #972D0B",
"J  c #992D0A",
"K  c #9A2D0A",
"L  c #9E2F0B",
"P  c #85310F",
"I  c #8C310E",
"U  c #94310E",
"Y  c #95320E",
"T  c #99300D",
"R  c #9F310C",
"E  c #9C320D",
"W  c #863411",
"Q  c #943510",
"!  c #9B3410",
"~  c #9F3811",
"^  c #A2320C",
"/  c #A3340D",
"(  c #A3350F",
")  c #A8340D",
"_  c #AA340D",
"`  c #AE390F",
"'  c #A13510",
"]  c #A63710",
"[  c #A33811",
"{  c #A53911",
"}  c #AC3A10",
"|  c #AC3C13",
" . c #AE3D12",
".. c #B23A11",
"X. c #B53B10",
"o. c #B13C12",
"O. c #B43C11",
"+. c #B83D11",
"@. c #B93F12",
"#. c #BB3E12",
"$. c #AD4216",
"%. c #AF4418",
"&. c #B24314",
"*. c #BD4113",
"=. c #BB4315",
"-. c #B44A1A",
";. c #BF4918",
":. c #C44313",
">. c #C54314",
",. c #CC4715",
"<. c #C14816",
"1. c #CB4916",
"2. c #CA4D18",
"3. c #D04916",
"4. c #D14916",
"5. c #D34916",
"6. c #D44D18",
"7. c #DA4E18",
"8. c #CE5019",
"9. c #D55019",
"0. c #DB5119",
"q. c #E15019",
"w. c #CB6139",
"e. c #DC886A",
"r. c #E48D6B",
/* pixels */
", X $ g ^ 4.H v v - o  .:.< @ @ #   % n 1 1 B B B s { # $ & H F S p % X $ K X   ",
"# X   + e +.; $ ; f ; g ; 7 1 @ X X ; +.J 0 ; - & + u % O X 0 p & $ o X + H @ @ ",
"$ % o   8 8   . X 7 H 0 . # u k 1 B ..! O + @ @ X . i 5 . X % <.i @ o . - S % + ",
"# @ +   k < . @ @ < $.a     & k 9 & ; n : : - . . $ H E ; - 9 M M 1 X & { L v 6 ",
". . . . p <   O @ % N Z s p g - . . @ F E B B g s k 4 = k S 6 @ @ k 6 f : * & 3 ",
"< ; g J 4.g % X X O o 1 X.6 % . X . 1 0 + o @ 1 O.< X X @ $ - < f +._ &   .   X ",
"o.Z ; < *.n g u = & & i ( o X o @ @ S O . @ @ o ' k 3 % = 9 v v < - G $ X @ + . ",
"r X . ; x O $ ;  .*.k { / 6 + # o u 1   # % @ % C < 6 J ..1 + o @ + 7 r o @ % o ",
"g #   * :.E 3 $ r E O O % u 6 ; 0 >.>   . X % k 3 X X 1 ^ @ . @ @ o & f - o o . ",
"0 < $ e ~ r f < & f # $ @ @ 0 >.6 i 7 O   $ k 0 % + o L #.6   + % @ @ - v @ X % ",
"O M -.8 X . & ( Z p 6 O X ; 9 k + o > { a u & o X . > 0 ; u $ X @ @ + + j : : G ",
". I N X o X X p E w p 6 v u 9 $ @ X X K  .- + @ . O g ; X 1 5 . + @ X o j X.0 % ",
"s 2.> . + . . u 6 X . H 1 + o @ @ X o S > + @ o   $ G # X : g o . X . + r +.#   ",
"U U 7 .     # B - + . W E # . + o . 2 } k $ . . ; Z $.# X @ k 1 . . o - M 8 . @ ",
"q O y 6 @ $ i } % X   % +.u % . X 1 9 $ < B ! H k  .-.# . + - B $ & k S 7.1 @ @ ",
"% . , *.J S ~ ] S ; o - G < S 8 } } = X o 8 2.1 # ; { -   + < k ^ ,.8 % > S $ # ",
"% . = B @ o .   @ v < i 1 X + 7 +.N u ; o : v   o & =.u X % B < o } : . o &.E 8 ",
"o . = 0.8 + @ . X 0 ^ < X . X ; k % : k B ) +.@ X % J 0 7 u < X . B < + : Z 8 < ",
"O 5 p , 7 1 @   $ :.;.; . o @ 1 k O . @ : 7 >.: o > f $ y ..# o @ g ; - v % X . ",
"= k X   o J # X 1 B N ^ & . o % S - X O X X < 0 < p % X < r X % Z H % : g o X X ",
"( I $ X * :.N n B 3 . ; u & @ y 6 u & o o . o s J $ . & S o $ p Q F n } < o @ @ ",
"| U % X p p H 8 $ 7 2 = W &.6 E X % B 7 X @ u ! ; . . & B : u : X o s 7.L B < % ",
"+ 1 F Z 3 X < 7 % $ y 1.2.Q H =.;   o 8 7 9 6 ; g +   % E 8.< . .   1 g X - S a ",
"X # 2.Q X . @ 6 y o % B =   . y i X O = 2.7 o X J % 6 g 4 t 5 + @ . 5 p . X $ w.",
"X 1 g s X X $ @ ] ^ v % X # + a o.- B ^ } < X + o.o.y - @ 6 u @ % X = f @ $ 5 e.",
": r # 7 3 X + . S - X X @ + 3 _ 9.Z & @ > k u ' 6.i X X < 7 H ; o . + H 2 7 E r.",
"t $ # + k ;   . G %   $ O 2 9 & ( ;   . . X 1 E u X . % x O < f . X 6 ~ B 6 # d ",
"r # $ % X.U $ < &.$ . o < 9 % O B < + @ @ . X k i % o $ S + O u 6 7 3 # $ $ $ n ",
"> w o 6 p < H B g s y 9 7 @ X + E L 7 @ @ @ ; U E S u ; u E = r 6.H 6 # # $ i > ",
"X p = n = o n ( % r k 8 @ X X 1 e O 6 8 o ; S O   X 1 L ` &.x :.] > 0 k i ] I + ",
"  k 1 I r + ; H @ $ B % + X % S + + + 6 S ..I . o   ; p % @ & 6.' 6 O O o = B & ",
". n Z E ! $ 1 u + $ G $ .   X 7 7 X + % - >.S o @ O 8 6 X + & ^ % 9 1 O + # 8 { ",
"; } 2.6 v 4 k &   $ H # O X . & f O $ @ X k G % O % f $ . @ > B o . 7 8 : g g s ",
"u : L % < X.6 $ # e %.$ . . . : u O X . o S < u v ' { # X @ A < X   X 9 ..< # X ",
"& @ v : o 4 ,.L J U p r + . ; ` U #   X 9 ; . O p =.{ - + @ B & .     = ,.4 @ . ",
"X + 7 y   ; ..@ X X . 1 g 1 7 = f x , 5 y O O ; u + % p ; 6 k #   X . O ' 8 + O ",
"< p 4.s X ; v o + .   5 q.P O X . ; >.9.S p < p 1 . O ; f L 7.& X @ O X { ,.> o ",
"8 $ > u 6 H : @ @ . e s : # + @ % w ( < ; = Z 0.s X O X o : E < @ 1 2 5 B 5 i < ",
"O o @ % ! 1.% + # < 8.N % & 6 B B < O + $ * a ~ g 5 o     o - +.f v 2.' $ $ % B ",
"O X # o + v 0 0 g i N ..v S e 7 i X o & i n 6 . . 2 y % O & v x ; X p : X o X 5 "
};
